ISO-10303-21;
HEADER;
/* Generated by software containing ST-Developer
 * from STEP Tools, Inc. (www.steptools.com) 
 */
/* OPTION: using custom renumber hook */

FILE_DESCRIPTION(
/* description */ ('STEP AP242 Edition 2',
'CAx-IF Rec.Pracs.---Representation and Presentation of Product Manufa
cturing Information (PMI)---4.0---2014-10-13',
'CAx-IF Rec.Pracs.---3D Tessellated Geometry---0.4---2014-09-14','2;1',
'CAx-IF Rec.Pracs.---User Defined Attributes---1.5---2016-08-15'),
/* implementation_level */ '2;1');

FILE_NAME(
/* name */ 'Arm V1',
/* time_stamp */ '2026-09-01T05:44:35Z',
/* author */ (''),
/* organization */ (''),
/* preprocessor_version */ 'ST-DEVELOPER v20',
/* originating_system */ 'ONSHAPE BY PTC INC, 1.220',
/* authorisation */ '  ');

FILE_SCHEMA (('AP242_MANAGED_MODEL_BASED_3D_ENGINEERING_MIM_LF { 1 0 10303 442 3 1 4 }'));
ENDSEC;

DATA;
#10=SHAPE_REPRESENTATION_RELATIONSHIP('','',#492,#11);
#11=ADVANCED_BREP_SHAPE_REPRESENTATION('',(#490),#828);
#12=LINE('',#740,#37);
#13=LINE('',#743,#38);
#14=LINE('',#745,#39);
#15=LINE('',#749,#40);
#16=LINE('',#751,#41);
#17=LINE('',#753,#42);
#18=LINE('',#755,#43);
#19=LINE('',#758,#44);
#20=LINE('',#759,#45);
#21=LINE('',#761,#46);
#22=LINE('',#763,#47);
#23=LINE('',#765,#48);
#24=LINE('',#767,#49);
#25=LINE('',#769,#50);
#26=LINE('',#773,#51);
#27=LINE('',#775,#52);
#28=LINE('',#777,#53);
#29=LINE('',#780,#54);
#30=LINE('',#782,#55);
#31=LINE('',#783,#56);
#32=LINE('',#785,#57);
#33=LINE('',#786,#58);
#34=LINE('',#793,#59);
#35=LINE('',#795,#60);
#36=LINE('',#797,#61);
#37=VECTOR('',#603,1.);
#38=VECTOR('',#604,1.);
#39=VECTOR('',#605,1.);
#40=VECTOR('',#608,1.);
#41=VECTOR('',#609,1.);
#42=VECTOR('',#610,1.);
#43=VECTOR('',#613,1.);
#44=VECTOR('',#614,1.);
#45=VECTOR('',#615,1.);
#46=VECTOR('',#616,1.);
#47=VECTOR('',#617,1.);
#48=VECTOR('',#620,1.);
#49=VECTOR('',#621,1.);
#50=VECTOR('',#624,1.);
#51=VECTOR('',#629,1.);
#52=VECTOR('',#630,1.);
#53=VECTOR('',#633,1.);
#54=VECTOR('',#634,1.);
#55=VECTOR('',#635,1.);
#56=VECTOR('',#636,1.);
#57=VECTOR('',#639,1.);
#58=VECTOR('',#640,1.);
#59=VECTOR('',#649,1.);
#60=VECTOR('',#650,1.);
#61=VECTOR('',#653,1.);
#62=PLANE('',#512);
#63=PLANE('',#519);
#64=PLANE('',#520);
#65=PLANE('',#523);
#66=PLANE('',#524);
#67=PLANE('',#525);
#68=PLANE('',#526);
#69=PLANE('',#529);
#70=PLANE('',#530);
#71=PLANE('',#531);
#72=PLANE('',#534);
#73=PLANE('',#537);
#74=PLANE('',#540);
#75=PLANE('',#543);
#76=PLANE('',#546);
#77=PLANE('',#549);
#78=PLANE('',#552);
#79=ORIENTED_EDGE('',*,*,#185,.T.);
#80=ORIENTED_EDGE('',*,*,#186,.F.);
#81=ORIENTED_EDGE('',*,*,#187,.T.);
#82=ORIENTED_EDGE('',*,*,#188,.F.);
#83=ORIENTED_EDGE('',*,*,#189,.T.);
#84=ORIENTED_EDGE('',*,*,#190,.F.);
#85=ORIENTED_EDGE('',*,*,#191,.T.);
#86=ORIENTED_EDGE('',*,*,#192,.F.);
#87=ORIENTED_EDGE('',*,*,#193,.T.);
#88=ORIENTED_EDGE('',*,*,#194,.T.);
#89=ORIENTED_EDGE('',*,*,#195,.T.);
#90=ORIENTED_EDGE('',*,*,#196,.T.);
#91=ORIENTED_EDGE('',*,*,#197,.F.);
#92=ORIENTED_EDGE('',*,*,#198,.F.);
#93=ORIENTED_EDGE('',*,*,#199,.F.);
#94=ORIENTED_EDGE('',*,*,#200,.F.);
#95=ORIENTED_EDGE('',*,*,#201,.F.);
#96=ORIENTED_EDGE('',*,*,#202,.F.);
#97=ORIENTED_EDGE('',*,*,#203,.T.);
#98=ORIENTED_EDGE('',*,*,#204,.T.);
#99=ORIENTED_EDGE('',*,*,#205,.F.);
#100=ORIENTED_EDGE('',*,*,#206,.F.);
#101=ORIENTED_EDGE('',*,*,#207,.F.);
#102=ORIENTED_EDGE('',*,*,#208,.T.);
#103=ORIENTED_EDGE('',*,*,#209,.T.);
#104=ORIENTED_EDGE('',*,*,#210,.T.);
#105=ORIENTED_EDGE('',*,*,#207,.T.);
#106=ORIENTED_EDGE('',*,*,#211,.F.);
#107=ORIENTED_EDGE('',*,*,#212,.F.);
#108=ORIENTED_EDGE('',*,*,#213,.T.);
#109=ORIENTED_EDGE('',*,*,#206,.T.);
#110=ORIENTED_EDGE('',*,*,#214,.F.);
#111=ORIENTED_EDGE('',*,*,#215,.F.);
#112=ORIENTED_EDGE('',*,*,#211,.T.);
#113=ORIENTED_EDGE('',*,*,#205,.T.);
#114=ORIENTED_EDGE('',*,*,#216,.F.);
#115=ORIENTED_EDGE('',*,*,#217,.F.);
#116=ORIENTED_EDGE('',*,*,#214,.T.);
#117=ORIENTED_EDGE('',*,*,#204,.F.);
#118=ORIENTED_EDGE('',*,*,#218,.F.);
#119=ORIENTED_EDGE('',*,*,#219,.T.);
#120=ORIENTED_EDGE('',*,*,#216,.T.);
#121=ORIENTED_EDGE('',*,*,#220,.F.);
#122=ORIENTED_EDGE('',*,*,#221,.F.);
#123=ORIENTED_EDGE('',*,*,#222,.T.);
#124=ORIENTED_EDGE('',*,*,#218,.T.);
#125=ORIENTED_EDGE('',*,*,#203,.F.);
#126=ORIENTED_EDGE('',*,*,#223,.F.);
#127=ORIENTED_EDGE('',*,*,#221,.T.);
#128=ORIENTED_EDGE('',*,*,#224,.T.);
#129=ORIENTED_EDGE('',*,*,#213,.F.);
#130=ORIENTED_EDGE('',*,*,#225,.F.);
#131=ORIENTED_EDGE('',*,*,#226,.F.);
#132=ORIENTED_EDGE('',*,*,#227,.F.);
#133=ORIENTED_EDGE('',*,*,#191,.F.);
#134=ORIENTED_EDGE('',*,*,#189,.F.);
#135=ORIENTED_EDGE('',*,*,#187,.F.);
#136=ORIENTED_EDGE('',*,*,#185,.F.);
#137=ORIENTED_EDGE('',*,*,#212,.T.);
#138=ORIENTED_EDGE('',*,*,#215,.T.);
#139=ORIENTED_EDGE('',*,*,#217,.T.);
#140=ORIENTED_EDGE('',*,*,#219,.F.);
#141=ORIENTED_EDGE('',*,*,#222,.F.);
#142=ORIENTED_EDGE('',*,*,#225,.T.);
#143=ORIENTED_EDGE('',*,*,#202,.T.);
#144=ORIENTED_EDGE('',*,*,#228,.F.);
#145=ORIENTED_EDGE('',*,*,#229,.F.);
#146=ORIENTED_EDGE('',*,*,#223,.T.);
#147=ORIENTED_EDGE('',*,*,#208,.F.);
#148=ORIENTED_EDGE('',*,*,#210,.F.);
#149=ORIENTED_EDGE('',*,*,#230,.T.);
#150=ORIENTED_EDGE('',*,*,#228,.T.);
#151=ORIENTED_EDGE('',*,*,#195,.F.);
#152=ORIENTED_EDGE('',*,*,#193,.F.);
#153=ORIENTED_EDGE('',*,*,#220,.T.);
#154=ORIENTED_EDGE('',*,*,#229,.T.);
#155=ORIENTED_EDGE('',*,*,#230,.F.);
#156=ORIENTED_EDGE('',*,*,#209,.F.);
#157=ORIENTED_EDGE('',*,*,#224,.F.);
#158=ORIENTED_EDGE('',*,*,#231,.F.);
#159=ORIENTED_EDGE('',*,*,#201,.T.);
#160=ORIENTED_EDGE('',*,*,#231,.T.);
#161=ORIENTED_EDGE('',*,*,#226,.T.);
#162=ORIENTED_EDGE('',*,*,#232,.F.);
#163=ORIENTED_EDGE('',*,*,#196,.F.);
#164=ORIENTED_EDGE('',*,*,#232,.T.);
#165=ORIENTED_EDGE('',*,*,#227,.T.);
#166=ORIENTED_EDGE('',*,*,#233,.F.);
#167=ORIENTED_EDGE('',*,*,#194,.F.);
#168=ORIENTED_EDGE('',*,*,#233,.T.);
#169=ORIENTED_EDGE('',*,*,#234,.F.);
#170=ORIENTED_EDGE('',*,*,#200,.T.);
#171=ORIENTED_EDGE('',*,*,#192,.T.);
#172=ORIENTED_EDGE('',*,*,#234,.T.);
#173=ORIENTED_EDGE('',*,*,#235,.F.);
#174=ORIENTED_EDGE('',*,*,#199,.T.);
#175=ORIENTED_EDGE('',*,*,#190,.T.);
#176=ORIENTED_EDGE('',*,*,#235,.T.);
#177=ORIENTED_EDGE('',*,*,#236,.F.);
#178=ORIENTED_EDGE('',*,*,#198,.T.);
#179=ORIENTED_EDGE('',*,*,#188,.T.);
#180=ORIENTED_EDGE('',*,*,#236,.T.);
#181=ORIENTED_EDGE('',*,*,#237,.F.);
#182=ORIENTED_EDGE('',*,*,#197,.T.);
#183=ORIENTED_EDGE('',*,*,#186,.T.);
#184=ORIENTED_EDGE('',*,*,#237,.T.);
#185=EDGE_CURVE('',#238,#238,#282,.T.);
#186=EDGE_CURVE('',#239,#239,#283,.T.);
#187=EDGE_CURVE('',#240,#240,#284,.T.);
#188=EDGE_CURVE('',#241,#241,#285,.T.);
#189=EDGE_CURVE('',#242,#242,#286,.T.);
#190=EDGE_CURVE('',#243,#243,#287,.T.);
#191=EDGE_CURVE('',#244,#244,#288,.T.);
#192=EDGE_CURVE('',#245,#245,#289,.T.);
#193=EDGE_CURVE('',#246,#246,#290,.T.);
#194=EDGE_CURVE('',#247,#247,#291,.T.);
#195=EDGE_CURVE('',#248,#248,#292,.T.);
#196=EDGE_CURVE('',#249,#249,#293,.T.);
#197=EDGE_CURVE('',#250,#250,#294,.T.);
#198=EDGE_CURVE('',#251,#251,#295,.T.);
#199=EDGE_CURVE('',#252,#252,#296,.T.);
#200=EDGE_CURVE('',#253,#253,#297,.T.);
#201=EDGE_CURVE('',#254,#254,#298,.T.);
#202=EDGE_CURVE('',#255,#256,#12,.T.);
#203=EDGE_CURVE('',#255,#257,#13,.T.);
#204=EDGE_CURVE('',#257,#258,#14,.T.);
#205=EDGE_CURVE('',#259,#258,#299,.T.);
#206=EDGE_CURVE('',#260,#259,#15,.T.);
#207=EDGE_CURVE('',#261,#260,#16,.T.);
#208=EDGE_CURVE('',#261,#256,#17,.T.);
#209=EDGE_CURVE('',#262,#263,#18,.T.);
#210=EDGE_CURVE('',#263,#261,#19,.T.);
#211=EDGE_CURVE('',#264,#260,#20,.T.);
#212=EDGE_CURVE('',#265,#264,#21,.T.);
#213=EDGE_CURVE('',#265,#262,#22,.T.);
#214=EDGE_CURVE('',#266,#259,#23,.T.);
#215=EDGE_CURVE('',#264,#266,#24,.T.);
#216=EDGE_CURVE('',#267,#258,#25,.T.);
#217=EDGE_CURVE('',#266,#267,#300,.T.);
#218=EDGE_CURVE('',#268,#257,#26,.T.);
#219=EDGE_CURVE('',#268,#267,#27,.T.);
#220=EDGE_CURVE('',#269,#270,#28,.T.);
#221=EDGE_CURVE('',#271,#269,#29,.T.);
#222=EDGE_CURVE('',#271,#268,#30,.T.);
#223=EDGE_CURVE('',#270,#255,#31,.T.);
#224=EDGE_CURVE('',#269,#262,#32,.T.);
#225=EDGE_CURVE('',#271,#265,#33,.T.);
#226=EDGE_CURVE('',#272,#272,#301,.T.);
#227=EDGE_CURVE('',#273,#273,#302,.T.);
#228=EDGE_CURVE('',#274,#256,#34,.T.);
#229=EDGE_CURVE('',#270,#274,#35,.T.);
#230=EDGE_CURVE('',#263,#274,#36,.T.);
#231=EDGE_CURVE('',#275,#275,#303,.T.);
#232=EDGE_CURVE('',#276,#276,#304,.T.);
#233=EDGE_CURVE('',#277,#277,#305,.T.);
#234=EDGE_CURVE('',#278,#278,#306,.T.);
#235=EDGE_CURVE('',#279,#279,#307,.T.);
#236=EDGE_CURVE('',#280,#280,#308,.T.);
#237=EDGE_CURVE('',#281,#281,#309,.T.);
#238=VERTEX_POINT('',#701);
#239=VERTEX_POINT('',#703);
#240=VERTEX_POINT('',#706);
#241=VERTEX_POINT('',#708);
#242=VERTEX_POINT('',#711);
#243=VERTEX_POINT('',#713);
#244=VERTEX_POINT('',#716);
#245=VERTEX_POINT('',#718);
#246=VERTEX_POINT('',#721);
#247=VERTEX_POINT('',#723);
#248=VERTEX_POINT('',#726);
#249=VERTEX_POINT('',#728);
#250=VERTEX_POINT('',#731);
#251=VERTEX_POINT('',#733);
#252=VERTEX_POINT('',#735);
#253=VERTEX_POINT('',#737);
#254=VERTEX_POINT('',#739);
#255=VERTEX_POINT('',#741);
#256=VERTEX_POINT('',#742);
#257=VERTEX_POINT('',#744);
#258=VERTEX_POINT('',#746);
#259=VERTEX_POINT('',#748);
#260=VERTEX_POINT('',#750);
#261=VERTEX_POINT('',#752);
#262=VERTEX_POINT('',#756);
#263=VERTEX_POINT('',#757);
#264=VERTEX_POINT('',#760);
#265=VERTEX_POINT('',#762);
#266=VERTEX_POINT('',#766);
#267=VERTEX_POINT('',#770);
#268=VERTEX_POINT('',#774);
#269=VERTEX_POINT('',#778);
#270=VERTEX_POINT('',#779);
#271=VERTEX_POINT('',#781);
#272=VERTEX_POINT('',#789);
#273=VERTEX_POINT('',#791);
#274=VERTEX_POINT('',#794);
#275=VERTEX_POINT('',#801);
#276=VERTEX_POINT('',#805);
#277=VERTEX_POINT('',#809);
#278=VERTEX_POINT('',#813);
#279=VERTEX_POINT('',#817);
#280=VERTEX_POINT('',#821);
#281=VERTEX_POINT('',#825);
#282=CIRCLE('',#495,0.00165);
#283=CIRCLE('',#496,0.00165);
#284=CIRCLE('',#498,0.00165);
#285=CIRCLE('',#499,0.00165);
#286=CIRCLE('',#501,0.00165);
#287=CIRCLE('',#502,0.00165);
#288=CIRCLE('',#504,0.00165);
#289=CIRCLE('',#505,0.00165);
#290=CIRCLE('',#507,0.00165);
#291=CIRCLE('',#508,0.00165);
#292=CIRCLE('',#510,0.00165);
#293=CIRCLE('',#511,0.00165);
#294=CIRCLE('',#513,0.003);
#295=CIRCLE('',#514,0.003);
#296=CIRCLE('',#515,0.003);
#297=CIRCLE('',#516,0.003);
#298=CIRCLE('',#517,0.002175);
#299=CIRCLE('',#518,0.0115);
#300=CIRCLE('',#522,0.0115);
#301=CIRCLE('',#527,0.003);
#302=CIRCLE('',#528,0.003);
#303=CIRCLE('',#533,0.002175);
#304=CIRCLE('',#536,0.003);
#305=CIRCLE('',#539,0.003);
#306=CIRCLE('',#542,0.003);
#307=CIRCLE('',#545,0.003);
#308=CIRCLE('',#548,0.003);
#309=CIRCLE('',#551,0.003);
#310=EDGE_LOOP('',(#79));
#311=EDGE_LOOP('',(#80));
#312=EDGE_LOOP('',(#81));
#313=EDGE_LOOP('',(#82));
#314=EDGE_LOOP('',(#83));
#315=EDGE_LOOP('',(#84));
#316=EDGE_LOOP('',(#85));
#317=EDGE_LOOP('',(#86));
#318=EDGE_LOOP('',(#87));
#319=EDGE_LOOP('',(#88));
#320=EDGE_LOOP('',(#89));
#321=EDGE_LOOP('',(#90));
#322=EDGE_LOOP('',(#91));
#323=EDGE_LOOP('',(#92));
#324=EDGE_LOOP('',(#93));
#325=EDGE_LOOP('',(#94));
#326=EDGE_LOOP('',(#95));
#327=EDGE_LOOP('',(#96,#97,#98,#99,#100,#101,#102));
#328=EDGE_LOOP('',(#103,#104,#105,#106,#107,#108));
#329=EDGE_LOOP('',(#109,#110,#111,#112));
#330=EDGE_LOOP('',(#113,#114,#115,#116));
#331=EDGE_LOOP('',(#117,#118,#119,#120));
#332=EDGE_LOOP('',(#121,#122,#123,#124,#125,#126));
#333=EDGE_LOOP('',(#127,#128,#129,#130));
#334=EDGE_LOOP('',(#131));
#335=EDGE_LOOP('',(#132));
#336=EDGE_LOOP('',(#133));
#337=EDGE_LOOP('',(#134));
#338=EDGE_LOOP('',(#135));
#339=EDGE_LOOP('',(#136));
#340=EDGE_LOOP('',(#137,#138,#139,#140,#141,#142));
#341=EDGE_LOOP('',(#143,#144,#145,#146));
#342=EDGE_LOOP('',(#147,#148,#149,#150));
#343=EDGE_LOOP('',(#151));
#344=EDGE_LOOP('',(#152));
#345=EDGE_LOOP('',(#153,#154,#155,#156,#157));
#346=EDGE_LOOP('',(#158));
#347=EDGE_LOOP('',(#159));
#348=EDGE_LOOP('',(#160));
#349=EDGE_LOOP('',(#161));
#350=EDGE_LOOP('',(#162));
#351=EDGE_LOOP('',(#163));
#352=EDGE_LOOP('',(#164));
#353=EDGE_LOOP('',(#165));
#354=EDGE_LOOP('',(#166));
#355=EDGE_LOOP('',(#167));
#356=EDGE_LOOP('',(#168));
#357=EDGE_LOOP('',(#169));
#358=EDGE_LOOP('',(#170));
#359=EDGE_LOOP('',(#171));
#360=EDGE_LOOP('',(#172));
#361=EDGE_LOOP('',(#173));
#362=EDGE_LOOP('',(#174));
#363=EDGE_LOOP('',(#175));
#364=EDGE_LOOP('',(#176));
#365=EDGE_LOOP('',(#177));
#366=EDGE_LOOP('',(#178));
#367=EDGE_LOOP('',(#179));
#368=EDGE_LOOP('',(#180));
#369=EDGE_LOOP('',(#181));
#370=EDGE_LOOP('',(#182));
#371=EDGE_LOOP('',(#183));
#372=EDGE_LOOP('',(#184));
#373=FACE_BOUND('',#310,.T.);
#374=FACE_BOUND('',#311,.T.);
#375=FACE_BOUND('',#312,.T.);
#376=FACE_BOUND('',#313,.T.);
#377=FACE_BOUND('',#314,.T.);
#378=FACE_BOUND('',#315,.T.);
#379=FACE_BOUND('',#316,.T.);
#380=FACE_BOUND('',#317,.T.);
#381=FACE_BOUND('',#318,.T.);
#382=FACE_BOUND('',#319,.T.);
#383=FACE_BOUND('',#320,.T.);
#384=FACE_BOUND('',#321,.T.);
#385=FACE_BOUND('',#322,.T.);
#386=FACE_BOUND('',#323,.T.);
#387=FACE_BOUND('',#324,.T.);
#388=FACE_BOUND('',#325,.T.);
#389=FACE_BOUND('',#326,.T.);
#390=FACE_BOUND('',#327,.T.);
#391=FACE_BOUND('',#328,.T.);
#392=FACE_BOUND('',#329,.T.);
#393=FACE_BOUND('',#330,.T.);
#394=FACE_BOUND('',#331,.T.);
#395=FACE_BOUND('',#332,.T.);
#396=FACE_BOUND('',#333,.T.);
#397=FACE_BOUND('',#334,.T.);
#398=FACE_BOUND('',#335,.T.);
#399=FACE_BOUND('',#336,.T.);
#400=FACE_BOUND('',#337,.T.);
#401=FACE_BOUND('',#338,.T.);
#402=FACE_BOUND('',#339,.T.);
#403=FACE_BOUND('',#340,.T.);
#404=FACE_BOUND('',#341,.T.);
#405=FACE_BOUND('',#342,.T.);
#406=FACE_BOUND('',#343,.T.);
#407=FACE_BOUND('',#344,.T.);
#408=FACE_BOUND('',#345,.T.);
#409=FACE_BOUND('',#346,.T.);
#410=FACE_BOUND('',#347,.T.);
#411=FACE_BOUND('',#348,.T.);
#412=FACE_BOUND('',#349,.T.);
#413=FACE_BOUND('',#350,.T.);
#414=FACE_BOUND('',#351,.T.);
#415=FACE_BOUND('',#352,.T.);
#416=FACE_BOUND('',#353,.T.);
#417=FACE_BOUND('',#354,.T.);
#418=FACE_BOUND('',#355,.T.);
#419=FACE_BOUND('',#356,.T.);
#420=FACE_BOUND('',#357,.T.);
#421=FACE_BOUND('',#358,.T.);
#422=FACE_BOUND('',#359,.T.);
#423=FACE_BOUND('',#360,.T.);
#424=FACE_BOUND('',#361,.T.);
#425=FACE_BOUND('',#362,.T.);
#426=FACE_BOUND('',#363,.T.);
#427=FACE_BOUND('',#364,.T.);
#428=FACE_BOUND('',#365,.T.);
#429=FACE_BOUND('',#366,.T.);
#430=FACE_BOUND('',#367,.T.);
#431=FACE_BOUND('',#368,.T.);
#432=FACE_BOUND('',#369,.T.);
#433=FACE_BOUND('',#370,.T.);
#434=FACE_BOUND('',#371,.T.);
#435=FACE_BOUND('',#372,.T.);
#436=CYLINDRICAL_SURFACE('',#494,0.00165);
#437=CYLINDRICAL_SURFACE('',#497,0.00165);
#438=CYLINDRICAL_SURFACE('',#500,0.00165);
#439=CYLINDRICAL_SURFACE('',#503,0.00165);
#440=CYLINDRICAL_SURFACE('',#506,0.00165);
#441=CYLINDRICAL_SURFACE('',#509,0.00165);
#442=CYLINDRICAL_SURFACE('',#521,0.0115);
#443=CYLINDRICAL_SURFACE('',#532,0.002175);
#444=CYLINDRICAL_SURFACE('',#535,0.003);
#445=CYLINDRICAL_SURFACE('',#538,0.003);
#446=CYLINDRICAL_SURFACE('',#541,0.003);
#447=CYLINDRICAL_SURFACE('',#544,0.003);
#448=CYLINDRICAL_SURFACE('',#547,0.003);
#449=CYLINDRICAL_SURFACE('',#550,0.003);
#450=ADVANCED_FACE('',(#373,#374),#436,.F.);
#451=ADVANCED_FACE('',(#375,#376),#437,.F.);
#452=ADVANCED_FACE('',(#377,#378),#438,.F.);
#453=ADVANCED_FACE('',(#379,#380),#439,.F.);
#454=ADVANCED_FACE('',(#381,#382),#440,.F.);
#455=ADVANCED_FACE('',(#383,#384),#441,.F.);
#456=ADVANCED_FACE('',(#385,#386,#387,#388,#389,#390),#62,.F.);
#457=ADVANCED_FACE('',(#391),#63,.F.);
#458=ADVANCED_FACE('',(#392),#64,.F.);
#459=ADVANCED_FACE('',(#393),#442,.T.);
#460=ADVANCED_FACE('',(#394),#65,.T.);
#461=ADVANCED_FACE('',(#395),#66,.T.);
#462=ADVANCED_FACE('',(#396),#67,.F.);
#463=ADVANCED_FACE('',(#397,#398,#399,#400,#401,#402,#403),#68,.T.);
#464=ADVANCED_FACE('',(#404),#69,.F.);
#465=ADVANCED_FACE('',(#405),#70,.T.);
#466=ADVANCED_FACE('',(#406,#407,#408),#71,.T.);
#467=ADVANCED_FACE('',(#409,#410),#443,.F.);
#468=ADVANCED_FACE('',(#411),#72,.T.);
#469=ADVANCED_FACE('',(#412,#413),#444,.T.);
#470=ADVANCED_FACE('',(#414,#415),#73,.T.);
#471=ADVANCED_FACE('',(#416,#417),#445,.T.);
#472=ADVANCED_FACE('',(#418,#419),#74,.T.);
#473=ADVANCED_FACE('',(#420,#421),#446,.F.);
#474=ADVANCED_FACE('',(#422,#423),#75,.T.);
#475=ADVANCED_FACE('',(#424,#425),#447,.F.);
#476=ADVANCED_FACE('',(#426,#427),#76,.T.);
#477=ADVANCED_FACE('',(#428,#429),#448,.F.);
#478=ADVANCED_FACE('',(#430,#431),#77,.T.);
#479=ADVANCED_FACE('',(#432,#433),#449,.F.);
#480=ADVANCED_FACE('',(#434,#435),#78,.T.);
#481=CLOSED_SHELL('',(#450,#451,#452,#453,#454,#455,#456,#457,#458,#459,
#460,#461,#462,#463,#464,#465,#466,#467,#468,#469,#470,#471,#472,#473,#474,
#475,#476,#477,#478,#479,#480));
#482=STYLED_ITEM('',(#483),#490);
#483=PRESENTATION_STYLE_ASSIGNMENT((#484));
#484=SURFACE_STYLE_USAGE(.BOTH.,#485);
#485=SURFACE_SIDE_STYLE('',(#486));
#486=SURFACE_STYLE_FILL_AREA(#487);
#487=FILL_AREA_STYLE('',(#488));
#488=FILL_AREA_STYLE_COLOUR('',#489);
#489=COLOUR_RGB('',0.615686274509804,0.811764705882353,0.929411764705882);
#490=MANIFOLD_SOLID_BREP('Part 1',#481);
#491=SHAPE_DEFINITION_REPRESENTATION(#833,#492);
#492=SHAPE_REPRESENTATION('Part 1',(#493),#828);
#493=AXIS2_PLACEMENT_3D('',#698,#553,#554);
#494=AXIS2_PLACEMENT_3D('',#699,#555,#556);
#495=AXIS2_PLACEMENT_3D('',#700,#557,#558);
#496=AXIS2_PLACEMENT_3D('',#702,#559,#560);
#497=AXIS2_PLACEMENT_3D('',#704,#561,#562);
#498=AXIS2_PLACEMENT_3D('',#705,#563,#564);
#499=AXIS2_PLACEMENT_3D('',#707,#565,#566);
#500=AXIS2_PLACEMENT_3D('',#709,#567,#568);
#501=AXIS2_PLACEMENT_3D('',#710,#569,#570);
#502=AXIS2_PLACEMENT_3D('',#712,#571,#572);
#503=AXIS2_PLACEMENT_3D('',#714,#573,#574);
#504=AXIS2_PLACEMENT_3D('',#715,#575,#576);
#505=AXIS2_PLACEMENT_3D('',#717,#577,#578);
#506=AXIS2_PLACEMENT_3D('',#719,#579,#580);
#507=AXIS2_PLACEMENT_3D('',#720,#581,#582);
#508=AXIS2_PLACEMENT_3D('',#722,#583,#584);
#509=AXIS2_PLACEMENT_3D('',#724,#585,#586);
#510=AXIS2_PLACEMENT_3D('',#725,#587,#588);
#511=AXIS2_PLACEMENT_3D('',#727,#589,#590);
#512=AXIS2_PLACEMENT_3D('',#729,#591,#592);
#513=AXIS2_PLACEMENT_3D('',#730,#593,#594);
#514=AXIS2_PLACEMENT_3D('',#732,#595,#596);
#515=AXIS2_PLACEMENT_3D('',#734,#597,#598);
#516=AXIS2_PLACEMENT_3D('',#736,#599,#600);
#517=AXIS2_PLACEMENT_3D('',#738,#601,#602);
#518=AXIS2_PLACEMENT_3D('',#747,#606,#607);
#519=AXIS2_PLACEMENT_3D('',#754,#611,#612);
#520=AXIS2_PLACEMENT_3D('',#764,#618,#619);
#521=AXIS2_PLACEMENT_3D('',#768,#622,#623);
#522=AXIS2_PLACEMENT_3D('',#771,#625,#626);
#523=AXIS2_PLACEMENT_3D('',#772,#627,#628);
#524=AXIS2_PLACEMENT_3D('',#776,#631,#632);
#525=AXIS2_PLACEMENT_3D('',#784,#637,#638);
#526=AXIS2_PLACEMENT_3D('',#787,#641,#642);
#527=AXIS2_PLACEMENT_3D('',#788,#643,#644);
#528=AXIS2_PLACEMENT_3D('',#790,#645,#646);
#529=AXIS2_PLACEMENT_3D('',#792,#647,#648);
#530=AXIS2_PLACEMENT_3D('',#796,#651,#652);
#531=AXIS2_PLACEMENT_3D('',#798,#654,#655);
#532=AXIS2_PLACEMENT_3D('',#799,#656,#657);
#533=AXIS2_PLACEMENT_3D('',#800,#658,#659);
#534=AXIS2_PLACEMENT_3D('',#802,#660,#661);
#535=AXIS2_PLACEMENT_3D('',#803,#662,#663);
#536=AXIS2_PLACEMENT_3D('',#804,#664,#665);
#537=AXIS2_PLACEMENT_3D('',#806,#666,#667);
#538=AXIS2_PLACEMENT_3D('',#807,#668,#669);
#539=AXIS2_PLACEMENT_3D('',#808,#670,#671);
#540=AXIS2_PLACEMENT_3D('',#810,#672,#673);
#541=AXIS2_PLACEMENT_3D('',#811,#674,#675);
#542=AXIS2_PLACEMENT_3D('',#812,#676,#677);
#543=AXIS2_PLACEMENT_3D('',#814,#678,#679);
#544=AXIS2_PLACEMENT_3D('',#815,#680,#681);
#545=AXIS2_PLACEMENT_3D('',#816,#682,#683);
#546=AXIS2_PLACEMENT_3D('',#818,#684,#685);
#547=AXIS2_PLACEMENT_3D('',#819,#686,#687);
#548=AXIS2_PLACEMENT_3D('',#820,#688,#689);
#549=AXIS2_PLACEMENT_3D('',#822,#690,#691);
#550=AXIS2_PLACEMENT_3D('',#823,#692,#693);
#551=AXIS2_PLACEMENT_3D('',#824,#694,#695);
#552=AXIS2_PLACEMENT_3D('',#826,#696,#697);
#553=DIRECTION('',(0.,0.,1.));
#554=DIRECTION('',(1.,0.,0.));
#555=DIRECTION('',(0.,0.,1.));
#556=DIRECTION('',(1.,0.,0.));
#557=DIRECTION('',(0.,0.,1.));
#558=DIRECTION('',(1.,0.,0.));
#559=DIRECTION('',(0.,0.,1.));
#560=DIRECTION('',(1.,0.,0.));
#561=DIRECTION('',(0.,0.,1.));
#562=DIRECTION('',(1.,0.,0.));
#563=DIRECTION('',(0.,0.,1.));
#564=DIRECTION('',(-1.83697019872103E-16,-1.,0.));
#565=DIRECTION('',(0.,0.,1.));
#566=DIRECTION('',(1.,0.,0.));
#567=DIRECTION('',(0.,0.,1.));
#568=DIRECTION('',(1.,0.,0.));
#569=DIRECTION('',(0.,0.,1.));
#570=DIRECTION('',(-1.,1.22464679914735E-16,0.));
#571=DIRECTION('',(0.,0.,1.));
#572=DIRECTION('',(1.,0.,0.));
#573=DIRECTION('',(0.,0.,1.));
#574=DIRECTION('',(1.,0.,0.));
#575=DIRECTION('',(0.,0.,1.));
#576=DIRECTION('',(6.12323399573677E-17,1.,0.));
#577=DIRECTION('',(0.,0.,1.));
#578=DIRECTION('',(1.,0.,0.));
#579=DIRECTION('',(0.,0.,1.));
#580=DIRECTION('',(1.,0.,0.));
#581=DIRECTION('',(0.,0.,-1.));
#582=DIRECTION('',(-1.,0.,0.));
#583=DIRECTION('',(0.,0.,1.));
#584=DIRECTION('',(1.,0.,0.));
#585=DIRECTION('',(0.,0.,1.));
#586=DIRECTION('',(1.,0.,0.));
#587=DIRECTION('',(0.,0.,-1.));
#588=DIRECTION('',(-1.,0.,0.));
#589=DIRECTION('',(0.,0.,1.));
#590=DIRECTION('',(1.,0.,0.));
#591=DIRECTION('',(0.,0.,1.));
#592=DIRECTION('',(1.,0.,0.));
#593=DIRECTION('',(0.,0.,-1.));
#594=DIRECTION('',(-1.,0.,0.));
#595=DIRECTION('',(0.,0.,-1.));
#596=DIRECTION('',(-1.,0.,0.));
#597=DIRECTION('',(0.,0.,-1.));
#598=DIRECTION('',(-1.,0.,0.));
#599=DIRECTION('',(0.,0.,-1.));
#600=DIRECTION('',(-1.,0.,0.));
#601=DIRECTION('',(0.,0.,-1.));
#602=DIRECTION('',(-1.,0.,0.));
#603=DIRECTION('',(0.,1.,0.));
#604=DIRECTION('',(-0.707106781186548,0.707106781186548,0.));
#605=DIRECTION('',(-0.707106999999898,0.707106562373129,0.));
#606=DIRECTION('',(0.,0.,1.));
#607=DIRECTION('',(1.,0.,0.));
#608=DIRECTION('',(-0.707106999999898,0.707106562373129,0.));
#609=DIRECTION('',(-0.707106781186548,0.707106781186547,0.));
#610=DIRECTION('',(-0.999995009799671,0.00315917327084406,0.));
#611=DIRECTION('',(-0.707106781186547,-0.707106781186548,0.));
#612=DIRECTION('',(0.707106781186548,-0.707106781186547,0.));
#613=DIRECTION('',(-0.707106781186548,0.707106781186547,0.));
#614=DIRECTION('',(0.,0.,-1.));
#615=DIRECTION('',(0.,0.,-1.));
#616=DIRECTION('',(-0.707106781186548,0.707106781186547,0.));
#617=DIRECTION('',(0.,0.,-1.));
#618=DIRECTION('',(-0.707106562373129,-0.707106999999898,0.));
#619=DIRECTION('',(0.707106999999898,-0.707106562373129,0.));
#620=DIRECTION('',(0.,0.,-1.));
#621=DIRECTION('',(-0.707106999999898,0.707106562373129,0.));
#622=DIRECTION('',(0.,0.,-1.));
#623=DIRECTION('',(-1.,0.,0.));
#624=DIRECTION('',(0.,0.,-1.));
#625=DIRECTION('',(0.,0.,1.));
#626=DIRECTION('',(1.,0.,0.));
#627=DIRECTION('',(-0.707106562373129,-0.707106999999898,0.));
#628=DIRECTION('',(0.707106999999898,-0.707106562373129,0.));
#629=DIRECTION('',(0.,0.,-1.));
#630=DIRECTION('',(-0.707106999999898,0.707106562373129,0.));
#631=DIRECTION('',(-0.707106781186547,-0.707106781186548,0.));
#632=DIRECTION('',(0.707106781186548,-0.707106781186548,0.));
#633=DIRECTION('',(-0.707106781186548,0.707106781186548,0.));
#634=DIRECTION('',(0.,0.,-1.));
#635=DIRECTION('',(-0.707106781186548,0.707106781186548,0.));
#636=DIRECTION('',(0.,0.,-1.));
#637=DIRECTION('',(-1.,0.,0.));
#638=DIRECTION('',(0.,0.,1.));
#639=DIRECTION('',(0.,1.,0.));
#640=DIRECTION('',(0.,1.,0.));
#641=DIRECTION('',(0.,0.,1.));
#642=DIRECTION('',(1.,0.,0.));
#643=DIRECTION('',(0.,0.,1.));
#644=DIRECTION('',(1.,0.,0.));
#645=DIRECTION('',(0.,0.,1.));
#646=DIRECTION('',(1.,0.,0.));
#647=DIRECTION('',(-1.,0.,0.));
#648=DIRECTION('',(0.,0.,1.));
#649=DIRECTION('',(0.,0.,-1.));
#650=DIRECTION('',(0.,1.,0.));
#651=DIRECTION('',(-0.00315917327084406,-0.999995009799671,0.));
#652=DIRECTION('',(0.999995009799671,-0.00315917327084406,0.));
#653=DIRECTION('',(-0.999995009799671,0.00315917327084406,0.));
#654=DIRECTION('',(0.,0.,-1.));
#655=DIRECTION('',(1.,0.,0.));
#656=DIRECTION('',(0.,0.,-1.));
#657=DIRECTION('',(-1.,0.,0.));
#658=DIRECTION('',(0.,0.,-1.));
#659=DIRECTION('',(-1.,0.,0.));
#660=DIRECTION('',(0.,0.,-1.));
#661=DIRECTION('',(1.,0.,0.));
#662=DIRECTION('',(0.,0.,-1.));
#663=DIRECTION('',(-1.,0.,0.));
#664=DIRECTION('',(0.,0.,1.));
#665=DIRECTION('',(1.,0.,0.));
#666=DIRECTION('',(0.,0.,1.));
#667=DIRECTION('',(1.,0.,0.));
#668=DIRECTION('',(0.,0.,-1.));
#669=DIRECTION('',(-1.,0.,0.));
#670=DIRECTION('',(0.,0.,1.));
#671=DIRECTION('',(1.,0.,0.));
#672=DIRECTION('',(0.,0.,1.));
#673=DIRECTION('',(1.,0.,0.));
#674=DIRECTION('',(0.,0.,-1.));
#675=DIRECTION('',(-1.,0.,0.));
#676=DIRECTION('',(0.,0.,-1.));
#677=DIRECTION('',(-1.,0.,0.));
#678=DIRECTION('',(0.,0.,-1.));
#679=DIRECTION('',(1.,0.,0.));
#680=DIRECTION('',(0.,0.,-1.));
#681=DIRECTION('',(-1.,0.,0.));
#682=DIRECTION('',(0.,0.,-1.));
#683=DIRECTION('',(-1.,0.,0.));
#684=DIRECTION('',(0.,0.,-1.));
#685=DIRECTION('',(1.,0.,0.));
#686=DIRECTION('',(0.,0.,-1.));
#687=DIRECTION('',(-1.,0.,0.));
#688=DIRECTION('',(0.,0.,-1.));
#689=DIRECTION('',(-1.,0.,0.));
#690=DIRECTION('',(0.,0.,-1.));
#691=DIRECTION('',(1.,0.,0.));
#692=DIRECTION('',(0.,0.,-1.));
#693=DIRECTION('',(-1.,0.,0.));
#694=DIRECTION('',(0.,0.,-1.));
#695=DIRECTION('',(-1.,0.,0.));
#696=DIRECTION('',(0.,0.,-1.));
#697=DIRECTION('',(1.,0.,0.));
#698=CARTESIAN_POINT('',(0.,0.,0.));
#699=CARTESIAN_POINT('',(-0.109247997943609,0.116319067443032,-0.018));
#700=CARTESIAN_POINT('',(-0.109247997943609,0.116319067443032,0.007));
#701=CARTESIAN_POINT('',(-0.107597997943609,0.116319067443032,0.007));
#702=CARTESIAN_POINT('',(-0.109247997943609,0.116319067443032,0.002));
#703=CARTESIAN_POINT('',(-0.107597997943609,0.116319067443032,0.002));
#704=CARTESIAN_POINT('',(-0.0979342894446251,0.116319062910901,-0.018));
#705=CARTESIAN_POINT('',(-0.0979342894446251,0.116319062910901,0.007));
#706=CARTESIAN_POINT('',(-0.0979342894446251,0.114669062910901,0.007));
#707=CARTESIAN_POINT('',(-0.0979342894446251,0.116319062910901,0.002));
#708=CARTESIAN_POINT('',(-0.0962842894446251,0.116319062910901,0.002));
#709=CARTESIAN_POINT('',(-0.0979342939767565,0.105005354411917,-0.018));
#710=CARTESIAN_POINT('',(-0.0979342939767565,0.105005354411917,0.007));
#711=CARTESIAN_POINT('',(-0.0995842939767565,0.105005354411917,0.007));
#712=CARTESIAN_POINT('',(-0.0979342939767565,0.105005354411917,0.002));
#713=CARTESIAN_POINT('',(-0.0962842939767565,0.105005354411917,0.002));
#714=CARTESIAN_POINT('',(-0.10924800247574,0.105005358944049,-0.018));
#715=CARTESIAN_POINT('',(-0.10924800247574,0.105005358944049,0.007));
#716=CARTESIAN_POINT('',(-0.10924800247574,0.106655358944049,0.007));
#717=CARTESIAN_POINT('',(-0.10924800247574,0.105005358944049,0.002));
#718=CARTESIAN_POINT('',(-0.10759800247574,0.105005358944049,0.002));
#719=CARTESIAN_POINT('',(-0.00530330085889911,0.0123743708588991,-0.018));
#720=CARTESIAN_POINT('',(-0.00530330085889911,0.0123743708588991,0.004));
#721=CARTESIAN_POINT('',(-0.00695330085889911,0.0123743708588991,0.004));
#722=CARTESIAN_POINT('',(-0.00530330085889911,0.0123743708588991,0.0075));
#723=CARTESIAN_POINT('',(-0.00365330085889911,0.0123743708588991,0.0075));
#724=CARTESIAN_POINT('',(-0.0106066017177982,0.0176776717177982,-0.018));
#725=CARTESIAN_POINT('',(-0.0106066017177982,0.0176776717177982,0.004));
#726=CARTESIAN_POINT('',(-0.0122566017177982,0.0176776717177982,0.004));
#727=CARTESIAN_POINT('',(-0.0106066017177982,0.0176776717177982,0.0075));
#728=CARTESIAN_POINT('',(-0.0089566017177982,0.0176776717177982,0.0075));
#729=CARTESIAN_POINT('',(-0.0575455729800914,0.0610811054637375,0.));
#730=CARTESIAN_POINT('',(-0.109247997943609,0.116319067443032,0.));
#731=CARTESIAN_POINT('',(-0.112247997943609,0.116319067443032,0.));
#732=CARTESIAN_POINT('',(-0.0979342894446251,0.116319062910901,0.));
#733=CARTESIAN_POINT('',(-0.100934289444625,0.116319062910901,0.));
#734=CARTESIAN_POINT('',(-0.0979342939767565,0.105005354411917,0.));
#735=CARTESIAN_POINT('',(-0.100934293976757,0.105005354411917,0.));
#736=CARTESIAN_POINT('',(-0.10924800247574,0.105005358944049,0.));
#737=CARTESIAN_POINT('',(-0.11224800247574,0.105005358944049,0.));
#738=CARTESIAN_POINT('',(-0.103591145960183,0.110662210927475,0.));
#739=CARTESIAN_POINT('',(-0.105766145960183,0.110662210927475,0.));
#740=CARTESIAN_POINT('',(-0.0160513239329346,0.0193513239329346,0.));
#741=CARTESIAN_POINT('',(-0.0160513239329346,0.0160513239329346,0.));
#742=CARTESIAN_POINT('',(-0.0160513239329346,0.0226513239329346,0.));
#743=CARTESIAN_POINT('',(-0.0494974746830583,0.0494974746830583,0.));
#744=CARTESIAN_POINT('',(-0.0989949493661167,0.0989949493661166,0.));
#745=CARTESIAN_POINT('',(-0.0993993591182246,0.0993993588679364,0.));
#746=CARTESIAN_POINT('',(-0.0998037688703326,0.0998037683697561,0.));
#747=CARTESIAN_POINT('',(-0.103591145960183,0.110662210927475,0.));
#748=CARTESIAN_POINT('',(-0.0927327010584671,0.106874840557891,0.));
#749=CARTESIAN_POINT('',(-0.0923282913063591,0.106470431056071,0.));
#750=CARTESIAN_POINT('',(-0.0919238815542512,0.106066021554251,0.));
#751=CARTESIAN_POINT('',(-0.0459619407771256,0.0601040807771256,0.));
#752=CARTESIAN_POINT('',(-0.00848528137423859,0.0226274213742385,0.));
#753=CARTESIAN_POINT('',(-0.0122683026535866,0.0226393726535866,0.));
#754=CARTESIAN_POINT('',(-0.0459619407771256,0.0601040807771256,0.007));
#755=CARTESIAN_POINT('',(-0.0459619407771256,0.0601040807771256,0.004));
#756=CARTESIAN_POINT('',(0.,0.01414214,0.004));
#757=CARTESIAN_POINT('',(-0.00848528137423859,0.0226274213742385,0.004));
#758=CARTESIAN_POINT('',(-0.00848528137423859,0.0226274213742385,0.004));
#759=CARTESIAN_POINT('',(-0.0919238815542512,0.106066021554251,0.007));
#760=CARTESIAN_POINT('',(-0.0919238815542512,0.106066021554251,0.007));
#761=CARTESIAN_POINT('',(-0.0459619407771256,0.0601040807771256,0.007));
#762=CARTESIAN_POINT('',(0.,0.01414214,0.007));
#763=CARTESIAN_POINT('',(0.,0.01414214,0.007));
#764=CARTESIAN_POINT('',(-0.0923282913063591,0.106470431056071,0.007));
#765=CARTESIAN_POINT('',(-0.0927327010584671,0.106874840557891,0.007));
#766=CARTESIAN_POINT('',(-0.0927327010584671,0.106874840557891,0.007));
#767=CARTESIAN_POINT('',(-0.0923282913063591,0.106470431056071,0.007));
#768=CARTESIAN_POINT('',(-0.103591145960183,0.110662210927475,0.007));
#769=CARTESIAN_POINT('',(-0.0998037688703326,0.0998037683697561,0.007));
#770=CARTESIAN_POINT('',(-0.0998037688703326,0.0998037683697561,0.007));
#771=CARTESIAN_POINT('',(-0.103591145960183,0.110662210927475,0.007));
#772=CARTESIAN_POINT('',(-0.0993993591182246,0.0993993588679364,0.007));
#773=CARTESIAN_POINT('',(-0.0989949493661167,0.0989949493661166,0.007));
#774=CARTESIAN_POINT('',(-0.0989949493661167,0.0989949493661166,0.007));
#775=CARTESIAN_POINT('',(-0.0993993591182246,0.0993993588679364,0.007));
#776=CARTESIAN_POINT('',(-0.0494974746830583,0.0494974746830583,0.007));
#777=CARTESIAN_POINT('',(-0.0494974746830583,0.0494974746830583,0.004));
#778=CARTESIAN_POINT('',(0.,-1.7347234759768E-18,0.004));
#779=CARTESIAN_POINT('',(-0.0160513239329346,0.0160513239329346,0.004));
#780=CARTESIAN_POINT('',(0.,-1.7347234759768E-18,0.007));
#781=CARTESIAN_POINT('',(0.,-1.7347234759768E-18,0.007));
#782=CARTESIAN_POINT('',(-0.0494974746830583,0.0494974746830583,0.007));
#783=CARTESIAN_POINT('',(-0.0160513239329346,0.0160513239329346,0.004));
#784=CARTESIAN_POINT('',(0.,0.00707107,0.007));
#785=CARTESIAN_POINT('',(0.,0.00707107,0.004));
#786=CARTESIAN_POINT('',(0.,0.00707107,0.007));
#787=CARTESIAN_POINT('',(-0.0575455729800914,0.0610811054637375,0.007));
#788=CARTESIAN_POINT('',(-0.0106066017177982,0.0176776717177982,0.007));
#789=CARTESIAN_POINT('',(-0.0076066017177982,0.0176776717177982,0.007));
#790=CARTESIAN_POINT('',(-0.00530330085889911,0.0123743708588991,0.007));
#791=CARTESIAN_POINT('',(-0.00230330085889911,0.0123743708588991,0.007));
#792=CARTESIAN_POINT('',(-0.0160513239329346,0.0193513239329346,0.004));
#793=CARTESIAN_POINT('',(-0.0160513239329346,0.0226513239329346,0.004));
#794=CARTESIAN_POINT('',(-0.0160513239329346,0.0226513239329346,0.004));
#795=CARTESIAN_POINT('',(-0.0160513239329346,0.0193513239329346,0.004));
#796=CARTESIAN_POINT('',(-0.0122683026535866,0.0226393726535866,0.004));
#797=CARTESIAN_POINT('',(-0.0122683026535866,0.0226393726535866,0.004));
#798=CARTESIAN_POINT('',(-0.0575455729800914,0.0610811054637375,0.004));
#799=CARTESIAN_POINT('',(-0.103591145960183,0.110662210927475,0.0061));
#800=CARTESIAN_POINT('',(-0.103591145960183,0.110662210927475,0.0061));
#801=CARTESIAN_POINT('',(-0.105766145960183,0.110662210927475,0.0061));
#802=CARTESIAN_POINT('',(-0.0617882136672107,0.0691067674302048,0.0061));
#803=CARTESIAN_POINT('',(-0.0106066017177982,0.0176776717177982,0.0075));
#804=CARTESIAN_POINT('',(-0.0106066017177982,0.0176776717177982,0.0075));
#805=CARTESIAN_POINT('',(-0.0076066017177982,0.0176776717177982,0.0075));
#806=CARTESIAN_POINT('',(-0.0575455729800914,0.0610811054637375,0.0075));
#807=CARTESIAN_POINT('',(-0.00530330085889911,0.0123743708588991,0.0075));
#808=CARTESIAN_POINT('',(-0.00530330085889911,0.0123743708588991,0.0075));
#809=CARTESIAN_POINT('',(-0.00230330085889911,0.0123743708588991,0.0075));
#810=CARTESIAN_POINT('',(-0.0575455729800914,0.0610811054637375,0.0075));
#811=CARTESIAN_POINT('',(-0.10924800247574,0.105005358944049,0.002));
#812=CARTESIAN_POINT('',(-0.10924800247574,0.105005358944049,0.002));
#813=CARTESIAN_POINT('',(-0.11224800247574,0.105005358944049,0.002));
#814=CARTESIAN_POINT('',(-0.0617882136672107,0.0691067674302048,0.002));
#815=CARTESIAN_POINT('',(-0.0979342939767565,0.105005354411917,0.002));
#816=CARTESIAN_POINT('',(-0.0979342939767565,0.105005354411917,0.002));
#817=CARTESIAN_POINT('',(-0.100934293976757,0.105005354411917,0.002));
#818=CARTESIAN_POINT('',(-0.0617882136672107,0.0691067674302048,0.002));
#819=CARTESIAN_POINT('',(-0.0979342894446251,0.116319062910901,0.002));
#820=CARTESIAN_POINT('',(-0.0979342894446251,0.116319062910901,0.002));
#821=CARTESIAN_POINT('',(-0.100934289444625,0.116319062910901,0.002));
#822=CARTESIAN_POINT('',(-0.0617882136672107,0.0691067674302048,0.002));
#823=CARTESIAN_POINT('',(-0.109247997943609,0.116319067443032,0.002));
#824=CARTESIAN_POINT('',(-0.109247997943609,0.116319067443032,0.002));
#825=CARTESIAN_POINT('',(-0.112247997943609,0.116319067443032,0.002));
#826=CARTESIAN_POINT('',(-0.0617882136672107,0.0691067674302048,0.002));
#827=MECHANICAL_DESIGN_GEOMETRIC_PRESENTATION_REPRESENTATION('',(#482),
#828);
#828=(
GEOMETRIC_REPRESENTATION_CONTEXT(3)
GLOBAL_UNCERTAINTY_ASSIGNED_CONTEXT((#829))
GLOBAL_UNIT_ASSIGNED_CONTEXT((#832,#831,#830))
REPRESENTATION_CONTEXT('Part 1','TOP_LEVEL_ASSEMBLY_PART')
);
#829=UNCERTAINTY_MEASURE_WITH_UNIT(LENGTH_MEASURE(1.E-8),#832,
'DISTANCE_ACCURACY_VALUE','Maximum Tolerance applied to model');
#830=(
NAMED_UNIT(*)
SI_UNIT($,.STERADIAN.)
SOLID_ANGLE_UNIT()
);
#831=(
NAMED_UNIT(*)
PLANE_ANGLE_UNIT()
SI_UNIT($,.RADIAN.)
);
#832=(
LENGTH_UNIT()
NAMED_UNIT(*)
SI_UNIT($,.METRE.)
);
#833=PRODUCT_DEFINITION_SHAPE('','',#834);
#834=PRODUCT_DEFINITION('','',#836,#835);
#835=PRODUCT_DEFINITION_CONTEXT('',#842,'design');
#836=PRODUCT_DEFINITION_FORMATION_WITH_SPECIFIED_SOURCE('','',#838,
 .NOT_KNOWN.);
#837=PRODUCT_RELATED_PRODUCT_CATEGORY('','',(#838));
#838=PRODUCT('Part 1','Part 1','Part 1',(#840));
#839=PRODUCT_CATEGORY('','');
#840=PRODUCT_CONTEXT('',#842,'mechanical');
#841=APPLICATION_PROTOCOL_DEFINITION('international standard',
'ap242_managed_model_based_3d_engineering',2020,#842);
#842=APPLICATION_CONTEXT('managed model based 3d engineering');
ENDSEC;
END-ISO-10303-21;
