ISO-10303-21;
HEADER;
/* Generated by software containing ST-Developer
 * from STEP Tools, Inc. (www.steptools.com) 
 */
/* OPTION: using custom renumber hook */

FILE_DESCRIPTION(
/* description */ ('STEP AP242 Edition 2',
'CAx-IF Rec.Pracs.---Representation and Presentation of Product Manufa
cturing Information (PMI)---4.0---2014-10-13',
'CAx-IF Rec.Pracs.---3D Tessellated Geometry---0.4---2014-09-14','2;1',
'CAx-IF Rec.Pracs.---User Defined Attributes---1.5---2016-08-15'),
/* implementation_level */ '2;1');

FILE_NAME(
/* name */ 'Controller Body',
/* time_stamp */ '2026-09-01T05:45:06Z',
/* author */ (''),
/* organization */ (''),
/* preprocessor_version */ 'ST-DEVELOPER v20',
/* originating_system */ 'ONSHAPE BY PTC INC, 1.220',
/* authorisation */ '  ');

FILE_SCHEMA (('AP242_MANAGED_MODEL_BASED_3D_ENGINEERING_MIM_LF { 1 0 10303 442 3 1 4 }'));
ENDSEC;

DATA;
#10=SHAPE_REPRESENTATION_RELATIONSHIP('','',#1077,#11);
#11=ADVANCED_BREP_SHAPE_REPRESENTATION('',(#1075),#1695);
#12=CYLINDRICAL_SURFACE('',#1095,0.002175);
#13=CYLINDRICAL_SURFACE('',#1098,0.002175);
#14=CYLINDRICAL_SURFACE('',#1101,0.002175);
#15=CYLINDRICAL_SURFACE('',#1104,0.002175);
#16=CIRCLE('',#1091,0.002175);
#17=CIRCLE('',#1092,0.002175);
#18=CIRCLE('',#1093,0.002175);
#19=CIRCLE('',#1094,0.002175);
#20=CIRCLE('',#1096,0.002175);
#21=CIRCLE('',#1099,0.002175);
#22=CIRCLE('',#1102,0.002175);
#23=CIRCLE('',#1105,0.002175);
#24=ORIENTED_EDGE('',*,*,#304,.T.);
#25=ORIENTED_EDGE('',*,*,#305,.T.);
#26=ORIENTED_EDGE('',*,*,#306,.F.);
#27=ORIENTED_EDGE('',*,*,#307,.T.);
#28=ORIENTED_EDGE('',*,*,#308,.T.);
#29=ORIENTED_EDGE('',*,*,#309,.F.);
#30=ORIENTED_EDGE('',*,*,#310,.T.);
#31=ORIENTED_EDGE('',*,*,#311,.F.);
#32=ORIENTED_EDGE('',*,*,#312,.T.);
#33=ORIENTED_EDGE('',*,*,#313,.F.);
#34=ORIENTED_EDGE('',*,*,#314,.F.);
#35=ORIENTED_EDGE('',*,*,#315,.T.);
#36=ORIENTED_EDGE('',*,*,#316,.F.);
#37=ORIENTED_EDGE('',*,*,#317,.T.);
#38=ORIENTED_EDGE('',*,*,#318,.T.);
#39=ORIENTED_EDGE('',*,*,#319,.F.);
#40=ORIENTED_EDGE('',*,*,#320,.F.);
#41=ORIENTED_EDGE('',*,*,#321,.T.);
#42=ORIENTED_EDGE('',*,*,#322,.T.);
#43=ORIENTED_EDGE('',*,*,#323,.F.);
#44=ORIENTED_EDGE('',*,*,#324,.F.);
#45=ORIENTED_EDGE('',*,*,#325,.T.);
#46=ORIENTED_EDGE('',*,*,#326,.T.);
#47=ORIENTED_EDGE('',*,*,#327,.F.);
#48=ORIENTED_EDGE('',*,*,#328,.F.);
#49=ORIENTED_EDGE('',*,*,#329,.T.);
#50=ORIENTED_EDGE('',*,*,#330,.T.);
#51=ORIENTED_EDGE('',*,*,#331,.F.);
#52=ORIENTED_EDGE('',*,*,#332,.T.);
#53=ORIENTED_EDGE('',*,*,#333,.T.);
#54=ORIENTED_EDGE('',*,*,#334,.F.);
#55=ORIENTED_EDGE('',*,*,#335,.T.);
#56=ORIENTED_EDGE('',*,*,#336,.F.);
#57=ORIENTED_EDGE('',*,*,#337,.T.);
#58=ORIENTED_EDGE('',*,*,#338,.T.);
#59=ORIENTED_EDGE('',*,*,#339,.F.);
#60=ORIENTED_EDGE('',*,*,#340,.T.);
#61=ORIENTED_EDGE('',*,*,#341,.T.);
#62=ORIENTED_EDGE('',*,*,#342,.F.);
#63=ORIENTED_EDGE('',*,*,#343,.F.);
#64=ORIENTED_EDGE('',*,*,#344,.T.);
#65=ORIENTED_EDGE('',*,*,#345,.T.);
#66=ORIENTED_EDGE('',*,*,#346,.F.);
#67=ORIENTED_EDGE('',*,*,#347,.F.);
#68=ORIENTED_EDGE('',*,*,#348,.T.);
#69=ORIENTED_EDGE('',*,*,#349,.T.);
#70=ORIENTED_EDGE('',*,*,#350,.F.);
#71=ORIENTED_EDGE('',*,*,#351,.F.);
#72=ORIENTED_EDGE('',*,*,#352,.T.);
#73=ORIENTED_EDGE('',*,*,#353,.T.);
#74=ORIENTED_EDGE('',*,*,#354,.F.);
#75=ORIENTED_EDGE('',*,*,#355,.F.);
#76=ORIENTED_EDGE('',*,*,#356,.F.);
#77=ORIENTED_EDGE('',*,*,#357,.T.);
#78=ORIENTED_EDGE('',*,*,#358,.T.);
#79=ORIENTED_EDGE('',*,*,#359,.T.);
#80=ORIENTED_EDGE('',*,*,#360,.T.);
#81=ORIENTED_EDGE('',*,*,#361,.F.);
#82=ORIENTED_EDGE('',*,*,#362,.F.);
#83=ORIENTED_EDGE('',*,*,#339,.T.);
#84=ORIENTED_EDGE('',*,*,#363,.T.);
#85=ORIENTED_EDGE('',*,*,#364,.T.);
#86=ORIENTED_EDGE('',*,*,#365,.T.);
#87=ORIENTED_EDGE('',*,*,#366,.F.);
#88=ORIENTED_EDGE('',*,*,#367,.T.);
#89=ORIENTED_EDGE('',*,*,#368,.F.);
#90=ORIENTED_EDGE('',*,*,#337,.F.);
#91=ORIENTED_EDGE('',*,*,#369,.T.);
#92=ORIENTED_EDGE('',*,*,#370,.T.);
#93=ORIENTED_EDGE('',*,*,#371,.T.);
#94=ORIENTED_EDGE('',*,*,#372,.F.);
#95=ORIENTED_EDGE('',*,*,#373,.T.);
#96=ORIENTED_EDGE('',*,*,#374,.F.);
#97=ORIENTED_EDGE('',*,*,#311,.T.);
#98=ORIENTED_EDGE('',*,*,#375,.F.);
#99=ORIENTED_EDGE('',*,*,#376,.F.);
#100=ORIENTED_EDGE('',*,*,#377,.T.);
#101=ORIENTED_EDGE('',*,*,#378,.T.);
#102=ORIENTED_EDGE('',*,*,#379,.T.);
#103=ORIENTED_EDGE('',*,*,#380,.F.);
#104=ORIENTED_EDGE('',*,*,#305,.F.);
#105=ORIENTED_EDGE('',*,*,#381,.T.);
#106=ORIENTED_EDGE('',*,*,#382,.T.);
#107=ORIENTED_EDGE('',*,*,#383,.T.);
#108=ORIENTED_EDGE('',*,*,#384,.F.);
#109=ORIENTED_EDGE('',*,*,#385,.F.);
#110=ORIENTED_EDGE('',*,*,#386,.T.);
#111=ORIENTED_EDGE('',*,*,#387,.F.);
#112=ORIENTED_EDGE('',*,*,#381,.F.);
#113=ORIENTED_EDGE('',*,*,#304,.F.);
#114=ORIENTED_EDGE('',*,*,#388,.T.);
#115=ORIENTED_EDGE('',*,*,#389,.T.);
#116=ORIENTED_EDGE('',*,*,#390,.F.);
#117=ORIENTED_EDGE('',*,*,#307,.F.);
#118=ORIENTED_EDGE('',*,*,#391,.T.);
#119=ORIENTED_EDGE('',*,*,#392,.T.);
#120=ORIENTED_EDGE('',*,*,#393,.F.);
#121=ORIENTED_EDGE('',*,*,#394,.T.);
#122=ORIENTED_EDGE('',*,*,#313,.T.);
#123=ORIENTED_EDGE('',*,*,#395,.T.);
#124=ORIENTED_EDGE('',*,*,#362,.T.);
#125=ORIENTED_EDGE('',*,*,#396,.F.);
#126=ORIENTED_EDGE('',*,*,#369,.F.);
#127=ORIENTED_EDGE('',*,*,#336,.T.);
#128=ORIENTED_EDGE('',*,*,#397,.T.);
#129=ORIENTED_EDGE('',*,*,#360,.F.);
#130=ORIENTED_EDGE('',*,*,#338,.F.);
#131=ORIENTED_EDGE('',*,*,#368,.T.);
#132=ORIENTED_EDGE('',*,*,#397,.F.);
#133=ORIENTED_EDGE('',*,*,#367,.F.);
#134=ORIENTED_EDGE('',*,*,#396,.T.);
#135=ORIENTED_EDGE('',*,*,#361,.T.);
#136=ORIENTED_EDGE('',*,*,#398,.T.);
#137=ORIENTED_EDGE('',*,*,#382,.F.);
#138=ORIENTED_EDGE('',*,*,#389,.F.);
#139=ORIENTED_EDGE('',*,*,#399,.F.);
#140=ORIENTED_EDGE('',*,*,#400,.T.);
#141=ORIENTED_EDGE('',*,*,#393,.T.);
#142=ORIENTED_EDGE('',*,*,#401,.F.);
#143=ORIENTED_EDGE('',*,*,#376,.T.);
#144=ORIENTED_EDGE('',*,*,#402,.F.);
#145=ORIENTED_EDGE('',*,*,#403,.T.);
#146=ORIENTED_EDGE('',*,*,#404,.F.);
#147=ORIENTED_EDGE('',*,*,#392,.F.);
#148=ORIENTED_EDGE('',*,*,#405,.F.);
#149=ORIENTED_EDGE('',*,*,#406,.F.);
#150=ORIENTED_EDGE('',*,*,#407,.F.);
#151=ORIENTED_EDGE('',*,*,#408,.F.);
#152=ORIENTED_EDGE('',*,*,#409,.F.);
#153=ORIENTED_EDGE('',*,*,#408,.T.);
#154=ORIENTED_EDGE('',*,*,#409,.T.);
#155=ORIENTED_EDGE('',*,*,#410,.F.);
#156=ORIENTED_EDGE('',*,*,#406,.T.);
#157=ORIENTED_EDGE('',*,*,#410,.T.);
#158=ORIENTED_EDGE('',*,*,#411,.F.);
#159=ORIENTED_EDGE('',*,*,#405,.T.);
#160=ORIENTED_EDGE('',*,*,#411,.T.);
#161=ORIENTED_EDGE('',*,*,#412,.F.);
#162=ORIENTED_EDGE('',*,*,#407,.T.);
#163=ORIENTED_EDGE('',*,*,#412,.T.);
#164=ORIENTED_EDGE('',*,*,#413,.F.);
#165=ORIENTED_EDGE('',*,*,#403,.F.);
#166=ORIENTED_EDGE('',*,*,#414,.F.);
#167=ORIENTED_EDGE('',*,*,#309,.T.);
#168=ORIENTED_EDGE('',*,*,#402,.T.);
#169=ORIENTED_EDGE('',*,*,#375,.T.);
#170=ORIENTED_EDGE('',*,*,#310,.F.);
#171=ORIENTED_EDGE('',*,*,#414,.T.);
#172=ORIENTED_EDGE('',*,*,#312,.F.);
#173=ORIENTED_EDGE('',*,*,#374,.T.);
#174=ORIENTED_EDGE('',*,*,#401,.T.);
#175=ORIENTED_EDGE('',*,*,#395,.F.);
#176=ORIENTED_EDGE('',*,*,#315,.F.);
#177=ORIENTED_EDGE('',*,*,#415,.T.);
#178=ORIENTED_EDGE('',*,*,#399,.T.);
#179=ORIENTED_EDGE('',*,*,#388,.F.);
#180=ORIENTED_EDGE('',*,*,#383,.F.);
#181=ORIENTED_EDGE('',*,*,#398,.F.);
#182=ORIENTED_EDGE('',*,*,#391,.F.);
#183=ORIENTED_EDGE('',*,*,#306,.T.);
#184=ORIENTED_EDGE('',*,*,#415,.F.);
#185=ORIENTED_EDGE('',*,*,#314,.T.);
#186=ORIENTED_EDGE('',*,*,#394,.F.);
#187=ORIENTED_EDGE('',*,*,#400,.F.);
#188=ORIENTED_EDGE('',*,*,#308,.F.);
#189=ORIENTED_EDGE('',*,*,#390,.T.);
#190=ORIENTED_EDGE('',*,*,#404,.T.);
#191=ORIENTED_EDGE('',*,*,#413,.T.);
#192=ORIENTED_EDGE('',*,*,#416,.T.);
#193=ORIENTED_EDGE('',*,*,#317,.F.);
#194=ORIENTED_EDGE('',*,*,#417,.F.);
#195=ORIENTED_EDGE('',*,*,#341,.F.);
#196=ORIENTED_EDGE('',*,*,#342,.T.);
#197=ORIENTED_EDGE('',*,*,#417,.T.);
#198=ORIENTED_EDGE('',*,*,#316,.T.);
#199=ORIENTED_EDGE('',*,*,#418,.F.);
#200=ORIENTED_EDGE('',*,*,#343,.T.);
#201=ORIENTED_EDGE('',*,*,#418,.T.);
#202=ORIENTED_EDGE('',*,*,#319,.T.);
#203=ORIENTED_EDGE('',*,*,#419,.F.);
#204=ORIENTED_EDGE('',*,*,#419,.T.);
#205=ORIENTED_EDGE('',*,*,#318,.F.);
#206=ORIENTED_EDGE('',*,*,#416,.F.);
#207=ORIENTED_EDGE('',*,*,#340,.F.);
#208=ORIENTED_EDGE('',*,*,#420,.T.);
#209=ORIENTED_EDGE('',*,*,#321,.F.);
#210=ORIENTED_EDGE('',*,*,#421,.F.);
#211=ORIENTED_EDGE('',*,*,#345,.F.);
#212=ORIENTED_EDGE('',*,*,#346,.T.);
#213=ORIENTED_EDGE('',*,*,#421,.T.);
#214=ORIENTED_EDGE('',*,*,#320,.T.);
#215=ORIENTED_EDGE('',*,*,#422,.F.);
#216=ORIENTED_EDGE('',*,*,#347,.T.);
#217=ORIENTED_EDGE('',*,*,#422,.T.);
#218=ORIENTED_EDGE('',*,*,#323,.T.);
#219=ORIENTED_EDGE('',*,*,#423,.F.);
#220=ORIENTED_EDGE('',*,*,#423,.T.);
#221=ORIENTED_EDGE('',*,*,#322,.F.);
#222=ORIENTED_EDGE('',*,*,#420,.F.);
#223=ORIENTED_EDGE('',*,*,#344,.F.);
#224=ORIENTED_EDGE('',*,*,#387,.T.);
#225=ORIENTED_EDGE('',*,*,#424,.T.);
#226=ORIENTED_EDGE('',*,*,#371,.F.);
#227=ORIENTED_EDGE('',*,*,#425,.F.);
#228=ORIENTED_EDGE('',*,*,#426,.T.);
#229=ORIENTED_EDGE('',*,*,#372,.T.);
#230=ORIENTED_EDGE('',*,*,#424,.F.);
#231=ORIENTED_EDGE('',*,*,#386,.F.);
#232=ORIENTED_EDGE('',*,*,#385,.T.);
#233=ORIENTED_EDGE('',*,*,#427,.T.);
#234=ORIENTED_EDGE('',*,*,#373,.F.);
#235=ORIENTED_EDGE('',*,*,#426,.F.);
#236=ORIENTED_EDGE('',*,*,#384,.T.);
#237=ORIENTED_EDGE('',*,*,#425,.T.);
#238=ORIENTED_EDGE('',*,*,#370,.F.);
#239=ORIENTED_EDGE('',*,*,#427,.F.);
#240=ORIENTED_EDGE('',*,*,#428,.T.);
#241=ORIENTED_EDGE('',*,*,#378,.F.);
#242=ORIENTED_EDGE('',*,*,#429,.F.);
#243=ORIENTED_EDGE('',*,*,#364,.F.);
#244=ORIENTED_EDGE('',*,*,#429,.T.);
#245=ORIENTED_EDGE('',*,*,#377,.F.);
#246=ORIENTED_EDGE('',*,*,#430,.F.);
#247=ORIENTED_EDGE('',*,*,#365,.F.);
#248=ORIENTED_EDGE('',*,*,#366,.T.);
#249=ORIENTED_EDGE('',*,*,#430,.T.);
#250=ORIENTED_EDGE('',*,*,#380,.T.);
#251=ORIENTED_EDGE('',*,*,#431,.F.);
#252=ORIENTED_EDGE('',*,*,#431,.T.);
#253=ORIENTED_EDGE('',*,*,#379,.F.);
#254=ORIENTED_EDGE('',*,*,#428,.F.);
#255=ORIENTED_EDGE('',*,*,#363,.F.);
#256=ORIENTED_EDGE('',*,*,#432,.T.);
#257=ORIENTED_EDGE('',*,*,#325,.F.);
#258=ORIENTED_EDGE('',*,*,#433,.F.);
#259=ORIENTED_EDGE('',*,*,#349,.F.);
#260=ORIENTED_EDGE('',*,*,#350,.T.);
#261=ORIENTED_EDGE('',*,*,#433,.T.);
#262=ORIENTED_EDGE('',*,*,#324,.T.);
#263=ORIENTED_EDGE('',*,*,#434,.F.);
#264=ORIENTED_EDGE('',*,*,#351,.T.);
#265=ORIENTED_EDGE('',*,*,#434,.T.);
#266=ORIENTED_EDGE('',*,*,#327,.T.);
#267=ORIENTED_EDGE('',*,*,#435,.F.);
#268=ORIENTED_EDGE('',*,*,#435,.T.);
#269=ORIENTED_EDGE('',*,*,#326,.F.);
#270=ORIENTED_EDGE('',*,*,#432,.F.);
#271=ORIENTED_EDGE('',*,*,#348,.F.);
#272=ORIENTED_EDGE('',*,*,#436,.T.);
#273=ORIENTED_EDGE('',*,*,#329,.F.);
#274=ORIENTED_EDGE('',*,*,#437,.F.);
#275=ORIENTED_EDGE('',*,*,#353,.F.);
#276=ORIENTED_EDGE('',*,*,#354,.T.);
#277=ORIENTED_EDGE('',*,*,#437,.T.);
#278=ORIENTED_EDGE('',*,*,#328,.T.);
#279=ORIENTED_EDGE('',*,*,#438,.F.);
#280=ORIENTED_EDGE('',*,*,#355,.T.);
#281=ORIENTED_EDGE('',*,*,#438,.T.);
#282=ORIENTED_EDGE('',*,*,#331,.T.);
#283=ORIENTED_EDGE('',*,*,#439,.F.);
#284=ORIENTED_EDGE('',*,*,#439,.T.);
#285=ORIENTED_EDGE('',*,*,#330,.F.);
#286=ORIENTED_EDGE('',*,*,#436,.F.);
#287=ORIENTED_EDGE('',*,*,#352,.F.);
#288=ORIENTED_EDGE('',*,*,#440,.T.);
#289=ORIENTED_EDGE('',*,*,#357,.F.);
#290=ORIENTED_EDGE('',*,*,#441,.F.);
#291=ORIENTED_EDGE('',*,*,#333,.F.);
#292=ORIENTED_EDGE('',*,*,#334,.T.);
#293=ORIENTED_EDGE('',*,*,#441,.T.);
#294=ORIENTED_EDGE('',*,*,#356,.T.);
#295=ORIENTED_EDGE('',*,*,#442,.F.);
#296=ORIENTED_EDGE('',*,*,#442,.T.);
#297=ORIENTED_EDGE('',*,*,#359,.F.);
#298=ORIENTED_EDGE('',*,*,#443,.F.);
#299=ORIENTED_EDGE('',*,*,#335,.F.);
#300=ORIENTED_EDGE('',*,*,#443,.T.);
#301=ORIENTED_EDGE('',*,*,#358,.F.);
#302=ORIENTED_EDGE('',*,*,#440,.F.);
#303=ORIENTED_EDGE('',*,*,#332,.F.);
#304=EDGE_CURVE('',#444,#445,#540,.T.);
#305=EDGE_CURVE('',#445,#446,#541,.T.);
#306=EDGE_CURVE('',#447,#446,#542,.T.);
#307=EDGE_CURVE('',#447,#448,#543,.T.);
#308=EDGE_CURVE('',#448,#449,#544,.T.);
#309=EDGE_CURVE('',#450,#449,#545,.T.);
#310=EDGE_CURVE('',#450,#451,#546,.T.);
#311=EDGE_CURVE('',#452,#451,#547,.T.);
#312=EDGE_CURVE('',#452,#453,#548,.T.);
#313=EDGE_CURVE('',#454,#453,#549,.T.);
#314=EDGE_CURVE('',#455,#454,#550,.T.);
#315=EDGE_CURVE('',#455,#444,#551,.T.);
#316=EDGE_CURVE('',#456,#457,#552,.T.);
#317=EDGE_CURVE('',#456,#458,#553,.T.);
#318=EDGE_CURVE('',#458,#459,#554,.T.);
#319=EDGE_CURVE('',#457,#459,#555,.T.);
#320=EDGE_CURVE('',#460,#461,#556,.T.);
#321=EDGE_CURVE('',#460,#462,#557,.T.);
#322=EDGE_CURVE('',#462,#463,#558,.T.);
#323=EDGE_CURVE('',#461,#463,#559,.T.);
#324=EDGE_CURVE('',#464,#465,#560,.T.);
#325=EDGE_CURVE('',#464,#466,#561,.T.);
#326=EDGE_CURVE('',#466,#467,#562,.T.);
#327=EDGE_CURVE('',#465,#467,#563,.T.);
#328=EDGE_CURVE('',#468,#469,#564,.T.);
#329=EDGE_CURVE('',#468,#470,#565,.T.);
#330=EDGE_CURVE('',#470,#471,#566,.T.);
#331=EDGE_CURVE('',#469,#471,#567,.T.);
#332=EDGE_CURVE('',#472,#473,#568,.T.);
#333=EDGE_CURVE('',#473,#474,#569,.T.);
#334=EDGE_CURVE('',#475,#474,#570,.T.);
#335=EDGE_CURVE('',#475,#472,#571,.T.);
#336=EDGE_CURVE('',#476,#477,#572,.T.);
#337=EDGE_CURVE('',#476,#478,#573,.T.);
#338=EDGE_CURVE('',#478,#479,#574,.T.);
#339=EDGE_CURVE('',#477,#479,#575,.T.);
#340=EDGE_CURVE('',#480,#481,#576,.T.);
#341=EDGE_CURVE('',#481,#482,#577,.T.);
#342=EDGE_CURVE('',#483,#482,#578,.T.);
#343=EDGE_CURVE('',#480,#483,#579,.T.);
#344=EDGE_CURVE('',#484,#485,#580,.T.);
#345=EDGE_CURVE('',#485,#486,#581,.T.);
#346=EDGE_CURVE('',#487,#486,#582,.T.);
#347=EDGE_CURVE('',#484,#487,#583,.T.);
#348=EDGE_CURVE('',#488,#489,#584,.T.);
#349=EDGE_CURVE('',#489,#490,#585,.T.);
#350=EDGE_CURVE('',#491,#490,#586,.T.);
#351=EDGE_CURVE('',#488,#491,#587,.T.);
#352=EDGE_CURVE('',#492,#493,#588,.T.);
#353=EDGE_CURVE('',#493,#494,#589,.T.);
#354=EDGE_CURVE('',#495,#494,#590,.T.);
#355=EDGE_CURVE('',#492,#495,#591,.T.);
#356=EDGE_CURVE('',#496,#497,#592,.T.);
#357=EDGE_CURVE('',#496,#498,#593,.T.);
#358=EDGE_CURVE('',#498,#499,#594,.T.);
#359=EDGE_CURVE('',#499,#497,#595,.T.);
#360=EDGE_CURVE('',#479,#500,#596,.T.);
#361=EDGE_CURVE('',#501,#500,#597,.T.);
#362=EDGE_CURVE('',#477,#501,#598,.T.);
#363=EDGE_CURVE('',#502,#503,#599,.T.);
#364=EDGE_CURVE('',#503,#504,#600,.T.);
#365=EDGE_CURVE('',#504,#505,#601,.T.);
#366=EDGE_CURVE('',#502,#505,#602,.T.);
#367=EDGE_CURVE('',#506,#507,#603,.T.);
#368=EDGE_CURVE('',#478,#507,#604,.T.);
#369=EDGE_CURVE('',#476,#506,#605,.T.);
#370=EDGE_CURVE('',#508,#509,#606,.T.);
#371=EDGE_CURVE('',#509,#510,#607,.T.);
#372=EDGE_CURVE('',#511,#510,#608,.T.);
#373=EDGE_CURVE('',#511,#508,#609,.T.);
#374=EDGE_CURVE('',#452,#512,#610,.T.);
#375=EDGE_CURVE('',#513,#451,#611,.T.);
#376=EDGE_CURVE('',#512,#513,#612,.T.);
#377=EDGE_CURVE('',#514,#515,#613,.T.);
#378=EDGE_CURVE('',#515,#516,#614,.T.);
#379=EDGE_CURVE('',#516,#517,#615,.T.);
#380=EDGE_CURVE('',#514,#517,#616,.T.);
#381=EDGE_CURVE('',#445,#518,#617,.T.);
#382=EDGE_CURVE('',#518,#519,#618,.T.);
#383=EDGE_CURVE('',#519,#446,#619,.T.);
#384=EDGE_CURVE('',#520,#521,#620,.T.);
#385=EDGE_CURVE('',#522,#520,#621,.T.);
#386=EDGE_CURVE('',#522,#523,#622,.T.);
#387=EDGE_CURVE('',#521,#523,#623,.T.);
#388=EDGE_CURVE('',#444,#524,#624,.T.);
#389=EDGE_CURVE('',#524,#518,#625,.T.);
#390=EDGE_CURVE('',#448,#525,#626,.T.);
#391=EDGE_CURVE('',#447,#526,#627,.T.);
#392=EDGE_CURVE('',#526,#525,#628,.T.);
#393=EDGE_CURVE('',#527,#528,#629,.T.);
#394=EDGE_CURVE('',#527,#454,#630,.T.);
#395=EDGE_CURVE('',#453,#528,#631,.T.);
#396=EDGE_CURVE('',#506,#501,#632,.T.);
#397=EDGE_CURVE('',#507,#500,#633,.T.);
#398=EDGE_CURVE('',#526,#519,#634,.T.);
#399=EDGE_CURVE('',#529,#524,#635,.T.);
#400=EDGE_CURVE('',#529,#527,#636,.T.);
#401=EDGE_CURVE('',#512,#528,#637,.T.);
#402=EDGE_CURVE('',#530,#513,#638,.T.);
#403=EDGE_CURVE('',#530,#531,#639,.T.);
#404=EDGE_CURVE('',#525,#531,#640,.T.);
#405=EDGE_CURVE('',#532,#532,#16,.T.);
#406=EDGE_CURVE('',#533,#533,#17,.T.);
#407=EDGE_CURVE('',#534,#534,#18,.T.);
#408=EDGE_CURVE('',#535,#535,#19,.T.);
#409=EDGE_CURVE('',#536,#536,#20,.T.);
#410=EDGE_CURVE('',#537,#537,#21,.T.);
#411=EDGE_CURVE('',#538,#538,#22,.T.);
#412=EDGE_CURVE('',#539,#539,#23,.T.);
#413=EDGE_CURVE('',#531,#449,#641,.T.);
#414=EDGE_CURVE('',#450,#530,#642,.T.);
#415=EDGE_CURVE('',#455,#529,#643,.T.);
#416=EDGE_CURVE('',#481,#458,#644,.T.);
#417=EDGE_CURVE('',#482,#456,#645,.T.);
#418=EDGE_CURVE('',#483,#457,#646,.T.);
#419=EDGE_CURVE('',#480,#459,#647,.T.);
#420=EDGE_CURVE('',#485,#462,#648,.T.);
#421=EDGE_CURVE('',#486,#460,#649,.T.);
#422=EDGE_CURVE('',#487,#461,#650,.T.);
#423=EDGE_CURVE('',#484,#463,#651,.T.);
#424=EDGE_CURVE('',#523,#510,#652,.T.);
#425=EDGE_CURVE('',#521,#509,#653,.T.);
#426=EDGE_CURVE('',#522,#511,#654,.T.);
#427=EDGE_CURVE('',#520,#508,#655,.T.);
#428=EDGE_CURVE('',#503,#516,#656,.T.);
#429=EDGE_CURVE('',#504,#515,#657,.T.);
#430=EDGE_CURVE('',#505,#514,#658,.T.);
#431=EDGE_CURVE('',#502,#517,#659,.T.);
#432=EDGE_CURVE('',#489,#466,#660,.T.);
#433=EDGE_CURVE('',#490,#464,#661,.T.);
#434=EDGE_CURVE('',#491,#465,#662,.T.);
#435=EDGE_CURVE('',#488,#467,#663,.T.);
#436=EDGE_CURVE('',#493,#470,#664,.T.);
#437=EDGE_CURVE('',#494,#468,#665,.T.);
#438=EDGE_CURVE('',#495,#469,#666,.T.);
#439=EDGE_CURVE('',#492,#471,#667,.T.);
#440=EDGE_CURVE('',#473,#498,#668,.T.);
#441=EDGE_CURVE('',#474,#496,#669,.T.);
#442=EDGE_CURVE('',#475,#497,#670,.T.);
#443=EDGE_CURVE('',#472,#499,#671,.T.);
#444=VERTEX_POINT('',#1405);
#445=VERTEX_POINT('',#1406);
#446=VERTEX_POINT('',#1408);
#447=VERTEX_POINT('',#1410);
#448=VERTEX_POINT('',#1412);
#449=VERTEX_POINT('',#1414);
#450=VERTEX_POINT('',#1416);
#451=VERTEX_POINT('',#1418);
#452=VERTEX_POINT('',#1420);
#453=VERTEX_POINT('',#1422);
#454=VERTEX_POINT('',#1424);
#455=VERTEX_POINT('',#1426);
#456=VERTEX_POINT('',#1429);
#457=VERTEX_POINT('',#1430);
#458=VERTEX_POINT('',#1432);
#459=VERTEX_POINT('',#1434);
#460=VERTEX_POINT('',#1437);
#461=VERTEX_POINT('',#1438);
#462=VERTEX_POINT('',#1440);
#463=VERTEX_POINT('',#1442);
#464=VERTEX_POINT('',#1445);
#465=VERTEX_POINT('',#1446);
#466=VERTEX_POINT('',#1448);
#467=VERTEX_POINT('',#1450);
#468=VERTEX_POINT('',#1453);
#469=VERTEX_POINT('',#1454);
#470=VERTEX_POINT('',#1456);
#471=VERTEX_POINT('',#1458);
#472=VERTEX_POINT('',#1461);
#473=VERTEX_POINT('',#1462);
#474=VERTEX_POINT('',#1464);
#475=VERTEX_POINT('',#1466);
#476=VERTEX_POINT('',#1470);
#477=VERTEX_POINT('',#1471);
#478=VERTEX_POINT('',#1473);
#479=VERTEX_POINT('',#1475);
#480=VERTEX_POINT('',#1478);
#481=VERTEX_POINT('',#1479);
#482=VERTEX_POINT('',#1481);
#483=VERTEX_POINT('',#1483);
#484=VERTEX_POINT('',#1486);
#485=VERTEX_POINT('',#1487);
#486=VERTEX_POINT('',#1489);
#487=VERTEX_POINT('',#1491);
#488=VERTEX_POINT('',#1494);
#489=VERTEX_POINT('',#1495);
#490=VERTEX_POINT('',#1497);
#491=VERTEX_POINT('',#1499);
#492=VERTEX_POINT('',#1502);
#493=VERTEX_POINT('',#1503);
#494=VERTEX_POINT('',#1505);
#495=VERTEX_POINT('',#1507);
#496=VERTEX_POINT('',#1510);
#497=VERTEX_POINT('',#1511);
#498=VERTEX_POINT('',#1513);
#499=VERTEX_POINT('',#1515);
#500=VERTEX_POINT('',#1519);
#501=VERTEX_POINT('',#1521);
#502=VERTEX_POINT('',#1524);
#503=VERTEX_POINT('',#1525);
#504=VERTEX_POINT('',#1527);
#505=VERTEX_POINT('',#1529);
#506=VERTEX_POINT('',#1533);
#507=VERTEX_POINT('',#1534);
#508=VERTEX_POINT('',#1538);
#509=VERTEX_POINT('',#1539);
#510=VERTEX_POINT('',#1541);
#511=VERTEX_POINT('',#1543);
#512=VERTEX_POINT('',#1547);
#513=VERTEX_POINT('',#1549);
#514=VERTEX_POINT('',#1552);
#515=VERTEX_POINT('',#1553);
#516=VERTEX_POINT('',#1555);
#517=VERTEX_POINT('',#1557);
#518=VERTEX_POINT('',#1561);
#519=VERTEX_POINT('',#1563);
#520=VERTEX_POINT('',#1566);
#521=VERTEX_POINT('',#1567);
#522=VERTEX_POINT('',#1569);
#523=VERTEX_POINT('',#1571);
#524=VERTEX_POINT('',#1575);
#525=VERTEX_POINT('',#1579);
#526=VERTEX_POINT('',#1581);
#527=VERTEX_POINT('',#1585);
#528=VERTEX_POINT('',#1586);
#529=VERTEX_POINT('',#1596);
#530=VERTEX_POINT('',#1600);
#531=VERTEX_POINT('',#1602);
#532=VERTEX_POINT('',#1605);
#533=VERTEX_POINT('',#1607);
#534=VERTEX_POINT('',#1609);
#535=VERTEX_POINT('',#1611);
#536=VERTEX_POINT('',#1614);
#537=VERTEX_POINT('',#1618);
#538=VERTEX_POINT('',#1622);
#539=VERTEX_POINT('',#1626);
#540=LINE('',#1404,#672);
#541=LINE('',#1407,#673);
#542=LINE('',#1409,#674);
#543=LINE('',#1411,#675);
#544=LINE('',#1413,#676);
#545=LINE('',#1415,#677);
#546=LINE('',#1417,#678);
#547=LINE('',#1419,#679);
#548=LINE('',#1421,#680);
#549=LINE('',#1423,#681);
#550=LINE('',#1425,#682);
#551=LINE('',#1427,#683);
#552=LINE('',#1428,#684);
#553=LINE('',#1431,#685);
#554=LINE('',#1433,#686);
#555=LINE('',#1435,#687);
#556=LINE('',#1436,#688);
#557=LINE('',#1439,#689);
#558=LINE('',#1441,#690);
#559=LINE('',#1443,#691);
#560=LINE('',#1444,#692);
#561=LINE('',#1447,#693);
#562=LINE('',#1449,#694);
#563=LINE('',#1451,#695);
#564=LINE('',#1452,#696);
#565=LINE('',#1455,#697);
#566=LINE('',#1457,#698);
#567=LINE('',#1459,#699);
#568=LINE('',#1460,#700);
#569=LINE('',#1463,#701);
#570=LINE('',#1465,#702);
#571=LINE('',#1467,#703);
#572=LINE('',#1469,#704);
#573=LINE('',#1472,#705);
#574=LINE('',#1474,#706);
#575=LINE('',#1476,#707);
#576=LINE('',#1477,#708);
#577=LINE('',#1480,#709);
#578=LINE('',#1482,#710);
#579=LINE('',#1484,#711);
#580=LINE('',#1485,#712);
#581=LINE('',#1488,#713);
#582=LINE('',#1490,#714);
#583=LINE('',#1492,#715);
#584=LINE('',#1493,#716);
#585=LINE('',#1496,#717);
#586=LINE('',#1498,#718);
#587=LINE('',#1500,#719);
#588=LINE('',#1501,#720);
#589=LINE('',#1504,#721);
#590=LINE('',#1506,#722);
#591=LINE('',#1508,#723);
#592=LINE('',#1509,#724);
#593=LINE('',#1512,#725);
#594=LINE('',#1514,#726);
#595=LINE('',#1516,#727);
#596=LINE('',#1518,#728);
#597=LINE('',#1520,#729);
#598=LINE('',#1522,#730);
#599=LINE('',#1523,#731);
#600=LINE('',#1526,#732);
#601=LINE('',#1528,#733);
#602=LINE('',#1530,#734);
#603=LINE('',#1532,#735);
#604=LINE('',#1535,#736);
#605=LINE('',#1536,#737);
#606=LINE('',#1537,#738);
#607=LINE('',#1540,#739);
#608=LINE('',#1542,#740);
#609=LINE('',#1544,#741);
#610=LINE('',#1546,#742);
#611=LINE('',#1548,#743);
#612=LINE('',#1550,#744);
#613=LINE('',#1551,#745);
#614=LINE('',#1554,#746);
#615=LINE('',#1556,#747);
#616=LINE('',#1558,#748);
#617=LINE('',#1560,#749);
#618=LINE('',#1562,#750);
#619=LINE('',#1564,#751);
#620=LINE('',#1565,#752);
#621=LINE('',#1568,#753);
#622=LINE('',#1570,#754);
#623=LINE('',#1572,#755);
#624=LINE('',#1574,#756);
#625=LINE('',#1576,#757);
#626=LINE('',#1578,#758);
#627=LINE('',#1580,#759);
#628=LINE('',#1582,#760);
#629=LINE('',#1584,#761);
#630=LINE('',#1587,#762);
#631=LINE('',#1588,#763);
#632=LINE('',#1590,#764);
#633=LINE('',#1592,#765);
#634=LINE('',#1594,#766);
#635=LINE('',#1595,#767);
#636=LINE('',#1597,#768);
#637=LINE('',#1598,#769);
#638=LINE('',#1599,#770);
#639=LINE('',#1601,#771);
#640=LINE('',#1603,#772);
#641=LINE('',#1629,#773);
#642=LINE('',#1630,#774);
#643=LINE('',#1634,#775);
#644=LINE('',#1639,#776);
#645=LINE('',#1640,#777);
#646=LINE('',#1642,#778);
#647=LINE('',#1644,#779);
#648=LINE('',#1647,#780);
#649=LINE('',#1648,#781);
#650=LINE('',#1650,#782);
#651=LINE('',#1652,#783);
#652=LINE('',#1655,#784);
#653=LINE('',#1656,#785);
#654=LINE('',#1658,#786);
#655=LINE('',#1660,#787);
#656=LINE('',#1663,#788);
#657=LINE('',#1664,#789);
#658=LINE('',#1666,#790);
#659=LINE('',#1668,#791);
#660=LINE('',#1671,#792);
#661=LINE('',#1672,#793);
#662=LINE('',#1674,#794);
#663=LINE('',#1676,#795);
#664=LINE('',#1679,#796);
#665=LINE('',#1680,#797);
#666=LINE('',#1682,#798);
#667=LINE('',#1684,#799);
#668=LINE('',#1687,#800);
#669=LINE('',#1688,#801);
#670=LINE('',#1690,#802);
#671=LINE('',#1692,#803);
#672=VECTOR('',#1146,1.);
#673=VECTOR('',#1147,1.);
#674=VECTOR('',#1148,1.);
#675=VECTOR('',#1149,1.);
#676=VECTOR('',#1150,1.);
#677=VECTOR('',#1151,1.);
#678=VECTOR('',#1152,1.);
#679=VECTOR('',#1153,1.);
#680=VECTOR('',#1154,1.);
#681=VECTOR('',#1155,1.);
#682=VECTOR('',#1156,1.);
#683=VECTOR('',#1157,1.);
#684=VECTOR('',#1158,1.);
#685=VECTOR('',#1159,1.);
#686=VECTOR('',#1160,1.);
#687=VECTOR('',#1161,1.);
#688=VECTOR('',#1162,1.);
#689=VECTOR('',#1163,1.);
#690=VECTOR('',#1164,1.);
#691=VECTOR('',#1165,1.);
#692=VECTOR('',#1166,1.);
#693=VECTOR('',#1167,1.);
#694=VECTOR('',#1168,1.);
#695=VECTOR('',#1169,1.);
#696=VECTOR('',#1170,1.);
#697=VECTOR('',#1171,1.);
#698=VECTOR('',#1172,1.);
#699=VECTOR('',#1173,1.);
#700=VECTOR('',#1174,1.);
#701=VECTOR('',#1175,1.);
#702=VECTOR('',#1176,1.);
#703=VECTOR('',#1177,1.);
#704=VECTOR('',#1180,1.);
#705=VECTOR('',#1181,1.);
#706=VECTOR('',#1182,1.);
#707=VECTOR('',#1183,1.);
#708=VECTOR('',#1184,1.);
#709=VECTOR('',#1185,1.);
#710=VECTOR('',#1186,1.);
#711=VECTOR('',#1187,1.);
#712=VECTOR('',#1188,1.);
#713=VECTOR('',#1189,1.);
#714=VECTOR('',#1190,1.);
#715=VECTOR('',#1191,1.);
#716=VECTOR('',#1192,1.);
#717=VECTOR('',#1193,1.);
#718=VECTOR('',#1194,1.);
#719=VECTOR('',#1195,1.);
#720=VECTOR('',#1196,1.);
#721=VECTOR('',#1197,1.);
#722=VECTOR('',#1198,1.);
#723=VECTOR('',#1199,1.);
#724=VECTOR('',#1200,1.);
#725=VECTOR('',#1201,1.);
#726=VECTOR('',#1202,1.);
#727=VECTOR('',#1203,1.);
#728=VECTOR('',#1206,1.);
#729=VECTOR('',#1207,1.);
#730=VECTOR('',#1208,1.);
#731=VECTOR('',#1209,1.);
#732=VECTOR('',#1210,1.);
#733=VECTOR('',#1211,1.);
#734=VECTOR('',#1212,1.);
#735=VECTOR('',#1215,1.);
#736=VECTOR('',#1216,1.);
#737=VECTOR('',#1217,1.);
#738=VECTOR('',#1218,1.);
#739=VECTOR('',#1219,1.);
#740=VECTOR('',#1220,1.);
#741=VECTOR('',#1221,1.);
#742=VECTOR('',#1224,1.);
#743=VECTOR('',#1225,1.);
#744=VECTOR('',#1226,1.);
#745=VECTOR('',#1227,1.);
#746=VECTOR('',#1228,1.);
#747=VECTOR('',#1229,1.);
#748=VECTOR('',#1230,1.);
#749=VECTOR('',#1233,1.);
#750=VECTOR('',#1234,1.);
#751=VECTOR('',#1235,1.);
#752=VECTOR('',#1236,1.);
#753=VECTOR('',#1237,1.);
#754=VECTOR('',#1238,1.);
#755=VECTOR('',#1239,1.);
#756=VECTOR('',#1242,1.);
#757=VECTOR('',#1243,1.);
#758=VECTOR('',#1246,1.);
#759=VECTOR('',#1247,1.);
#760=VECTOR('',#1248,1.);
#761=VECTOR('',#1251,1.);
#762=VECTOR('',#1252,1.);
#763=VECTOR('',#1253,1.);
#764=VECTOR('',#1256,1.);
#765=VECTOR('',#1259,1.);
#766=VECTOR('',#1262,1.);
#767=VECTOR('',#1263,1.);
#768=VECTOR('',#1264,1.);
#769=VECTOR('',#1265,1.);
#770=VECTOR('',#1266,1.);
#771=VECTOR('',#1267,1.);
#772=VECTOR('',#1268,1.);
#773=VECTOR('',#1303,1.);
#774=VECTOR('',#1304,1.);
#775=VECTOR('',#1311,1.);
#776=VECTOR('',#1320,1.);
#777=VECTOR('',#1321,1.);
#778=VECTOR('',#1324,1.);
#779=VECTOR('',#1327,1.);
#780=VECTOR('',#1332,1.);
#781=VECTOR('',#1333,1.);
#782=VECTOR('',#1336,1.);
#783=VECTOR('',#1339,1.);
#784=VECTOR('',#1344,1.);
#785=VECTOR('',#1345,1.);
#786=VECTOR('',#1348,1.);
#787=VECTOR('',#1351,1.);
#788=VECTOR('',#1356,1.);
#789=VECTOR('',#1357,1.);
#790=VECTOR('',#1360,1.);
#791=VECTOR('',#1363,1.);
#792=VECTOR('',#1368,1.);
#793=VECTOR('',#1369,1.);
#794=VECTOR('',#1372,1.);
#795=VECTOR('',#1375,1.);
#796=VECTOR('',#1380,1.);
#797=VECTOR('',#1381,1.);
#798=VECTOR('',#1384,1.);
#799=VECTOR('',#1387,1.);
#800=VECTOR('',#1392,1.);
#801=VECTOR('',#1393,1.);
#802=VECTOR('',#1396,1.);
#803=VECTOR('',#1399,1.);
#804=EDGE_LOOP('',(#24,#25,#26,#27,#28,#29,#30,#31,#32,#33,#34,#35));
#805=EDGE_LOOP('',(#36,#37,#38,#39));
#806=EDGE_LOOP('',(#40,#41,#42,#43));
#807=EDGE_LOOP('',(#44,#45,#46,#47));
#808=EDGE_LOOP('',(#48,#49,#50,#51));
#809=EDGE_LOOP('',(#52,#53,#54,#55));
#810=EDGE_LOOP('',(#56,#57,#58,#59));
#811=EDGE_LOOP('',(#60,#61,#62,#63));
#812=EDGE_LOOP('',(#64,#65,#66,#67));
#813=EDGE_LOOP('',(#68,#69,#70,#71));
#814=EDGE_LOOP('',(#72,#73,#74,#75));
#815=EDGE_LOOP('',(#76,#77,#78,#79));
#816=EDGE_LOOP('',(#80,#81,#82,#83));
#817=EDGE_LOOP('',(#84,#85,#86,#87));
#818=EDGE_LOOP('',(#88,#89,#90,#91));
#819=EDGE_LOOP('',(#92,#93,#94,#95));
#820=EDGE_LOOP('',(#96,#97,#98,#99));
#821=EDGE_LOOP('',(#100,#101,#102,#103));
#822=EDGE_LOOP('',(#104,#105,#106,#107));
#823=EDGE_LOOP('',(#108,#109,#110,#111));
#824=EDGE_LOOP('',(#112,#113,#114,#115));
#825=EDGE_LOOP('',(#116,#117,#118,#119));
#826=EDGE_LOOP('',(#120,#121,#122,#123));
#827=EDGE_LOOP('',(#124,#125,#126,#127));
#828=EDGE_LOOP('',(#128,#129,#130,#131));
#829=EDGE_LOOP('',(#132,#133,#134,#135));
#830=EDGE_LOOP('',(#136,#137,#138,#139,#140,#141,#142,#143,#144,#145,#146,
#147));
#831=EDGE_LOOP('',(#148));
#832=EDGE_LOOP('',(#149));
#833=EDGE_LOOP('',(#150));
#834=EDGE_LOOP('',(#151));
#835=EDGE_LOOP('',(#152));
#836=EDGE_LOOP('',(#153));
#837=EDGE_LOOP('',(#154));
#838=EDGE_LOOP('',(#155));
#839=EDGE_LOOP('',(#156));
#840=EDGE_LOOP('',(#157));
#841=EDGE_LOOP('',(#158));
#842=EDGE_LOOP('',(#159));
#843=EDGE_LOOP('',(#160));
#844=EDGE_LOOP('',(#161));
#845=EDGE_LOOP('',(#162));
#846=EDGE_LOOP('',(#163));
#847=EDGE_LOOP('',(#164,#165,#166,#167));
#848=EDGE_LOOP('',(#168,#169,#170,#171));
#849=EDGE_LOOP('',(#172,#173,#174,#175));
#850=EDGE_LOOP('',(#176,#177,#178,#179));
#851=EDGE_LOOP('',(#180,#181,#182,#183));
#852=EDGE_LOOP('',(#184,#185,#186,#187));
#853=EDGE_LOOP('',(#188,#189,#190,#191));
#854=EDGE_LOOP('',(#192,#193,#194,#195));
#855=EDGE_LOOP('',(#196,#197,#198,#199));
#856=EDGE_LOOP('',(#200,#201,#202,#203));
#857=EDGE_LOOP('',(#204,#205,#206,#207));
#858=EDGE_LOOP('',(#208,#209,#210,#211));
#859=EDGE_LOOP('',(#212,#213,#214,#215));
#860=EDGE_LOOP('',(#216,#217,#218,#219));
#861=EDGE_LOOP('',(#220,#221,#222,#223));
#862=EDGE_LOOP('',(#224,#225,#226,#227));
#863=EDGE_LOOP('',(#228,#229,#230,#231));
#864=EDGE_LOOP('',(#232,#233,#234,#235));
#865=EDGE_LOOP('',(#236,#237,#238,#239));
#866=EDGE_LOOP('',(#240,#241,#242,#243));
#867=EDGE_LOOP('',(#244,#245,#246,#247));
#868=EDGE_LOOP('',(#248,#249,#250,#251));
#869=EDGE_LOOP('',(#252,#253,#254,#255));
#870=EDGE_LOOP('',(#256,#257,#258,#259));
#871=EDGE_LOOP('',(#260,#261,#262,#263));
#872=EDGE_LOOP('',(#264,#265,#266,#267));
#873=EDGE_LOOP('',(#268,#269,#270,#271));
#874=EDGE_LOOP('',(#272,#273,#274,#275));
#875=EDGE_LOOP('',(#276,#277,#278,#279));
#876=EDGE_LOOP('',(#280,#281,#282,#283));
#877=EDGE_LOOP('',(#284,#285,#286,#287));
#878=EDGE_LOOP('',(#288,#289,#290,#291));
#879=EDGE_LOOP('',(#292,#293,#294,#295));
#880=EDGE_LOOP('',(#296,#297,#298,#299));
#881=EDGE_LOOP('',(#300,#301,#302,#303));
#882=FACE_BOUND('',#804,.T.);
#883=FACE_BOUND('',#805,.T.);
#884=FACE_BOUND('',#806,.T.);
#885=FACE_BOUND('',#807,.T.);
#886=FACE_BOUND('',#808,.T.);
#887=FACE_BOUND('',#809,.T.);
#888=FACE_BOUND('',#810,.T.);
#889=FACE_BOUND('',#811,.T.);
#890=FACE_BOUND('',#812,.T.);
#891=FACE_BOUND('',#813,.T.);
#892=FACE_BOUND('',#814,.T.);
#893=FACE_BOUND('',#815,.T.);
#894=FACE_BOUND('',#816,.T.);
#895=FACE_BOUND('',#817,.T.);
#896=FACE_BOUND('',#818,.T.);
#897=FACE_BOUND('',#819,.T.);
#898=FACE_BOUND('',#820,.T.);
#899=FACE_BOUND('',#821,.T.);
#900=FACE_BOUND('',#822,.T.);
#901=FACE_BOUND('',#823,.T.);
#902=FACE_BOUND('',#824,.T.);
#903=FACE_BOUND('',#825,.T.);
#904=FACE_BOUND('',#826,.T.);
#905=FACE_BOUND('',#827,.T.);
#906=FACE_BOUND('',#828,.T.);
#907=FACE_BOUND('',#829,.T.);
#908=FACE_BOUND('',#830,.T.);
#909=FACE_BOUND('',#831,.T.);
#910=FACE_BOUND('',#832,.T.);
#911=FACE_BOUND('',#833,.T.);
#912=FACE_BOUND('',#834,.T.);
#913=FACE_BOUND('',#835,.T.);
#914=FACE_BOUND('',#836,.T.);
#915=FACE_BOUND('',#837,.T.);
#916=FACE_BOUND('',#838,.T.);
#917=FACE_BOUND('',#839,.T.);
#918=FACE_BOUND('',#840,.T.);
#919=FACE_BOUND('',#841,.T.);
#920=FACE_BOUND('',#842,.T.);
#921=FACE_BOUND('',#843,.T.);
#922=FACE_BOUND('',#844,.T.);
#923=FACE_BOUND('',#845,.T.);
#924=FACE_BOUND('',#846,.T.);
#925=FACE_BOUND('',#847,.T.);
#926=FACE_BOUND('',#848,.T.);
#927=FACE_BOUND('',#849,.T.);
#928=FACE_BOUND('',#850,.T.);
#929=FACE_BOUND('',#851,.T.);
#930=FACE_BOUND('',#852,.T.);
#931=FACE_BOUND('',#853,.T.);
#932=FACE_BOUND('',#854,.T.);
#933=FACE_BOUND('',#855,.T.);
#934=FACE_BOUND('',#856,.T.);
#935=FACE_BOUND('',#857,.T.);
#936=FACE_BOUND('',#858,.T.);
#937=FACE_BOUND('',#859,.T.);
#938=FACE_BOUND('',#860,.T.);
#939=FACE_BOUND('',#861,.T.);
#940=FACE_BOUND('',#862,.T.);
#941=FACE_BOUND('',#863,.T.);
#942=FACE_BOUND('',#864,.T.);
#943=FACE_BOUND('',#865,.T.);
#944=FACE_BOUND('',#866,.T.);
#945=FACE_BOUND('',#867,.T.);
#946=FACE_BOUND('',#868,.T.);
#947=FACE_BOUND('',#869,.T.);
#948=FACE_BOUND('',#870,.T.);
#949=FACE_BOUND('',#871,.T.);
#950=FACE_BOUND('',#872,.T.);
#951=FACE_BOUND('',#873,.T.);
#952=FACE_BOUND('',#874,.T.);
#953=FACE_BOUND('',#875,.T.);
#954=FACE_BOUND('',#876,.T.);
#955=FACE_BOUND('',#877,.T.);
#956=FACE_BOUND('',#878,.T.);
#957=FACE_BOUND('',#879,.T.);
#958=FACE_BOUND('',#880,.T.);
#959=FACE_BOUND('',#881,.T.);
#960=PLANE('',#1079);
#961=PLANE('',#1080);
#962=PLANE('',#1081);
#963=PLANE('',#1082);
#964=PLANE('',#1083);
#965=PLANE('',#1084);
#966=PLANE('',#1085);
#967=PLANE('',#1086);
#968=PLANE('',#1087);
#969=PLANE('',#1088);
#970=PLANE('',#1089);
#971=PLANE('',#1090);
#972=PLANE('',#1097);
#973=PLANE('',#1100);
#974=PLANE('',#1103);
#975=PLANE('',#1106);
#976=PLANE('',#1107);
#977=PLANE('',#1108);
#978=PLANE('',#1109);
#979=PLANE('',#1110);
#980=PLANE('',#1111);
#981=PLANE('',#1112);
#982=PLANE('',#1113);
#983=PLANE('',#1114);
#984=PLANE('',#1115);
#985=PLANE('',#1116);
#986=PLANE('',#1117);
#987=PLANE('',#1118);
#988=PLANE('',#1119);
#989=PLANE('',#1120);
#990=PLANE('',#1121);
#991=PLANE('',#1122);
#992=PLANE('',#1123);
#993=PLANE('',#1124);
#994=PLANE('',#1125);
#995=PLANE('',#1126);
#996=PLANE('',#1127);
#997=PLANE('',#1128);
#998=PLANE('',#1129);
#999=PLANE('',#1130);
#1000=PLANE('',#1131);
#1001=PLANE('',#1132);
#1002=PLANE('',#1133);
#1003=PLANE('',#1134);
#1004=PLANE('',#1135);
#1005=PLANE('',#1136);
#1006=PLANE('',#1137);
#1007=PLANE('',#1138);
#1008=PLANE('',#1139);
#1009=PLANE('',#1140);
#1010=PLANE('',#1141);
#1011=ADVANCED_FACE('',(#882,#883,#884,#885,#886,#887),#960,.T.);
#1012=ADVANCED_FACE('',(#888,#889,#890,#891,#892,#893),#961,.T.);
#1013=ADVANCED_FACE('',(#894,#895),#962,.T.);
#1014=ADVANCED_FACE('',(#896,#897),#963,.F.);
#1015=ADVANCED_FACE('',(#898,#899),#964,.T.);
#1016=ADVANCED_FACE('',(#900,#901),#965,.F.);
#1017=ADVANCED_FACE('',(#902),#966,.F.);
#1018=ADVANCED_FACE('',(#903),#967,.F.);
#1019=ADVANCED_FACE('',(#904),#968,.T.);
#1020=ADVANCED_FACE('',(#905),#969,.T.);
#1021=ADVANCED_FACE('',(#906),#970,.F.);
#1022=ADVANCED_FACE('',(#907,#908,#909,#910,#911,#912),#971,.F.);
#1023=ADVANCED_FACE('',(#913,#914),#12,.F.);
#1024=ADVANCED_FACE('',(#915),#972,.T.);
#1025=ADVANCED_FACE('',(#916,#917),#13,.F.);
#1026=ADVANCED_FACE('',(#918),#973,.T.);
#1027=ADVANCED_FACE('',(#919,#920),#14,.F.);
#1028=ADVANCED_FACE('',(#921),#974,.T.);
#1029=ADVANCED_FACE('',(#922,#923),#15,.F.);
#1030=ADVANCED_FACE('',(#924),#975,.T.);
#1031=ADVANCED_FACE('',(#925),#976,.T.);
#1032=ADVANCED_FACE('',(#926),#977,.F.);
#1033=ADVANCED_FACE('',(#927),#978,.F.);
#1034=ADVANCED_FACE('',(#928),#979,.F.);
#1035=ADVANCED_FACE('',(#929),#980,.T.);
#1036=ADVANCED_FACE('',(#930),#981,.T.);
#1037=ADVANCED_FACE('',(#931),#982,.F.);
#1038=ADVANCED_FACE('',(#932),#983,.T.);
#1039=ADVANCED_FACE('',(#933),#984,.F.);
#1040=ADVANCED_FACE('',(#934),#985,.F.);
#1041=ADVANCED_FACE('',(#935),#986,.T.);
#1042=ADVANCED_FACE('',(#936),#987,.T.);
#1043=ADVANCED_FACE('',(#937),#988,.F.);
#1044=ADVANCED_FACE('',(#938),#989,.F.);
#1045=ADVANCED_FACE('',(#939),#990,.T.);
#1046=ADVANCED_FACE('',(#940),#991,.T.);
#1047=ADVANCED_FACE('',(#941),#992,.F.);
#1048=ADVANCED_FACE('',(#942),#993,.T.);
#1049=ADVANCED_FACE('',(#943),#994,.T.);
#1050=ADVANCED_FACE('',(#944),#995,.T.);
#1051=ADVANCED_FACE('',(#945),#996,.T.);
#1052=ADVANCED_FACE('',(#946),#997,.F.);
#1053=ADVANCED_FACE('',(#947),#998,.T.);
#1054=ADVANCED_FACE('',(#948),#999,.T.);
#1055=ADVANCED_FACE('',(#949),#1000,.F.);
#1056=ADVANCED_FACE('',(#950),#1001,.F.);
#1057=ADVANCED_FACE('',(#951),#1002,.T.);
#1058=ADVANCED_FACE('',(#952),#1003,.T.);
#1059=ADVANCED_FACE('',(#953),#1004,.F.);
#1060=ADVANCED_FACE('',(#954),#1005,.F.);
#1061=ADVANCED_FACE('',(#955),#1006,.T.);
#1062=ADVANCED_FACE('',(#956),#1007,.T.);
#1063=ADVANCED_FACE('',(#957),#1008,.F.);
#1064=ADVANCED_FACE('',(#958),#1009,.T.);
#1065=ADVANCED_FACE('',(#959),#1010,.T.);
#1066=CLOSED_SHELL('',(#1011,#1012,#1013,#1014,#1015,#1016,#1017,#1018,
#1019,#1020,#1021,#1022,#1023,#1024,#1025,#1026,#1027,#1028,#1029,#1030,
#1031,#1032,#1033,#1034,#1035,#1036,#1037,#1038,#1039,#1040,#1041,#1042,
#1043,#1044,#1045,#1046,#1047,#1048,#1049,#1050,#1051,#1052,#1053,#1054,
#1055,#1056,#1057,#1058,#1059,#1060,#1061,#1062,#1063,#1064,#1065));
#1067=STYLED_ITEM('',(#1068),#1075);
#1068=PRESENTATION_STYLE_ASSIGNMENT((#1069));
#1069=SURFACE_STYLE_USAGE(.BOTH.,#1070);
#1070=SURFACE_SIDE_STYLE('',(#1071));
#1071=SURFACE_STYLE_FILL_AREA(#1072);
#1072=FILL_AREA_STYLE('',(#1073));
#1073=FILL_AREA_STYLE_COLOUR('',#1074);
#1074=COLOUR_RGB('',0.615686274509804,0.811764705882353,0.929411764705882);
#1075=MANIFOLD_SOLID_BREP('Part 1',#1066);
#1076=SHAPE_DEFINITION_REPRESENTATION(#1700,#1077);
#1077=SHAPE_REPRESENTATION('Part 1',(#1078),#1695);
#1078=AXIS2_PLACEMENT_3D('',#1402,#1142,#1143);
#1079=AXIS2_PLACEMENT_3D('',#1403,#1144,#1145);
#1080=AXIS2_PLACEMENT_3D('',#1468,#1178,#1179);
#1081=AXIS2_PLACEMENT_3D('',#1517,#1204,#1205);
#1082=AXIS2_PLACEMENT_3D('',#1531,#1213,#1214);
#1083=AXIS2_PLACEMENT_3D('',#1545,#1222,#1223);
#1084=AXIS2_PLACEMENT_3D('',#1559,#1231,#1232);
#1085=AXIS2_PLACEMENT_3D('',#1573,#1240,#1241);
#1086=AXIS2_PLACEMENT_3D('',#1577,#1244,#1245);
#1087=AXIS2_PLACEMENT_3D('',#1583,#1249,#1250);
#1088=AXIS2_PLACEMENT_3D('',#1589,#1254,#1255);
#1089=AXIS2_PLACEMENT_3D('',#1591,#1257,#1258);
#1090=AXIS2_PLACEMENT_3D('',#1593,#1260,#1261);
#1091=AXIS2_PLACEMENT_3D('',#1604,#1269,#1270);
#1092=AXIS2_PLACEMENT_3D('',#1606,#1271,#1272);
#1093=AXIS2_PLACEMENT_3D('',#1608,#1273,#1274);
#1094=AXIS2_PLACEMENT_3D('',#1610,#1275,#1276);
#1095=AXIS2_PLACEMENT_3D('',#1612,#1277,#1278);
#1096=AXIS2_PLACEMENT_3D('',#1613,#1279,#1280);
#1097=AXIS2_PLACEMENT_3D('',#1615,#1281,#1282);
#1098=AXIS2_PLACEMENT_3D('',#1616,#1283,#1284);
#1099=AXIS2_PLACEMENT_3D('',#1617,#1285,#1286);
#1100=AXIS2_PLACEMENT_3D('',#1619,#1287,#1288);
#1101=AXIS2_PLACEMENT_3D('',#1620,#1289,#1290);
#1102=AXIS2_PLACEMENT_3D('',#1621,#1291,#1292);
#1103=AXIS2_PLACEMENT_3D('',#1623,#1293,#1294);
#1104=AXIS2_PLACEMENT_3D('',#1624,#1295,#1296);
#1105=AXIS2_PLACEMENT_3D('',#1625,#1297,#1298);
#1106=AXIS2_PLACEMENT_3D('',#1627,#1299,#1300);
#1107=AXIS2_PLACEMENT_3D('',#1628,#1301,#1302);
#1108=AXIS2_PLACEMENT_3D('',#1631,#1305,#1306);
#1109=AXIS2_PLACEMENT_3D('',#1632,#1307,#1308);
#1110=AXIS2_PLACEMENT_3D('',#1633,#1309,#1310);
#1111=AXIS2_PLACEMENT_3D('',#1635,#1312,#1313);
#1112=AXIS2_PLACEMENT_3D('',#1636,#1314,#1315);
#1113=AXIS2_PLACEMENT_3D('',#1637,#1316,#1317);
#1114=AXIS2_PLACEMENT_3D('',#1638,#1318,#1319);
#1115=AXIS2_PLACEMENT_3D('',#1641,#1322,#1323);
#1116=AXIS2_PLACEMENT_3D('',#1643,#1325,#1326);
#1117=AXIS2_PLACEMENT_3D('',#1645,#1328,#1329);
#1118=AXIS2_PLACEMENT_3D('',#1646,#1330,#1331);
#1119=AXIS2_PLACEMENT_3D('',#1649,#1334,#1335);
#1120=AXIS2_PLACEMENT_3D('',#1651,#1337,#1338);
#1121=AXIS2_PLACEMENT_3D('',#1653,#1340,#1341);
#1122=AXIS2_PLACEMENT_3D('',#1654,#1342,#1343);
#1123=AXIS2_PLACEMENT_3D('',#1657,#1346,#1347);
#1124=AXIS2_PLACEMENT_3D('',#1659,#1349,#1350);
#1125=AXIS2_PLACEMENT_3D('',#1661,#1352,#1353);
#1126=AXIS2_PLACEMENT_3D('',#1662,#1354,#1355);
#1127=AXIS2_PLACEMENT_3D('',#1665,#1358,#1359);
#1128=AXIS2_PLACEMENT_3D('',#1667,#1361,#1362);
#1129=AXIS2_PLACEMENT_3D('',#1669,#1364,#1365);
#1130=AXIS2_PLACEMENT_3D('',#1670,#1366,#1367);
#1131=AXIS2_PLACEMENT_3D('',#1673,#1370,#1371);
#1132=AXIS2_PLACEMENT_3D('',#1675,#1373,#1374);
#1133=AXIS2_PLACEMENT_3D('',#1677,#1376,#1377);
#1134=AXIS2_PLACEMENT_3D('',#1678,#1378,#1379);
#1135=AXIS2_PLACEMENT_3D('',#1681,#1382,#1383);
#1136=AXIS2_PLACEMENT_3D('',#1683,#1385,#1386);
#1137=AXIS2_PLACEMENT_3D('',#1685,#1388,#1389);
#1138=AXIS2_PLACEMENT_3D('',#1686,#1390,#1391);
#1139=AXIS2_PLACEMENT_3D('',#1689,#1394,#1395);
#1140=AXIS2_PLACEMENT_3D('',#1691,#1397,#1398);
#1141=AXIS2_PLACEMENT_3D('',#1693,#1400,#1401);
#1142=DIRECTION('',(0.,0.,1.));
#1143=DIRECTION('',(1.,0.,0.));
#1144=DIRECTION('',(0.,0.,-1.));
#1145=DIRECTION('',(1.,0.,0.));
#1146=DIRECTION('',(0.,1.,0.));
#1147=DIRECTION('',(1.,0.,0.));
#1148=DIRECTION('',(0.,1.,0.));
#1149=DIRECTION('',(1.,0.,0.));
#1150=DIRECTION('',(0.,-1.,0.));
#1151=DIRECTION('',(1.,0.,0.));
#1152=DIRECTION('',(0.,-1.,0.));
#1153=DIRECTION('',(1.,0.,0.));
#1154=DIRECTION('',(0.,1.,0.));
#1155=DIRECTION('',(1.,0.,0.));
#1156=DIRECTION('',(0.,-1.,0.));
#1157=DIRECTION('',(1.,0.,0.));
#1158=DIRECTION('',(-1.,1.15648231731787E-16,0.));
#1159=DIRECTION('',(0.,1.,0.));
#1160=DIRECTION('',(-1.,2.31296463463574E-16,0.));
#1161=DIRECTION('',(1.020425574104E-16,1.,0.));
#1162=DIRECTION('',(-1.,-1.15648231731787E-16,0.));
#1163=DIRECTION('',(-2.04085114820801E-16,1.,0.));
#1164=DIRECTION('',(-1.,-2.31296463463574E-16,0.));
#1165=DIRECTION('',(-2.04085114820801E-16,1.,0.));
#1166=DIRECTION('',(0.,-1.,0.));
#1167=DIRECTION('',(-1.,0.,0.));
#1168=DIRECTION('',(0.,-1.,0.));
#1169=DIRECTION('',(-1.,0.,0.));
#1170=DIRECTION('',(0.,-1.,0.));
#1171=DIRECTION('',(-1.,0.,0.));
#1172=DIRECTION('',(0.,-1.,0.));
#1173=DIRECTION('',(-1.,0.,0.));
#1174=DIRECTION('',(0.,-1.,0.));
#1175=DIRECTION('',(1.,0.,0.));
#1176=DIRECTION('',(1.7347234759768E-16,-1.,0.));
#1177=DIRECTION('',(-1.,0.,0.));
#1178=DIRECTION('',(0.,0.,1.));
#1179=DIRECTION('',(1.,0.,0.));
#1180=DIRECTION('',(-9.91270557701033E-17,-1.,0.));
#1181=DIRECTION('',(-1.,0.,0.));
#1182=DIRECTION('',(-9.91270557701033E-17,-1.,0.));
#1183=DIRECTION('',(-1.,0.,0.));
#1184=DIRECTION('',(1.,-2.31296463463574E-16,0.));
#1185=DIRECTION('',(0.,-1.,0.));
#1186=DIRECTION('',(1.,-1.15648231731787E-16,0.));
#1187=DIRECTION('',(-1.020425574104E-16,-1.,0.));
#1188=DIRECTION('',(1.,2.31296463463574E-16,0.));
#1189=DIRECTION('',(2.04085114820801E-16,-1.,0.));
#1190=DIRECTION('',(1.,1.15648231731787E-16,0.));
#1191=DIRECTION('',(2.04085114820801E-16,-1.,0.));
#1192=DIRECTION('',(0.,1.,0.));
#1193=DIRECTION('',(1.,0.,0.));
#1194=DIRECTION('',(0.,1.,0.));
#1195=DIRECTION('',(1.,0.,0.));
#1196=DIRECTION('',(0.,1.,0.));
#1197=DIRECTION('',(1.,0.,0.));
#1198=DIRECTION('',(0.,1.,0.));
#1199=DIRECTION('',(1.,0.,0.));
#1200=DIRECTION('',(-1.7347234759768E-16,1.,0.));
#1201=DIRECTION('',(-1.,0.,0.));
#1202=DIRECTION('',(0.,1.,0.));
#1203=DIRECTION('',(1.,0.,0.));
#1204=DIRECTION('',(0.,-1.,0.));
#1205=DIRECTION('',(0.,0.,-1.));
#1206=DIRECTION('',(0.,0.,-1.));
#1207=DIRECTION('',(-1.,0.,0.));
#1208=DIRECTION('',(0.,0.,-1.));
#1209=DIRECTION('',(1.,0.,0.));
#1210=DIRECTION('',(0.,0.,-1.));
#1211=DIRECTION('',(-1.,0.,0.));
#1212=DIRECTION('',(-1.7347234759768E-16,0.,-1.));
#1213=DIRECTION('',(0.,-1.,0.));
#1214=DIRECTION('',(0.,0.,-1.));
#1215=DIRECTION('',(-1.,0.,0.));
#1216=DIRECTION('',(0.,0.,-1.));
#1217=DIRECTION('',(0.,0.,-1.));
#1218=DIRECTION('',(0.,0.,1.));
#1219=DIRECTION('',(-1.,0.,0.));
#1220=DIRECTION('',(1.7347234759768E-16,0.,1.));
#1221=DIRECTION('',(1.,0.,0.));
#1222=DIRECTION('',(0.,1.,0.));
#1223=DIRECTION('',(0.,0.,1.));
#1224=DIRECTION('',(0.,0.,-1.));
#1225=DIRECTION('',(0.,0.,1.));
#1226=DIRECTION('',(1.,0.,0.));
#1227=DIRECTION('',(1.,0.,0.));
#1228=DIRECTION('',(0.,0.,1.));
#1229=DIRECTION('',(-1.,0.,0.));
#1230=DIRECTION('',(1.7347234759768E-16,0.,1.));
#1231=DIRECTION('',(0.,1.,0.));
#1232=DIRECTION('',(0.,0.,1.));
#1233=DIRECTION('',(0.,0.,-1.));
#1234=DIRECTION('',(1.,0.,0.));
#1235=DIRECTION('',(0.,0.,1.));
#1236=DIRECTION('',(0.,0.,1.));
#1237=DIRECTION('',(1.,0.,0.));
#1238=DIRECTION('',(1.7347234759768E-16,0.,1.));
#1239=DIRECTION('',(-1.,0.,0.));
#1240=DIRECTION('',(-1.,0.,0.));
#1241=DIRECTION('',(0.,0.,1.));
#1242=DIRECTION('',(0.,0.,-1.));
#1243=DIRECTION('',(0.,1.,0.));
#1244=DIRECTION('',(0.,1.,0.));
#1245=DIRECTION('',(0.,0.,1.));
#1246=DIRECTION('',(0.,0.,-1.));
#1247=DIRECTION('',(0.,0.,-1.));
#1248=DIRECTION('',(1.,0.,0.));
#1249=DIRECTION('',(0.,1.,0.));
#1250=DIRECTION('',(0.,0.,1.));
#1251=DIRECTION('',(1.,0.,0.));
#1252=DIRECTION('',(0.,0.,1.));
#1253=DIRECTION('',(0.,0.,-1.));
#1254=DIRECTION('',(1.,-9.91270557701033E-17,0.));
#1255=DIRECTION('',(9.91270557701033E-17,1.,0.));
#1256=DIRECTION('',(-9.91270557701033E-17,-1.,0.));
#1257=DIRECTION('',(1.,-9.91270557701033E-17,0.));
#1258=DIRECTION('',(9.91270557701033E-17,1.,0.));
#1259=DIRECTION('',(-9.91270557701033E-17,-1.,0.));
#1260=DIRECTION('',(0.,0.,1.));
#1261=DIRECTION('',(1.,0.,0.));
#1262=DIRECTION('',(0.,1.,0.));
#1263=DIRECTION('',(1.,0.,0.));
#1264=DIRECTION('',(0.,-1.,0.));
#1265=DIRECTION('',(0.,1.,0.));
#1266=DIRECTION('',(0.,-1.,0.));
#1267=DIRECTION('',(1.,0.,0.));
#1268=DIRECTION('',(0.,-1.,0.));
#1269=DIRECTION('',(0.,0.,-1.));
#1270=DIRECTION('',(-1.,0.,0.));
#1271=DIRECTION('',(0.,0.,-1.));
#1272=DIRECTION('',(-1.,0.,0.));
#1273=DIRECTION('',(0.,0.,-1.));
#1274=DIRECTION('',(-1.,0.,0.));
#1275=DIRECTION('',(0.,0.,-1.));
#1276=DIRECTION('',(-1.,0.,0.));
#1277=DIRECTION('',(0.,0.,-1.));
#1278=DIRECTION('',(-1.,0.,0.));
#1279=DIRECTION('',(0.,0.,-1.));
#1280=DIRECTION('',(-1.,0.,0.));
#1281=DIRECTION('',(0.,0.,-1.));
#1282=DIRECTION('',(1.,0.,0.));
#1283=DIRECTION('',(0.,0.,-1.));
#1284=DIRECTION('',(-1.,0.,0.));
#1285=DIRECTION('',(0.,0.,-1.));
#1286=DIRECTION('',(-1.,0.,0.));
#1287=DIRECTION('',(0.,0.,-1.));
#1288=DIRECTION('',(1.,0.,0.));
#1289=DIRECTION('',(0.,0.,-1.));
#1290=DIRECTION('',(-1.,0.,0.));
#1291=DIRECTION('',(0.,0.,-1.));
#1292=DIRECTION('',(-1.,0.,0.));
#1293=DIRECTION('',(0.,0.,-1.));
#1294=DIRECTION('',(1.,0.,0.));
#1295=DIRECTION('',(0.,0.,-1.));
#1296=DIRECTION('',(-1.,0.,0.));
#1297=DIRECTION('',(0.,0.,-1.));
#1298=DIRECTION('',(-1.,0.,0.));
#1299=DIRECTION('',(0.,0.,-1.));
#1300=DIRECTION('',(1.,0.,0.));
#1301=DIRECTION('',(0.,1.,0.));
#1302=DIRECTION('',(0.,0.,1.));
#1303=DIRECTION('',(0.,0.,1.));
#1304=DIRECTION('',(0.,0.,-1.));
#1305=DIRECTION('',(1.,0.,0.));
#1306=DIRECTION('',(0.,0.,-1.));
#1307=DIRECTION('',(-1.,0.,0.));
#1308=DIRECTION('',(0.,0.,1.));
#1309=DIRECTION('',(0.,1.,0.));
#1310=DIRECTION('',(0.,0.,1.));
#1311=DIRECTION('',(0.,0.,-1.));
#1312=DIRECTION('',(-1.,0.,0.));
#1313=DIRECTION('',(0.,0.,1.));
#1314=DIRECTION('',(1.,0.,0.));
#1315=DIRECTION('',(0.,0.,-1.));
#1316=DIRECTION('',(1.,0.,0.));
#1317=DIRECTION('',(0.,0.,-1.));
#1318=DIRECTION('',(-1.,0.,0.));
#1319=DIRECTION('',(0.,0.,1.));
#1320=DIRECTION('',(0.,0.,-1.));
#1321=DIRECTION('',(0.,0.,-1.));
#1322=DIRECTION('',(-1.15648231731787E-16,-1.,0.));
#1323=DIRECTION('',(1.,-1.15648231731787E-16,0.));
#1324=DIRECTION('',(0.,0.,-1.));
#1325=DIRECTION('',(-1.,1.020425574104E-16,0.));
#1326=DIRECTION('',(-1.020425574104E-16,-1.,0.));
#1327=DIRECTION('',(0.,0.,-1.));
#1328=DIRECTION('',(-2.31296463463574E-16,-1.,0.));
#1329=DIRECTION('',(1.,-2.31296463463574E-16,0.));
#1330=DIRECTION('',(-1.,-2.04085114820801E-16,0.));
#1331=DIRECTION('',(2.04085114820801E-16,-1.,0.));
#1332=DIRECTION('',(0.,0.,-1.));
#1333=DIRECTION('',(0.,0.,-1.));
#1334=DIRECTION('',(1.15648231731787E-16,-1.,0.));
#1335=DIRECTION('',(1.,1.15648231731787E-16,0.));
#1336=DIRECTION('',(0.,0.,-1.));
#1337=DIRECTION('',(-1.,-2.04085114820801E-16,0.));
#1338=DIRECTION('',(2.04085114820801E-16,-1.,0.));
#1339=DIRECTION('',(0.,0.,-1.));
#1340=DIRECTION('',(2.31296463463574E-16,-1.,0.));
#1341=DIRECTION('',(1.,2.31296463463574E-16,0.));
#1342=DIRECTION('',(0.,0.,-1.));
#1343=DIRECTION('',(-1.,0.,0.));
#1344=DIRECTION('',(0.,1.,0.));
#1345=DIRECTION('',(0.,1.,0.));
#1346=DIRECTION('',(-1.,0.,1.7347234759768E-16));
#1347=DIRECTION('',(1.7347234759768E-16,0.,1.));
#1348=DIRECTION('',(0.,1.,0.));
#1349=DIRECTION('',(0.,0.,1.));
#1350=DIRECTION('',(1.,0.,0.));
#1351=DIRECTION('',(0.,1.,0.));
#1352=DIRECTION('',(-1.,0.,0.));
#1353=DIRECTION('',(0.,0.,1.));
#1354=DIRECTION('',(-1.,0.,0.));
#1355=DIRECTION('',(0.,0.,1.));
#1356=DIRECTION('',(0.,1.,0.));
#1357=DIRECTION('',(0.,1.,0.));
#1358=DIRECTION('',(0.,0.,1.));
#1359=DIRECTION('',(1.,0.,0.));
#1360=DIRECTION('',(0.,1.,0.));
#1361=DIRECTION('',(-1.,0.,1.7347234759768E-16));
#1362=DIRECTION('',(1.7347234759768E-16,0.,1.));
#1363=DIRECTION('',(0.,1.,0.));
#1364=DIRECTION('',(0.,0.,-1.));
#1365=DIRECTION('',(-1.,0.,0.));
#1366=DIRECTION('',(0.,-1.,0.));
#1367=DIRECTION('',(0.,0.,-1.));
#1368=DIRECTION('',(0.,0.,-1.));
#1369=DIRECTION('',(0.,0.,-1.));
#1370=DIRECTION('',(1.,0.,0.));
#1371=DIRECTION('',(0.,0.,-1.));
#1372=DIRECTION('',(0.,0.,-1.));
#1373=DIRECTION('',(0.,-1.,0.));
#1374=DIRECTION('',(0.,0.,-1.));
#1375=DIRECTION('',(0.,0.,-1.));
#1376=DIRECTION('',(1.,0.,0.));
#1377=DIRECTION('',(0.,0.,-1.));
#1378=DIRECTION('',(0.,-1.,0.));
#1379=DIRECTION('',(0.,0.,-1.));
#1380=DIRECTION('',(0.,0.,-1.));
#1381=DIRECTION('',(0.,0.,-1.));
#1382=DIRECTION('',(1.,0.,0.));
#1383=DIRECTION('',(0.,0.,-1.));
#1384=DIRECTION('',(0.,0.,-1.));
#1385=DIRECTION('',(0.,-1.,0.));
#1386=DIRECTION('',(0.,0.,-1.));
#1387=DIRECTION('',(0.,0.,-1.));
#1388=DIRECTION('',(1.,0.,0.));
#1389=DIRECTION('',(0.,0.,-1.));
#1390=DIRECTION('',(0.,1.,0.));
#1391=DIRECTION('',(0.,0.,1.));
#1392=DIRECTION('',(0.,0.,1.));
#1393=DIRECTION('',(0.,0.,1.));
#1394=DIRECTION('',(1.,1.7347234759768E-16,0.));
#1395=DIRECTION('',(-1.7347234759768E-16,1.,0.));
#1396=DIRECTION('',(0.,0.,1.));
#1397=DIRECTION('',(0.,-1.,0.));
#1398=DIRECTION('',(0.,0.,-1.));
#1399=DIRECTION('',(0.,0.,1.));
#1400=DIRECTION('',(1.,0.,0.));
#1401=DIRECTION('',(0.,0.,-1.));
#1402=CARTESIAN_POINT('',(0.,0.,0.));
#1403=CARTESIAN_POINT('',(0.,0.,0.02));
#1404=CARTESIAN_POINT('',(-0.043,0.0315,0.02));
#1405=CARTESIAN_POINT('',(-0.043,0.028,0.02));
#1406=CARTESIAN_POINT('',(-0.043,0.033,0.02));
#1407=CARTESIAN_POINT('',(-0.0444,0.033,0.02));
#1408=CARTESIAN_POINT('',(0.043,0.033,0.02));
#1409=CARTESIAN_POINT('',(0.043,0.0315,0.02));
#1410=CARTESIAN_POINT('',(0.043,0.028,0.02));
#1411=CARTESIAN_POINT('',(0.0465,0.028,0.02));
#1412=CARTESIAN_POINT('',(0.048,0.028,0.02));
#1413=CARTESIAN_POINT('',(0.048,0.0285,0.02));
#1414=CARTESIAN_POINT('',(0.048,-0.028,0.02));
#1415=CARTESIAN_POINT('',(0.0465,-0.028,0.02));
#1416=CARTESIAN_POINT('',(0.043,-0.028,0.02));
#1417=CARTESIAN_POINT('',(0.043,-0.0315,0.02));
#1418=CARTESIAN_POINT('',(0.043,-0.033,0.02));
#1419=CARTESIAN_POINT('',(-0.0437,-0.033,0.02));
#1420=CARTESIAN_POINT('',(-0.043,-0.033,0.02));
#1421=CARTESIAN_POINT('',(-0.043,-0.0315,0.02));
#1422=CARTESIAN_POINT('',(-0.043,-0.028,0.02));
#1423=CARTESIAN_POINT('',(-0.0465,-0.028,0.02));
#1424=CARTESIAN_POINT('',(-0.048,-0.028,0.02));
#1425=CARTESIAN_POINT('',(-0.048,0.0285,0.02));
#1426=CARTESIAN_POINT('',(-0.048,0.028,0.02));
#1427=CARTESIAN_POINT('',(-0.0465,0.028,0.02));
#1428=CARTESIAN_POINT('',(0.03,-0.017,0.02));
#1429=CARTESIAN_POINT('',(0.045,-0.017,0.02));
#1430=CARTESIAN_POINT('',(0.015,-0.017,0.02));
#1431=CARTESIAN_POINT('',(0.045,-3.46944695195361E-18,0.02));
#1432=CARTESIAN_POINT('',(0.045,0.017,0.02));
#1433=CARTESIAN_POINT('',(0.03,0.017,0.02));
#1434=CARTESIAN_POINT('',(0.015,0.017,0.02));
#1435=CARTESIAN_POINT('',(0.015,-0.0085,0.02));
#1436=CARTESIAN_POINT('',(-0.03,-0.017,0.02));
#1437=CARTESIAN_POINT('',(-0.015,-0.017,0.02));
#1438=CARTESIAN_POINT('',(-0.045,-0.017,0.02));
#1439=CARTESIAN_POINT('',(-0.015,0.0085,0.02));
#1440=CARTESIAN_POINT('',(-0.015,0.017,0.02));
#1441=CARTESIAN_POINT('',(-0.03,0.017,0.02));
#1442=CARTESIAN_POINT('',(-0.045,0.017,0.02));
#1443=CARTESIAN_POINT('',(-0.045,0.,0.02));
#1444=CARTESIAN_POINT('',(-0.0275,-0.02425,0.02));
#1445=CARTESIAN_POINT('',(-0.0275,-0.02175,0.02));
#1446=CARTESIAN_POINT('',(-0.0275,-0.02675,0.02));
#1447=CARTESIAN_POINT('',(-0.02875,-0.02175,0.02));
#1448=CARTESIAN_POINT('',(-0.0325,-0.02175,0.02));
#1449=CARTESIAN_POINT('',(-0.0325,-0.02425,0.02));
#1450=CARTESIAN_POINT('',(-0.0325,-0.02675,0.02));
#1451=CARTESIAN_POINT('',(-0.03,-0.02675,0.02));
#1452=CARTESIAN_POINT('',(0.0325,-0.02425,0.02));
#1453=CARTESIAN_POINT('',(0.0325,-0.02175,0.02));
#1454=CARTESIAN_POINT('',(0.0325,-0.02675,0.02));
#1455=CARTESIAN_POINT('',(0.03125,-0.02175,0.02));
#1456=CARTESIAN_POINT('',(0.0275,-0.02175,0.02));
#1457=CARTESIAN_POINT('',(0.0275,-0.02425,0.02));
#1458=CARTESIAN_POINT('',(0.0275,-0.02675,0.02));
#1459=CARTESIAN_POINT('',(0.03,-0.02675,0.02));
#1460=CARTESIAN_POINT('',(-0.01,0.,0.02));
#1461=CARTESIAN_POINT('',(-0.01,0.0213,0.02));
#1462=CARTESIAN_POINT('',(-0.01,-0.0087,0.02));
#1463=CARTESIAN_POINT('',(0.,-0.0087,0.02));
#1464=CARTESIAN_POINT('',(0.01,-0.0087,0.02));
#1465=CARTESIAN_POINT('',(0.01,1.7347234759768E-18,0.02));
#1466=CARTESIAN_POINT('',(0.01,0.0213,0.02));
#1467=CARTESIAN_POINT('',(0.,0.0213,0.02));
#1468=CARTESIAN_POINT('',(0.,0.,0.022));
#1469=CARTESIAN_POINT('',(0.05,0.,0.022));
#1470=CARTESIAN_POINT('',(0.05,0.035,0.022));
#1471=CARTESIAN_POINT('',(0.05,-0.035,0.022));
#1472=CARTESIAN_POINT('',(6.93889390390723E-18,0.035,0.022));
#1473=CARTESIAN_POINT('',(-0.05,0.035,0.022));
#1474=CARTESIAN_POINT('',(-0.05,0.,0.022));
#1475=CARTESIAN_POINT('',(-0.05,-0.035,0.022));
#1476=CARTESIAN_POINT('',(0.,-0.035,0.022));
#1477=CARTESIAN_POINT('',(3.93203987888076E-18,0.017,0.022));
#1478=CARTESIAN_POINT('',(0.015,0.017,0.022));
#1479=CARTESIAN_POINT('',(0.045,0.017,0.022));
#1480=CARTESIAN_POINT('',(0.045,0.,0.022));
#1481=CARTESIAN_POINT('',(0.045,-0.017,0.022));
#1482=CARTESIAN_POINT('',(-1.96601993944038E-18,-0.017,0.022));
#1483=CARTESIAN_POINT('',(0.015,-0.017,0.022));
#1484=CARTESIAN_POINT('',(0.015,-1.530638361156E-18,0.022));
#1485=CARTESIAN_POINT('',(-3.93203987888076E-18,0.017,0.022));
#1486=CARTESIAN_POINT('',(-0.045,0.017,0.022));
#1487=CARTESIAN_POINT('',(-0.015,0.017,0.022));
#1488=CARTESIAN_POINT('',(-0.015,-3.06127672231201E-18,0.022));
#1489=CARTESIAN_POINT('',(-0.015,-0.017,0.022));
#1490=CARTESIAN_POINT('',(1.96601993944038E-18,-0.017,0.022));
#1491=CARTESIAN_POINT('',(-0.045,-0.017,0.022));
#1492=CARTESIAN_POINT('',(-0.045,-9.18383016693604E-18,0.022));
#1493=CARTESIAN_POINT('',(-0.0325,0.,0.022));
#1494=CARTESIAN_POINT('',(-0.0325,-0.02675,0.022));
#1495=CARTESIAN_POINT('',(-0.0325,-0.02175,0.022));
#1496=CARTESIAN_POINT('',(0.,-0.02175,0.022));
#1497=CARTESIAN_POINT('',(-0.0275,-0.02175,0.022));
#1498=CARTESIAN_POINT('',(-0.0275,0.,0.022));
#1499=CARTESIAN_POINT('',(-0.0275,-0.02675,0.022));
#1500=CARTESIAN_POINT('',(0.,-0.02675,0.022));
#1501=CARTESIAN_POINT('',(0.0275,0.,0.022));
#1502=CARTESIAN_POINT('',(0.0275,-0.02675,0.022));
#1503=CARTESIAN_POINT('',(0.0275,-0.02175,0.022));
#1504=CARTESIAN_POINT('',(0.,-0.02175,0.022));
#1505=CARTESIAN_POINT('',(0.0325,-0.02175,0.022));
#1506=CARTESIAN_POINT('',(0.0325,0.,0.022));
#1507=CARTESIAN_POINT('',(0.0325,-0.02675,0.022));
#1508=CARTESIAN_POINT('',(0.,-0.02675,0.022));
#1509=CARTESIAN_POINT('',(0.01,0.0063,0.022));
#1510=CARTESIAN_POINT('',(0.01,-0.0087,0.022));
#1511=CARTESIAN_POINT('',(0.01,0.0213,0.022));
#1512=CARTESIAN_POINT('',(-0.005,-0.0087,0.022));
#1513=CARTESIAN_POINT('',(-0.01,-0.0087,0.022));
#1514=CARTESIAN_POINT('',(-0.01,0.0063,0.022));
#1515=CARTESIAN_POINT('',(-0.01,0.0213,0.022));
#1516=CARTESIAN_POINT('',(-8.67361737988404E-18,0.0213,0.022));
#1517=CARTESIAN_POINT('',(0.,-0.035,0.022));
#1518=CARTESIAN_POINT('',(-0.05,-0.035,0.022));
#1519=CARTESIAN_POINT('',(-0.05,-0.035,0.));
#1520=CARTESIAN_POINT('',(0.,-0.035,0.));
#1521=CARTESIAN_POINT('',(0.05,-0.035,0.));
#1522=CARTESIAN_POINT('',(0.05,-0.035,0.022));
#1523=CARTESIAN_POINT('',(0.,-0.035,0.0166));
#1524=CARTESIAN_POINT('',(-0.005,-0.035,0.0166));
#1525=CARTESIAN_POINT('',(0.005,-0.035,0.0166));
#1526=CARTESIAN_POINT('',(0.005,-0.035,0.022));
#1527=CARTESIAN_POINT('',(0.005,-0.035,0.0116));
#1528=CARTESIAN_POINT('',(0.,-0.035,0.0116));
#1529=CARTESIAN_POINT('',(-0.005,-0.035,0.0116));
#1530=CARTESIAN_POINT('',(-0.005,-0.035,0.022));
#1531=CARTESIAN_POINT('',(6.93889390390723E-18,0.035,0.022));
#1532=CARTESIAN_POINT('',(6.93889390390723E-18,0.035,0.));
#1533=CARTESIAN_POINT('',(0.05,0.035,0.));
#1534=CARTESIAN_POINT('',(-0.05,0.035,0.));
#1535=CARTESIAN_POINT('',(-0.05,0.035,0.022));
#1536=CARTESIAN_POINT('',(0.05,0.035,0.022));
#1537=CARTESIAN_POINT('',(0.005,0.035,0.0141));
#1538=CARTESIAN_POINT('',(0.005,0.035,0.0116));
#1539=CARTESIAN_POINT('',(0.005,0.035,0.0166));
#1540=CARTESIAN_POINT('',(8.67361737988404E-19,0.035,0.0166));
#1541=CARTESIAN_POINT('',(-0.005,0.035,0.0166));
#1542=CARTESIAN_POINT('',(-0.005,0.035,0.0141));
#1543=CARTESIAN_POINT('',(-0.005,0.035,0.0116));
#1544=CARTESIAN_POINT('',(0.0025,0.035,0.0116));
#1545=CARTESIAN_POINT('',(-0.0437,-0.033,0.01));
#1546=CARTESIAN_POINT('',(-0.043,-0.033,0.02));
#1547=CARTESIAN_POINT('',(-0.043,-0.033,0.));
#1548=CARTESIAN_POINT('',(0.043,-0.033,0.01));
#1549=CARTESIAN_POINT('',(0.043,-0.033,0.));
#1550=CARTESIAN_POINT('',(-0.0437,-0.033,0.));
#1551=CARTESIAN_POINT('',(-0.0437,-0.033,0.0116));
#1552=CARTESIAN_POINT('',(-0.005,-0.033,0.0116));
#1553=CARTESIAN_POINT('',(0.005,-0.033,0.0116));
#1554=CARTESIAN_POINT('',(0.005,-0.033,0.01));
#1555=CARTESIAN_POINT('',(0.005,-0.033,0.0166));
#1556=CARTESIAN_POINT('',(-0.0437,-0.033,0.0166));
#1557=CARTESIAN_POINT('',(-0.005,-0.033,0.0166));
#1558=CARTESIAN_POINT('',(-0.005,-0.033,0.01));
#1559=CARTESIAN_POINT('',(-0.0444,0.033,0.01));
#1560=CARTESIAN_POINT('',(-0.043,0.033,0.02));
#1561=CARTESIAN_POINT('',(-0.043,0.033,0.));
#1562=CARTESIAN_POINT('',(-0.0444,0.033,0.));
#1563=CARTESIAN_POINT('',(0.043,0.033,0.));
#1564=CARTESIAN_POINT('',(0.043,0.033,0.01));
#1565=CARTESIAN_POINT('',(0.005,0.033,0.01));
#1566=CARTESIAN_POINT('',(0.005,0.033,0.0116));
#1567=CARTESIAN_POINT('',(0.005,0.033,0.0166));
#1568=CARTESIAN_POINT('',(-0.0444,0.033,0.0116));
#1569=CARTESIAN_POINT('',(-0.005,0.033,0.0116));
#1570=CARTESIAN_POINT('',(-0.005,0.033,0.01));
#1571=CARTESIAN_POINT('',(-0.005,0.033,0.0166));
#1572=CARTESIAN_POINT('',(-0.0444,0.033,0.0166));
#1573=CARTESIAN_POINT('',(-0.043,0.0315,0.02));
#1574=CARTESIAN_POINT('',(-0.043,0.028,0.02));
#1575=CARTESIAN_POINT('',(-0.043,0.028,0.));
#1576=CARTESIAN_POINT('',(-0.043,0.0315,0.));
#1577=CARTESIAN_POINT('',(0.0465,0.028,0.02));
#1578=CARTESIAN_POINT('',(0.048,0.028,0.02));
#1579=CARTESIAN_POINT('',(0.048,0.028,0.));
#1580=CARTESIAN_POINT('',(0.043,0.028,0.02));
#1581=CARTESIAN_POINT('',(0.043,0.028,0.));
#1582=CARTESIAN_POINT('',(0.0465,0.028,0.));
#1583=CARTESIAN_POINT('',(-0.0465,-0.028,0.02));
#1584=CARTESIAN_POINT('',(-0.0465,-0.028,0.));
#1585=CARTESIAN_POINT('',(-0.048,-0.028,0.));
#1586=CARTESIAN_POINT('',(-0.043,-0.028,0.));
#1587=CARTESIAN_POINT('',(-0.048,-0.028,0.01));
#1588=CARTESIAN_POINT('',(-0.043,-0.028,0.02));
#1589=CARTESIAN_POINT('',(0.05,0.,0.022));
#1590=CARTESIAN_POINT('',(0.05,0.,0.));
#1591=CARTESIAN_POINT('',(-0.05,0.,0.022));
#1592=CARTESIAN_POINT('',(-0.05,0.,0.));
#1593=CARTESIAN_POINT('',(0.,0.,0.));
#1594=CARTESIAN_POINT('',(0.043,0.0315,0.));
#1595=CARTESIAN_POINT('',(-0.0465,0.028,0.));
#1596=CARTESIAN_POINT('',(-0.048,0.028,0.));
#1597=CARTESIAN_POINT('',(-0.048,0.0285,0.));
#1598=CARTESIAN_POINT('',(-0.043,-0.0315,0.));
#1599=CARTESIAN_POINT('',(0.043,-0.0315,0.));
#1600=CARTESIAN_POINT('',(0.043,-0.028,0.));
#1601=CARTESIAN_POINT('',(0.0465,-0.028,0.));
#1602=CARTESIAN_POINT('',(0.048,-0.028,0.));
#1603=CARTESIAN_POINT('',(0.048,0.0285,0.));
#1604=CARTESIAN_POINT('',(0.046,0.031,0.));
#1605=CARTESIAN_POINT('',(0.043825,0.031,0.));
#1606=CARTESIAN_POINT('',(0.046,-0.031,0.));
#1607=CARTESIAN_POINT('',(0.043825,-0.031,0.));
#1608=CARTESIAN_POINT('',(-0.046,0.031,0.));
#1609=CARTESIAN_POINT('',(-0.048175,0.031,0.));
#1610=CARTESIAN_POINT('',(-0.046,-0.031,0.));
#1611=CARTESIAN_POINT('',(-0.048175,-0.031,0.));
#1612=CARTESIAN_POINT('',(-0.046,-0.031,0.0051));
#1613=CARTESIAN_POINT('',(-0.046,-0.031,0.0051));
#1614=CARTESIAN_POINT('',(-0.048175,-0.031,0.0051));
#1615=CARTESIAN_POINT('',(0.,0.,0.0051));
#1616=CARTESIAN_POINT('',(0.046,-0.031,0.0051));
#1617=CARTESIAN_POINT('',(0.046,-0.031,0.0051));
#1618=CARTESIAN_POINT('',(0.043825,-0.031,0.0051));
#1619=CARTESIAN_POINT('',(0.,0.,0.0051));
#1620=CARTESIAN_POINT('',(0.046,0.031,0.0051));
#1621=CARTESIAN_POINT('',(0.046,0.031,0.0051));
#1622=CARTESIAN_POINT('',(0.043825,0.031,0.0051));
#1623=CARTESIAN_POINT('',(0.,0.,0.0051));
#1624=CARTESIAN_POINT('',(-0.046,0.031,0.0051));
#1625=CARTESIAN_POINT('',(-0.046,0.031,0.0051));
#1626=CARTESIAN_POINT('',(-0.048175,0.031,0.0051));
#1627=CARTESIAN_POINT('',(0.,0.,0.0051));
#1628=CARTESIAN_POINT('',(0.0465,-0.028,0.02));
#1629=CARTESIAN_POINT('',(0.048,-0.028,0.01));
#1630=CARTESIAN_POINT('',(0.043,-0.028,0.02));
#1631=CARTESIAN_POINT('',(0.043,-0.0315,0.02));
#1632=CARTESIAN_POINT('',(-0.043,-0.0315,0.02));
#1633=CARTESIAN_POINT('',(-0.0465,0.028,0.02));
#1634=CARTESIAN_POINT('',(-0.048,0.028,0.02));
#1635=CARTESIAN_POINT('',(0.043,0.0315,0.02));
#1636=CARTESIAN_POINT('',(-0.048,0.0285,0.01));
#1637=CARTESIAN_POINT('',(0.048,0.0285,0.01));
#1638=CARTESIAN_POINT('',(0.045,-3.46944695195361E-18,0.045));
#1639=CARTESIAN_POINT('',(0.045,0.017,0.045));
#1640=CARTESIAN_POINT('',(0.045,-0.017,0.045));
#1641=CARTESIAN_POINT('',(0.03,-0.017,0.045));
#1642=CARTESIAN_POINT('',(0.015,-0.017,0.045));
#1643=CARTESIAN_POINT('',(0.015,-0.0085,0.045));
#1644=CARTESIAN_POINT('',(0.015,0.017,0.045));
#1645=CARTESIAN_POINT('',(0.03,0.017,0.045));
#1646=CARTESIAN_POINT('',(-0.015,0.0085,0.045));
#1647=CARTESIAN_POINT('',(-0.015,0.017,0.045));
#1648=CARTESIAN_POINT('',(-0.015,-0.017,0.045));
#1649=CARTESIAN_POINT('',(-0.03,-0.017,0.045));
#1650=CARTESIAN_POINT('',(-0.045,-0.017,0.045));
#1651=CARTESIAN_POINT('',(-0.045,0.,0.045));
#1652=CARTESIAN_POINT('',(-0.045,0.017,0.045));
#1653=CARTESIAN_POINT('',(-0.03,0.017,0.045));
#1654=CARTESIAN_POINT('',(8.67361737988404E-19,-0.0818,0.0166));
#1655=CARTESIAN_POINT('',(-0.005,-0.0818,0.0166));
#1656=CARTESIAN_POINT('',(0.005,-0.0818,0.0166));
#1657=CARTESIAN_POINT('',(-0.005,-0.0818,0.0141));
#1658=CARTESIAN_POINT('',(-0.005,-0.0818,0.0116));
#1659=CARTESIAN_POINT('',(0.0025,-0.0818,0.0116));
#1660=CARTESIAN_POINT('',(0.005,-0.0818,0.0116));
#1661=CARTESIAN_POINT('',(0.005,-0.0818,0.0141));
#1662=CARTESIAN_POINT('',(0.005,-0.0818,0.0141));
#1663=CARTESIAN_POINT('',(0.005,-0.0818,0.0166));
#1664=CARTESIAN_POINT('',(0.005,-0.0818,0.0116));
#1665=CARTESIAN_POINT('',(0.0025,-0.0818,0.0116));
#1666=CARTESIAN_POINT('',(-0.005,-0.0818,0.0116));
#1667=CARTESIAN_POINT('',(-0.005,-0.0818,0.0141));
#1668=CARTESIAN_POINT('',(-0.005,-0.0818,0.0166));
#1669=CARTESIAN_POINT('',(8.67361737988404E-19,-0.0818,0.0166));
#1670=CARTESIAN_POINT('',(-0.02875,-0.02175,0.045));
#1671=CARTESIAN_POINT('',(-0.0325,-0.02175,0.045));
#1672=CARTESIAN_POINT('',(-0.0275,-0.02175,0.045));
#1673=CARTESIAN_POINT('',(-0.0275,-0.02425,0.045));
#1674=CARTESIAN_POINT('',(-0.0275,-0.02675,0.045));
#1675=CARTESIAN_POINT('',(-0.03,-0.02675,0.045));
#1676=CARTESIAN_POINT('',(-0.0325,-0.02675,0.045));
#1677=CARTESIAN_POINT('',(-0.0325,-0.02425,0.045));
#1678=CARTESIAN_POINT('',(0.03125,-0.02175,0.045));
#1679=CARTESIAN_POINT('',(0.0275,-0.02175,0.045));
#1680=CARTESIAN_POINT('',(0.0325,-0.02175,0.045));
#1681=CARTESIAN_POINT('',(0.0325,-0.02425,0.045));
#1682=CARTESIAN_POINT('',(0.0325,-0.02675,0.045));
#1683=CARTESIAN_POINT('',(0.03,-0.02675,0.045));
#1684=CARTESIAN_POINT('',(0.0275,-0.02675,0.045));
#1685=CARTESIAN_POINT('',(0.0275,-0.02425,0.045));
#1686=CARTESIAN_POINT('',(-0.005,-0.0087,-0.003));
#1687=CARTESIAN_POINT('',(-0.01,-0.0087,-0.003));
#1688=CARTESIAN_POINT('',(0.01,-0.0087,-0.003));
#1689=CARTESIAN_POINT('',(0.01,0.0063,-0.003));
#1690=CARTESIAN_POINT('',(0.01,0.0213,-0.003));
#1691=CARTESIAN_POINT('',(-8.67361737988404E-18,0.0213,-0.003));
#1692=CARTESIAN_POINT('',(-0.01,0.0213,-0.003));
#1693=CARTESIAN_POINT('',(-0.01,0.0063,-0.003));
#1694=MECHANICAL_DESIGN_GEOMETRIC_PRESENTATION_REPRESENTATION('',(#1067),
#1695);
#1695=(
GEOMETRIC_REPRESENTATION_CONTEXT(3)
GLOBAL_UNCERTAINTY_ASSIGNED_CONTEXT((#1696))
GLOBAL_UNIT_ASSIGNED_CONTEXT((#1699,#1698,#1697))
REPRESENTATION_CONTEXT('Part 1','TOP_LEVEL_ASSEMBLY_PART')
);
#1696=UNCERTAINTY_MEASURE_WITH_UNIT(LENGTH_MEASURE(1.E-8),#1699,
'DISTANCE_ACCURACY_VALUE','Maximum Tolerance applied to model');
#1697=(
NAMED_UNIT(*)
SI_UNIT($,.STERADIAN.)
SOLID_ANGLE_UNIT()
);
#1698=(
NAMED_UNIT(*)
PLANE_ANGLE_UNIT()
SI_UNIT($,.RADIAN.)
);
#1699=(
LENGTH_UNIT()
NAMED_UNIT(*)
SI_UNIT($,.METRE.)
);
#1700=PRODUCT_DEFINITION_SHAPE('','',#1701);
#1701=PRODUCT_DEFINITION('','',#1703,#1702);
#1702=PRODUCT_DEFINITION_CONTEXT('',#1709,'design');
#1703=PRODUCT_DEFINITION_FORMATION_WITH_SPECIFIED_SOURCE('','',#1705,
 .NOT_KNOWN.);
#1704=PRODUCT_RELATED_PRODUCT_CATEGORY('','',(#1705));
#1705=PRODUCT('Part 1','Part 1','Part 1',(#1707));
#1706=PRODUCT_CATEGORY('','');
#1707=PRODUCT_CONTEXT('',#1709,'mechanical');
#1708=APPLICATION_PROTOCOL_DEFINITION('international standard',
'ap242_managed_model_based_3d_engineering',2020,#1709);
#1709=APPLICATION_CONTEXT('managed model based 3d engineering');
ENDSEC;
END-ISO-10303-21;
