ISO-10303-21;
HEADER;
/* Generated by software containing ST-Developer
 * from STEP Tools, Inc. (www.steptools.com) 
 */
/* OPTION: using custom renumber hook */

FILE_DESCRIPTION(
/* description */ ('STEP AP242 Edition 2',
'CAx-IF Rec.Pracs.---Representation and Presentation of Product Manufa
cturing Information (PMI)---4.0---2014-10-13',
'CAx-IF Rec.Pracs.---3D Tessellated Geometry---0.4---2014-09-14','2;1',
'CAx-IF Rec.Pracs.---User Defined Attributes---1.5---2016-08-15'),
/* implementation_level */ '2;1');

FILE_NAME(
/* name */ 'Controller Base',
/* time_stamp */ '2026-09-01T05:45:00Z',
/* author */ (''),
/* organization */ (''),
/* preprocessor_version */ 'ST-DEVELOPER v20',
/* originating_system */ 'ONSHAPE BY PTC INC, 1.220',
/* authorisation */ '  ');

FILE_SCHEMA (('AP242_MANAGED_MODEL_BASED_3D_ENGINEERING_MIM_LF { 1 0 10303 442 3 1 4 }'));
ENDSEC;

DATA;
#10=SHAPE_REPRESENTATION_RELATIONSHIP('','',#1255,#11);
#11=ADVANCED_BREP_SHAPE_REPRESENTATION('',(#1253),#2005);
#12=LINE('',#1683,#156);
#13=LINE('',#1686,#157);
#14=LINE('',#1688,#158);
#15=LINE('',#1690,#159);
#16=LINE('',#1692,#160);
#17=LINE('',#1694,#161);
#18=LINE('',#1696,#162);
#19=LINE('',#1699,#163);
#20=LINE('',#1701,#164);
#21=LINE('',#1702,#165);
#22=LINE('',#1704,#166);
#23=LINE('',#1706,#167);
#24=LINE('',#1709,#168);
#25=LINE('',#1711,#169);
#26=LINE('',#1713,#170);
#27=LINE('',#1714,#171);
#28=LINE('',#1717,#172);
#29=LINE('',#1719,#173);
#30=LINE('',#1721,#174);
#31=LINE('',#1722,#175);
#32=LINE('',#1725,#176);
#33=LINE('',#1727,#177);
#34=LINE('',#1729,#178);
#35=LINE('',#1730,#179);
#36=LINE('',#1733,#180);
#37=LINE('',#1735,#181);
#38=LINE('',#1737,#182);
#39=LINE('',#1738,#183);
#40=LINE('',#1741,#184);
#41=LINE('',#1743,#185);
#42=LINE('',#1745,#186);
#43=LINE('',#1746,#187);
#44=LINE('',#1748,#188);
#45=LINE('',#1750,#189);
#46=LINE('',#1751,#190);
#47=LINE('',#1754,#191);
#48=LINE('',#1756,#192);
#49=LINE('',#1758,#193);
#50=LINE('',#1759,#194);
#51=LINE('',#1762,#195);
#52=LINE('',#1764,#196);
#53=LINE('',#1766,#197);
#54=LINE('',#1767,#198);
#55=LINE('',#1770,#199);
#56=LINE('',#1772,#200);
#57=LINE('',#1774,#201);
#58=LINE('',#1776,#202);
#59=LINE('',#1779,#203);
#60=LINE('',#1780,#204);
#61=LINE('',#1782,#205);
#62=LINE('',#1784,#206);
#63=LINE('',#1786,#207);
#64=LINE('',#1788,#208);
#65=LINE('',#1790,#209);
#66=LINE('',#1801,#210);
#67=LINE('',#1802,#211);
#68=LINE('',#1804,#212);
#69=LINE('',#1806,#213);
#70=LINE('',#1809,#214);
#71=LINE('',#1811,#215);
#72=LINE('',#1813,#216);
#73=LINE('',#1815,#217);
#74=LINE('',#1818,#218);
#75=LINE('',#1820,#219);
#76=LINE('',#1821,#220);
#77=LINE('',#1823,#221);
#78=LINE('',#1825,#222);
#79=LINE('',#1827,#223);
#80=LINE('',#1829,#224);
#81=LINE('',#1831,#225);
#82=LINE('',#1833,#226);
#83=LINE('',#1835,#227);
#84=LINE('',#1837,#228);
#85=LINE('',#1839,#229);
#86=LINE('',#1841,#230);
#87=LINE('',#1843,#231);
#88=LINE('',#1846,#232);
#89=LINE('',#1848,#233);
#90=LINE('',#1849,#234);
#91=LINE('',#1851,#235);
#92=LINE('',#1853,#236);
#93=LINE('',#1855,#237);
#94=LINE('',#1857,#238);
#95=LINE('',#1859,#239);
#96=LINE('',#1861,#240);
#97=LINE('',#1863,#241);
#98=LINE('',#1865,#242);
#99=LINE('',#1868,#243);
#100=LINE('',#1869,#244);
#101=LINE('',#1871,#245);
#102=LINE('',#1873,#246);
#103=LINE('',#1875,#247);
#104=LINE('',#1877,#248);
#105=LINE('',#1879,#249);
#106=LINE('',#1881,#250);
#107=LINE('',#1883,#251);
#108=LINE('',#1885,#252);
#109=LINE('',#1887,#253);
#110=LINE('',#1889,#254);
#111=LINE('',#1891,#255);
#112=LINE('',#1893,#256);
#113=LINE('',#1895,#257);
#114=LINE('',#1897,#258);
#115=LINE('',#1900,#259);
#116=LINE('',#1902,#260);
#117=LINE('',#1904,#261);
#118=LINE('',#1907,#262);
#119=LINE('',#1909,#263);
#120=LINE('',#1911,#264);
#121=LINE('',#1914,#265);
#122=LINE('',#1916,#266);
#123=LINE('',#1918,#267);
#124=LINE('',#1937,#268);
#125=LINE('',#1939,#269);
#126=LINE('',#1941,#270);
#127=LINE('',#1943,#271);
#128=LINE('',#1945,#272);
#129=LINE('',#1947,#273);
#130=LINE('',#1949,#274);
#131=LINE('',#1951,#275);
#132=LINE('',#1954,#276);
#133=LINE('',#1956,#277);
#134=LINE('',#1958,#278);
#135=LINE('',#1960,#279);
#136=LINE('',#1962,#280);
#137=LINE('',#1964,#281);
#138=LINE('',#1966,#282);
#139=LINE('',#1968,#283);
#140=LINE('',#1971,#284);
#141=LINE('',#1973,#285);
#142=LINE('',#1975,#286);
#143=LINE('',#1977,#287);
#144=LINE('',#1979,#288);
#145=LINE('',#1981,#289);
#146=LINE('',#1983,#290);
#147=LINE('',#1985,#291);
#148=LINE('',#1988,#292);
#149=LINE('',#1990,#293);
#150=LINE('',#1992,#294);
#151=LINE('',#1994,#295);
#152=LINE('',#1996,#296);
#153=LINE('',#1998,#297);
#154=LINE('',#2000,#298);
#155=LINE('',#2002,#299);
#156=VECTOR('',#1371,1.);
#157=VECTOR('',#1372,1.);
#158=VECTOR('',#1373,1.);
#159=VECTOR('',#1374,1.);
#160=VECTOR('',#1375,1.);
#161=VECTOR('',#1376,1.);
#162=VECTOR('',#1379,1.);
#163=VECTOR('',#1380,1.);
#164=VECTOR('',#1381,1.);
#165=VECTOR('',#1382,1.);
#166=VECTOR('',#1383,1.);
#167=VECTOR('',#1386,1.);
#168=VECTOR('',#1387,1.);
#169=VECTOR('',#1388,1.);
#170=VECTOR('',#1389,1.);
#171=VECTOR('',#1390,1.);
#172=VECTOR('',#1391,1.);
#173=VECTOR('',#1392,1.);
#174=VECTOR('',#1393,1.);
#175=VECTOR('',#1394,1.);
#176=VECTOR('',#1395,1.);
#177=VECTOR('',#1396,1.);
#178=VECTOR('',#1397,1.);
#179=VECTOR('',#1398,1.);
#180=VECTOR('',#1399,1.);
#181=VECTOR('',#1400,1.);
#182=VECTOR('',#1401,1.);
#183=VECTOR('',#1402,1.);
#184=VECTOR('',#1403,1.);
#185=VECTOR('',#1404,1.);
#186=VECTOR('',#1405,1.);
#187=VECTOR('',#1406,1.);
#188=VECTOR('',#1407,1.);
#189=VECTOR('',#1408,1.);
#190=VECTOR('',#1409,1.);
#191=VECTOR('',#1410,1.);
#192=VECTOR('',#1411,1.);
#193=VECTOR('',#1412,1.);
#194=VECTOR('',#1413,1.);
#195=VECTOR('',#1414,1.);
#196=VECTOR('',#1415,1.);
#197=VECTOR('',#1416,1.);
#198=VECTOR('',#1417,1.);
#199=VECTOR('',#1418,1.);
#200=VECTOR('',#1419,1.);
#201=VECTOR('',#1420,1.);
#202=VECTOR('',#1423,1.);
#203=VECTOR('',#1424,1.);
#204=VECTOR('',#1425,1.);
#205=VECTOR('',#1428,1.);
#206=VECTOR('',#1429,1.);
#207=VECTOR('',#1432,1.);
#208=VECTOR('',#1433,1.);
#209=VECTOR('',#1436,1.);
#210=VECTOR('',#1449,1.);
#211=VECTOR('',#1450,1.);
#212=VECTOR('',#1453,1.);
#213=VECTOR('',#1454,1.);
#214=VECTOR('',#1459,1.);
#215=VECTOR('',#1460,1.);
#216=VECTOR('',#1461,1.);
#217=VECTOR('',#1464,1.);
#218=VECTOR('',#1465,1.);
#219=VECTOR('',#1466,1.);
#220=VECTOR('',#1467,1.);
#221=VECTOR('',#1470,1.);
#222=VECTOR('',#1471,1.);
#223=VECTOR('',#1472,1.);
#224=VECTOR('',#1473,1.);
#225=VECTOR('',#1476,1.);
#226=VECTOR('',#1479,1.);
#227=VECTOR('',#1480,1.);
#228=VECTOR('',#1483,1.);
#229=VECTOR('',#1484,1.);
#230=VECTOR('',#1485,1.);
#231=VECTOR('',#1488,1.);
#232=VECTOR('',#1489,1.);
#233=VECTOR('',#1490,1.);
#234=VECTOR('',#1491,1.);
#235=VECTOR('',#1494,1.);
#236=VECTOR('',#1495,1.);
#237=VECTOR('',#1496,1.);
#238=VECTOR('',#1497,1.);
#239=VECTOR('',#1500,1.);
#240=VECTOR('',#1503,1.);
#241=VECTOR('',#1504,1.);
#242=VECTOR('',#1507,1.);
#243=VECTOR('',#1508,1.);
#244=VECTOR('',#1509,1.);
#245=VECTOR('',#1510,1.);
#246=VECTOR('',#1511,1.);
#247=VECTOR('',#1514,1.);
#248=VECTOR('',#1515,1.);
#249=VECTOR('',#1518,1.);
#250=VECTOR('',#1519,1.);
#251=VECTOR('',#1522,1.);
#252=VECTOR('',#1523,1.);
#253=VECTOR('',#1524,1.);
#254=VECTOR('',#1527,1.);
#255=VECTOR('',#1528,1.);
#256=VECTOR('',#1531,1.);
#257=VECTOR('',#1532,1.);
#258=VECTOR('',#1535,1.);
#259=VECTOR('',#1540,1.);
#260=VECTOR('',#1541,1.);
#261=VECTOR('',#1544,1.);
#262=VECTOR('',#1549,1.);
#263=VECTOR('',#1550,1.);
#264=VECTOR('',#1553,1.);
#265=VECTOR('',#1558,1.);
#266=VECTOR('',#1559,1.);
#267=VECTOR('',#1562,1.);
#268=VECTOR('',#1591,1.);
#269=VECTOR('',#1592,1.);
#270=VECTOR('',#1593,1.);
#271=VECTOR('',#1596,1.);
#272=VECTOR('',#1597,1.);
#273=VECTOR('',#1600,1.);
#274=VECTOR('',#1601,1.);
#275=VECTOR('',#1604,1.);
#276=VECTOR('',#1609,1.);
#277=VECTOR('',#1610,1.);
#278=VECTOR('',#1611,1.);
#279=VECTOR('',#1614,1.);
#280=VECTOR('',#1615,1.);
#281=VECTOR('',#1618,1.);
#282=VECTOR('',#1619,1.);
#283=VECTOR('',#1622,1.);
#284=VECTOR('',#1627,1.);
#285=VECTOR('',#1628,1.);
#286=VECTOR('',#1629,1.);
#287=VECTOR('',#1632,1.);
#288=VECTOR('',#1633,1.);
#289=VECTOR('',#1636,1.);
#290=VECTOR('',#1637,1.);
#291=VECTOR('',#1640,1.);
#292=VECTOR('',#1645,1.);
#293=VECTOR('',#1646,1.);
#294=VECTOR('',#1647,1.);
#295=VECTOR('',#1650,1.);
#296=VECTOR('',#1651,1.);
#297=VECTOR('',#1654,1.);
#298=VECTOR('',#1655,1.);
#299=VECTOR('',#1658,1.);
#300=PLANE('',#1269);
#301=PLANE('',#1270);
#302=PLANE('',#1271);
#303=PLANE('',#1272);
#304=PLANE('',#1273);
#305=PLANE('',#1274);
#306=PLANE('',#1275);
#307=PLANE('',#1276);
#308=PLANE('',#1281);
#309=PLANE('',#1282);
#310=PLANE('',#1283);
#311=PLANE('',#1284);
#312=PLANE('',#1285);
#313=PLANE('',#1286);
#314=PLANE('',#1287);
#315=PLANE('',#1288);
#316=PLANE('',#1289);
#317=PLANE('',#1290);
#318=PLANE('',#1291);
#319=PLANE('',#1292);
#320=PLANE('',#1293);
#321=PLANE('',#1294);
#322=PLANE('',#1295);
#323=PLANE('',#1296);
#324=PLANE('',#1297);
#325=PLANE('',#1298);
#326=PLANE('',#1299);
#327=PLANE('',#1300);
#328=PLANE('',#1301);
#329=PLANE('',#1302);
#330=PLANE('',#1303);
#331=PLANE('',#1304);
#332=PLANE('',#1305);
#333=PLANE('',#1306);
#334=PLANE('',#1307);
#335=PLANE('',#1308);
#336=PLANE('',#1309);
#337=PLANE('',#1310);
#338=PLANE('',#1313);
#339=PLANE('',#1316);
#340=PLANE('',#1319);
#341=PLANE('',#1322);
#342=PLANE('',#1323);
#343=PLANE('',#1324);
#344=PLANE('',#1325);
#345=PLANE('',#1326);
#346=PLANE('',#1327);
#347=PLANE('',#1328);
#348=PLANE('',#1329);
#349=PLANE('',#1330);
#350=PLANE('',#1331);
#351=PLANE('',#1332);
#352=PLANE('',#1333);
#353=PLANE('',#1334);
#354=PLANE('',#1335);
#355=PLANE('',#1336);
#356=PLANE('',#1337);
#357=PLANE('',#1338);
#358=PLANE('',#1339);
#359=PLANE('',#1340);
#360=PLANE('',#1341);
#361=PLANE('',#1342);
#362=ORIENTED_EDGE('',*,*,#682,.T.);
#363=ORIENTED_EDGE('',*,*,#683,.T.);
#364=ORIENTED_EDGE('',*,*,#684,.T.);
#365=ORIENTED_EDGE('',*,*,#685,.T.);
#366=ORIENTED_EDGE('',*,*,#686,.T.);
#367=ORIENTED_EDGE('',*,*,#687,.T.);
#368=ORIENTED_EDGE('',*,*,#688,.T.);
#369=ORIENTED_EDGE('',*,*,#689,.T.);
#370=ORIENTED_EDGE('',*,*,#690,.F.);
#371=ORIENTED_EDGE('',*,*,#691,.T.);
#372=ORIENTED_EDGE('',*,*,#692,.T.);
#373=ORIENTED_EDGE('',*,*,#693,.F.);
#374=ORIENTED_EDGE('',*,*,#694,.F.);
#375=ORIENTED_EDGE('',*,*,#695,.T.);
#376=ORIENTED_EDGE('',*,*,#696,.T.);
#377=ORIENTED_EDGE('',*,*,#697,.T.);
#378=ORIENTED_EDGE('',*,*,#698,.F.);
#379=ORIENTED_EDGE('',*,*,#695,.F.);
#380=ORIENTED_EDGE('',*,*,#699,.F.);
#381=ORIENTED_EDGE('',*,*,#700,.F.);
#382=ORIENTED_EDGE('',*,*,#701,.T.);
#383=ORIENTED_EDGE('',*,*,#702,.F.);
#384=ORIENTED_EDGE('',*,*,#703,.F.);
#385=ORIENTED_EDGE('',*,*,#704,.T.);
#386=ORIENTED_EDGE('',*,*,#705,.T.);
#387=ORIENTED_EDGE('',*,*,#706,.F.);
#388=ORIENTED_EDGE('',*,*,#707,.F.);
#389=ORIENTED_EDGE('',*,*,#708,.T.);
#390=ORIENTED_EDGE('',*,*,#709,.T.);
#391=ORIENTED_EDGE('',*,*,#710,.T.);
#392=ORIENTED_EDGE('',*,*,#711,.F.);
#393=ORIENTED_EDGE('',*,*,#712,.F.);
#394=ORIENTED_EDGE('',*,*,#713,.T.);
#395=ORIENTED_EDGE('',*,*,#714,.T.);
#396=ORIENTED_EDGE('',*,*,#715,.F.);
#397=ORIENTED_EDGE('',*,*,#716,.F.);
#398=ORIENTED_EDGE('',*,*,#688,.F.);
#399=ORIENTED_EDGE('',*,*,#686,.F.);
#400=ORIENTED_EDGE('',*,*,#684,.F.);
#401=ORIENTED_EDGE('',*,*,#682,.F.);
#402=ORIENTED_EDGE('',*,*,#717,.F.);
#403=ORIENTED_EDGE('',*,*,#718,.T.);
#404=ORIENTED_EDGE('',*,*,#719,.T.);
#405=ORIENTED_EDGE('',*,*,#720,.F.);
#406=ORIENTED_EDGE('',*,*,#721,.F.);
#407=ORIENTED_EDGE('',*,*,#722,.T.);
#408=ORIENTED_EDGE('',*,*,#723,.T.);
#409=ORIENTED_EDGE('',*,*,#693,.T.);
#410=ORIENTED_EDGE('',*,*,#724,.F.);
#411=ORIENTED_EDGE('',*,*,#725,.T.);
#412=ORIENTED_EDGE('',*,*,#726,.F.);
#413=ORIENTED_EDGE('',*,*,#727,.T.);
#414=ORIENTED_EDGE('',*,*,#728,.F.);
#415=ORIENTED_EDGE('',*,*,#729,.T.);
#416=ORIENTED_EDGE('',*,*,#730,.T.);
#417=ORIENTED_EDGE('',*,*,#731,.T.);
#418=ORIENTED_EDGE('',*,*,#732,.F.);
#419=ORIENTED_EDGE('',*,*,#733,.T.);
#420=ORIENTED_EDGE('',*,*,#734,.F.);
#421=ORIENTED_EDGE('',*,*,#735,.F.);
#422=ORIENTED_EDGE('',*,*,#736,.F.);
#423=ORIENTED_EDGE('',*,*,#737,.F.);
#424=ORIENTED_EDGE('',*,*,#717,.T.);
#425=ORIENTED_EDGE('',*,*,#738,.T.);
#426=ORIENTED_EDGE('',*,*,#739,.T.);
#427=ORIENTED_EDGE('',*,*,#740,.F.);
#428=ORIENTED_EDGE('',*,*,#718,.F.);
#429=ORIENTED_EDGE('',*,*,#737,.T.);
#430=ORIENTED_EDGE('',*,*,#741,.T.);
#431=ORIENTED_EDGE('',*,*,#742,.F.);
#432=ORIENTED_EDGE('',*,*,#719,.F.);
#433=ORIENTED_EDGE('',*,*,#740,.T.);
#434=ORIENTED_EDGE('',*,*,#743,.F.);
#435=ORIENTED_EDGE('',*,*,#738,.F.);
#436=ORIENTED_EDGE('',*,*,#720,.T.);
#437=ORIENTED_EDGE('',*,*,#742,.T.);
#438=ORIENTED_EDGE('',*,*,#744,.F.);
#439=ORIENTED_EDGE('',*,*,#745,.F.);
#440=ORIENTED_EDGE('',*,*,#746,.F.);
#441=ORIENTED_EDGE('',*,*,#747,.F.);
#442=ORIENTED_EDGE('',*,*,#736,.T.);
#443=ORIENTED_EDGE('',*,*,#743,.T.);
#444=ORIENTED_EDGE('',*,*,#741,.F.);
#445=ORIENTED_EDGE('',*,*,#739,.F.);
#446=ORIENTED_EDGE('',*,*,#722,.F.);
#447=ORIENTED_EDGE('',*,*,#748,.F.);
#448=ORIENTED_EDGE('',*,*,#700,.T.);
#449=ORIENTED_EDGE('',*,*,#749,.T.);
#450=ORIENTED_EDGE('',*,*,#750,.F.);
#451=ORIENTED_EDGE('',*,*,#751,.T.);
#452=ORIENTED_EDGE('',*,*,#696,.F.);
#453=ORIENTED_EDGE('',*,*,#748,.T.);
#454=ORIENTED_EDGE('',*,*,#721,.T.);
#455=ORIENTED_EDGE('',*,*,#692,.F.);
#456=ORIENTED_EDGE('',*,*,#723,.F.);
#457=ORIENTED_EDGE('',*,*,#749,.F.);
#458=ORIENTED_EDGE('',*,*,#699,.T.);
#459=ORIENTED_EDGE('',*,*,#694,.T.);
#460=ORIENTED_EDGE('',*,*,#725,.F.);
#461=ORIENTED_EDGE('',*,*,#752,.F.);
#462=ORIENTED_EDGE('',*,*,#753,.T.);
#463=ORIENTED_EDGE('',*,*,#754,.T.);
#464=ORIENTED_EDGE('',*,*,#755,.T.);
#465=ORIENTED_EDGE('',*,*,#756,.T.);
#466=ORIENTED_EDGE('',*,*,#757,.F.);
#467=ORIENTED_EDGE('',*,*,#752,.T.);
#468=ORIENTED_EDGE('',*,*,#724,.T.);
#469=ORIENTED_EDGE('',*,*,#758,.F.);
#470=ORIENTED_EDGE('',*,*,#759,.F.);
#471=ORIENTED_EDGE('',*,*,#758,.T.);
#472=ORIENTED_EDGE('',*,*,#727,.F.);
#473=ORIENTED_EDGE('',*,*,#760,.F.);
#474=ORIENTED_EDGE('',*,*,#761,.T.);
#475=ORIENTED_EDGE('',*,*,#762,.F.);
#476=ORIENTED_EDGE('',*,*,#726,.T.);
#477=ORIENTED_EDGE('',*,*,#754,.F.);
#478=ORIENTED_EDGE('',*,*,#763,.F.);
#479=ORIENTED_EDGE('',*,*,#760,.T.);
#480=ORIENTED_EDGE('',*,*,#764,.F.);
#481=ORIENTED_EDGE('',*,*,#761,.F.);
#482=ORIENTED_EDGE('',*,*,#763,.T.);
#483=ORIENTED_EDGE('',*,*,#753,.F.);
#484=ORIENTED_EDGE('',*,*,#757,.T.);
#485=ORIENTED_EDGE('',*,*,#765,.T.);
#486=ORIENTED_EDGE('',*,*,#729,.F.);
#487=ORIENTED_EDGE('',*,*,#766,.F.);
#488=ORIENTED_EDGE('',*,*,#767,.T.);
#489=ORIENTED_EDGE('',*,*,#768,.T.);
#490=ORIENTED_EDGE('',*,*,#769,.T.);
#491=ORIENTED_EDGE('',*,*,#770,.T.);
#492=ORIENTED_EDGE('',*,*,#771,.F.);
#493=ORIENTED_EDGE('',*,*,#766,.T.);
#494=ORIENTED_EDGE('',*,*,#728,.T.);
#495=ORIENTED_EDGE('',*,*,#772,.F.);
#496=ORIENTED_EDGE('',*,*,#773,.F.);
#497=ORIENTED_EDGE('',*,*,#772,.T.);
#498=ORIENTED_EDGE('',*,*,#731,.F.);
#499=ORIENTED_EDGE('',*,*,#774,.F.);
#500=ORIENTED_EDGE('',*,*,#775,.T.);
#501=ORIENTED_EDGE('',*,*,#776,.F.);
#502=ORIENTED_EDGE('',*,*,#730,.F.);
#503=ORIENTED_EDGE('',*,*,#768,.F.);
#504=ORIENTED_EDGE('',*,*,#777,.T.);
#505=ORIENTED_EDGE('',*,*,#774,.T.);
#506=ORIENTED_EDGE('',*,*,#778,.F.);
#507=ORIENTED_EDGE('',*,*,#775,.F.);
#508=ORIENTED_EDGE('',*,*,#777,.F.);
#509=ORIENTED_EDGE('',*,*,#767,.F.);
#510=ORIENTED_EDGE('',*,*,#771,.T.);
#511=ORIENTED_EDGE('',*,*,#779,.T.);
#512=ORIENTED_EDGE('',*,*,#780,.F.);
#513=ORIENTED_EDGE('',*,*,#781,.T.);
#514=ORIENTED_EDGE('',*,*,#733,.F.);
#515=ORIENTED_EDGE('',*,*,#782,.F.);
#516=ORIENTED_EDGE('',*,*,#783,.T.);
#517=ORIENTED_EDGE('',*,*,#784,.F.);
#518=ORIENTED_EDGE('',*,*,#732,.T.);
#519=ORIENTED_EDGE('',*,*,#785,.F.);
#520=ORIENTED_EDGE('',*,*,#786,.F.);
#521=ORIENTED_EDGE('',*,*,#782,.T.);
#522=ORIENTED_EDGE('',*,*,#735,.T.);
#523=ORIENTED_EDGE('',*,*,#787,.F.);
#524=ORIENTED_EDGE('',*,*,#788,.F.);
#525=ORIENTED_EDGE('',*,*,#785,.T.);
#526=ORIENTED_EDGE('',*,*,#789,.T.);
#527=ORIENTED_EDGE('',*,*,#790,.T.);
#528=ORIENTED_EDGE('',*,*,#791,.F.);
#529=ORIENTED_EDGE('',*,*,#787,.T.);
#530=ORIENTED_EDGE('',*,*,#734,.T.);
#531=ORIENTED_EDGE('',*,*,#781,.F.);
#532=ORIENTED_EDGE('',*,*,#792,.F.);
#533=ORIENTED_EDGE('',*,*,#783,.F.);
#534=ORIENTED_EDGE('',*,*,#786,.T.);
#535=ORIENTED_EDGE('',*,*,#788,.T.);
#536=ORIENTED_EDGE('',*,*,#791,.T.);
#537=ORIENTED_EDGE('',*,*,#793,.T.);
#538=ORIENTED_EDGE('',*,*,#792,.T.);
#539=ORIENTED_EDGE('',*,*,#794,.F.);
#540=ORIENTED_EDGE('',*,*,#795,.F.);
#541=ORIENTED_EDGE('',*,*,#784,.T.);
#542=ORIENTED_EDGE('',*,*,#793,.F.);
#543=ORIENTED_EDGE('',*,*,#790,.F.);
#544=ORIENTED_EDGE('',*,*,#796,.T.);
#545=ORIENTED_EDGE('',*,*,#794,.T.);
#546=ORIENTED_EDGE('',*,*,#789,.F.);
#547=ORIENTED_EDGE('',*,*,#780,.T.);
#548=ORIENTED_EDGE('',*,*,#795,.T.);
#549=ORIENTED_EDGE('',*,*,#796,.F.);
#550=ORIENTED_EDGE('',*,*,#778,.T.);
#551=ORIENTED_EDGE('',*,*,#797,.F.);
#552=ORIENTED_EDGE('',*,*,#798,.F.);
#553=ORIENTED_EDGE('',*,*,#776,.T.);
#554=ORIENTED_EDGE('',*,*,#779,.F.);
#555=ORIENTED_EDGE('',*,*,#770,.F.);
#556=ORIENTED_EDGE('',*,*,#799,.T.);
#557=ORIENTED_EDGE('',*,*,#797,.T.);
#558=ORIENTED_EDGE('',*,*,#769,.F.);
#559=ORIENTED_EDGE('',*,*,#773,.T.);
#560=ORIENTED_EDGE('',*,*,#798,.T.);
#561=ORIENTED_EDGE('',*,*,#799,.F.);
#562=ORIENTED_EDGE('',*,*,#764,.T.);
#563=ORIENTED_EDGE('',*,*,#800,.F.);
#564=ORIENTED_EDGE('',*,*,#801,.F.);
#565=ORIENTED_EDGE('',*,*,#762,.T.);
#566=ORIENTED_EDGE('',*,*,#765,.F.);
#567=ORIENTED_EDGE('',*,*,#756,.F.);
#568=ORIENTED_EDGE('',*,*,#802,.T.);
#569=ORIENTED_EDGE('',*,*,#800,.T.);
#570=ORIENTED_EDGE('',*,*,#755,.F.);
#571=ORIENTED_EDGE('',*,*,#759,.T.);
#572=ORIENTED_EDGE('',*,*,#801,.T.);
#573=ORIENTED_EDGE('',*,*,#802,.F.);
#574=ORIENTED_EDGE('',*,*,#697,.F.);
#575=ORIENTED_EDGE('',*,*,#751,.F.);
#576=ORIENTED_EDGE('',*,*,#803,.T.);
#577=ORIENTED_EDGE('',*,*,#804,.T.);
#578=ORIENTED_EDGE('',*,*,#698,.T.);
#579=ORIENTED_EDGE('',*,*,#804,.F.);
#580=ORIENTED_EDGE('',*,*,#805,.F.);
#581=ORIENTED_EDGE('',*,*,#690,.T.);
#582=ORIENTED_EDGE('',*,*,#803,.F.);
#583=ORIENTED_EDGE('',*,*,#750,.T.);
#584=ORIENTED_EDGE('',*,*,#691,.F.);
#585=ORIENTED_EDGE('',*,*,#805,.T.);
#586=ORIENTED_EDGE('',*,*,#806,.F.);
#587=ORIENTED_EDGE('',*,*,#746,.T.);
#588=ORIENTED_EDGE('',*,*,#689,.F.);
#589=ORIENTED_EDGE('',*,*,#806,.T.);
#590=ORIENTED_EDGE('',*,*,#807,.F.);
#591=ORIENTED_EDGE('',*,*,#745,.T.);
#592=ORIENTED_EDGE('',*,*,#687,.F.);
#593=ORIENTED_EDGE('',*,*,#807,.T.);
#594=ORIENTED_EDGE('',*,*,#808,.F.);
#595=ORIENTED_EDGE('',*,*,#744,.T.);
#596=ORIENTED_EDGE('',*,*,#685,.F.);
#597=ORIENTED_EDGE('',*,*,#808,.T.);
#598=ORIENTED_EDGE('',*,*,#809,.F.);
#599=ORIENTED_EDGE('',*,*,#747,.T.);
#600=ORIENTED_EDGE('',*,*,#683,.F.);
#601=ORIENTED_EDGE('',*,*,#809,.T.);
#602=ORIENTED_EDGE('',*,*,#713,.F.);
#603=ORIENTED_EDGE('',*,*,#810,.F.);
#604=ORIENTED_EDGE('',*,*,#811,.T.);
#605=ORIENTED_EDGE('',*,*,#812,.T.);
#606=ORIENTED_EDGE('',*,*,#716,.T.);
#607=ORIENTED_EDGE('',*,*,#813,.F.);
#608=ORIENTED_EDGE('',*,*,#814,.F.);
#609=ORIENTED_EDGE('',*,*,#810,.T.);
#610=ORIENTED_EDGE('',*,*,#715,.T.);
#611=ORIENTED_EDGE('',*,*,#815,.F.);
#612=ORIENTED_EDGE('',*,*,#816,.F.);
#613=ORIENTED_EDGE('',*,*,#813,.T.);
#614=ORIENTED_EDGE('',*,*,#714,.F.);
#615=ORIENTED_EDGE('',*,*,#812,.F.);
#616=ORIENTED_EDGE('',*,*,#817,.T.);
#617=ORIENTED_EDGE('',*,*,#815,.T.);
#618=ORIENTED_EDGE('',*,*,#811,.F.);
#619=ORIENTED_EDGE('',*,*,#814,.T.);
#620=ORIENTED_EDGE('',*,*,#816,.T.);
#621=ORIENTED_EDGE('',*,*,#817,.F.);
#622=ORIENTED_EDGE('',*,*,#709,.F.);
#623=ORIENTED_EDGE('',*,*,#818,.F.);
#624=ORIENTED_EDGE('',*,*,#819,.T.);
#625=ORIENTED_EDGE('',*,*,#820,.T.);
#626=ORIENTED_EDGE('',*,*,#712,.T.);
#627=ORIENTED_EDGE('',*,*,#821,.F.);
#628=ORIENTED_EDGE('',*,*,#822,.F.);
#629=ORIENTED_EDGE('',*,*,#818,.T.);
#630=ORIENTED_EDGE('',*,*,#711,.T.);
#631=ORIENTED_EDGE('',*,*,#823,.F.);
#632=ORIENTED_EDGE('',*,*,#824,.F.);
#633=ORIENTED_EDGE('',*,*,#821,.T.);
#634=ORIENTED_EDGE('',*,*,#710,.F.);
#635=ORIENTED_EDGE('',*,*,#820,.F.);
#636=ORIENTED_EDGE('',*,*,#825,.T.);
#637=ORIENTED_EDGE('',*,*,#823,.T.);
#638=ORIENTED_EDGE('',*,*,#819,.F.);
#639=ORIENTED_EDGE('',*,*,#822,.T.);
#640=ORIENTED_EDGE('',*,*,#824,.T.);
#641=ORIENTED_EDGE('',*,*,#825,.F.);
#642=ORIENTED_EDGE('',*,*,#705,.F.);
#643=ORIENTED_EDGE('',*,*,#826,.F.);
#644=ORIENTED_EDGE('',*,*,#827,.T.);
#645=ORIENTED_EDGE('',*,*,#828,.T.);
#646=ORIENTED_EDGE('',*,*,#708,.F.);
#647=ORIENTED_EDGE('',*,*,#829,.F.);
#648=ORIENTED_EDGE('',*,*,#830,.T.);
#649=ORIENTED_EDGE('',*,*,#826,.T.);
#650=ORIENTED_EDGE('',*,*,#707,.T.);
#651=ORIENTED_EDGE('',*,*,#831,.F.);
#652=ORIENTED_EDGE('',*,*,#832,.F.);
#653=ORIENTED_EDGE('',*,*,#829,.T.);
#654=ORIENTED_EDGE('',*,*,#706,.T.);
#655=ORIENTED_EDGE('',*,*,#828,.F.);
#656=ORIENTED_EDGE('',*,*,#833,.F.);
#657=ORIENTED_EDGE('',*,*,#831,.T.);
#658=ORIENTED_EDGE('',*,*,#827,.F.);
#659=ORIENTED_EDGE('',*,*,#830,.F.);
#660=ORIENTED_EDGE('',*,*,#832,.T.);
#661=ORIENTED_EDGE('',*,*,#833,.T.);
#662=ORIENTED_EDGE('',*,*,#701,.F.);
#663=ORIENTED_EDGE('',*,*,#834,.F.);
#664=ORIENTED_EDGE('',*,*,#835,.T.);
#665=ORIENTED_EDGE('',*,*,#836,.T.);
#666=ORIENTED_EDGE('',*,*,#704,.F.);
#667=ORIENTED_EDGE('',*,*,#837,.F.);
#668=ORIENTED_EDGE('',*,*,#838,.T.);
#669=ORIENTED_EDGE('',*,*,#834,.T.);
#670=ORIENTED_EDGE('',*,*,#703,.T.);
#671=ORIENTED_EDGE('',*,*,#839,.F.);
#672=ORIENTED_EDGE('',*,*,#840,.F.);
#673=ORIENTED_EDGE('',*,*,#837,.T.);
#674=ORIENTED_EDGE('',*,*,#702,.T.);
#675=ORIENTED_EDGE('',*,*,#836,.F.);
#676=ORIENTED_EDGE('',*,*,#841,.F.);
#677=ORIENTED_EDGE('',*,*,#839,.T.);
#678=ORIENTED_EDGE('',*,*,#835,.F.);
#679=ORIENTED_EDGE('',*,*,#838,.F.);
#680=ORIENTED_EDGE('',*,*,#840,.T.);
#681=ORIENTED_EDGE('',*,*,#841,.T.);
#682=EDGE_CURVE('',#842,#842,#954,.T.);
#683=EDGE_CURVE('',#843,#843,#955,.T.);
#684=EDGE_CURVE('',#844,#844,#956,.T.);
#685=EDGE_CURVE('',#845,#845,#957,.T.);
#686=EDGE_CURVE('',#846,#846,#958,.T.);
#687=EDGE_CURVE('',#847,#847,#959,.T.);
#688=EDGE_CURVE('',#848,#848,#960,.T.);
#689=EDGE_CURVE('',#849,#849,#961,.T.);
#690=EDGE_CURVE('',#850,#851,#12,.T.);
#691=EDGE_CURVE('',#850,#852,#13,.T.);
#692=EDGE_CURVE('',#852,#853,#14,.T.);
#693=EDGE_CURVE('',#854,#853,#15,.T.);
#694=EDGE_CURVE('',#855,#854,#16,.T.);
#695=EDGE_CURVE('',#855,#851,#17,.T.);
#696=EDGE_CURVE('',#856,#857,#18,.T.);
#697=EDGE_CURVE('',#857,#858,#19,.T.);
#698=EDGE_CURVE('',#851,#858,#20,.T.);
#699=EDGE_CURVE('',#859,#855,#21,.T.);
#700=EDGE_CURVE('',#856,#859,#22,.T.);
#701=EDGE_CURVE('',#860,#861,#23,.T.);
#702=EDGE_CURVE('',#862,#861,#24,.T.);
#703=EDGE_CURVE('',#863,#862,#25,.T.);
#704=EDGE_CURVE('',#863,#860,#26,.T.);
#705=EDGE_CURVE('',#864,#865,#27,.T.);
#706=EDGE_CURVE('',#866,#865,#28,.T.);
#707=EDGE_CURVE('',#867,#866,#29,.T.);
#708=EDGE_CURVE('',#867,#864,#30,.T.);
#709=EDGE_CURVE('',#868,#869,#31,.T.);
#710=EDGE_CURVE('',#869,#870,#32,.T.);
#711=EDGE_CURVE('',#871,#870,#33,.T.);
#712=EDGE_CURVE('',#868,#871,#34,.T.);
#713=EDGE_CURVE('',#872,#873,#35,.T.);
#714=EDGE_CURVE('',#873,#874,#36,.T.);
#715=EDGE_CURVE('',#875,#874,#37,.T.);
#716=EDGE_CURVE('',#872,#875,#38,.T.);
#717=EDGE_CURVE('',#876,#877,#39,.T.);
#718=EDGE_CURVE('',#876,#878,#40,.T.);
#719=EDGE_CURVE('',#878,#879,#41,.T.);
#720=EDGE_CURVE('',#877,#879,#42,.T.);
#721=EDGE_CURVE('',#880,#853,#43,.T.);
#722=EDGE_CURVE('',#880,#881,#44,.T.);
#723=EDGE_CURVE('',#881,#854,#45,.T.);
#724=EDGE_CURVE('',#882,#883,#46,.T.);
#725=EDGE_CURVE('',#882,#884,#47,.T.);
#726=EDGE_CURVE('',#885,#884,#48,.T.);
#727=EDGE_CURVE('',#885,#883,#49,.T.);
#728=EDGE_CURVE('',#886,#887,#50,.T.);
#729=EDGE_CURVE('',#886,#888,#51,.T.);
#730=EDGE_CURVE('',#888,#889,#52,.T.);
#731=EDGE_CURVE('',#889,#887,#53,.T.);
#732=EDGE_CURVE('',#890,#891,#54,.T.);
#733=EDGE_CURVE('',#890,#892,#55,.T.);
#734=EDGE_CURVE('',#893,#892,#56,.T.);
#735=EDGE_CURVE('',#891,#893,#57,.T.);
#736=EDGE_CURVE('',#894,#895,#58,.T.);
#737=EDGE_CURVE('',#876,#894,#59,.T.);
#738=EDGE_CURVE('',#877,#895,#60,.T.);
#739=EDGE_CURVE('',#894,#896,#61,.T.);
#740=EDGE_CURVE('',#878,#896,#62,.T.);
#741=EDGE_CURVE('',#896,#897,#63,.T.);
#742=EDGE_CURVE('',#879,#897,#64,.T.);
#743=EDGE_CURVE('',#895,#897,#65,.T.);
#744=EDGE_CURVE('',#898,#898,#962,.T.);
#745=EDGE_CURVE('',#899,#899,#963,.T.);
#746=EDGE_CURVE('',#900,#900,#964,.T.);
#747=EDGE_CURVE('',#901,#901,#965,.T.);
#748=EDGE_CURVE('',#856,#880,#66,.T.);
#749=EDGE_CURVE('',#859,#881,#67,.T.);
#750=EDGE_CURVE('',#902,#852,#68,.T.);
#751=EDGE_CURVE('',#902,#857,#69,.T.);
#752=EDGE_CURVE('',#903,#882,#70,.T.);
#753=EDGE_CURVE('',#903,#904,#71,.T.);
#754=EDGE_CURVE('',#904,#884,#72,.T.);
#755=EDGE_CURVE('',#905,#906,#73,.T.);
#756=EDGE_CURVE('',#906,#907,#74,.T.);
#757=EDGE_CURVE('',#903,#907,#75,.T.);
#758=EDGE_CURVE('',#905,#883,#76,.T.);
#759=EDGE_CURVE('',#905,#908,#77,.T.);
#760=EDGE_CURVE('',#909,#885,#78,.T.);
#761=EDGE_CURVE('',#909,#910,#79,.T.);
#762=EDGE_CURVE('',#908,#910,#80,.T.);
#763=EDGE_CURVE('',#909,#904,#81,.T.);
#764=EDGE_CURVE('',#910,#911,#82,.T.);
#765=EDGE_CURVE('',#907,#911,#83,.T.);
#766=EDGE_CURVE('',#912,#886,#84,.T.);
#767=EDGE_CURVE('',#912,#913,#85,.T.);
#768=EDGE_CURVE('',#913,#888,#86,.T.);
#769=EDGE_CURVE('',#914,#915,#87,.T.);
#770=EDGE_CURVE('',#915,#916,#88,.T.);
#771=EDGE_CURVE('',#912,#916,#89,.T.);
#772=EDGE_CURVE('',#914,#887,#90,.T.);
#773=EDGE_CURVE('',#914,#917,#91,.T.);
#774=EDGE_CURVE('',#918,#889,#92,.T.);
#775=EDGE_CURVE('',#918,#919,#93,.T.);
#776=EDGE_CURVE('',#917,#919,#94,.T.);
#777=EDGE_CURVE('',#913,#918,#95,.T.);
#778=EDGE_CURVE('',#919,#920,#96,.T.);
#779=EDGE_CURVE('',#916,#920,#97,.T.);
#780=EDGE_CURVE('',#921,#922,#98,.T.);
#781=EDGE_CURVE('',#921,#892,#99,.T.);
#782=EDGE_CURVE('',#923,#890,#100,.T.);
#783=EDGE_CURVE('',#923,#924,#101,.T.);
#784=EDGE_CURVE('',#922,#924,#102,.T.);
#785=EDGE_CURVE('',#925,#891,#103,.T.);
#786=EDGE_CURVE('',#923,#925,#104,.T.);
#787=EDGE_CURVE('',#926,#893,#105,.T.);
#788=EDGE_CURVE('',#925,#926,#106,.T.);
#789=EDGE_CURVE('',#921,#927,#107,.T.);
#790=EDGE_CURVE('',#927,#928,#108,.T.);
#791=EDGE_CURVE('',#926,#928,#109,.T.);
#792=EDGE_CURVE('',#924,#929,#110,.T.);
#793=EDGE_CURVE('',#928,#929,#111,.T.);
#794=EDGE_CURVE('',#930,#929,#112,.T.);
#795=EDGE_CURVE('',#922,#930,#113,.T.);
#796=EDGE_CURVE('',#927,#930,#114,.T.);
#797=EDGE_CURVE('',#931,#920,#115,.T.);
#798=EDGE_CURVE('',#917,#931,#116,.T.);
#799=EDGE_CURVE('',#915,#931,#117,.T.);
#800=EDGE_CURVE('',#932,#911,#118,.T.);
#801=EDGE_CURVE('',#908,#932,#119,.T.);
#802=EDGE_CURVE('',#906,#932,#120,.T.);
#803=EDGE_CURVE('',#902,#933,#121,.T.);
#804=EDGE_CURVE('',#933,#858,#122,.T.);
#805=EDGE_CURVE('',#850,#933,#123,.T.);
#806=EDGE_CURVE('',#934,#934,#966,.T.);
#807=EDGE_CURVE('',#935,#935,#967,.T.);
#808=EDGE_CURVE('',#936,#936,#968,.T.);
#809=EDGE_CURVE('',#937,#937,#969,.T.);
#810=EDGE_CURVE('',#938,#872,#124,.T.);
#811=EDGE_CURVE('',#938,#939,#125,.T.);
#812=EDGE_CURVE('',#939,#873,#126,.T.);
#813=EDGE_CURVE('',#940,#875,#127,.T.);
#814=EDGE_CURVE('',#938,#940,#128,.T.);
#815=EDGE_CURVE('',#941,#874,#129,.T.);
#816=EDGE_CURVE('',#940,#941,#130,.T.);
#817=EDGE_CURVE('',#939,#941,#131,.T.);
#818=EDGE_CURVE('',#942,#868,#132,.T.);
#819=EDGE_CURVE('',#942,#943,#133,.T.);
#820=EDGE_CURVE('',#943,#869,#134,.T.);
#821=EDGE_CURVE('',#944,#871,#135,.T.);
#822=EDGE_CURVE('',#942,#944,#136,.T.);
#823=EDGE_CURVE('',#945,#870,#137,.T.);
#824=EDGE_CURVE('',#944,#945,#138,.T.);
#825=EDGE_CURVE('',#943,#945,#139,.T.);
#826=EDGE_CURVE('',#946,#864,#140,.T.);
#827=EDGE_CURVE('',#946,#947,#141,.T.);
#828=EDGE_CURVE('',#947,#865,#142,.T.);
#829=EDGE_CURVE('',#948,#867,#143,.T.);
#830=EDGE_CURVE('',#948,#946,#144,.T.);
#831=EDGE_CURVE('',#949,#866,#145,.T.);
#832=EDGE_CURVE('',#948,#949,#146,.T.);
#833=EDGE_CURVE('',#949,#947,#147,.T.);
#834=EDGE_CURVE('',#950,#860,#148,.T.);
#835=EDGE_CURVE('',#950,#951,#149,.T.);
#836=EDGE_CURVE('',#951,#861,#150,.T.);
#837=EDGE_CURVE('',#952,#863,#151,.T.);
#838=EDGE_CURVE('',#952,#950,#152,.T.);
#839=EDGE_CURVE('',#953,#862,#153,.T.);
#840=EDGE_CURVE('',#952,#953,#154,.T.);
#841=EDGE_CURVE('',#953,#951,#155,.T.);
#842=VERTEX_POINT('',#1664);
#843=VERTEX_POINT('',#1666);
#844=VERTEX_POINT('',#1669);
#845=VERTEX_POINT('',#1671);
#846=VERTEX_POINT('',#1674);
#847=VERTEX_POINT('',#1676);
#848=VERTEX_POINT('',#1679);
#849=VERTEX_POINT('',#1681);
#850=VERTEX_POINT('',#1684);
#851=VERTEX_POINT('',#1685);
#852=VERTEX_POINT('',#1687);
#853=VERTEX_POINT('',#1689);
#854=VERTEX_POINT('',#1691);
#855=VERTEX_POINT('',#1693);
#856=VERTEX_POINT('',#1697);
#857=VERTEX_POINT('',#1698);
#858=VERTEX_POINT('',#1700);
#859=VERTEX_POINT('',#1703);
#860=VERTEX_POINT('',#1707);
#861=VERTEX_POINT('',#1708);
#862=VERTEX_POINT('',#1710);
#863=VERTEX_POINT('',#1712);
#864=VERTEX_POINT('',#1715);
#865=VERTEX_POINT('',#1716);
#866=VERTEX_POINT('',#1718);
#867=VERTEX_POINT('',#1720);
#868=VERTEX_POINT('',#1723);
#869=VERTEX_POINT('',#1724);
#870=VERTEX_POINT('',#1726);
#871=VERTEX_POINT('',#1728);
#872=VERTEX_POINT('',#1731);
#873=VERTEX_POINT('',#1732);
#874=VERTEX_POINT('',#1734);
#875=VERTEX_POINT('',#1736);
#876=VERTEX_POINT('',#1739);
#877=VERTEX_POINT('',#1740);
#878=VERTEX_POINT('',#1742);
#879=VERTEX_POINT('',#1744);
#880=VERTEX_POINT('',#1747);
#881=VERTEX_POINT('',#1749);
#882=VERTEX_POINT('',#1752);
#883=VERTEX_POINT('',#1753);
#884=VERTEX_POINT('',#1755);
#885=VERTEX_POINT('',#1757);
#886=VERTEX_POINT('',#1760);
#887=VERTEX_POINT('',#1761);
#888=VERTEX_POINT('',#1763);
#889=VERTEX_POINT('',#1765);
#890=VERTEX_POINT('',#1768);
#891=VERTEX_POINT('',#1769);
#892=VERTEX_POINT('',#1771);
#893=VERTEX_POINT('',#1773);
#894=VERTEX_POINT('',#1777);
#895=VERTEX_POINT('',#1778);
#896=VERTEX_POINT('',#1783);
#897=VERTEX_POINT('',#1787);
#898=VERTEX_POINT('',#1793);
#899=VERTEX_POINT('',#1795);
#900=VERTEX_POINT('',#1797);
#901=VERTEX_POINT('',#1799);
#902=VERTEX_POINT('',#1805);
#903=VERTEX_POINT('',#1810);
#904=VERTEX_POINT('',#1812);
#905=VERTEX_POINT('',#1816);
#906=VERTEX_POINT('',#1817);
#907=VERTEX_POINT('',#1819);
#908=VERTEX_POINT('',#1824);
#909=VERTEX_POINT('',#1826);
#910=VERTEX_POINT('',#1828);
#911=VERTEX_POINT('',#1834);
#912=VERTEX_POINT('',#1838);
#913=VERTEX_POINT('',#1840);
#914=VERTEX_POINT('',#1844);
#915=VERTEX_POINT('',#1845);
#916=VERTEX_POINT('',#1847);
#917=VERTEX_POINT('',#1852);
#918=VERTEX_POINT('',#1854);
#919=VERTEX_POINT('',#1856);
#920=VERTEX_POINT('',#1862);
#921=VERTEX_POINT('',#1866);
#922=VERTEX_POINT('',#1867);
#923=VERTEX_POINT('',#1870);
#924=VERTEX_POINT('',#1872);
#925=VERTEX_POINT('',#1876);
#926=VERTEX_POINT('',#1880);
#927=VERTEX_POINT('',#1884);
#928=VERTEX_POINT('',#1886);
#929=VERTEX_POINT('',#1890);
#930=VERTEX_POINT('',#1894);
#931=VERTEX_POINT('',#1901);
#932=VERTEX_POINT('',#1908);
#933=VERTEX_POINT('',#1915);
#934=VERTEX_POINT('',#1922);
#935=VERTEX_POINT('',#1926);
#936=VERTEX_POINT('',#1930);
#937=VERTEX_POINT('',#1934);
#938=VERTEX_POINT('',#1938);
#939=VERTEX_POINT('',#1940);
#940=VERTEX_POINT('',#1944);
#941=VERTEX_POINT('',#1948);
#942=VERTEX_POINT('',#1955);
#943=VERTEX_POINT('',#1957);
#944=VERTEX_POINT('',#1961);
#945=VERTEX_POINT('',#1965);
#946=VERTEX_POINT('',#1972);
#947=VERTEX_POINT('',#1974);
#948=VERTEX_POINT('',#1978);
#949=VERTEX_POINT('',#1982);
#950=VERTEX_POINT('',#1989);
#951=VERTEX_POINT('',#1991);
#952=VERTEX_POINT('',#1995);
#953=VERTEX_POINT('',#1999);
#954=CIRCLE('',#1258,0.00165);
#955=CIRCLE('',#1259,0.00165);
#956=CIRCLE('',#1261,0.00165);
#957=CIRCLE('',#1262,0.00165);
#958=CIRCLE('',#1264,0.00165);
#959=CIRCLE('',#1265,0.00165);
#960=CIRCLE('',#1267,0.00165);
#961=CIRCLE('',#1268,0.00165);
#962=CIRCLE('',#1277,0.003);
#963=CIRCLE('',#1278,0.003);
#964=CIRCLE('',#1279,0.003);
#965=CIRCLE('',#1280,0.003);
#966=CIRCLE('',#1312,0.003);
#967=CIRCLE('',#1315,0.003);
#968=CIRCLE('',#1318,0.003);
#969=CIRCLE('',#1321,0.003);
#970=EDGE_LOOP('',(#362));
#971=EDGE_LOOP('',(#363));
#972=EDGE_LOOP('',(#364));
#973=EDGE_LOOP('',(#365));
#974=EDGE_LOOP('',(#366));
#975=EDGE_LOOP('',(#367));
#976=EDGE_LOOP('',(#368));
#977=EDGE_LOOP('',(#369));
#978=EDGE_LOOP('',(#370,#371,#372,#373,#374,#375));
#979=EDGE_LOOP('',(#376,#377,#378,#379,#380,#381));
#980=EDGE_LOOP('',(#382,#383,#384,#385));
#981=EDGE_LOOP('',(#386,#387,#388,#389));
#982=EDGE_LOOP('',(#390,#391,#392,#393));
#983=EDGE_LOOP('',(#394,#395,#396,#397));
#984=EDGE_LOOP('',(#398));
#985=EDGE_LOOP('',(#399));
#986=EDGE_LOOP('',(#400));
#987=EDGE_LOOP('',(#401));
#988=EDGE_LOOP('',(#402,#403,#404,#405));
#989=EDGE_LOOP('',(#406,#407,#408,#409));
#990=EDGE_LOOP('',(#410,#411,#412,#413));
#991=EDGE_LOOP('',(#414,#415,#416,#417));
#992=EDGE_LOOP('',(#418,#419,#420,#421));
#993=EDGE_LOOP('',(#422,#423,#424,#425));
#994=EDGE_LOOP('',(#426,#427,#428,#429));
#995=EDGE_LOOP('',(#430,#431,#432,#433));
#996=EDGE_LOOP('',(#434,#435,#436,#437));
#997=EDGE_LOOP('',(#438));
#998=EDGE_LOOP('',(#439));
#999=EDGE_LOOP('',(#440));
#1000=EDGE_LOOP('',(#441));
#1001=EDGE_LOOP('',(#442,#443,#444,#445));
#1002=EDGE_LOOP('',(#446,#447,#448,#449));
#1003=EDGE_LOOP('',(#450,#451,#452,#453,#454,#455));
#1004=EDGE_LOOP('',(#456,#457,#458,#459));
#1005=EDGE_LOOP('',(#460,#461,#462,#463));
#1006=EDGE_LOOP('',(#464,#465,#466,#467,#468,#469));
#1007=EDGE_LOOP('',(#470,#471,#472,#473,#474,#475));
#1008=EDGE_LOOP('',(#476,#477,#478,#479));
#1009=EDGE_LOOP('',(#480,#481,#482,#483,#484,#485));
#1010=EDGE_LOOP('',(#486,#487,#488,#489));
#1011=EDGE_LOOP('',(#490,#491,#492,#493,#494,#495));
#1012=EDGE_LOOP('',(#496,#497,#498,#499,#500,#501));
#1013=EDGE_LOOP('',(#502,#503,#504,#505));
#1014=EDGE_LOOP('',(#506,#507,#508,#509,#510,#511));
#1015=EDGE_LOOP('',(#512,#513,#514,#515,#516,#517));
#1016=EDGE_LOOP('',(#518,#519,#520,#521));
#1017=EDGE_LOOP('',(#522,#523,#524,#525));
#1018=EDGE_LOOP('',(#526,#527,#528,#529,#530,#531));
#1019=EDGE_LOOP('',(#532,#533,#534,#535,#536,#537));
#1020=EDGE_LOOP('',(#538,#539,#540,#541));
#1021=EDGE_LOOP('',(#542,#543,#544,#545));
#1022=EDGE_LOOP('',(#546,#547,#548,#549));
#1023=EDGE_LOOP('',(#550,#551,#552,#553));
#1024=EDGE_LOOP('',(#554,#555,#556,#557));
#1025=EDGE_LOOP('',(#558,#559,#560,#561));
#1026=EDGE_LOOP('',(#562,#563,#564,#565));
#1027=EDGE_LOOP('',(#566,#567,#568,#569));
#1028=EDGE_LOOP('',(#570,#571,#572,#573));
#1029=EDGE_LOOP('',(#574,#575,#576,#577));
#1030=EDGE_LOOP('',(#578,#579,#580,#581));
#1031=EDGE_LOOP('',(#582,#583,#584,#585));
#1032=EDGE_LOOP('',(#586));
#1033=EDGE_LOOP('',(#587));
#1034=EDGE_LOOP('',(#588));
#1035=EDGE_LOOP('',(#589));
#1036=EDGE_LOOP('',(#590));
#1037=EDGE_LOOP('',(#591));
#1038=EDGE_LOOP('',(#592));
#1039=EDGE_LOOP('',(#593));
#1040=EDGE_LOOP('',(#594));
#1041=EDGE_LOOP('',(#595));
#1042=EDGE_LOOP('',(#596));
#1043=EDGE_LOOP('',(#597));
#1044=EDGE_LOOP('',(#598));
#1045=EDGE_LOOP('',(#599));
#1046=EDGE_LOOP('',(#600));
#1047=EDGE_LOOP('',(#601));
#1048=EDGE_LOOP('',(#602,#603,#604,#605));
#1049=EDGE_LOOP('',(#606,#607,#608,#609));
#1050=EDGE_LOOP('',(#610,#611,#612,#613));
#1051=EDGE_LOOP('',(#614,#615,#616,#617));
#1052=EDGE_LOOP('',(#618,#619,#620,#621));
#1053=EDGE_LOOP('',(#622,#623,#624,#625));
#1054=EDGE_LOOP('',(#626,#627,#628,#629));
#1055=EDGE_LOOP('',(#630,#631,#632,#633));
#1056=EDGE_LOOP('',(#634,#635,#636,#637));
#1057=EDGE_LOOP('',(#638,#639,#640,#641));
#1058=EDGE_LOOP('',(#642,#643,#644,#645));
#1059=EDGE_LOOP('',(#646,#647,#648,#649));
#1060=EDGE_LOOP('',(#650,#651,#652,#653));
#1061=EDGE_LOOP('',(#654,#655,#656,#657));
#1062=EDGE_LOOP('',(#658,#659,#660,#661));
#1063=EDGE_LOOP('',(#662,#663,#664,#665));
#1064=EDGE_LOOP('',(#666,#667,#668,#669));
#1065=EDGE_LOOP('',(#670,#671,#672,#673));
#1066=EDGE_LOOP('',(#674,#675,#676,#677));
#1067=EDGE_LOOP('',(#678,#679,#680,#681));
#1068=FACE_BOUND('',#970,.T.);
#1069=FACE_BOUND('',#971,.T.);
#1070=FACE_BOUND('',#972,.T.);
#1071=FACE_BOUND('',#973,.T.);
#1072=FACE_BOUND('',#974,.T.);
#1073=FACE_BOUND('',#975,.T.);
#1074=FACE_BOUND('',#976,.T.);
#1075=FACE_BOUND('',#977,.T.);
#1076=FACE_BOUND('',#978,.T.);
#1077=FACE_BOUND('',#979,.T.);
#1078=FACE_BOUND('',#980,.T.);
#1079=FACE_BOUND('',#981,.T.);
#1080=FACE_BOUND('',#982,.T.);
#1081=FACE_BOUND('',#983,.T.);
#1082=FACE_BOUND('',#984,.T.);
#1083=FACE_BOUND('',#985,.T.);
#1084=FACE_BOUND('',#986,.T.);
#1085=FACE_BOUND('',#987,.T.);
#1086=FACE_BOUND('',#988,.T.);
#1087=FACE_BOUND('',#989,.T.);
#1088=FACE_BOUND('',#990,.T.);
#1089=FACE_BOUND('',#991,.T.);
#1090=FACE_BOUND('',#992,.T.);
#1091=FACE_BOUND('',#993,.T.);
#1092=FACE_BOUND('',#994,.T.);
#1093=FACE_BOUND('',#995,.T.);
#1094=FACE_BOUND('',#996,.T.);
#1095=FACE_BOUND('',#997,.T.);
#1096=FACE_BOUND('',#998,.T.);
#1097=FACE_BOUND('',#999,.T.);
#1098=FACE_BOUND('',#1000,.T.);
#1099=FACE_BOUND('',#1001,.T.);
#1100=FACE_BOUND('',#1002,.T.);
#1101=FACE_BOUND('',#1003,.T.);
#1102=FACE_BOUND('',#1004,.T.);
#1103=FACE_BOUND('',#1005,.T.);
#1104=FACE_BOUND('',#1006,.T.);
#1105=FACE_BOUND('',#1007,.T.);
#1106=FACE_BOUND('',#1008,.T.);
#1107=FACE_BOUND('',#1009,.T.);
#1108=FACE_BOUND('',#1010,.T.);
#1109=FACE_BOUND('',#1011,.T.);
#1110=FACE_BOUND('',#1012,.T.);
#1111=FACE_BOUND('',#1013,.T.);
#1112=FACE_BOUND('',#1014,.T.);
#1113=FACE_BOUND('',#1015,.T.);
#1114=FACE_BOUND('',#1016,.T.);
#1115=FACE_BOUND('',#1017,.T.);
#1116=FACE_BOUND('',#1018,.T.);
#1117=FACE_BOUND('',#1019,.T.);
#1118=FACE_BOUND('',#1020,.T.);
#1119=FACE_BOUND('',#1021,.T.);
#1120=FACE_BOUND('',#1022,.T.);
#1121=FACE_BOUND('',#1023,.T.);
#1122=FACE_BOUND('',#1024,.T.);
#1123=FACE_BOUND('',#1025,.T.);
#1124=FACE_BOUND('',#1026,.T.);
#1125=FACE_BOUND('',#1027,.T.);
#1126=FACE_BOUND('',#1028,.T.);
#1127=FACE_BOUND('',#1029,.T.);
#1128=FACE_BOUND('',#1030,.T.);
#1129=FACE_BOUND('',#1031,.T.);
#1130=FACE_BOUND('',#1032,.T.);
#1131=FACE_BOUND('',#1033,.T.);
#1132=FACE_BOUND('',#1034,.T.);
#1133=FACE_BOUND('',#1035,.T.);
#1134=FACE_BOUND('',#1036,.T.);
#1135=FACE_BOUND('',#1037,.T.);
#1136=FACE_BOUND('',#1038,.T.);
#1137=FACE_BOUND('',#1039,.T.);
#1138=FACE_BOUND('',#1040,.T.);
#1139=FACE_BOUND('',#1041,.T.);
#1140=FACE_BOUND('',#1042,.T.);
#1141=FACE_BOUND('',#1043,.T.);
#1142=FACE_BOUND('',#1044,.T.);
#1143=FACE_BOUND('',#1045,.T.);
#1144=FACE_BOUND('',#1046,.T.);
#1145=FACE_BOUND('',#1047,.T.);
#1146=FACE_BOUND('',#1048,.T.);
#1147=FACE_BOUND('',#1049,.T.);
#1148=FACE_BOUND('',#1050,.T.);
#1149=FACE_BOUND('',#1051,.T.);
#1150=FACE_BOUND('',#1052,.T.);
#1151=FACE_BOUND('',#1053,.T.);
#1152=FACE_BOUND('',#1054,.T.);
#1153=FACE_BOUND('',#1055,.T.);
#1154=FACE_BOUND('',#1056,.T.);
#1155=FACE_BOUND('',#1057,.T.);
#1156=FACE_BOUND('',#1058,.T.);
#1157=FACE_BOUND('',#1059,.T.);
#1158=FACE_BOUND('',#1060,.T.);
#1159=FACE_BOUND('',#1061,.T.);
#1160=FACE_BOUND('',#1062,.T.);
#1161=FACE_BOUND('',#1063,.T.);
#1162=FACE_BOUND('',#1064,.T.);
#1163=FACE_BOUND('',#1065,.T.);
#1164=FACE_BOUND('',#1066,.T.);
#1165=FACE_BOUND('',#1067,.T.);
#1166=CYLINDRICAL_SURFACE('',#1257,0.00165);
#1167=CYLINDRICAL_SURFACE('',#1260,0.00165);
#1168=CYLINDRICAL_SURFACE('',#1263,0.00165);
#1169=CYLINDRICAL_SURFACE('',#1266,0.00165);
#1170=CYLINDRICAL_SURFACE('',#1311,0.003);
#1171=CYLINDRICAL_SURFACE('',#1314,0.003);
#1172=CYLINDRICAL_SURFACE('',#1317,0.003);
#1173=CYLINDRICAL_SURFACE('',#1320,0.003);
#1174=ADVANCED_FACE('',(#1068,#1069),#1166,.F.);
#1175=ADVANCED_FACE('',(#1070,#1071),#1167,.F.);
#1176=ADVANCED_FACE('',(#1072,#1073),#1168,.F.);
#1177=ADVANCED_FACE('',(#1074,#1075),#1169,.F.);
#1178=ADVANCED_FACE('',(#1076),#300,.T.);
#1179=ADVANCED_FACE('',(#1077),#301,.T.);
#1180=ADVANCED_FACE('',(#1078,#1079,#1080,#1081,#1082,#1083,#1084,#1085,
#1086,#1087,#1088,#1089,#1090),#302,.T.);
#1181=ADVANCED_FACE('',(#1091),#303,.T.);
#1182=ADVANCED_FACE('',(#1092),#304,.F.);
#1183=ADVANCED_FACE('',(#1093),#305,.F.);
#1184=ADVANCED_FACE('',(#1094),#306,.T.);
#1185=ADVANCED_FACE('',(#1095,#1096,#1097,#1098,#1099),#307,.F.);
#1186=ADVANCED_FACE('',(#1100),#308,.T.);
#1187=ADVANCED_FACE('',(#1101),#309,.F.);
#1188=ADVANCED_FACE('',(#1102),#310,.T.);
#1189=ADVANCED_FACE('',(#1103),#311,.T.);
#1190=ADVANCED_FACE('',(#1104),#312,.F.);
#1191=ADVANCED_FACE('',(#1105),#313,.T.);
#1192=ADVANCED_FACE('',(#1106),#314,.F.);
#1193=ADVANCED_FACE('',(#1107),#315,.T.);
#1194=ADVANCED_FACE('',(#1108),#316,.T.);
#1195=ADVANCED_FACE('',(#1109),#317,.F.);
#1196=ADVANCED_FACE('',(#1110),#318,.T.);
#1197=ADVANCED_FACE('',(#1111),#319,.T.);
#1198=ADVANCED_FACE('',(#1112),#320,.T.);
#1199=ADVANCED_FACE('',(#1113),#321,.T.);
#1200=ADVANCED_FACE('',(#1114),#322,.F.);
#1201=ADVANCED_FACE('',(#1115),#323,.F.);
#1202=ADVANCED_FACE('',(#1116),#324,.F.);
#1203=ADVANCED_FACE('',(#1117),#325,.T.);
#1204=ADVANCED_FACE('',(#1118),#326,.F.);
#1205=ADVANCED_FACE('',(#1119),#327,.T.);
#1206=ADVANCED_FACE('',(#1120),#328,.T.);
#1207=ADVANCED_FACE('',(#1121),#329,.F.);
#1208=ADVANCED_FACE('',(#1122),#330,.T.);
#1209=ADVANCED_FACE('',(#1123),#331,.T.);
#1210=ADVANCED_FACE('',(#1124),#332,.F.);
#1211=ADVANCED_FACE('',(#1125),#333,.T.);
#1212=ADVANCED_FACE('',(#1126),#334,.T.);
#1213=ADVANCED_FACE('',(#1127),#335,.T.);
#1214=ADVANCED_FACE('',(#1128),#336,.F.);
#1215=ADVANCED_FACE('',(#1129),#337,.T.);
#1216=ADVANCED_FACE('',(#1130,#1131),#1170,.F.);
#1217=ADVANCED_FACE('',(#1132,#1133),#338,.T.);
#1218=ADVANCED_FACE('',(#1134,#1135),#1171,.F.);
#1219=ADVANCED_FACE('',(#1136,#1137),#339,.T.);
#1220=ADVANCED_FACE('',(#1138,#1139),#1172,.F.);
#1221=ADVANCED_FACE('',(#1140,#1141),#340,.T.);
#1222=ADVANCED_FACE('',(#1142,#1143),#1173,.F.);
#1223=ADVANCED_FACE('',(#1144,#1145),#341,.T.);
#1224=ADVANCED_FACE('',(#1146),#342,.T.);
#1225=ADVANCED_FACE('',(#1147),#343,.F.);
#1226=ADVANCED_FACE('',(#1148),#344,.F.);
#1227=ADVANCED_FACE('',(#1149),#345,.T.);
#1228=ADVANCED_FACE('',(#1150),#346,.T.);
#1229=ADVANCED_FACE('',(#1151),#347,.T.);
#1230=ADVANCED_FACE('',(#1152),#348,.F.);
#1231=ADVANCED_FACE('',(#1153),#349,.F.);
#1232=ADVANCED_FACE('',(#1154),#350,.T.);
#1233=ADVANCED_FACE('',(#1155),#351,.T.);
#1234=ADVANCED_FACE('',(#1156),#352,.T.);
#1235=ADVANCED_FACE('',(#1157),#353,.T.);
#1236=ADVANCED_FACE('',(#1158),#354,.F.);
#1237=ADVANCED_FACE('',(#1159),#355,.F.);
#1238=ADVANCED_FACE('',(#1160),#356,.T.);
#1239=ADVANCED_FACE('',(#1161),#357,.T.);
#1240=ADVANCED_FACE('',(#1162),#358,.T.);
#1241=ADVANCED_FACE('',(#1163),#359,.F.);
#1242=ADVANCED_FACE('',(#1164),#360,.F.);
#1243=ADVANCED_FACE('',(#1165),#361,.T.);
#1244=CLOSED_SHELL('',(#1174,#1175,#1176,#1177,#1178,#1179,#1180,#1181,
#1182,#1183,#1184,#1185,#1186,#1187,#1188,#1189,#1190,#1191,#1192,#1193,
#1194,#1195,#1196,#1197,#1198,#1199,#1200,#1201,#1202,#1203,#1204,#1205,
#1206,#1207,#1208,#1209,#1210,#1211,#1212,#1213,#1214,#1215,#1216,#1217,
#1218,#1219,#1220,#1221,#1222,#1223,#1224,#1225,#1226,#1227,#1228,#1229,
#1230,#1231,#1232,#1233,#1234,#1235,#1236,#1237,#1238,#1239,#1240,#1241,
#1242,#1243));
#1245=STYLED_ITEM('',(#1246),#1253);
#1246=PRESENTATION_STYLE_ASSIGNMENT((#1247));
#1247=SURFACE_STYLE_USAGE(.BOTH.,#1248);
#1248=SURFACE_SIDE_STYLE('',(#1249));
#1249=SURFACE_STYLE_FILL_AREA(#1250);
#1250=FILL_AREA_STYLE('',(#1251));
#1251=FILL_AREA_STYLE_COLOUR('',#1252);
#1252=COLOUR_RGB('',0.615686274509804,0.811764705882353,0.929411764705882);
#1253=MANIFOLD_SOLID_BREP('Part 1',#1244);
#1254=SHAPE_DEFINITION_REPRESENTATION(#2010,#1255);
#1255=SHAPE_REPRESENTATION('Part 1',(#1256),#2005);
#1256=AXIS2_PLACEMENT_3D('',#1661,#1343,#1344);
#1257=AXIS2_PLACEMENT_3D('',#1662,#1345,#1346);
#1258=AXIS2_PLACEMENT_3D('',#1663,#1347,#1348);
#1259=AXIS2_PLACEMENT_3D('',#1665,#1349,#1350);
#1260=AXIS2_PLACEMENT_3D('',#1667,#1351,#1352);
#1261=AXIS2_PLACEMENT_3D('',#1668,#1353,#1354);
#1262=AXIS2_PLACEMENT_3D('',#1670,#1355,#1356);
#1263=AXIS2_PLACEMENT_3D('',#1672,#1357,#1358);
#1264=AXIS2_PLACEMENT_3D('',#1673,#1359,#1360);
#1265=AXIS2_PLACEMENT_3D('',#1675,#1361,#1362);
#1266=AXIS2_PLACEMENT_3D('',#1677,#1363,#1364);
#1267=AXIS2_PLACEMENT_3D('',#1678,#1365,#1366);
#1268=AXIS2_PLACEMENT_3D('',#1680,#1367,#1368);
#1269=AXIS2_PLACEMENT_3D('',#1682,#1369,#1370);
#1270=AXIS2_PLACEMENT_3D('',#1695,#1377,#1378);
#1271=AXIS2_PLACEMENT_3D('',#1705,#1384,#1385);
#1272=AXIS2_PLACEMENT_3D('',#1775,#1421,#1422);
#1273=AXIS2_PLACEMENT_3D('',#1781,#1426,#1427);
#1274=AXIS2_PLACEMENT_3D('',#1785,#1430,#1431);
#1275=AXIS2_PLACEMENT_3D('',#1789,#1434,#1435);
#1276=AXIS2_PLACEMENT_3D('',#1791,#1437,#1438);
#1277=AXIS2_PLACEMENT_3D('',#1792,#1439,#1440);
#1278=AXIS2_PLACEMENT_3D('',#1794,#1441,#1442);
#1279=AXIS2_PLACEMENT_3D('',#1796,#1443,#1444);
#1280=AXIS2_PLACEMENT_3D('',#1798,#1445,#1446);
#1281=AXIS2_PLACEMENT_3D('',#1800,#1447,#1448);
#1282=AXIS2_PLACEMENT_3D('',#1803,#1451,#1452);
#1283=AXIS2_PLACEMENT_3D('',#1807,#1455,#1456);
#1284=AXIS2_PLACEMENT_3D('',#1808,#1457,#1458);
#1285=AXIS2_PLACEMENT_3D('',#1814,#1462,#1463);
#1286=AXIS2_PLACEMENT_3D('',#1822,#1468,#1469);
#1287=AXIS2_PLACEMENT_3D('',#1830,#1474,#1475);
#1288=AXIS2_PLACEMENT_3D('',#1832,#1477,#1478);
#1289=AXIS2_PLACEMENT_3D('',#1836,#1481,#1482);
#1290=AXIS2_PLACEMENT_3D('',#1842,#1486,#1487);
#1291=AXIS2_PLACEMENT_3D('',#1850,#1492,#1493);
#1292=AXIS2_PLACEMENT_3D('',#1858,#1498,#1499);
#1293=AXIS2_PLACEMENT_3D('',#1860,#1501,#1502);
#1294=AXIS2_PLACEMENT_3D('',#1864,#1505,#1506);
#1295=AXIS2_PLACEMENT_3D('',#1874,#1512,#1513);
#1296=AXIS2_PLACEMENT_3D('',#1878,#1516,#1517);
#1297=AXIS2_PLACEMENT_3D('',#1882,#1520,#1521);
#1298=AXIS2_PLACEMENT_3D('',#1888,#1525,#1526);
#1299=AXIS2_PLACEMENT_3D('',#1892,#1529,#1530);
#1300=AXIS2_PLACEMENT_3D('',#1896,#1533,#1534);
#1301=AXIS2_PLACEMENT_3D('',#1898,#1536,#1537);
#1302=AXIS2_PLACEMENT_3D('',#1899,#1538,#1539);
#1303=AXIS2_PLACEMENT_3D('',#1903,#1542,#1543);
#1304=AXIS2_PLACEMENT_3D('',#1905,#1545,#1546);
#1305=AXIS2_PLACEMENT_3D('',#1906,#1547,#1548);
#1306=AXIS2_PLACEMENT_3D('',#1910,#1551,#1552);
#1307=AXIS2_PLACEMENT_3D('',#1912,#1554,#1555);
#1308=AXIS2_PLACEMENT_3D('',#1913,#1556,#1557);
#1309=AXIS2_PLACEMENT_3D('',#1917,#1560,#1561);
#1310=AXIS2_PLACEMENT_3D('',#1919,#1563,#1564);
#1311=AXIS2_PLACEMENT_3D('',#1920,#1565,#1566);
#1312=AXIS2_PLACEMENT_3D('',#1921,#1567,#1568);
#1313=AXIS2_PLACEMENT_3D('',#1923,#1569,#1570);
#1314=AXIS2_PLACEMENT_3D('',#1924,#1571,#1572);
#1315=AXIS2_PLACEMENT_3D('',#1925,#1573,#1574);
#1316=AXIS2_PLACEMENT_3D('',#1927,#1575,#1576);
#1317=AXIS2_PLACEMENT_3D('',#1928,#1577,#1578);
#1318=AXIS2_PLACEMENT_3D('',#1929,#1579,#1580);
#1319=AXIS2_PLACEMENT_3D('',#1931,#1581,#1582);
#1320=AXIS2_PLACEMENT_3D('',#1932,#1583,#1584);
#1321=AXIS2_PLACEMENT_3D('',#1933,#1585,#1586);
#1322=AXIS2_PLACEMENT_3D('',#1935,#1587,#1588);
#1323=AXIS2_PLACEMENT_3D('',#1936,#1589,#1590);
#1324=AXIS2_PLACEMENT_3D('',#1942,#1594,#1595);
#1325=AXIS2_PLACEMENT_3D('',#1946,#1598,#1599);
#1326=AXIS2_PLACEMENT_3D('',#1950,#1602,#1603);
#1327=AXIS2_PLACEMENT_3D('',#1952,#1605,#1606);
#1328=AXIS2_PLACEMENT_3D('',#1953,#1607,#1608);
#1329=AXIS2_PLACEMENT_3D('',#1959,#1612,#1613);
#1330=AXIS2_PLACEMENT_3D('',#1963,#1616,#1617);
#1331=AXIS2_PLACEMENT_3D('',#1967,#1620,#1621);
#1332=AXIS2_PLACEMENT_3D('',#1969,#1623,#1624);
#1333=AXIS2_PLACEMENT_3D('',#1970,#1625,#1626);
#1334=AXIS2_PLACEMENT_3D('',#1976,#1630,#1631);
#1335=AXIS2_PLACEMENT_3D('',#1980,#1634,#1635);
#1336=AXIS2_PLACEMENT_3D('',#1984,#1638,#1639);
#1337=AXIS2_PLACEMENT_3D('',#1986,#1641,#1642);
#1338=AXIS2_PLACEMENT_3D('',#1987,#1643,#1644);
#1339=AXIS2_PLACEMENT_3D('',#1993,#1648,#1649);
#1340=AXIS2_PLACEMENT_3D('',#1997,#1652,#1653);
#1341=AXIS2_PLACEMENT_3D('',#2001,#1656,#1657);
#1342=AXIS2_PLACEMENT_3D('',#2003,#1659,#1660);
#1343=DIRECTION('',(0.,0.,1.));
#1344=DIRECTION('',(1.,0.,0.));
#1345=DIRECTION('',(0.,0.,-1.));
#1346=DIRECTION('',(-1.,0.,0.));
#1347=DIRECTION('',(0.,0.,1.));
#1348=DIRECTION('',(1.,0.,0.));
#1349=DIRECTION('',(0.,0.,-1.));
#1350=DIRECTION('',(-1.,0.,0.));
#1351=DIRECTION('',(0.,0.,-1.));
#1352=DIRECTION('',(-1.,0.,0.));
#1353=DIRECTION('',(0.,0.,1.));
#1354=DIRECTION('',(1.,0.,0.));
#1355=DIRECTION('',(0.,0.,-1.));
#1356=DIRECTION('',(-1.,0.,0.));
#1357=DIRECTION('',(0.,0.,-1.));
#1358=DIRECTION('',(-1.,0.,0.));
#1359=DIRECTION('',(0.,0.,1.));
#1360=DIRECTION('',(1.,0.,0.));
#1361=DIRECTION('',(0.,0.,-1.));
#1362=DIRECTION('',(-1.,0.,0.));
#1363=DIRECTION('',(0.,0.,-1.));
#1364=DIRECTION('',(-1.,0.,0.));
#1365=DIRECTION('',(0.,0.,1.));
#1366=DIRECTION('',(1.,0.,0.));
#1367=DIRECTION('',(0.,0.,-1.));
#1368=DIRECTION('',(-1.,0.,0.));
#1369=DIRECTION('',(0.,1.,0.));
#1370=DIRECTION('',(0.,0.,1.));
#1371=DIRECTION('',(0.,0.,1.));
#1372=DIRECTION('',(1.,0.,0.));
#1373=DIRECTION('',(0.,0.,-1.));
#1374=DIRECTION('',(1.,0.,0.));
#1375=DIRECTION('',(0.,0.,-1.));
#1376=DIRECTION('',(1.,0.,0.));
#1377=DIRECTION('',(0.,0.,1.));
#1378=DIRECTION('',(1.,0.,0.));
#1379=DIRECTION('',(0.,1.,0.));
#1380=DIRECTION('',(-1.,0.,0.));
#1381=DIRECTION('',(0.,-1.,0.));
#1382=DIRECTION('',(0.,1.,0.));
#1383=DIRECTION('',(-1.,0.,0.));
#1384=DIRECTION('',(0.,0.,1.));
#1385=DIRECTION('',(1.,0.,0.));
#1386=DIRECTION('',(1.,0.,0.));
#1387=DIRECTION('',(0.,1.,0.));
#1388=DIRECTION('',(1.,0.,0.));
#1389=DIRECTION('',(0.,1.,0.));
#1390=DIRECTION('',(1.,0.,0.));
#1391=DIRECTION('',(0.,1.,0.));
#1392=DIRECTION('',(1.,0.,0.));
#1393=DIRECTION('',(0.,1.,0.));
#1394=DIRECTION('',(-2.04085114820801E-16,-1.,0.));
#1395=DIRECTION('',(-1.,0.,0.));
#1396=DIRECTION('',(-2.04085114820801E-16,-1.,0.));
#1397=DIRECTION('',(-1.,1.33440267382831E-16,0.));
#1398=DIRECTION('',(0.,-1.,0.));
#1399=DIRECTION('',(-1.,0.,0.));
#1400=DIRECTION('',(0.,-1.,0.));
#1401=DIRECTION('',(-1.,-1.33440267382831E-16,0.));
#1402=DIRECTION('',(1.,0.,0.));
#1403=DIRECTION('',(-1.98254111540206E-16,-1.,0.));
#1404=DIRECTION('',(1.,0.,0.));
#1405=DIRECTION('',(-1.98254111540206E-16,-1.,0.));
#1406=DIRECTION('',(0.,1.,0.));
#1407=DIRECTION('',(-1.,0.,0.));
#1408=DIRECTION('',(0.,1.,0.));
#1409=DIRECTION('',(0.,-1.,0.));
#1410=DIRECTION('',(1.,0.,0.));
#1411=DIRECTION('',(0.,1.,0.));
#1412=DIRECTION('',(-1.,0.,0.));
#1413=DIRECTION('',(1.,0.,0.));
#1414=DIRECTION('',(0.,1.,0.));
#1415=DIRECTION('',(1.,0.,0.));
#1416=DIRECTION('',(0.,-1.,0.));
#1417=DIRECTION('',(1.,0.,0.));
#1418=DIRECTION('',(0.,1.,0.));
#1419=DIRECTION('',(-1.,0.,0.));
#1420=DIRECTION('',(-4.33680868994202E-16,1.,0.));
#1421=DIRECTION('',(0.,1.,0.));
#1422=DIRECTION('',(0.,0.,1.));
#1423=DIRECTION('',(1.,0.,0.));
#1424=DIRECTION('',(0.,0.,-1.));
#1425=DIRECTION('',(0.,0.,-1.));
#1426=DIRECTION('',(1.,-1.98254111540206E-16,0.));
#1427=DIRECTION('',(1.98254111540206E-16,1.,0.));
#1428=DIRECTION('',(-1.98254111540206E-16,-1.,0.));
#1429=DIRECTION('',(0.,0.,-1.));
#1430=DIRECTION('',(0.,1.,0.));
#1431=DIRECTION('',(0.,0.,1.));
#1432=DIRECTION('',(1.,0.,0.));
#1433=DIRECTION('',(0.,0.,-1.));
#1434=DIRECTION('',(1.,-1.98254111540206E-16,0.));
#1435=DIRECTION('',(1.98254111540206E-16,1.,0.));
#1436=DIRECTION('',(-1.98254111540206E-16,-1.,0.));
#1437=DIRECTION('',(0.,0.,1.));
#1438=DIRECTION('',(1.,0.,0.));
#1439=DIRECTION('',(0.,0.,-1.));
#1440=DIRECTION('',(-1.,0.,0.));
#1441=DIRECTION('',(0.,0.,-1.));
#1442=DIRECTION('',(-1.,0.,0.));
#1443=DIRECTION('',(0.,0.,-1.));
#1444=DIRECTION('',(-1.,0.,0.));
#1445=DIRECTION('',(0.,0.,-1.));
#1446=DIRECTION('',(-1.,0.,0.));
#1447=DIRECTION('',(0.,-1.,0.));
#1448=DIRECTION('',(0.,0.,-1.));
#1449=DIRECTION('',(0.,0.,-1.));
#1450=DIRECTION('',(0.,0.,-1.));
#1451=DIRECTION('',(-1.,0.,0.));
#1452=DIRECTION('',(0.,0.,1.));
#1453=DIRECTION('',(0.,1.,0.));
#1454=DIRECTION('',(0.,0.,1.));
#1455=DIRECTION('',(-1.,0.,0.));
#1456=DIRECTION('',(0.,0.,1.));
#1457=DIRECTION('',(0.,1.,0.));
#1458=DIRECTION('',(0.,0.,1.));
#1459=DIRECTION('',(0.,0.,-1.));
#1460=DIRECTION('',(1.,0.,0.));
#1461=DIRECTION('',(0.,0.,-1.));
#1462=DIRECTION('',(1.,0.,0.));
#1463=DIRECTION('',(0.,0.,-1.));
#1464=DIRECTION('',(0.,1.,0.));
#1465=DIRECTION('',(0.,0.,1.));
#1466=DIRECTION('',(0.,-1.,0.));
#1467=DIRECTION('',(0.,0.,-1.));
#1468=DIRECTION('',(0.,-1.,0.));
#1469=DIRECTION('',(0.,0.,-1.));
#1470=DIRECTION('',(1.,0.,0.));
#1471=DIRECTION('',(0.,0.,-1.));
#1472=DIRECTION('',(-1.,0.,0.));
#1473=DIRECTION('',(0.,0.,1.));
#1474=DIRECTION('',(-1.,0.,0.));
#1475=DIRECTION('',(0.,0.,1.));
#1476=DIRECTION('',(0.,1.,0.));
#1477=DIRECTION('',(0.,0.,1.));
#1478=DIRECTION('',(1.,0.,0.));
#1479=DIRECTION('',(0.,1.,0.));
#1480=DIRECTION('',(1.,0.,0.));
#1481=DIRECTION('',(-1.,0.,0.));
#1482=DIRECTION('',(0.,0.,1.));
#1483=DIRECTION('',(0.,0.,-1.));
#1484=DIRECTION('',(0.,1.,0.));
#1485=DIRECTION('',(0.,0.,-1.));
#1486=DIRECTION('',(0.,1.,0.));
#1487=DIRECTION('',(0.,0.,1.));
#1488=DIRECTION('',(-1.,0.,0.));
#1489=DIRECTION('',(0.,0.,1.));
#1490=DIRECTION('',(1.,0.,0.));
#1491=DIRECTION('',(0.,0.,-1.));
#1492=DIRECTION('',(1.,0.,0.));
#1493=DIRECTION('',(0.,0.,-1.));
#1494=DIRECTION('',(0.,1.,0.));
#1495=DIRECTION('',(0.,0.,-1.));
#1496=DIRECTION('',(0.,-1.,0.));
#1497=DIRECTION('',(0.,0.,1.));
#1498=DIRECTION('',(0.,1.,0.));
#1499=DIRECTION('',(0.,0.,1.));
#1500=DIRECTION('',(1.,0.,0.));
#1501=DIRECTION('',(0.,0.,1.));
#1502=DIRECTION('',(1.,0.,0.));
#1503=DIRECTION('',(-1.,0.,0.));
#1504=DIRECTION('',(0.,1.,0.));
#1505=DIRECTION('',(-1.,0.,0.));
#1506=DIRECTION('',(0.,0.,1.));
#1507=DIRECTION('',(0.,-1.,0.));
#1508=DIRECTION('',(0.,0.,-1.));
#1509=DIRECTION('',(0.,0.,-1.));
#1510=DIRECTION('',(0.,1.,0.));
#1511=DIRECTION('',(0.,0.,1.));
#1512=DIRECTION('',(0.,1.,0.));
#1513=DIRECTION('',(0.,0.,1.));
#1514=DIRECTION('',(0.,0.,-1.));
#1515=DIRECTION('',(1.,0.,0.));
#1516=DIRECTION('',(-1.,-4.33680868994202E-16,0.));
#1517=DIRECTION('',(4.33680868994202E-16,-1.,0.));
#1518=DIRECTION('',(0.,0.,-1.));
#1519=DIRECTION('',(-4.33680868994202E-16,1.,0.));
#1520=DIRECTION('',(0.,-1.,0.));
#1521=DIRECTION('',(0.,0.,-1.));
#1522=DIRECTION('',(1.,0.,0.));
#1523=DIRECTION('',(0.,0.,1.));
#1524=DIRECTION('',(-1.,0.,0.));
#1525=DIRECTION('',(0.,0.,1.));
#1526=DIRECTION('',(1.,0.,0.));
#1527=DIRECTION('',(1.,0.,0.));
#1528=DIRECTION('',(0.,-1.,0.));
#1529=DIRECTION('',(0.,-1.,0.));
#1530=DIRECTION('',(0.,0.,-1.));
#1531=DIRECTION('',(0.,0.,1.));
#1532=DIRECTION('',(1.,0.,0.));
#1533=DIRECTION('',(-1.,0.,0.));
#1534=DIRECTION('',(0.,0.,1.));
#1535=DIRECTION('',(0.,-1.,0.));
#1536=DIRECTION('',(0.,0.,1.));
#1537=DIRECTION('',(1.,0.,0.));
#1538=DIRECTION('',(0.,1.,0.));
#1539=DIRECTION('',(0.,0.,1.));
#1540=DIRECTION('',(0.,0.,1.));
#1541=DIRECTION('',(-1.,0.,0.));
#1542=DIRECTION('',(1.,0.,0.));
#1543=DIRECTION('',(0.,0.,-1.));
#1544=DIRECTION('',(0.,1.,0.));
#1545=DIRECTION('',(0.,0.,1.));
#1546=DIRECTION('',(1.,0.,0.));
#1547=DIRECTION('',(1.,0.,0.));
#1548=DIRECTION('',(0.,0.,-1.));
#1549=DIRECTION('',(0.,0.,1.));
#1550=DIRECTION('',(0.,1.,0.));
#1551=DIRECTION('',(0.,-1.,0.));
#1552=DIRECTION('',(0.,0.,-1.));
#1553=DIRECTION('',(1.,0.,0.));
#1554=DIRECTION('',(0.,0.,1.));
#1555=DIRECTION('',(1.,0.,0.));
#1556=DIRECTION('',(0.,1.,0.));
#1557=DIRECTION('',(0.,0.,1.));
#1558=DIRECTION('',(-1.,0.,0.));
#1559=DIRECTION('',(0.,0.,1.));
#1560=DIRECTION('',(-1.,0.,0.));
#1561=DIRECTION('',(0.,0.,1.));
#1562=DIRECTION('',(0.,-1.,0.));
#1563=DIRECTION('',(0.,0.,1.));
#1564=DIRECTION('',(1.,0.,0.));
#1565=DIRECTION('',(0.,0.,-1.));
#1566=DIRECTION('',(-1.,0.,0.));
#1567=DIRECTION('',(0.,0.,-1.));
#1568=DIRECTION('',(-1.,0.,0.));
#1569=DIRECTION('',(0.,0.,-1.));
#1570=DIRECTION('',(1.,0.,0.));
#1571=DIRECTION('',(0.,0.,-1.));
#1572=DIRECTION('',(-1.,0.,0.));
#1573=DIRECTION('',(0.,0.,-1.));
#1574=DIRECTION('',(-1.,0.,0.));
#1575=DIRECTION('',(0.,0.,-1.));
#1576=DIRECTION('',(1.,0.,0.));
#1577=DIRECTION('',(0.,0.,-1.));
#1578=DIRECTION('',(-1.,0.,0.));
#1579=DIRECTION('',(0.,0.,-1.));
#1580=DIRECTION('',(-1.,0.,0.));
#1581=DIRECTION('',(0.,0.,-1.));
#1582=DIRECTION('',(1.,0.,0.));
#1583=DIRECTION('',(0.,0.,-1.));
#1584=DIRECTION('',(-1.,0.,0.));
#1585=DIRECTION('',(0.,0.,-1.));
#1586=DIRECTION('',(-1.,0.,0.));
#1587=DIRECTION('',(0.,0.,-1.));
#1588=DIRECTION('',(1.,0.,0.));
#1589=DIRECTION('',(1.,0.,0.));
#1590=DIRECTION('',(0.,0.,-1.));
#1591=DIRECTION('',(0.,0.,-1.));
#1592=DIRECTION('',(0.,-1.,0.));
#1593=DIRECTION('',(0.,0.,-1.));
#1594=DIRECTION('',(1.33440267382831E-16,-1.,0.));
#1595=DIRECTION('',(1.,1.33440267382831E-16,0.));
#1596=DIRECTION('',(0.,0.,-1.));
#1597=DIRECTION('',(-1.,-1.33440267382831E-16,0.));
#1598=DIRECTION('',(1.,0.,0.));
#1599=DIRECTION('',(0.,0.,-1.));
#1600=DIRECTION('',(0.,0.,-1.));
#1601=DIRECTION('',(0.,-1.,0.));
#1602=DIRECTION('',(0.,-1.,0.));
#1603=DIRECTION('',(0.,0.,-1.));
#1604=DIRECTION('',(-1.,0.,0.));
#1605=DIRECTION('',(0.,0.,1.));
#1606=DIRECTION('',(1.,0.,0.));
#1607=DIRECTION('',(1.,-2.04085114820801E-16,0.));
#1608=DIRECTION('',(2.04085114820801E-16,1.,0.));
#1609=DIRECTION('',(0.,0.,-1.));
#1610=DIRECTION('',(-2.04085114820801E-16,-1.,0.));
#1611=DIRECTION('',(0.,0.,-1.));
#1612=DIRECTION('',(-1.33440267382831E-16,-1.,0.));
#1613=DIRECTION('',(1.,-1.33440267382831E-16,0.));
#1614=DIRECTION('',(0.,0.,-1.));
#1615=DIRECTION('',(-1.,1.33440267382831E-16,0.));
#1616=DIRECTION('',(1.,-2.04085114820801E-16,0.));
#1617=DIRECTION('',(2.04085114820801E-16,1.,0.));
#1618=DIRECTION('',(0.,0.,-1.));
#1619=DIRECTION('',(-2.04085114820801E-16,-1.,0.));
#1620=DIRECTION('',(0.,-1.,0.));
#1621=DIRECTION('',(0.,0.,-1.));
#1622=DIRECTION('',(-1.,0.,0.));
#1623=DIRECTION('',(0.,0.,1.));
#1624=DIRECTION('',(1.,0.,0.));
#1625=DIRECTION('',(0.,1.,0.));
#1626=DIRECTION('',(0.,0.,1.));
#1627=DIRECTION('',(0.,0.,-1.));
#1628=DIRECTION('',(1.,0.,0.));
#1629=DIRECTION('',(0.,0.,-1.));
#1630=DIRECTION('',(-1.,0.,0.));
#1631=DIRECTION('',(0.,0.,1.));
#1632=DIRECTION('',(0.,0.,-1.));
#1633=DIRECTION('',(0.,1.,0.));
#1634=DIRECTION('',(0.,1.,0.));
#1635=DIRECTION('',(0.,0.,1.));
#1636=DIRECTION('',(0.,0.,-1.));
#1637=DIRECTION('',(1.,0.,0.));
#1638=DIRECTION('',(-1.,0.,0.));
#1639=DIRECTION('',(0.,0.,1.));
#1640=DIRECTION('',(0.,1.,0.));
#1641=DIRECTION('',(0.,0.,1.));
#1642=DIRECTION('',(1.,0.,0.));
#1643=DIRECTION('',(0.,1.,0.));
#1644=DIRECTION('',(0.,0.,1.));
#1645=DIRECTION('',(0.,0.,-1.));
#1646=DIRECTION('',(1.,0.,0.));
#1647=DIRECTION('',(0.,0.,-1.));
#1648=DIRECTION('',(-1.,0.,0.));
#1649=DIRECTION('',(0.,0.,1.));
#1650=DIRECTION('',(0.,0.,-1.));
#1651=DIRECTION('',(0.,1.,0.));
#1652=DIRECTION('',(0.,1.,0.));
#1653=DIRECTION('',(0.,0.,1.));
#1654=DIRECTION('',(0.,0.,-1.));
#1655=DIRECTION('',(1.,0.,0.));
#1656=DIRECTION('',(-1.,0.,0.));
#1657=DIRECTION('',(0.,0.,1.));
#1658=DIRECTION('',(0.,1.,0.));
#1659=DIRECTION('',(0.,0.,1.));
#1660=DIRECTION('',(1.,0.,0.));
#1661=CARTESIAN_POINT('',(0.,0.,0.));
#1662=CARTESIAN_POINT('',(-0.046,0.031,0.025));
#1663=CARTESIAN_POINT('',(-0.046,0.031,0.003));
#1664=CARTESIAN_POINT('',(-0.04435,0.031,0.003));
#1665=CARTESIAN_POINT('',(-0.046,0.031,0.002));
#1666=CARTESIAN_POINT('',(-0.04765,0.031,0.002));
#1667=CARTESIAN_POINT('',(0.046,0.031,0.025));
#1668=CARTESIAN_POINT('',(0.046,0.031,0.003));
#1669=CARTESIAN_POINT('',(0.04765,0.031,0.003));
#1670=CARTESIAN_POINT('',(0.046,0.031,0.002));
#1671=CARTESIAN_POINT('',(0.04435,0.031,0.002));
#1672=CARTESIAN_POINT('',(0.046,-0.031,0.025));
#1673=CARTESIAN_POINT('',(0.046,-0.031,0.003));
#1674=CARTESIAN_POINT('',(0.04765,-0.031,0.003));
#1675=CARTESIAN_POINT('',(0.046,-0.031,0.002));
#1676=CARTESIAN_POINT('',(0.04435,-0.031,0.002));
#1677=CARTESIAN_POINT('',(-0.0459,-0.0310012501953735,0.025));
#1678=CARTESIAN_POINT('',(-0.0459,-0.0310012501953735,0.003));
#1679=CARTESIAN_POINT('',(-0.04425,-0.0310012501953735,0.003));
#1680=CARTESIAN_POINT('',(-0.0459,-0.0310012501953735,0.002));
#1681=CARTESIAN_POINT('',(-0.04755,-0.0310012501953735,0.002));
#1682=CARTESIAN_POINT('',(-0.0125,-0.0277,0.015));
#1683=CARTESIAN_POINT('',(-0.0135,-0.0277,0.013));
#1684=CARTESIAN_POINT('',(-0.0135,-0.0277,0.013));
#1685=CARTESIAN_POINT('',(-0.0135,-0.0277,0.015));
#1686=CARTESIAN_POINT('',(-0.0125,-0.0277,0.013));
#1687=CARTESIAN_POINT('',(-0.0105,-0.0277,0.013));
#1688=CARTESIAN_POINT('',(-0.0105,-0.0277,0.015));
#1689=CARTESIAN_POINT('',(-0.0105,-0.0277,0.003));
#1690=CARTESIAN_POINT('',(-0.0125,-0.0277,0.003));
#1691=CARTESIAN_POINT('',(-0.0145,-0.0277,0.003));
#1692=CARTESIAN_POINT('',(-0.0145,-0.0277,0.015));
#1693=CARTESIAN_POINT('',(-0.0145,-0.0277,0.015));
#1694=CARTESIAN_POINT('',(-0.0125,-0.0277,0.015));
#1695=CARTESIAN_POINT('',(0.,0.,0.015));
#1696=CARTESIAN_POINT('',(-0.0105,-0.0297,0.015));
#1697=CARTESIAN_POINT('',(-0.0105,-0.0317,0.015));
#1698=CARTESIAN_POINT('',(-0.0105,-0.0307,0.015));
#1699=CARTESIAN_POINT('',(-0.012,-0.0307,0.015));
#1700=CARTESIAN_POINT('',(-0.0135,-0.0307,0.015));
#1701=CARTESIAN_POINT('',(-0.0135,-0.0292,0.015));
#1702=CARTESIAN_POINT('',(-0.0145,-0.0297,0.015));
#1703=CARTESIAN_POINT('',(-0.0145,-0.0317,0.015));
#1704=CARTESIAN_POINT('',(-0.0125,-0.0317,0.015));
#1705=CARTESIAN_POINT('',(0.,0.,0.003));
#1706=CARTESIAN_POINT('',(0.028875,-0.022,0.003));
#1707=CARTESIAN_POINT('',(0.02775,-0.022,0.003));
#1708=CARTESIAN_POINT('',(0.03225,-0.022,0.003));
#1709=CARTESIAN_POINT('',(0.03225,-0.02425,0.003));
#1710=CARTESIAN_POINT('',(0.03225,-0.0265,0.003));
#1711=CARTESIAN_POINT('',(0.03,-0.0265,0.003));
#1712=CARTESIAN_POINT('',(0.02775,-0.0265,0.003));
#1713=CARTESIAN_POINT('',(0.02775,-0.02425,0.003));
#1714=CARTESIAN_POINT('',(-0.031125,-0.022,0.003));
#1715=CARTESIAN_POINT('',(-0.03225,-0.022,0.003));
#1716=CARTESIAN_POINT('',(-0.02775,-0.022,0.003));
#1717=CARTESIAN_POINT('',(-0.02775,-0.02425,0.003));
#1718=CARTESIAN_POINT('',(-0.02775,-0.0265,0.003));
#1719=CARTESIAN_POINT('',(-0.03,-0.0265,0.003));
#1720=CARTESIAN_POINT('',(-0.03225,-0.0265,0.003));
#1721=CARTESIAN_POINT('',(-0.03225,-0.02425,0.003));
#1722=CARTESIAN_POINT('',(-0.017,-0.0085,0.003));
#1723=CARTESIAN_POINT('',(-0.017,0.017,0.003));
#1724=CARTESIAN_POINT('',(-0.017,-0.017,0.003));
#1725=CARTESIAN_POINT('',(-0.03,-0.017,0.003));
#1726=CARTESIAN_POINT('',(-0.043,-0.017,0.003));
#1727=CARTESIAN_POINT('',(-0.043,3.46944695195361E-18,0.003));
#1728=CARTESIAN_POINT('',(-0.043,0.017,0.003));
#1729=CARTESIAN_POINT('',(-0.03,0.017,0.003));
#1730=CARTESIAN_POINT('',(0.043,3.46944695195361E-18,0.003));
#1731=CARTESIAN_POINT('',(0.043,0.017,0.003));
#1732=CARTESIAN_POINT('',(0.043,-0.017,0.003));
#1733=CARTESIAN_POINT('',(0.03,-0.017,0.003));
#1734=CARTESIAN_POINT('',(0.017,-0.017,0.003));
#1735=CARTESIAN_POINT('',(0.017,0.0085,0.003));
#1736=CARTESIAN_POINT('',(0.017,0.017,0.003));
#1737=CARTESIAN_POINT('',(0.03,0.017,0.003));
#1738=CARTESIAN_POINT('',(6.93889390390723E-18,0.035,0.003));
#1739=CARTESIAN_POINT('',(-0.05,0.035,0.003));
#1740=CARTESIAN_POINT('',(0.05,0.035,0.003));
#1741=CARTESIAN_POINT('',(-0.05,0.,0.003));
#1742=CARTESIAN_POINT('',(-0.05,-0.035,0.003));
#1743=CARTESIAN_POINT('',(-6.93889390390723E-18,-0.035,0.003));
#1744=CARTESIAN_POINT('',(0.05,-0.035,0.003));
#1745=CARTESIAN_POINT('',(0.05,0.,0.003));
#1746=CARTESIAN_POINT('',(-0.0105,-0.0297,0.003));
#1747=CARTESIAN_POINT('',(-0.0105,-0.0317,0.003));
#1748=CARTESIAN_POINT('',(-0.0125,-0.0317,0.003));
#1749=CARTESIAN_POINT('',(-0.0145,-0.0317,0.003));
#1750=CARTESIAN_POINT('',(-0.0145,-0.0297,0.003));
#1751=CARTESIAN_POINT('',(0.0105,0.0203,0.003));
#1752=CARTESIAN_POINT('',(0.0105,0.0223,0.003));
#1753=CARTESIAN_POINT('',(0.0105,0.0183,0.003));
#1754=CARTESIAN_POINT('',(0.0125,0.0223,0.003));
#1755=CARTESIAN_POINT('',(0.0145,0.0223,0.003));
#1756=CARTESIAN_POINT('',(0.0145,0.0203,0.003));
#1757=CARTESIAN_POINT('',(0.0145,0.0183,0.003));
#1758=CARTESIAN_POINT('',(0.0125,0.0183,0.003));
#1759=CARTESIAN_POINT('',(-0.0125,0.0183,0.003));
#1760=CARTESIAN_POINT('',(-0.0145,0.0183,0.003));
#1761=CARTESIAN_POINT('',(-0.0105,0.0183,0.003));
#1762=CARTESIAN_POINT('',(-0.0145,0.0203,0.003));
#1763=CARTESIAN_POINT('',(-0.0145,0.0223,0.003));
#1764=CARTESIAN_POINT('',(-0.0125,0.0223,0.003));
#1765=CARTESIAN_POINT('',(-0.0105,0.0223,0.003));
#1766=CARTESIAN_POINT('',(-0.0105,0.0203,0.003));
#1767=CARTESIAN_POINT('',(0.0125,-0.0317,0.003));
#1768=CARTESIAN_POINT('',(0.0105,-0.0317,0.003));
#1769=CARTESIAN_POINT('',(0.0145,-0.0317,0.003));
#1770=CARTESIAN_POINT('',(0.0105,-0.0297,0.003));
#1771=CARTESIAN_POINT('',(0.0105,-0.0277,0.003));
#1772=CARTESIAN_POINT('',(0.0125,-0.0277,0.003));
#1773=CARTESIAN_POINT('',(0.0145,-0.0277,0.003));
#1774=CARTESIAN_POINT('',(0.0145,-0.0297,0.003));
#1775=CARTESIAN_POINT('',(6.93889390390723E-18,0.035,0.003));
#1776=CARTESIAN_POINT('',(6.93889390390723E-18,0.035,0.));
#1777=CARTESIAN_POINT('',(-0.05,0.035,0.));
#1778=CARTESIAN_POINT('',(0.05,0.035,0.));
#1779=CARTESIAN_POINT('',(-0.05,0.035,0.003));
#1780=CARTESIAN_POINT('',(0.05,0.035,0.003));
#1781=CARTESIAN_POINT('',(-0.05,0.,0.003));
#1782=CARTESIAN_POINT('',(-0.05,0.,0.));
#1783=CARTESIAN_POINT('',(-0.05,-0.035,0.));
#1784=CARTESIAN_POINT('',(-0.05,-0.035,0.003));
#1785=CARTESIAN_POINT('',(-6.93889390390723E-18,-0.035,0.003));
#1786=CARTESIAN_POINT('',(-6.93889390390723E-18,-0.035,0.));
#1787=CARTESIAN_POINT('',(0.05,-0.035,0.));
#1788=CARTESIAN_POINT('',(0.05,-0.035,0.003));
#1789=CARTESIAN_POINT('',(0.05,0.,0.003));
#1790=CARTESIAN_POINT('',(0.05,0.,0.));
#1791=CARTESIAN_POINT('',(0.,0.,0.));
#1792=CARTESIAN_POINT('',(0.046,0.031,0.));
#1793=CARTESIAN_POINT('',(0.043,0.031,0.));
#1794=CARTESIAN_POINT('',(0.046,-0.031,0.));
#1795=CARTESIAN_POINT('',(0.043,-0.031,0.));
#1796=CARTESIAN_POINT('',(-0.0459,-0.0310012501953735,0.));
#1797=CARTESIAN_POINT('',(-0.0489,-0.0310012501953735,0.));
#1798=CARTESIAN_POINT('',(-0.046,0.031,0.));
#1799=CARTESIAN_POINT('',(-0.049,0.031,0.));
#1800=CARTESIAN_POINT('',(-0.0125,-0.0317,0.015));
#1801=CARTESIAN_POINT('',(-0.0105,-0.0317,0.015));
#1802=CARTESIAN_POINT('',(-0.0145,-0.0317,0.015));
#1803=CARTESIAN_POINT('',(-0.0105,-0.0297,0.015));
#1804=CARTESIAN_POINT('',(-0.0105,-0.0297,0.013));
#1805=CARTESIAN_POINT('',(-0.0105,-0.0307,0.013));
#1806=CARTESIAN_POINT('',(-0.0105,-0.0307,0.013));
#1807=CARTESIAN_POINT('',(-0.0145,-0.0297,0.015));
#1808=CARTESIAN_POINT('',(0.0125,0.0223,0.015));
#1809=CARTESIAN_POINT('',(0.0105,0.0223,0.015));
#1810=CARTESIAN_POINT('',(0.0105,0.0223,0.015));
#1811=CARTESIAN_POINT('',(0.0125,0.0223,0.015));
#1812=CARTESIAN_POINT('',(0.0145,0.0223,0.015));
#1813=CARTESIAN_POINT('',(0.0145,0.0223,0.015));
#1814=CARTESIAN_POINT('',(0.0105,0.0203,0.015));
#1815=CARTESIAN_POINT('',(0.0105,0.0198,0.013));
#1816=CARTESIAN_POINT('',(0.0105,0.0183,0.013));
#1817=CARTESIAN_POINT('',(0.0105,0.0213,0.013));
#1818=CARTESIAN_POINT('',(0.0105,0.0213,0.013));
#1819=CARTESIAN_POINT('',(0.0105,0.0213,0.015));
#1820=CARTESIAN_POINT('',(0.0105,0.0203,0.015));
#1821=CARTESIAN_POINT('',(0.0105,0.0183,0.015));
#1822=CARTESIAN_POINT('',(0.0125,0.0183,0.015));
#1823=CARTESIAN_POINT('',(0.012,0.0183,0.013));
#1824=CARTESIAN_POINT('',(0.0135,0.0183,0.013));
#1825=CARTESIAN_POINT('',(0.0145,0.0183,0.015));
#1826=CARTESIAN_POINT('',(0.0145,0.0183,0.015));
#1827=CARTESIAN_POINT('',(0.0125,0.0183,0.015));
#1828=CARTESIAN_POINT('',(0.0135,0.0183,0.015));
#1829=CARTESIAN_POINT('',(0.0135,0.0183,0.013));
#1830=CARTESIAN_POINT('',(0.0145,0.0203,0.015));
#1831=CARTESIAN_POINT('',(0.0145,0.0203,0.015));
#1832=CARTESIAN_POINT('',(0.,0.,0.015));
#1833=CARTESIAN_POINT('',(0.0135,0.0198,0.015));
#1834=CARTESIAN_POINT('',(0.0135,0.0213,0.015));
#1835=CARTESIAN_POINT('',(0.012,0.0213,0.015));
#1836=CARTESIAN_POINT('',(-0.0145,0.0203,0.015));
#1837=CARTESIAN_POINT('',(-0.0145,0.0183,0.015));
#1838=CARTESIAN_POINT('',(-0.0145,0.0183,0.015));
#1839=CARTESIAN_POINT('',(-0.0145,0.0203,0.015));
#1840=CARTESIAN_POINT('',(-0.0145,0.0223,0.015));
#1841=CARTESIAN_POINT('',(-0.0145,0.0223,0.015));
#1842=CARTESIAN_POINT('',(-0.0125,0.0183,0.015));
#1843=CARTESIAN_POINT('',(-0.012,0.0183,0.013));
#1844=CARTESIAN_POINT('',(-0.0105,0.0183,0.013));
#1845=CARTESIAN_POINT('',(-0.0135,0.0183,0.013));
#1846=CARTESIAN_POINT('',(-0.0135,0.0183,0.013));
#1847=CARTESIAN_POINT('',(-0.0135,0.0183,0.015));
#1848=CARTESIAN_POINT('',(-0.0125,0.0183,0.015));
#1849=CARTESIAN_POINT('',(-0.0105,0.0183,0.015));
#1850=CARTESIAN_POINT('',(-0.0105,0.0203,0.015));
#1851=CARTESIAN_POINT('',(-0.0105,0.0198,0.013));
#1852=CARTESIAN_POINT('',(-0.0105,0.0213,0.013));
#1853=CARTESIAN_POINT('',(-0.0105,0.0223,0.015));
#1854=CARTESIAN_POINT('',(-0.0105,0.0223,0.015));
#1855=CARTESIAN_POINT('',(-0.0105,0.0203,0.015));
#1856=CARTESIAN_POINT('',(-0.0105,0.0213,0.015));
#1857=CARTESIAN_POINT('',(-0.0105,0.0213,0.013));
#1858=CARTESIAN_POINT('',(-0.0125,0.0223,0.015));
#1859=CARTESIAN_POINT('',(-0.0125,0.0223,0.015));
#1860=CARTESIAN_POINT('',(0.,0.,0.015));
#1861=CARTESIAN_POINT('',(-0.012,0.0213,0.015));
#1862=CARTESIAN_POINT('',(-0.0135,0.0213,0.015));
#1863=CARTESIAN_POINT('',(-0.0135,0.0198,0.015));
#1864=CARTESIAN_POINT('',(0.0105,-0.0297,0.015));
#1865=CARTESIAN_POINT('',(0.0105,-0.0292,0.013));
#1866=CARTESIAN_POINT('',(0.0105,-0.0277,0.013));
#1867=CARTESIAN_POINT('',(0.0105,-0.0307,0.013));
#1868=CARTESIAN_POINT('',(0.0105,-0.0277,0.015));
#1869=CARTESIAN_POINT('',(0.0105,-0.0317,0.015));
#1870=CARTESIAN_POINT('',(0.0105,-0.0317,0.015));
#1871=CARTESIAN_POINT('',(0.0105,-0.0297,0.015));
#1872=CARTESIAN_POINT('',(0.0105,-0.0307,0.015));
#1873=CARTESIAN_POINT('',(0.0105,-0.0307,0.013));
#1874=CARTESIAN_POINT('',(0.0125,-0.0317,0.015));
#1875=CARTESIAN_POINT('',(0.0145,-0.0317,0.015));
#1876=CARTESIAN_POINT('',(0.0145,-0.0317,0.015));
#1877=CARTESIAN_POINT('',(0.0125,-0.0317,0.015));
#1878=CARTESIAN_POINT('',(0.0145,-0.0297,0.015));
#1879=CARTESIAN_POINT('',(0.0145,-0.0277,0.015));
#1880=CARTESIAN_POINT('',(0.0145,-0.0277,0.015));
#1881=CARTESIAN_POINT('',(0.0145,-0.0297,0.015));
#1882=CARTESIAN_POINT('',(0.0125,-0.0277,0.015));
#1883=CARTESIAN_POINT('',(0.012,-0.0277,0.013));
#1884=CARTESIAN_POINT('',(0.0135,-0.0277,0.013));
#1885=CARTESIAN_POINT('',(0.0135,-0.0277,0.013));
#1886=CARTESIAN_POINT('',(0.0135,-0.0277,0.015));
#1887=CARTESIAN_POINT('',(0.0125,-0.0277,0.015));
#1888=CARTESIAN_POINT('',(0.,0.,0.015));
#1889=CARTESIAN_POINT('',(0.012,-0.0307,0.015));
#1890=CARTESIAN_POINT('',(0.0135,-0.0307,0.015));
#1891=CARTESIAN_POINT('',(0.0135,-0.0292,0.015));
#1892=CARTESIAN_POINT('',(0.012,-0.0307,0.013));
#1893=CARTESIAN_POINT('',(0.0135,-0.0307,0.013));
#1894=CARTESIAN_POINT('',(0.0135,-0.0307,0.013));
#1895=CARTESIAN_POINT('',(0.012,-0.0307,0.013));
#1896=CARTESIAN_POINT('',(0.0135,-0.0292,0.013));
#1897=CARTESIAN_POINT('',(0.0135,-0.0292,0.013));
#1898=CARTESIAN_POINT('',(-0.0005,-0.0052,0.013));
#1899=CARTESIAN_POINT('',(-0.012,0.0213,0.013));
#1900=CARTESIAN_POINT('',(-0.0135,0.0213,0.013));
#1901=CARTESIAN_POINT('',(-0.0135,0.0213,0.013));
#1902=CARTESIAN_POINT('',(-0.012,0.0213,0.013));
#1903=CARTESIAN_POINT('',(-0.0135,0.0198,0.013));
#1904=CARTESIAN_POINT('',(-0.0135,0.0198,0.013));
#1905=CARTESIAN_POINT('',(-0.0005,-0.0052,0.013));
#1906=CARTESIAN_POINT('',(0.0135,0.0198,0.013));
#1907=CARTESIAN_POINT('',(0.0135,0.0213,0.013));
#1908=CARTESIAN_POINT('',(0.0135,0.0213,0.013));
#1909=CARTESIAN_POINT('',(0.0135,0.0198,0.013));
#1910=CARTESIAN_POINT('',(0.012,0.0213,0.013));
#1911=CARTESIAN_POINT('',(0.012,0.0213,0.013));
#1912=CARTESIAN_POINT('',(-0.0005,-0.0052,0.013));
#1913=CARTESIAN_POINT('',(-0.012,-0.0307,0.013));
#1914=CARTESIAN_POINT('',(-0.012,-0.0307,0.013));
#1915=CARTESIAN_POINT('',(-0.0135,-0.0307,0.013));
#1916=CARTESIAN_POINT('',(-0.0135,-0.0307,0.013));
#1917=CARTESIAN_POINT('',(-0.0135,-0.0292,0.013));
#1918=CARTESIAN_POINT('',(-0.0135,-0.0292,0.013));
#1919=CARTESIAN_POINT('',(-0.0005,-0.0052,0.013));
#1920=CARTESIAN_POINT('',(-0.0459,-0.0310012501953735,0.002));
#1921=CARTESIAN_POINT('',(-0.0459,-0.0310012501953735,0.002));
#1922=CARTESIAN_POINT('',(-0.0489,-0.0310012501953735,0.002));
#1923=CARTESIAN_POINT('',(0.,0.,0.002));
#1924=CARTESIAN_POINT('',(0.046,-0.031,0.002));
#1925=CARTESIAN_POINT('',(0.046,-0.031,0.002));
#1926=CARTESIAN_POINT('',(0.043,-0.031,0.002));
#1927=CARTESIAN_POINT('',(0.,0.,0.002));
#1928=CARTESIAN_POINT('',(0.046,0.031,0.002));
#1929=CARTESIAN_POINT('',(0.046,0.031,0.002));
#1930=CARTESIAN_POINT('',(0.043,0.031,0.002));
#1931=CARTESIAN_POINT('',(0.,0.,0.002));
#1932=CARTESIAN_POINT('',(-0.046,0.031,0.002));
#1933=CARTESIAN_POINT('',(-0.046,0.031,0.002));
#1934=CARTESIAN_POINT('',(-0.049,0.031,0.002));
#1935=CARTESIAN_POINT('',(0.,0.,0.002));
#1936=CARTESIAN_POINT('',(0.043,3.46944695195361E-18,0.013));
#1937=CARTESIAN_POINT('',(0.043,0.017,0.013));
#1938=CARTESIAN_POINT('',(0.043,0.017,0.013));
#1939=CARTESIAN_POINT('',(0.043,3.46944695195361E-18,0.013));
#1940=CARTESIAN_POINT('',(0.043,-0.017,0.013));
#1941=CARTESIAN_POINT('',(0.043,-0.017,0.013));
#1942=CARTESIAN_POINT('',(0.03,0.017,0.013));
#1943=CARTESIAN_POINT('',(0.017,0.017,0.013));
#1944=CARTESIAN_POINT('',(0.017,0.017,0.013));
#1945=CARTESIAN_POINT('',(0.03,0.017,0.013));
#1946=CARTESIAN_POINT('',(0.017,0.0085,0.013));
#1947=CARTESIAN_POINT('',(0.017,-0.017,0.013));
#1948=CARTESIAN_POINT('',(0.017,-0.017,0.013));
#1949=CARTESIAN_POINT('',(0.017,0.0085,0.013));
#1950=CARTESIAN_POINT('',(0.03,-0.017,0.013));
#1951=CARTESIAN_POINT('',(0.03,-0.017,0.013));
#1952=CARTESIAN_POINT('',(0.,0.,0.013));
#1953=CARTESIAN_POINT('',(-0.017,-0.0085,0.013));
#1954=CARTESIAN_POINT('',(-0.017,0.017,0.013));
#1955=CARTESIAN_POINT('',(-0.017,0.017,0.013));
#1956=CARTESIAN_POINT('',(-0.017,-0.0085,0.013));
#1957=CARTESIAN_POINT('',(-0.017,-0.017,0.013));
#1958=CARTESIAN_POINT('',(-0.017,-0.017,0.013));
#1959=CARTESIAN_POINT('',(-0.03,0.017,0.013));
#1960=CARTESIAN_POINT('',(-0.043,0.017,0.013));
#1961=CARTESIAN_POINT('',(-0.043,0.017,0.013));
#1962=CARTESIAN_POINT('',(-0.03,0.017,0.013));
#1963=CARTESIAN_POINT('',(-0.043,3.46944695195361E-18,0.013));
#1964=CARTESIAN_POINT('',(-0.043,-0.017,0.013));
#1965=CARTESIAN_POINT('',(-0.043,-0.017,0.013));
#1966=CARTESIAN_POINT('',(-0.043,3.46944695195361E-18,0.013));
#1967=CARTESIAN_POINT('',(-0.03,-0.017,0.013));
#1968=CARTESIAN_POINT('',(-0.03,-0.017,0.013));
#1969=CARTESIAN_POINT('',(0.,0.,0.013));
#1970=CARTESIAN_POINT('',(-0.031125,-0.022,0.022));
#1971=CARTESIAN_POINT('',(-0.03225,-0.022,0.022));
#1972=CARTESIAN_POINT('',(-0.03225,-0.022,0.022));
#1973=CARTESIAN_POINT('',(-0.031125,-0.022,0.022));
#1974=CARTESIAN_POINT('',(-0.02775,-0.022,0.022));
#1975=CARTESIAN_POINT('',(-0.02775,-0.022,0.022));
#1976=CARTESIAN_POINT('',(-0.03225,-0.02425,0.022));
#1977=CARTESIAN_POINT('',(-0.03225,-0.0265,0.022));
#1978=CARTESIAN_POINT('',(-0.03225,-0.0265,0.022));
#1979=CARTESIAN_POINT('',(-0.03225,-0.02425,0.022));
#1980=CARTESIAN_POINT('',(-0.03,-0.0265,0.022));
#1981=CARTESIAN_POINT('',(-0.02775,-0.0265,0.022));
#1982=CARTESIAN_POINT('',(-0.02775,-0.0265,0.022));
#1983=CARTESIAN_POINT('',(-0.03,-0.0265,0.022));
#1984=CARTESIAN_POINT('',(-0.02775,-0.02425,0.022));
#1985=CARTESIAN_POINT('',(-0.02775,-0.02425,0.022));
#1986=CARTESIAN_POINT('',(0.,0.,0.022));
#1987=CARTESIAN_POINT('',(0.028875,-0.022,0.022));
#1988=CARTESIAN_POINT('',(0.02775,-0.022,0.022));
#1989=CARTESIAN_POINT('',(0.02775,-0.022,0.022));
#1990=CARTESIAN_POINT('',(0.028875,-0.022,0.022));
#1991=CARTESIAN_POINT('',(0.03225,-0.022,0.022));
#1992=CARTESIAN_POINT('',(0.03225,-0.022,0.022));
#1993=CARTESIAN_POINT('',(0.02775,-0.02425,0.022));
#1994=CARTESIAN_POINT('',(0.02775,-0.0265,0.022));
#1995=CARTESIAN_POINT('',(0.02775,-0.0265,0.022));
#1996=CARTESIAN_POINT('',(0.02775,-0.02425,0.022));
#1997=CARTESIAN_POINT('',(0.03,-0.0265,0.022));
#1998=CARTESIAN_POINT('',(0.03225,-0.0265,0.022));
#1999=CARTESIAN_POINT('',(0.03225,-0.0265,0.022));
#2000=CARTESIAN_POINT('',(0.03,-0.0265,0.022));
#2001=CARTESIAN_POINT('',(0.03225,-0.02425,0.022));
#2002=CARTESIAN_POINT('',(0.03225,-0.02425,0.022));
#2003=CARTESIAN_POINT('',(0.,0.,0.022));
#2004=MECHANICAL_DESIGN_GEOMETRIC_PRESENTATION_REPRESENTATION('',(#1245),
#2005);
#2005=(
GEOMETRIC_REPRESENTATION_CONTEXT(3)
GLOBAL_UNCERTAINTY_ASSIGNED_CONTEXT((#2006))
GLOBAL_UNIT_ASSIGNED_CONTEXT((#2009,#2008,#2007))
REPRESENTATION_CONTEXT('Part 1','TOP_LEVEL_ASSEMBLY_PART')
);
#2006=UNCERTAINTY_MEASURE_WITH_UNIT(LENGTH_MEASURE(1.E-8),#2009,
'DISTANCE_ACCURACY_VALUE','Maximum Tolerance applied to model');
#2007=(
NAMED_UNIT(*)
SI_UNIT($,.STERADIAN.)
SOLID_ANGLE_UNIT()
);
#2008=(
NAMED_UNIT(*)
PLANE_ANGLE_UNIT()
SI_UNIT($,.RADIAN.)
);
#2009=(
LENGTH_UNIT()
NAMED_UNIT(*)
SI_UNIT($,.METRE.)
);
#2010=PRODUCT_DEFINITION_SHAPE('','',#2011);
#2011=PRODUCT_DEFINITION('','',#2013,#2012);
#2012=PRODUCT_DEFINITION_CONTEXT('',#2019,'design');
#2013=PRODUCT_DEFINITION_FORMATION_WITH_SPECIFIED_SOURCE('','',#2015,
 .NOT_KNOWN.);
#2014=PRODUCT_RELATED_PRODUCT_CATEGORY('','',(#2015));
#2015=PRODUCT('Part 1','Part 1','Part 1',(#2017));
#2016=PRODUCT_CATEGORY('','');
#2017=PRODUCT_CONTEXT('',#2019,'mechanical');
#2018=APPLICATION_PROTOCOL_DEFINITION('international standard',
'ap242_managed_model_based_3d_engineering',2020,#2019);
#2019=APPLICATION_CONTEXT('managed model based 3d engineering');
ENDSEC;
END-ISO-10303-21;
