ISO-10303-21;
HEADER;
/* Generated by software containing ST-Developer
 * from STEP Tools, Inc. (www.steptools.com) 
 */
/* OPTION: using custom renumber hook */

FILE_DESCRIPTION(
/* description */ ('STEP AP242 Edition 2',
'CAx-IF Rec.Pracs.---Representation and Presentation of Product Manufa
cturing Information (PMI)---4.0---2014-10-13',
'CAx-IF Rec.Pracs.---3D Tessellated Geometry---0.4---2014-09-14','2;1',
'CAx-IF Rec.Pracs.---User Defined Attributes---1.5---2016-08-15'),
/* implementation_level */ '2;1');

FILE_NAME(
/* name */ 'Legs',
/* time_stamp */ '2026-09-01T05:44:48Z',
/* author */ (''),
/* organization */ (''),
/* preprocessor_version */ 'ST-DEVELOPER v20',
/* originating_system */ 'ONSHAPE BY PTC INC, 1.220',
/* authorisation */ '  ');

FILE_SCHEMA (('AP242_MANAGED_MODEL_BASED_3D_ENGINEERING_MIM_LF { 1 0 10303 442 3 1 4 }'));
ENDSEC;

DATA;
#10=SHAPE_REPRESENTATION_RELATIONSHIP('','',#806,#11);
#11=ADVANCED_BREP_SHAPE_REPRESENTATION('',(#804),#1623);
#12=B_SPLINE_SURFACE_WITH_KNOTS('',3,1,((#1351,#1352),(#1353,#1354),(#1355,
#1356),(#1357,#1358)),.SURF_OF_LINEAR_EXTRUSION.,.F.,.F.,.F.,(4,4),(2,2),
(-2.78022050921529E-16,1.),(0.,1.),.PIECEWISE_BEZIER_KNOTS.);
#13=B_SPLINE_SURFACE_WITH_KNOTS('',3,1,((#1367,#1368),(#1369,#1370),(#1371,
#1372),(#1373,#1374)),.SURF_OF_LINEAR_EXTRUSION.,.F.,.F.,.F.,(4,4),(2,2),
(-2.78022050921529E-16,1.),(0.,1.),.PIECEWISE_BEZIER_KNOTS.);
#14=B_SPLINE_SURFACE_WITH_KNOTS('',3,1,((#1383,#1384),(#1385,#1386),(#1387,
#1388),(#1389,#1390)),.SURF_OF_LINEAR_EXTRUSION.,.F.,.F.,.F.,(4,4),(2,2),
(-2.78022050921529E-16,1.),(0.,1.),.PIECEWISE_BEZIER_KNOTS.);
#15=B_SPLINE_SURFACE_WITH_KNOTS('',3,1,((#1399,#1400),(#1401,#1402),(#1403,
#1404),(#1405,#1406)),.SURF_OF_LINEAR_EXTRUSION.,.F.,.F.,.F.,(4,4),(2,2),
(-2.78022050921529E-16,1.),(0.,1.),.PIECEWISE_BEZIER_KNOTS.);
#16=B_SPLINE_SURFACE_WITH_KNOTS('',1,3,((#1427,#1428,#1429,#1430,#1431,
#1432,#1433,#1434,#1435,#1436),(#1437,#1438,#1439,#1440,#1441,#1442,#1443,
#1444,#1445,#1446)),.RULED_SURF.,.F.,.F.,.F.,(2,2),(4,2,2,2,4),(0.,1.),
(0.,0.00154738709721588,0.00309477419443175,0.00464216129164762,0.00585000153224482),
 .UNSPECIFIED.);
#17=B_SPLINE_SURFACE_WITH_KNOTS('',1,3,((#1447,#1448,#1449,#1450,#1451,
#1452,#1453,#1454,#1455,#1456),(#1457,#1458,#1459,#1460,#1461,#1462,#1463,
#1464,#1465,#1466)),.RULED_SURF.,.F.,.F.,.F.,(2,2),(4,2,2,2,4),(0.,1.),
(0.000339515732282427,0.00154738709721588,0.00309477419443175,0.00464216129164762,
0.0061895483888635),.UNSPECIFIED.);
#18=B_SPLINE_SURFACE_WITH_KNOTS('',1,3,((#1472,#1473,#1474,#1475,#1476,
#1477,#1478,#1479,#1480,#1481),(#1482,#1483,#1484,#1485,#1486,#1487,#1488,
#1489,#1490,#1491)),.RULED_SURF.,.F.,.F.,.F.,(2,2),(4,2,2,2,4),(0.,1.),
(0.000339515732282432,0.00154738709721588,0.00309477419443175,0.00464216129164763,
0.0061895483888635),.UNSPECIFIED.);
#19=B_SPLINE_SURFACE_WITH_KNOTS('',1,3,((#1502,#1503,#1504,#1505,#1506,
#1507,#1508,#1509,#1510,#1511),(#1512,#1513,#1514,#1515,#1516,#1517,#1518,
#1519,#1520,#1521)),.RULED_SURF.,.F.,.F.,.F.,(2,2),(4,2,2,2,4),(0.,1.),
(0.,0.00154738709721588,0.00309477419443174,0.00464216129164762,0.00585000153224482),
 .UNSPECIFIED.);
#20=B_SPLINE_SURFACE_WITH_KNOTS('',1,3,((#1522,#1523,#1524,#1525,#1526,
#1527,#1528,#1529,#1530,#1531),(#1532,#1533,#1534,#1535,#1536,#1537,#1538,
#1539,#1540,#1541)),.RULED_SURF.,.F.,.F.,.F.,(2,2),(4,2,2,2,4),(0.,1.),
(0.000339515732282428,0.00154738709721588,0.00309477419443175,0.00464216129164762,
0.0061895483888635),.UNSPECIFIED.);
#21=B_SPLINE_SURFACE_WITH_KNOTS('',1,3,((#1552,#1553,#1554,#1555,#1556,
#1557,#1558,#1559,#1560,#1561),(#1562,#1563,#1564,#1565,#1566,#1567,#1568,
#1569,#1570,#1571)),.RULED_SURF.,.F.,.F.,.F.,(2,2),(4,2,2,2,4),(0.,1.),
(0.,0.00154738709721588,0.00309477419443175,0.00464216129164762,0.00585000153224482),
 .UNSPECIFIED.);
#22=B_SPLINE_SURFACE_WITH_KNOTS('',1,3,((#1577,#1578,#1579,#1580,#1581,
#1582,#1583,#1584,#1585,#1586),(#1587,#1588,#1589,#1590,#1591,#1592,#1593,
#1594,#1595,#1596)),.RULED_SURF.,.F.,.F.,.F.,(2,2),(4,2,2,2,4),(0.,1.),
(0.,0.00154738709721588,0.00309477419443175,0.00464216129164763,0.00585000153224483),
 .UNSPECIFIED.);
#23=B_SPLINE_SURFACE_WITH_KNOTS('',1,3,((#1597,#1598,#1599,#1600,#1601,
#1602,#1603,#1604,#1605,#1606),(#1607,#1608,#1609,#1610,#1611,#1612,#1613,
#1614,#1615,#1616)),.RULED_SURF.,.F.,.F.,.F.,(2,2),(4,2,2,2,4),(0.,1.),
(0.000339515732282429,0.00154738709721588,0.00309477419443175,0.00464216129164763,
0.0061895483888635),.UNSPECIFIED.);
#24=CYLINDRICAL_SURFACE('',#818,0.004);
#25=CYLINDRICAL_SURFACE('',#823,0.004);
#26=CYLINDRICAL_SURFACE('',#828,0.004);
#27=CYLINDRICAL_SURFACE('',#833,0.004);
#28=CYLINDRICAL_SURFACE('',#842,0.003);
#29=CYLINDRICAL_SURFACE('',#846,0.00165);
#30=LINE('',#1049,#74);
#31=LINE('',#1051,#75);
#32=LINE('',#1053,#76);
#33=LINE('',#1071,#77);
#34=LINE('',#1088,#78);
#35=LINE('',#1098,#79);
#36=LINE('',#1106,#80);
#37=LINE('',#1108,#81);
#38=LINE('',#1110,#82);
#39=LINE('',#1121,#83);
#40=LINE('',#1123,#84);
#41=LINE('',#1125,#85);
#42=LINE('',#1127,#86);
#43=LINE('',#1160,#87);
#44=LINE('',#1170,#88);
#45=LINE('',#1172,#89);
#46=LINE('',#1175,#90);
#47=LINE('',#1182,#91);
#48=LINE('',#1193,#92);
#49=LINE('',#1195,#93);
#50=LINE('',#1197,#94);
#51=LINE('',#1215,#95);
#52=LINE('',#1232,#96);
#53=LINE('',#1242,#97);
#54=LINE('',#1244,#98);
#55=LINE('',#1247,#99);
#56=LINE('',#1254,#100);
#57=LINE('',#1265,#101);
#58=LINE('',#1267,#102);
#59=LINE('',#1269,#103);
#60=LINE('',#1271,#104);
#61=LINE('',#1307,#105);
#62=LINE('',#1317,#106);
#63=LINE('',#1325,#107);
#64=LINE('',#1327,#108);
#65=LINE('',#1329,#109);
#66=LINE('',#1343,#110);
#67=LINE('',#1344,#111);
#68=LINE('',#1345,#112);
#69=LINE('',#1346,#113);
#70=LINE('',#1347,#114);
#71=LINE('',#1348,#115);
#72=LINE('',#1349,#116);
#73=LINE('',#1350,#117);
#74=VECTOR('',#877,1.);
#75=VECTOR('',#878,1.);
#76=VECTOR('',#879,1.);
#77=VECTOR('',#884,1.);
#78=VECTOR('',#887,1.);
#79=VECTOR('',#888,1.);
#80=VECTOR('',#891,1.);
#81=VECTOR('',#892,1.);
#82=VECTOR('',#893,1.);
#83=VECTOR('',#896,1.);
#84=VECTOR('',#897,1.);
#85=VECTOR('',#898,1.);
#86=VECTOR('',#901,1.);
#87=VECTOR('',#906,1.);
#88=VECTOR('',#907,1.);
#89=VECTOR('',#910,1.);
#90=VECTOR('',#911,1.);
#91=VECTOR('',#912,1.);
#92=VECTOR('',#915,1.);
#93=VECTOR('',#916,1.);
#94=VECTOR('',#917,1.);
#95=VECTOR('',#922,1.);
#96=VECTOR('',#925,1.);
#97=VECTOR('',#926,1.);
#98=VECTOR('',#929,1.);
#99=VECTOR('',#930,1.);
#100=VECTOR('',#931,1.);
#101=VECTOR('',#934,1.);
#102=VECTOR('',#935,1.);
#103=VECTOR('',#936,1.);
#104=VECTOR('',#939,1.);
#105=VECTOR('',#946,1.);
#106=VECTOR('',#947,1.);
#107=VECTOR('',#950,1.);
#108=VECTOR('',#951,1.);
#109=VECTOR('',#952,1.);
#110=VECTOR('',#961,1.);
#111=VECTOR('',#962,1.);
#112=VECTOR('',#963,1.);
#113=VECTOR('',#964,1.);
#114=VECTOR('',#965,1.);
#115=VECTOR('',#966,1.);
#116=VECTOR('',#967,1.);
#117=VECTOR('',#968,1.);
#118=B_SPLINE_CURVE_WITH_KNOTS('',3,(#1000,#1001,#1002,#1003),
 .UNSPECIFIED.,.F.,.F.,(4,4),(0.5,1.),.UNSPECIFIED.);
#119=B_SPLINE_CURVE_WITH_KNOTS('',3,(#1007,#1008,#1009,#1010),
 .UNSPECIFIED.,.F.,.F.,(4,4),(0.,0.5),.UNSPECIFIED.);
#120=B_SPLINE_CURVE_WITH_KNOTS('',3,(#1014,#1015,#1016,#1017),
 .UNSPECIFIED.,.F.,.F.,(4,4),(0.5,1.),.UNSPECIFIED.);
#121=B_SPLINE_CURVE_WITH_KNOTS('',3,(#1021,#1022,#1023,#1024),
 .UNSPECIFIED.,.F.,.F.,(4,4),(0.,0.5),.UNSPECIFIED.);
#122=B_SPLINE_CURVE_WITH_KNOTS('',3,(#1028,#1029,#1030,#1031),
 .UNSPECIFIED.,.F.,.F.,(4,4),(0.5,1.),.UNSPECIFIED.);
#123=B_SPLINE_CURVE_WITH_KNOTS('',3,(#1035,#1036,#1037,#1038),
 .UNSPECIFIED.,.F.,.F.,(4,4),(0.,0.499999999999978),.UNSPECIFIED.);
#124=B_SPLINE_CURVE_WITH_KNOTS('',3,(#1040,#1041,#1042,#1043,#1044,#1045,
#1046),.UNSPECIFIED.,.F.,.F.,(4,1,1,1,4),(0.,0.25,0.5,0.75,1.),
 .UNSPECIFIED.);
#125=B_SPLINE_CURVE_WITH_KNOTS('',3,(#1055,#1056,#1057,#1058),
 .UNSPECIFIED.,.F.,.F.,(4,4),(0.,1.),.UNSPECIFIED.);
#126=B_SPLINE_CURVE_WITH_KNOTS('',3,(#1060,#1061,#1062,#1063),
 .UNSPECIFIED.,.F.,.F.,(4,4),(0.,1.),.UNSPECIFIED.);
#127=B_SPLINE_CURVE_WITH_KNOTS('',3,(#1065,#1066,#1067,#1068),
 .UNSPECIFIED.,.F.,.F.,(4,4),(0.,0.00142543775007912),.UNSPECIFIED.);
#128=B_SPLINE_CURVE_WITH_KNOTS('',3,(#1073,#1074,#1075,#1076),
 .UNSPECIFIED.,.F.,.F.,(4,4),(7.00380408838384E-9,0.00142411130872896),
 .UNSPECIFIED.);
#129=B_SPLINE_CURVE_WITH_KNOTS('',3,(#1078,#1079,#1080,#1081),
 .UNSPECIFIED.,.F.,.F.,(4,4),(0.,1.),.UNSPECIFIED.);
#130=B_SPLINE_CURVE_WITH_KNOTS('',3,(#1083,#1084,#1085,#1086),
 .UNSPECIFIED.,.F.,.F.,(4,4),(0.,1.),.UNSPECIFIED.);
#131=B_SPLINE_CURVE_WITH_KNOTS('',3,(#1091,#1092,#1093,#1094,#1095,#1096,
#1097),.UNSPECIFIED.,.F.,.F.,(4,1,1,1,4),(0.,0.25,0.5,0.75,1.),
 .UNSPECIFIED.);
#132=B_SPLINE_CURVE_WITH_KNOTS('',3,(#1100,#1101,#1102,#1103),
 .UNSPECIFIED.,.F.,.F.,(4,4),(0.333333333333333,0.666666666666666),
 .UNSPECIFIED.);
#133=B_SPLINE_CURVE_WITH_KNOTS('',3,(#1112,#1113,#1114,#1115,#1116,#1117,
#1118),.UNSPECIFIED.,.F.,.F.,(4,1,1,1,4),(0.,0.25,0.5,0.75,1.),
 .UNSPECIFIED.);
#134=B_SPLINE_CURVE_WITH_KNOTS('',3,(#1130,#1131,#1132,#1133),
 .UNSPECIFIED.,.F.,.F.,(4,4),(7.00380413861779E-9,0.001424111308729),
 .UNSPECIFIED.);
#135=B_SPLINE_CURVE_WITH_KNOTS('',3,(#1135,#1136,#1137,#1138),
 .UNSPECIFIED.,.F.,.F.,(4,4),(0.,1.),.UNSPECIFIED.);
#136=B_SPLINE_CURVE_WITH_KNOTS('',3,(#1140,#1141,#1142,#1143),
 .UNSPECIFIED.,.F.,.F.,(4,4),(0.,1.),.UNSPECIFIED.);
#137=B_SPLINE_CURVE_WITH_KNOTS('',3,(#1144,#1145,#1146,#1147),
 .UNSPECIFIED.,.F.,.F.,(4,4),(0.,1.),.UNSPECIFIED.);
#138=B_SPLINE_CURVE_WITH_KNOTS('',3,(#1149,#1150,#1151,#1152),
 .UNSPECIFIED.,.F.,.F.,(4,4),(0.,1.),.UNSPECIFIED.);
#139=B_SPLINE_CURVE_WITH_KNOTS('',3,(#1154,#1155,#1156,#1157),
 .UNSPECIFIED.,.F.,.F.,(4,4),(0.,0.00142543775007912),.UNSPECIFIED.);
#140=B_SPLINE_CURVE_WITH_KNOTS('',3,(#1163,#1164,#1165,#1166,#1167,#1168,
#1169),.UNSPECIFIED.,.F.,.F.,(4,1,1,1,4),(0.,0.25,0.5,0.75,1.),
 .UNSPECIFIED.);
#141=B_SPLINE_CURVE_WITH_KNOTS('',3,(#1177,#1178,#1179,#1180),
 .UNSPECIFIED.,.F.,.F.,(4,4),(0.333333333333333,0.666666666666667),
 .UNSPECIFIED.);
#142=B_SPLINE_CURVE_WITH_KNOTS('',3,(#1184,#1185,#1186,#1187,#1188,#1189,
#1190),.UNSPECIFIED.,.F.,.F.,(4,1,1,1,4),(0.,0.25,0.5,0.75,1.),
 .UNSPECIFIED.);
#143=B_SPLINE_CURVE_WITH_KNOTS('',3,(#1199,#1200,#1201,#1202),
 .UNSPECIFIED.,.F.,.F.,(4,4),(0.,1.),.UNSPECIFIED.);
#144=B_SPLINE_CURVE_WITH_KNOTS('',3,(#1204,#1205,#1206,#1207),
 .UNSPECIFIED.,.F.,.F.,(4,4),(0.,1.),.UNSPECIFIED.);
#145=B_SPLINE_CURVE_WITH_KNOTS('',3,(#1209,#1210,#1211,#1212),
 .UNSPECIFIED.,.F.,.F.,(4,4),(0.,0.00142543775007912),.UNSPECIFIED.);
#146=B_SPLINE_CURVE_WITH_KNOTS('',3,(#1217,#1218,#1219,#1220),
 .UNSPECIFIED.,.F.,.F.,(4,4),(7.00380412765021E-9,0.00142411130872896),
 .UNSPECIFIED.);
#147=B_SPLINE_CURVE_WITH_KNOTS('',3,(#1222,#1223,#1224,#1225),
 .UNSPECIFIED.,.F.,.F.,(4,4),(0.,1.),.UNSPECIFIED.);
#148=B_SPLINE_CURVE_WITH_KNOTS('',3,(#1227,#1228,#1229,#1230),
 .UNSPECIFIED.,.F.,.F.,(4,4),(0.,1.),.UNSPECIFIED.);
#149=B_SPLINE_CURVE_WITH_KNOTS('',3,(#1235,#1236,#1237,#1238,#1239,#1240,
#1241),.UNSPECIFIED.,.F.,.F.,(4,1,1,1,4),(0.,0.25,0.5,0.75,1.),
 .UNSPECIFIED.);
#150=B_SPLINE_CURVE_WITH_KNOTS('',3,(#1249,#1250,#1251,#1252),
 .UNSPECIFIED.,.F.,.F.,(4,4),(0.333333333333333,0.666666666666666),
 .UNSPECIFIED.);
#151=B_SPLINE_CURVE_WITH_KNOTS('',3,(#1256,#1257,#1258,#1259,#1260,#1261,
#1262),.UNSPECIFIED.,.F.,.F.,(4,1,1,1,4),(0.,0.25,0.5,0.75,1.),
 .UNSPECIFIED.);
#152=B_SPLINE_CURVE_WITH_KNOTS('',3,(#1274,#1275,#1276,#1277),
 .UNSPECIFIED.,.F.,.F.,(4,4),(7.00380408951173E-9,0.00142411130872896),
 .UNSPECIFIED.);
#153=B_SPLINE_CURVE_WITH_KNOTS('',3,(#1279,#1280,#1281,#1282),
 .UNSPECIFIED.,.F.,.F.,(4,4),(0.,1.),.UNSPECIFIED.);
#154=B_SPLINE_CURVE_WITH_KNOTS('',3,(#1284,#1285,#1286,#1287),
 .UNSPECIFIED.,.F.,.F.,(4,4),(0.,1.),.UNSPECIFIED.);
#155=B_SPLINE_CURVE_WITH_KNOTS('',3,(#1291,#1292,#1293,#1294),
 .UNSPECIFIED.,.F.,.F.,(4,4),(0.,1.),.UNSPECIFIED.);
#156=B_SPLINE_CURVE_WITH_KNOTS('',3,(#1296,#1297,#1298,#1299),
 .UNSPECIFIED.,.F.,.F.,(4,4),(0.,1.),.UNSPECIFIED.);
#157=B_SPLINE_CURVE_WITH_KNOTS('',3,(#1301,#1302,#1303,#1304),
 .UNSPECIFIED.,.F.,.F.,(4,4),(0.,0.00142543775007912),.UNSPECIFIED.);
#158=B_SPLINE_CURVE_WITH_KNOTS('',3,(#1310,#1311,#1312,#1313,#1314,#1315,
#1316),.UNSPECIFIED.,.F.,.F.,(4,1,1,1,4),(0.,0.25,0.5,0.75,1.),
 .UNSPECIFIED.);
#159=B_SPLINE_CURVE_WITH_KNOTS('',3,(#1319,#1320,#1321,#1322),
 .UNSPECIFIED.,.F.,.F.,(4,4),(0.333333333333333,0.666666666666667),
 .UNSPECIFIED.);
#160=B_SPLINE_CURVE_WITH_KNOTS('',3,(#1332,#1333,#1334,#1335),
 .UNSPECIFIED.,.F.,.F.,(4,4),(0.499999999999978,1.),.UNSPECIFIED.);
#161=B_SPLINE_CURVE_WITH_KNOTS('',3,(#1336,#1337,#1338,#1339),
 .UNSPECIFIED.,.F.,.F.,(4,4),(0.,0.5),.UNSPECIFIED.);
#162=B_SPLINE_CURVE_WITH_KNOTS('',3,(#1359,#1360,#1361,#1362),
 .UNSPECIFIED.,.F.,.F.,(4,4),(2.12656540921253E-8,1.),.UNSPECIFIED.);
#163=B_SPLINE_CURVE_WITH_KNOTS('',3,(#1363,#1364,#1365,#1366),
 .UNSPECIFIED.,.F.,.F.,(4,4),(0.,0.999999978749033),.UNSPECIFIED.);
#164=B_SPLINE_CURVE_WITH_KNOTS('',3,(#1375,#1376,#1377,#1378),
 .UNSPECIFIED.,.F.,.F.,(4,4),(0.,0.999999978749033),.UNSPECIFIED.);
#165=B_SPLINE_CURVE_WITH_KNOTS('',3,(#1379,#1380,#1381,#1382),
 .UNSPECIFIED.,.F.,.F.,(4,4),(2.12656540921253E-8,1.),.UNSPECIFIED.);
#166=B_SPLINE_CURVE_WITH_KNOTS('',3,(#1391,#1392,#1393,#1394),
 .UNSPECIFIED.,.F.,.F.,(4,4),(0.,0.999999978749033),.UNSPECIFIED.);
#167=B_SPLINE_CURVE_WITH_KNOTS('',3,(#1395,#1396,#1397,#1398),
 .UNSPECIFIED.,.F.,.F.,(4,4),(2.12656539376302E-8,1.),.UNSPECIFIED.);
#168=B_SPLINE_CURVE_WITH_KNOTS('',3,(#1407,#1408,#1409,#1410),
 .UNSPECIFIED.,.F.,.F.,(4,4),(2.12656539376302E-8,1.),.UNSPECIFIED.);
#169=B_SPLINE_CURVE_WITH_KNOTS('',3,(#1411,#1412,#1413,#1414),
 .UNSPECIFIED.,.F.,.F.,(4,4),(0.,0.999999978749033),.UNSPECIFIED.);
#170=B_SPLINE_CURVE_WITH_KNOTS('',3,(#1423,#1424,#1425,#1426),
 .UNSPECIFIED.,.F.,.F.,(4,4),(0.,1.),.UNSPECIFIED.);
#171=B_SPLINE_CURVE_WITH_KNOTS('',3,(#1467,#1468,#1469,#1470),
 .UNSPECIFIED.,.F.,.F.,(4,4),(0.,1.),.UNSPECIFIED.);
#172=B_SPLINE_CURVE_WITH_KNOTS('',3,(#1492,#1493,#1494,#1495),
 .UNSPECIFIED.,.F.,.F.,(4,4),(0.,1.),.UNSPECIFIED.);
#173=B_SPLINE_CURVE_WITH_KNOTS('',3,(#1498,#1499,#1500,#1501),
 .UNSPECIFIED.,.F.,.F.,(4,4),(0.,1.),.UNSPECIFIED.);
#174=B_SPLINE_CURVE_WITH_KNOTS('',3,(#1542,#1543,#1544,#1545),
 .UNSPECIFIED.,.F.,.F.,(4,4),(0.,1.),.UNSPECIFIED.);
#175=B_SPLINE_CURVE_WITH_KNOTS('',3,(#1548,#1549,#1550,#1551),
 .UNSPECIFIED.,.F.,.F.,(4,4),(0.,1.),.UNSPECIFIED.);
#176=B_SPLINE_CURVE_WITH_KNOTS('',3,(#1573,#1574,#1575,#1576),
 .UNSPECIFIED.,.F.,.F.,(4,4),(0.,1.),.UNSPECIFIED.);
#177=B_SPLINE_CURVE_WITH_KNOTS('',3,(#1617,#1618,#1619,#1620),
 .UNSPECIFIED.,.F.,.F.,(4,4),(0.,1.),.UNSPECIFIED.);
#178=ORIENTED_EDGE('',*,*,#416,.F.);
#179=ORIENTED_EDGE('',*,*,#417,.T.);
#180=ORIENTED_EDGE('',*,*,#418,.T.);
#181=ORIENTED_EDGE('',*,*,#419,.T.);
#182=ORIENTED_EDGE('',*,*,#420,.F.);
#183=ORIENTED_EDGE('',*,*,#421,.T.);
#184=ORIENTED_EDGE('',*,*,#422,.T.);
#185=ORIENTED_EDGE('',*,*,#423,.T.);
#186=ORIENTED_EDGE('',*,*,#424,.F.);
#187=ORIENTED_EDGE('',*,*,#425,.T.);
#188=ORIENTED_EDGE('',*,*,#426,.T.);
#189=ORIENTED_EDGE('',*,*,#427,.T.);
#190=ORIENTED_EDGE('',*,*,#428,.T.);
#191=ORIENTED_EDGE('',*,*,#429,.T.);
#192=ORIENTED_EDGE('',*,*,#430,.F.);
#193=ORIENTED_EDGE('',*,*,#431,.F.);
#194=ORIENTED_EDGE('',*,*,#418,.F.);
#195=ORIENTED_EDGE('',*,*,#432,.T.);
#196=ORIENTED_EDGE('',*,*,#433,.F.);
#197=ORIENTED_EDGE('',*,*,#434,.T.);
#198=ORIENTED_EDGE('',*,*,#431,.T.);
#199=ORIENTED_EDGE('',*,*,#435,.T.);
#200=ORIENTED_EDGE('',*,*,#436,.F.);
#201=ORIENTED_EDGE('',*,*,#437,.T.);
#202=ORIENTED_EDGE('',*,*,#438,.F.);
#203=ORIENTED_EDGE('',*,*,#439,.T.);
#204=ORIENTED_EDGE('',*,*,#440,.T.);
#205=ORIENTED_EDGE('',*,*,#441,.T.);
#206=ORIENTED_EDGE('',*,*,#436,.T.);
#207=ORIENTED_EDGE('',*,*,#442,.F.);
#208=ORIENTED_EDGE('',*,*,#443,.T.);
#209=ORIENTED_EDGE('',*,*,#444,.T.);
#210=ORIENTED_EDGE('',*,*,#445,.F.);
#211=ORIENTED_EDGE('',*,*,#446,.T.);
#212=ORIENTED_EDGE('',*,*,#447,.T.);
#213=ORIENTED_EDGE('',*,*,#448,.T.);
#214=ORIENTED_EDGE('',*,*,#449,.T.);
#215=ORIENTED_EDGE('',*,*,#450,.F.);
#216=ORIENTED_EDGE('',*,*,#451,.F.);
#217=ORIENTED_EDGE('',*,*,#452,.T.);
#218=ORIENTED_EDGE('',*,*,#453,.F.);
#219=ORIENTED_EDGE('',*,*,#454,.T.);
#220=ORIENTED_EDGE('',*,*,#422,.F.);
#221=ORIENTED_EDGE('',*,*,#455,.T.);
#222=ORIENTED_EDGE('',*,*,#456,.F.);
#223=ORIENTED_EDGE('',*,*,#457,.T.);
#224=ORIENTED_EDGE('',*,*,#450,.T.);
#225=ORIENTED_EDGE('',*,*,#458,.T.);
#226=ORIENTED_EDGE('',*,*,#459,.T.);
#227=ORIENTED_EDGE('',*,*,#460,.T.);
#228=ORIENTED_EDGE('',*,*,#451,.T.);
#229=ORIENTED_EDGE('',*,*,#461,.F.);
#230=ORIENTED_EDGE('',*,*,#462,.T.);
#231=ORIENTED_EDGE('',*,*,#463,.T.);
#232=ORIENTED_EDGE('',*,*,#464,.T.);
#233=ORIENTED_EDGE('',*,*,#465,.T.);
#234=ORIENTED_EDGE('',*,*,#466,.T.);
#235=ORIENTED_EDGE('',*,*,#467,.T.);
#236=ORIENTED_EDGE('',*,*,#468,.T.);
#237=ORIENTED_EDGE('',*,*,#469,.F.);
#238=ORIENTED_EDGE('',*,*,#426,.F.);
#239=ORIENTED_EDGE('',*,*,#470,.T.);
#240=ORIENTED_EDGE('',*,*,#471,.F.);
#241=ORIENTED_EDGE('',*,*,#472,.T.);
#242=ORIENTED_EDGE('',*,*,#469,.T.);
#243=ORIENTED_EDGE('',*,*,#473,.T.);
#244=ORIENTED_EDGE('',*,*,#474,.F.);
#245=ORIENTED_EDGE('',*,*,#475,.T.);
#246=ORIENTED_EDGE('',*,*,#476,.F.);
#247=ORIENTED_EDGE('',*,*,#477,.T.);
#248=ORIENTED_EDGE('',*,*,#478,.T.);
#249=ORIENTED_EDGE('',*,*,#479,.T.);
#250=ORIENTED_EDGE('',*,*,#474,.T.);
#251=ORIENTED_EDGE('',*,*,#480,.T.);
#252=ORIENTED_EDGE('',*,*,#481,.T.);
#253=ORIENTED_EDGE('',*,*,#482,.T.);
#254=ORIENTED_EDGE('',*,*,#483,.T.);
#255=ORIENTED_EDGE('',*,*,#484,.T.);
#256=ORIENTED_EDGE('',*,*,#485,.T.);
#257=ORIENTED_EDGE('',*,*,#486,.T.);
#258=ORIENTED_EDGE('',*,*,#487,.F.);
#259=ORIENTED_EDGE('',*,*,#488,.F.);
#260=ORIENTED_EDGE('',*,*,#489,.F.);
#261=ORIENTED_EDGE('',*,*,#490,.T.);
#262=ORIENTED_EDGE('',*,*,#491,.F.);
#263=ORIENTED_EDGE('',*,*,#492,.T.);
#264=ORIENTED_EDGE('',*,*,#493,.F.);
#265=ORIENTED_EDGE('',*,*,#494,.T.);
#266=ORIENTED_EDGE('',*,*,#495,.F.);
#267=ORIENTED_EDGE('',*,*,#496,.T.);
#268=ORIENTED_EDGE('',*,*,#488,.T.);
#269=ORIENTED_EDGE('',*,*,#497,.T.);
#270=ORIENTED_EDGE('',*,*,#498,.T.);
#271=ORIENTED_EDGE('',*,*,#499,.T.);
#272=ORIENTED_EDGE('',*,*,#489,.T.);
#273=ORIENTED_EDGE('',*,*,#500,.T.);
#274=ORIENTED_EDGE('',*,*,#501,.T.);
#275=ORIENTED_EDGE('',*,*,#502,.T.);
#276=ORIENTED_EDGE('',*,*,#503,.F.);
#277=ORIENTED_EDGE('',*,*,#504,.T.);
#278=ORIENTED_EDGE('',*,*,#505,.F.);
#279=ORIENTED_EDGE('',*,*,#506,.T.);
#280=ORIENTED_EDGE('',*,*,#493,.T.);
#281=ORIENTED_EDGE('',*,*,#507,.T.);
#282=ORIENTED_EDGE('',*,*,#508,.T.);
#283=ORIENTED_EDGE('',*,*,#503,.T.);
#284=ORIENTED_EDGE('',*,*,#509,.T.);
#285=ORIENTED_EDGE('',*,*,#500,.F.);
#286=ORIENTED_EDGE('',*,*,#497,.F.);
#287=ORIENTED_EDGE('',*,*,#487,.T.);
#288=ORIENTED_EDGE('',*,*,#510,.T.);
#289=ORIENTED_EDGE('',*,*,#481,.F.);
#290=ORIENTED_EDGE('',*,*,#511,.T.);
#291=ORIENTED_EDGE('',*,*,#480,.F.);
#292=ORIENTED_EDGE('',*,*,#473,.F.);
#293=ORIENTED_EDGE('',*,*,#468,.F.);
#294=ORIENTED_EDGE('',*,*,#512,.T.);
#295=ORIENTED_EDGE('',*,*,#462,.F.);
#296=ORIENTED_EDGE('',*,*,#513,.T.);
#297=ORIENTED_EDGE('',*,*,#461,.T.);
#298=ORIENTED_EDGE('',*,*,#458,.F.);
#299=ORIENTED_EDGE('',*,*,#449,.F.);
#300=ORIENTED_EDGE('',*,*,#514,.T.);
#301=ORIENTED_EDGE('',*,*,#445,.T.);
#302=ORIENTED_EDGE('',*,*,#515,.T.);
#303=ORIENTED_EDGE('',*,*,#442,.T.);
#304=ORIENTED_EDGE('',*,*,#435,.F.);
#305=ORIENTED_EDGE('',*,*,#430,.T.);
#306=ORIENTED_EDGE('',*,*,#516,.T.);
#307=ORIENTED_EDGE('',*,*,#492,.F.);
#308=ORIENTED_EDGE('',*,*,#491,.T.);
#309=ORIENTED_EDGE('',*,*,#517,.T.);
#310=ORIENTED_EDGE('',*,*,#501,.F.);
#311=ORIENTED_EDGE('',*,*,#518,.T.);
#312=ORIENTED_EDGE('',*,*,#433,.T.);
#313=ORIENTED_EDGE('',*,*,#432,.F.);
#314=ORIENTED_EDGE('',*,*,#417,.F.);
#315=ORIENTED_EDGE('',*,*,#507,.F.);
#316=ORIENTED_EDGE('',*,*,#464,.F.);
#317=ORIENTED_EDGE('',*,*,#519,.T.);
#318=ORIENTED_EDGE('',*,*,#471,.T.);
#319=ORIENTED_EDGE('',*,*,#470,.F.);
#320=ORIENTED_EDGE('',*,*,#425,.F.);
#321=ORIENTED_EDGE('',*,*,#423,.F.);
#322=ORIENTED_EDGE('',*,*,#454,.F.);
#323=ORIENTED_EDGE('',*,*,#453,.T.);
#324=ORIENTED_EDGE('',*,*,#520,.T.);
#325=ORIENTED_EDGE('',*,*,#483,.F.);
#326=ORIENTED_EDGE('',*,*,#521,.T.);
#327=ORIENTED_EDGE('',*,*,#495,.T.);
#328=ORIENTED_EDGE('',*,*,#494,.F.);
#329=ORIENTED_EDGE('',*,*,#506,.F.);
#330=ORIENTED_EDGE('',*,*,#427,.F.);
#331=ORIENTED_EDGE('',*,*,#477,.F.);
#332=ORIENTED_EDGE('',*,*,#476,.T.);
#333=ORIENTED_EDGE('',*,*,#522,.T.);
#334=ORIENTED_EDGE('',*,*,#439,.F.);
#335=ORIENTED_EDGE('',*,*,#438,.T.);
#336=ORIENTED_EDGE('',*,*,#523,.T.);
#337=ORIENTED_EDGE('',*,*,#443,.F.);
#338=ORIENTED_EDGE('',*,*,#524,.T.);
#339=ORIENTED_EDGE('',*,*,#456,.T.);
#340=ORIENTED_EDGE('',*,*,#455,.F.);
#341=ORIENTED_EDGE('',*,*,#421,.F.);
#342=ORIENTED_EDGE('',*,*,#419,.F.);
#343=ORIENTED_EDGE('',*,*,#525,.F.);
#344=ORIENTED_EDGE('',*,*,#416,.T.);
#345=ORIENTED_EDGE('',*,*,#420,.T.);
#346=ORIENTED_EDGE('',*,*,#424,.T.);
#347=ORIENTED_EDGE('',*,*,#505,.T.);
#348=ORIENTED_EDGE('',*,*,#526,.F.);
#349=ORIENTED_EDGE('',*,*,#525,.T.);
#350=ORIENTED_EDGE('',*,*,#526,.T.);
#351=ORIENTED_EDGE('',*,*,#508,.F.);
#352=ORIENTED_EDGE('',*,*,#509,.F.);
#353=ORIENTED_EDGE('',*,*,#502,.F.);
#354=ORIENTED_EDGE('',*,*,#527,.F.);
#355=ORIENTED_EDGE('',*,*,#498,.F.);
#356=ORIENTED_EDGE('',*,*,#527,.T.);
#357=ORIENTED_EDGE('',*,*,#517,.F.);
#358=ORIENTED_EDGE('',*,*,#490,.F.);
#359=ORIENTED_EDGE('',*,*,#499,.F.);
#360=ORIENTED_EDGE('',*,*,#434,.F.);
#361=ORIENTED_EDGE('',*,*,#518,.F.);
#362=ORIENTED_EDGE('',*,*,#528,.F.);
#363=ORIENTED_EDGE('',*,*,#428,.F.);
#364=ORIENTED_EDGE('',*,*,#528,.T.);
#365=ORIENTED_EDGE('',*,*,#504,.F.);
#366=ORIENTED_EDGE('',*,*,#516,.F.);
#367=ORIENTED_EDGE('',*,*,#429,.F.);
#368=ORIENTED_EDGE('',*,*,#472,.F.);
#369=ORIENTED_EDGE('',*,*,#519,.F.);
#370=ORIENTED_EDGE('',*,*,#529,.F.);
#371=ORIENTED_EDGE('',*,*,#466,.F.);
#372=ORIENTED_EDGE('',*,*,#529,.T.);
#373=ORIENTED_EDGE('',*,*,#463,.F.);
#374=ORIENTED_EDGE('',*,*,#512,.F.);
#375=ORIENTED_EDGE('',*,*,#467,.F.);
#376=ORIENTED_EDGE('',*,*,#513,.F.);
#377=ORIENTED_EDGE('',*,*,#465,.F.);
#378=ORIENTED_EDGE('',*,*,#530,.F.);
#379=ORIENTED_EDGE('',*,*,#459,.F.);
#380=ORIENTED_EDGE('',*,*,#530,.T.);
#381=ORIENTED_EDGE('',*,*,#520,.F.);
#382=ORIENTED_EDGE('',*,*,#452,.F.);
#383=ORIENTED_EDGE('',*,*,#460,.F.);
#384=ORIENTED_EDGE('',*,*,#496,.F.);
#385=ORIENTED_EDGE('',*,*,#521,.F.);
#386=ORIENTED_EDGE('',*,*,#531,.F.);
#387=ORIENTED_EDGE('',*,*,#485,.F.);
#388=ORIENTED_EDGE('',*,*,#531,.T.);
#389=ORIENTED_EDGE('',*,*,#482,.F.);
#390=ORIENTED_EDGE('',*,*,#510,.F.);
#391=ORIENTED_EDGE('',*,*,#486,.F.);
#392=ORIENTED_EDGE('',*,*,#511,.F.);
#393=ORIENTED_EDGE('',*,*,#484,.F.);
#394=ORIENTED_EDGE('',*,*,#532,.F.);
#395=ORIENTED_EDGE('',*,*,#478,.F.);
#396=ORIENTED_EDGE('',*,*,#532,.T.);
#397=ORIENTED_EDGE('',*,*,#522,.F.);
#398=ORIENTED_EDGE('',*,*,#475,.F.);
#399=ORIENTED_EDGE('',*,*,#479,.F.);
#400=ORIENTED_EDGE('',*,*,#515,.F.);
#401=ORIENTED_EDGE('',*,*,#444,.F.);
#402=ORIENTED_EDGE('',*,*,#533,.F.);
#403=ORIENTED_EDGE('',*,*,#440,.F.);
#404=ORIENTED_EDGE('',*,*,#533,.T.);
#405=ORIENTED_EDGE('',*,*,#523,.F.);
#406=ORIENTED_EDGE('',*,*,#437,.F.);
#407=ORIENTED_EDGE('',*,*,#441,.F.);
#408=ORIENTED_EDGE('',*,*,#457,.F.);
#409=ORIENTED_EDGE('',*,*,#524,.F.);
#410=ORIENTED_EDGE('',*,*,#534,.F.);
#411=ORIENTED_EDGE('',*,*,#447,.F.);
#412=ORIENTED_EDGE('',*,*,#534,.T.);
#413=ORIENTED_EDGE('',*,*,#446,.F.);
#414=ORIENTED_EDGE('',*,*,#514,.F.);
#415=ORIENTED_EDGE('',*,*,#448,.F.);
#416=EDGE_CURVE('',#535,#536,#614,.T.);
#417=EDGE_CURVE('',#535,#537,#118,.T.);
#418=EDGE_CURVE('',#537,#538,#615,.T.);
#419=EDGE_CURVE('',#538,#536,#119,.T.);
#420=EDGE_CURVE('',#536,#539,#616,.T.);
#421=EDGE_CURVE('',#536,#540,#120,.T.);
#422=EDGE_CURVE('',#540,#541,#617,.T.);
#423=EDGE_CURVE('',#541,#539,#121,.T.);
#424=EDGE_CURVE('',#539,#542,#618,.T.);
#425=EDGE_CURVE('',#539,#543,#122,.T.);
#426=EDGE_CURVE('',#543,#544,#619,.T.);
#427=EDGE_CURVE('',#544,#542,#123,.T.);
#428=EDGE_CURVE('',#545,#546,#124,.T.);
#429=EDGE_CURVE('',#546,#547,#30,.T.);
#430=EDGE_CURVE('',#548,#547,#31,.T.);
#431=EDGE_CURVE('',#545,#548,#32,.T.);
#432=EDGE_CURVE('',#537,#549,#125,.T.);
#433=EDGE_CURVE('',#550,#549,#126,.F.);
#434=EDGE_CURVE('',#550,#545,#127,.T.);
#435=EDGE_CURVE('',#548,#551,#620,.T.);
#436=EDGE_CURVE('',#552,#551,#33,.T.);
#437=EDGE_CURVE('',#552,#553,#128,.T.);
#438=EDGE_CURVE('',#554,#553,#129,.F.);
#439=EDGE_CURVE('',#554,#538,#130,.T.);
#440=EDGE_CURVE('',#555,#556,#34,.T.);
#441=EDGE_CURVE('',#556,#552,#131,.T.);
#442=EDGE_CURVE('',#555,#551,#35,.T.);
#443=EDGE_CURVE('',#557,#558,#132,.T.);
#444=EDGE_CURVE('',#558,#559,#36,.T.);
#445=EDGE_CURVE('',#560,#559,#37,.T.);
#446=EDGE_CURVE('',#560,#557,#38,.T.);
#447=EDGE_CURVE('',#561,#562,#133,.T.);
#448=EDGE_CURVE('',#562,#563,#39,.T.);
#449=EDGE_CURVE('',#563,#564,#40,.T.);
#450=EDGE_CURVE('',#561,#564,#41,.T.);
#451=EDGE_CURVE('',#565,#566,#42,.T.);
#452=EDGE_CURVE('',#565,#567,#134,.T.);
#453=EDGE_CURVE('',#568,#567,#135,.F.);
#454=EDGE_CURVE('',#568,#541,#136,.T.);
#455=EDGE_CURVE('',#540,#569,#137,.T.);
#456=EDGE_CURVE('',#570,#569,#138,.F.);
#457=EDGE_CURVE('',#570,#561,#139,.T.);
#458=EDGE_CURVE('',#564,#566,#621,.T.);
#459=EDGE_CURVE('',#571,#572,#43,.T.);
#460=EDGE_CURVE('',#572,#565,#140,.T.);
#461=EDGE_CURVE('',#571,#566,#44,.T.);
#462=EDGE_CURVE('',#573,#574,#45,.T.);
#463=EDGE_CURVE('',#574,#575,#46,.T.);
#464=EDGE_CURVE('',#575,#576,#141,.T.);
#465=EDGE_CURVE('',#576,#573,#47,.T.);
#466=EDGE_CURVE('',#577,#578,#142,.T.);
#467=EDGE_CURVE('',#578,#579,#48,.T.);
#468=EDGE_CURVE('',#579,#580,#49,.T.);
#469=EDGE_CURVE('',#577,#580,#50,.T.);
#470=EDGE_CURVE('',#543,#581,#143,.T.);
#471=EDGE_CURVE('',#582,#581,#144,.F.);
#472=EDGE_CURVE('',#582,#577,#145,.T.);
#473=EDGE_CURVE('',#580,#583,#622,.T.);
#474=EDGE_CURVE('',#584,#583,#51,.T.);
#475=EDGE_CURVE('',#584,#585,#146,.T.);
#476=EDGE_CURVE('',#586,#585,#147,.F.);
#477=EDGE_CURVE('',#586,#544,#148,.T.);
#478=EDGE_CURVE('',#587,#588,#52,.T.);
#479=EDGE_CURVE('',#588,#584,#149,.T.);
#480=EDGE_CURVE('',#583,#587,#53,.T.);
#481=EDGE_CURVE('',#589,#590,#54,.T.);
#482=EDGE_CURVE('',#590,#591,#55,.T.);
#483=EDGE_CURVE('',#591,#592,#150,.T.);
#484=EDGE_CURVE('',#592,#589,#56,.T.);
#485=EDGE_CURVE('',#593,#594,#151,.T.);
#486=EDGE_CURVE('',#594,#595,#57,.T.);
#487=EDGE_CURVE('',#596,#595,#58,.T.);
#488=EDGE_CURVE('',#593,#596,#59,.T.);
#489=EDGE_CURVE('',#597,#598,#60,.T.);
#490=EDGE_CURVE('',#597,#599,#152,.T.);
#491=EDGE_CURVE('',#600,#599,#153,.F.);
#492=EDGE_CURVE('',#600,#601,#154,.T.);
#493=EDGE_CURVE('',#602,#601,#623,.T.);
#494=EDGE_CURVE('',#602,#603,#155,.T.);
#495=EDGE_CURVE('',#604,#603,#156,.F.);
#496=EDGE_CURVE('',#604,#593,#157,.T.);
#497=EDGE_CURVE('',#596,#598,#624,.T.);
#498=EDGE_CURVE('',#605,#606,#61,.T.);
#499=EDGE_CURVE('',#606,#597,#158,.T.);
#500=EDGE_CURVE('',#598,#605,#62,.T.);
#501=EDGE_CURVE('',#607,#608,#159,.T.);
#502=EDGE_CURVE('',#608,#609,#63,.T.);
#503=EDGE_CURVE('',#610,#609,#64,.T.);
#504=EDGE_CURVE('',#610,#607,#65,.T.);
#505=EDGE_CURVE('',#542,#535,#625,.T.);
#506=EDGE_CURVE('',#542,#602,#160,.T.);
#507=EDGE_CURVE('',#601,#535,#161,.T.);
#508=EDGE_CURVE('',#611,#611,#626,.T.);
#509=EDGE_CURVE('',#609,#605,#66,.T.);
#510=EDGE_CURVE('',#595,#590,#67,.T.);
#511=EDGE_CURVE('',#589,#587,#68,.F.);
#512=EDGE_CURVE('',#579,#574,#69,.F.);
#513=EDGE_CURVE('',#573,#571,#70,.T.);
#514=EDGE_CURVE('',#563,#560,#71,.T.);
#515=EDGE_CURVE('',#559,#555,#72,.F.);
#516=EDGE_CURVE('',#547,#610,#73,.F.);
#517=EDGE_CURVE('',#599,#608,#162,.T.);
#518=EDGE_CURVE('',#607,#550,#163,.T.);
#519=EDGE_CURVE('',#575,#582,#164,.T.);
#520=EDGE_CURVE('',#567,#576,#165,.T.);
#521=EDGE_CURVE('',#591,#604,#166,.T.);
#522=EDGE_CURVE('',#585,#592,#167,.T.);
#523=EDGE_CURVE('',#553,#558,#168,.T.);
#524=EDGE_CURVE('',#557,#570,#169,.T.);
#525=EDGE_CURVE('',#612,#612,#627,.T.);
#526=EDGE_CURVE('',#613,#613,#628,.T.);
#527=EDGE_CURVE('',#606,#608,#170,.F.);
#528=EDGE_CURVE('',#546,#607,#171,.T.);
#529=EDGE_CURVE('',#578,#575,#172,.T.);
#530=EDGE_CURVE('',#572,#576,#173,.F.);
#531=EDGE_CURVE('',#594,#591,#174,.T.);
#532=EDGE_CURVE('',#588,#592,#175,.F.);
#533=EDGE_CURVE('',#556,#558,#176,.F.);
#534=EDGE_CURVE('',#562,#557,#177,.T.);
#535=VERTEX_POINT('',#998);
#536=VERTEX_POINT('',#999);
#537=VERTEX_POINT('',#1004);
#538=VERTEX_POINT('',#1006);
#539=VERTEX_POINT('',#1013);
#540=VERTEX_POINT('',#1018);
#541=VERTEX_POINT('',#1020);
#542=VERTEX_POINT('',#1027);
#543=VERTEX_POINT('',#1032);
#544=VERTEX_POINT('',#1034);
#545=VERTEX_POINT('',#1047);
#546=VERTEX_POINT('',#1048);
#547=VERTEX_POINT('',#1050);
#548=VERTEX_POINT('',#1052);
#549=VERTEX_POINT('',#1059);
#550=VERTEX_POINT('',#1064);
#551=VERTEX_POINT('',#1070);
#552=VERTEX_POINT('',#1072);
#553=VERTEX_POINT('',#1077);
#554=VERTEX_POINT('',#1082);
#555=VERTEX_POINT('',#1089);
#556=VERTEX_POINT('',#1090);
#557=VERTEX_POINT('',#1104);
#558=VERTEX_POINT('',#1105);
#559=VERTEX_POINT('',#1107);
#560=VERTEX_POINT('',#1109);
#561=VERTEX_POINT('',#1119);
#562=VERTEX_POINT('',#1120);
#563=VERTEX_POINT('',#1122);
#564=VERTEX_POINT('',#1124);
#565=VERTEX_POINT('',#1128);
#566=VERTEX_POINT('',#1129);
#567=VERTEX_POINT('',#1134);
#568=VERTEX_POINT('',#1139);
#569=VERTEX_POINT('',#1148);
#570=VERTEX_POINT('',#1153);
#571=VERTEX_POINT('',#1161);
#572=VERTEX_POINT('',#1162);
#573=VERTEX_POINT('',#1173);
#574=VERTEX_POINT('',#1174);
#575=VERTEX_POINT('',#1176);
#576=VERTEX_POINT('',#1181);
#577=VERTEX_POINT('',#1191);
#578=VERTEX_POINT('',#1192);
#579=VERTEX_POINT('',#1194);
#580=VERTEX_POINT('',#1196);
#581=VERTEX_POINT('',#1203);
#582=VERTEX_POINT('',#1208);
#583=VERTEX_POINT('',#1214);
#584=VERTEX_POINT('',#1216);
#585=VERTEX_POINT('',#1221);
#586=VERTEX_POINT('',#1226);
#587=VERTEX_POINT('',#1233);
#588=VERTEX_POINT('',#1234);
#589=VERTEX_POINT('',#1245);
#590=VERTEX_POINT('',#1246);
#591=VERTEX_POINT('',#1248);
#592=VERTEX_POINT('',#1253);
#593=VERTEX_POINT('',#1263);
#594=VERTEX_POINT('',#1264);
#595=VERTEX_POINT('',#1266);
#596=VERTEX_POINT('',#1268);
#597=VERTEX_POINT('',#1272);
#598=VERTEX_POINT('',#1273);
#599=VERTEX_POINT('',#1278);
#600=VERTEX_POINT('',#1283);
#601=VERTEX_POINT('',#1288);
#602=VERTEX_POINT('',#1290);
#603=VERTEX_POINT('',#1295);
#604=VERTEX_POINT('',#1300);
#605=VERTEX_POINT('',#1308);
#606=VERTEX_POINT('',#1309);
#607=VERTEX_POINT('',#1323);
#608=VERTEX_POINT('',#1324);
#609=VERTEX_POINT('',#1326);
#610=VERTEX_POINT('',#1328);
#611=VERTEX_POINT('',#1342);
#612=VERTEX_POINT('',#1417);
#613=VERTEX_POINT('',#1420);
#614=CIRCLE('',#809,0.003);
#615=CIRCLE('',#810,0.004);
#616=CIRCLE('',#812,0.003);
#617=CIRCLE('',#813,0.004);
#618=CIRCLE('',#815,0.003);
#619=CIRCLE('',#816,0.004);
#620=CIRCLE('',#819,0.004);
#621=CIRCLE('',#824,0.004);
#622=CIRCLE('',#829,0.004);
#623=CIRCLE('',#834,0.004);
#624=CIRCLE('',#835,0.004);
#625=CIRCLE('',#839,0.003);
#626=CIRCLE('',#841,0.00165);
#627=CIRCLE('',#843,0.003);
#628=CIRCLE('',#845,0.00165);
#629=EDGE_LOOP('',(#178,#179,#180,#181));
#630=EDGE_LOOP('',(#182,#183,#184,#185));
#631=EDGE_LOOP('',(#186,#187,#188,#189));
#632=EDGE_LOOP('',(#190,#191,#192,#193));
#633=EDGE_LOOP('',(#194,#195,#196,#197,#198,#199,#200,#201,#202,#203));
#634=EDGE_LOOP('',(#204,#205,#206,#207));
#635=EDGE_LOOP('',(#208,#209,#210,#211));
#636=EDGE_LOOP('',(#212,#213,#214,#215));
#637=EDGE_LOOP('',(#216,#217,#218,#219,#220,#221,#222,#223,#224,#225));
#638=EDGE_LOOP('',(#226,#227,#228,#229));
#639=EDGE_LOOP('',(#230,#231,#232,#233));
#640=EDGE_LOOP('',(#234,#235,#236,#237));
#641=EDGE_LOOP('',(#238,#239,#240,#241,#242,#243,#244,#245,#246,#247));
#642=EDGE_LOOP('',(#248,#249,#250,#251));
#643=EDGE_LOOP('',(#252,#253,#254,#255));
#644=EDGE_LOOP('',(#256,#257,#258,#259));
#645=EDGE_LOOP('',(#260,#261,#262,#263,#264,#265,#266,#267,#268,#269));
#646=EDGE_LOOP('',(#270,#271,#272,#273));
#647=EDGE_LOOP('',(#274,#275,#276,#277));
#648=EDGE_LOOP('',(#278,#279,#280,#281));
#649=EDGE_LOOP('',(#282));
#650=EDGE_LOOP('',(#283,#284,#285,#286,#287,#288,#289,#290,#291,#292,#293,
#294,#295,#296,#297,#298,#299,#300,#301,#302,#303,#304,#305,#306));
#651=EDGE_LOOP('',(#307,#308,#309,#310,#311,#312,#313,#314,#315));
#652=EDGE_LOOP('',(#316,#317,#318,#319,#320,#321,#322,#323,#324));
#653=EDGE_LOOP('',(#325,#326,#327,#328,#329,#330,#331,#332,#333));
#654=EDGE_LOOP('',(#334,#335,#336,#337,#338,#339,#340,#341,#342));
#655=EDGE_LOOP('',(#343));
#656=EDGE_LOOP('',(#344,#345,#346,#347));
#657=EDGE_LOOP('',(#348));
#658=EDGE_LOOP('',(#349));
#659=EDGE_LOOP('',(#350));
#660=EDGE_LOOP('',(#351));
#661=EDGE_LOOP('',(#352,#353,#354,#355));
#662=EDGE_LOOP('',(#356,#357,#358,#359));
#663=EDGE_LOOP('',(#360,#361,#362,#363));
#664=EDGE_LOOP('',(#364,#365,#366,#367));
#665=EDGE_LOOP('',(#368,#369,#370,#371));
#666=EDGE_LOOP('',(#372,#373,#374,#375));
#667=EDGE_LOOP('',(#376,#377,#378,#379));
#668=EDGE_LOOP('',(#380,#381,#382,#383));
#669=EDGE_LOOP('',(#384,#385,#386,#387));
#670=EDGE_LOOP('',(#388,#389,#390,#391));
#671=EDGE_LOOP('',(#392,#393,#394,#395));
#672=EDGE_LOOP('',(#396,#397,#398,#399));
#673=EDGE_LOOP('',(#400,#401,#402,#403));
#674=EDGE_LOOP('',(#404,#405,#406,#407));
#675=EDGE_LOOP('',(#408,#409,#410,#411));
#676=EDGE_LOOP('',(#412,#413,#414,#415));
#677=FACE_BOUND('',#629,.T.);
#678=FACE_BOUND('',#630,.T.);
#679=FACE_BOUND('',#631,.T.);
#680=FACE_BOUND('',#632,.T.);
#681=FACE_BOUND('',#633,.T.);
#682=FACE_BOUND('',#634,.T.);
#683=FACE_BOUND('',#635,.T.);
#684=FACE_BOUND('',#636,.T.);
#685=FACE_BOUND('',#637,.T.);
#686=FACE_BOUND('',#638,.T.);
#687=FACE_BOUND('',#639,.T.);
#688=FACE_BOUND('',#640,.T.);
#689=FACE_BOUND('',#641,.T.);
#690=FACE_BOUND('',#642,.T.);
#691=FACE_BOUND('',#643,.T.);
#692=FACE_BOUND('',#644,.T.);
#693=FACE_BOUND('',#645,.T.);
#694=FACE_BOUND('',#646,.T.);
#695=FACE_BOUND('',#647,.T.);
#696=FACE_BOUND('',#648,.T.);
#697=FACE_BOUND('',#649,.T.);
#698=FACE_BOUND('',#650,.T.);
#699=FACE_BOUND('',#651,.T.);
#700=FACE_BOUND('',#652,.T.);
#701=FACE_BOUND('',#653,.T.);
#702=FACE_BOUND('',#654,.T.);
#703=FACE_BOUND('',#655,.T.);
#704=FACE_BOUND('',#656,.T.);
#705=FACE_BOUND('',#657,.T.);
#706=FACE_BOUND('',#658,.T.);
#707=FACE_BOUND('',#659,.T.);
#708=FACE_BOUND('',#660,.T.);
#709=FACE_BOUND('',#661,.T.);
#710=FACE_BOUND('',#662,.T.);
#711=FACE_BOUND('',#663,.T.);
#712=FACE_BOUND('',#664,.T.);
#713=FACE_BOUND('',#665,.T.);
#714=FACE_BOUND('',#666,.T.);
#715=FACE_BOUND('',#667,.T.);
#716=FACE_BOUND('',#668,.T.);
#717=FACE_BOUND('',#669,.T.);
#718=FACE_BOUND('',#670,.T.);
#719=FACE_BOUND('',#671,.T.);
#720=FACE_BOUND('',#672,.T.);
#721=FACE_BOUND('',#673,.T.);
#722=FACE_BOUND('',#674,.T.);
#723=FACE_BOUND('',#675,.T.);
#724=FACE_BOUND('',#676,.T.);
#725=PLANE('',#808);
#726=PLANE('',#811);
#727=PLANE('',#814);
#728=PLANE('',#817);
#729=PLANE('',#820);
#730=PLANE('',#821);
#731=PLANE('',#822);
#732=PLANE('',#825);
#733=PLANE('',#826);
#734=PLANE('',#827);
#735=PLANE('',#830);
#736=PLANE('',#831);
#737=PLANE('',#832);
#738=PLANE('',#836);
#739=PLANE('',#837);
#740=PLANE('',#838);
#741=PLANE('',#840);
#742=PLANE('',#844);
#743=PLANE('',#847);
#744=PLANE('',#848);
#745=PLANE('',#849);
#746=PLANE('',#850);
#747=PLANE('',#851);
#748=PLANE('',#852);
#749=PLANE('',#853);
#750=PLANE('',#854);
#751=ADVANCED_FACE('',(#677),#725,.T.);
#752=ADVANCED_FACE('',(#678),#726,.T.);
#753=ADVANCED_FACE('',(#679),#727,.T.);
#754=ADVANCED_FACE('',(#680),#728,.T.);
#755=ADVANCED_FACE('',(#681),#24,.T.);
#756=ADVANCED_FACE('',(#682),#729,.T.);
#757=ADVANCED_FACE('',(#683),#730,.T.);
#758=ADVANCED_FACE('',(#684),#731,.F.);
#759=ADVANCED_FACE('',(#685),#25,.T.);
#760=ADVANCED_FACE('',(#686),#732,.T.);
#761=ADVANCED_FACE('',(#687),#733,.F.);
#762=ADVANCED_FACE('',(#688),#734,.F.);
#763=ADVANCED_FACE('',(#689),#26,.T.);
#764=ADVANCED_FACE('',(#690),#735,.F.);
#765=ADVANCED_FACE('',(#691),#736,.F.);
#766=ADVANCED_FACE('',(#692),#737,.T.);
#767=ADVANCED_FACE('',(#693),#27,.T.);
#768=ADVANCED_FACE('',(#694),#738,.F.);
#769=ADVANCED_FACE('',(#695),#739,.T.);
#770=ADVANCED_FACE('',(#696),#740,.T.);
#771=ADVANCED_FACE('',(#697,#698),#741,.F.);
#772=ADVANCED_FACE('',(#699),#12,.T.);
#773=ADVANCED_FACE('',(#700),#13,.T.);
#774=ADVANCED_FACE('',(#701),#14,.T.);
#775=ADVANCED_FACE('',(#702),#15,.T.);
#776=ADVANCED_FACE('',(#703,#704),#28,.F.);
#777=ADVANCED_FACE('',(#705,#706),#742,.T.);
#778=ADVANCED_FACE('',(#707,#708),#29,.F.);
#779=ADVANCED_FACE('',(#709),#743,.T.);
#780=ADVANCED_FACE('',(#710),#16,.T.);
#781=ADVANCED_FACE('',(#711),#17,.T.);
#782=ADVANCED_FACE('',(#712),#744,.F.);
#783=ADVANCED_FACE('',(#713),#18,.T.);
#784=ADVANCED_FACE('',(#714),#745,.F.);
#785=ADVANCED_FACE('',(#715),#746,.T.);
#786=ADVANCED_FACE('',(#716),#19,.T.);
#787=ADVANCED_FACE('',(#717),#20,.T.);
#788=ADVANCED_FACE('',(#718),#747,.T.);
#789=ADVANCED_FACE('',(#719),#748,.F.);
#790=ADVANCED_FACE('',(#720),#21,.T.);
#791=ADVANCED_FACE('',(#721),#749,.F.);
#792=ADVANCED_FACE('',(#722),#22,.T.);
#793=ADVANCED_FACE('',(#723),#23,.T.);
#794=ADVANCED_FACE('',(#724),#750,.T.);
#795=CLOSED_SHELL('',(#751,#752,#753,#754,#755,#756,#757,#758,#759,#760,
#761,#762,#763,#764,#765,#766,#767,#768,#769,#770,#771,#772,#773,#774,#775,
#776,#777,#778,#779,#780,#781,#782,#783,#784,#785,#786,#787,#788,#789,#790,
#791,#792,#793,#794));
#796=STYLED_ITEM('',(#797),#804);
#797=PRESENTATION_STYLE_ASSIGNMENT((#798));
#798=SURFACE_STYLE_USAGE(.BOTH.,#799);
#799=SURFACE_SIDE_STYLE('',(#800));
#800=SURFACE_STYLE_FILL_AREA(#801);
#801=FILL_AREA_STYLE('',(#802));
#802=FILL_AREA_STYLE_COLOUR('',#803);
#803=COLOUR_RGB('',0.615686274509804,0.811764705882353,0.929411764705882);
#804=MANIFOLD_SOLID_BREP('Part 1',#795);
#805=SHAPE_DEFINITION_REPRESENTATION(#1628,#806);
#806=SHAPE_REPRESENTATION('Part 1',(#807),#1623);
#807=AXIS2_PLACEMENT_3D('',#995,#855,#856);
#808=AXIS2_PLACEMENT_3D('',#996,#857,#858);
#809=AXIS2_PLACEMENT_3D('',#997,#859,#860);
#810=AXIS2_PLACEMENT_3D('',#1005,#861,#862);
#811=AXIS2_PLACEMENT_3D('',#1011,#863,#864);
#812=AXIS2_PLACEMENT_3D('',#1012,#865,#866);
#813=AXIS2_PLACEMENT_3D('',#1019,#867,#868);
#814=AXIS2_PLACEMENT_3D('',#1025,#869,#870);
#815=AXIS2_PLACEMENT_3D('',#1026,#871,#872);
#816=AXIS2_PLACEMENT_3D('',#1033,#873,#874);
#817=AXIS2_PLACEMENT_3D('',#1039,#875,#876);
#818=AXIS2_PLACEMENT_3D('',#1054,#880,#881);
#819=AXIS2_PLACEMENT_3D('',#1069,#882,#883);
#820=AXIS2_PLACEMENT_3D('',#1087,#885,#886);
#821=AXIS2_PLACEMENT_3D('',#1099,#889,#890);
#822=AXIS2_PLACEMENT_3D('',#1111,#894,#895);
#823=AXIS2_PLACEMENT_3D('',#1126,#899,#900);
#824=AXIS2_PLACEMENT_3D('',#1158,#902,#903);
#825=AXIS2_PLACEMENT_3D('',#1159,#904,#905);
#826=AXIS2_PLACEMENT_3D('',#1171,#908,#909);
#827=AXIS2_PLACEMENT_3D('',#1183,#913,#914);
#828=AXIS2_PLACEMENT_3D('',#1198,#918,#919);
#829=AXIS2_PLACEMENT_3D('',#1213,#920,#921);
#830=AXIS2_PLACEMENT_3D('',#1231,#923,#924);
#831=AXIS2_PLACEMENT_3D('',#1243,#927,#928);
#832=AXIS2_PLACEMENT_3D('',#1255,#932,#933);
#833=AXIS2_PLACEMENT_3D('',#1270,#937,#938);
#834=AXIS2_PLACEMENT_3D('',#1289,#940,#941);
#835=AXIS2_PLACEMENT_3D('',#1305,#942,#943);
#836=AXIS2_PLACEMENT_3D('',#1306,#944,#945);
#837=AXIS2_PLACEMENT_3D('',#1318,#948,#949);
#838=AXIS2_PLACEMENT_3D('',#1330,#953,#954);
#839=AXIS2_PLACEMENT_3D('',#1331,#955,#956);
#840=AXIS2_PLACEMENT_3D('',#1340,#957,#958);
#841=AXIS2_PLACEMENT_3D('',#1341,#959,#960);
#842=AXIS2_PLACEMENT_3D('',#1415,#969,#970);
#843=AXIS2_PLACEMENT_3D('',#1416,#971,#972);
#844=AXIS2_PLACEMENT_3D('',#1418,#973,#974);
#845=AXIS2_PLACEMENT_3D('',#1419,#975,#976);
#846=AXIS2_PLACEMENT_3D('',#1421,#977,#978);
#847=AXIS2_PLACEMENT_3D('',#1422,#979,#980);
#848=AXIS2_PLACEMENT_3D('',#1471,#981,#982);
#849=AXIS2_PLACEMENT_3D('',#1496,#983,#984);
#850=AXIS2_PLACEMENT_3D('',#1497,#985,#986);
#851=AXIS2_PLACEMENT_3D('',#1546,#987,#988);
#852=AXIS2_PLACEMENT_3D('',#1547,#989,#990);
#853=AXIS2_PLACEMENT_3D('',#1572,#991,#992);
#854=AXIS2_PLACEMENT_3D('',#1621,#993,#994);
#855=DIRECTION('',(0.,0.,1.));
#856=DIRECTION('',(1.,0.,0.));
#857=DIRECTION('',(0.,0.,1.));
#858=DIRECTION('',(1.,0.,0.));
#859=DIRECTION('',(0.,0.,1.));
#860=DIRECTION('',(1.,0.,0.));
#861=DIRECTION('',(0.,0.,1.));
#862=DIRECTION('',(1.,0.,0.));
#863=DIRECTION('',(0.,0.,1.));
#864=DIRECTION('',(1.,0.,0.));
#865=DIRECTION('',(0.,0.,1.));
#866=DIRECTION('',(1.,0.,0.));
#867=DIRECTION('',(0.,0.,1.));
#868=DIRECTION('',(1.,0.,0.));
#869=DIRECTION('',(0.,0.,1.));
#870=DIRECTION('',(1.,0.,0.));
#871=DIRECTION('',(0.,0.,1.));
#872=DIRECTION('',(1.,0.,0.));
#873=DIRECTION('',(0.,0.,1.));
#874=DIRECTION('',(1.,0.,0.));
#875=DIRECTION('',(0.,1.,0.));
#876=DIRECTION('',(0.,0.,1.));
#877=DIRECTION('',(0.,0.,-1.));
#878=DIRECTION('',(1.,0.,0.));
#879=DIRECTION('',(0.,0.,-1.));
#880=DIRECTION('',(0.,0.,-1.));
#881=DIRECTION('',(-1.,0.,0.));
#882=DIRECTION('',(0.,0.,1.));
#883=DIRECTION('',(1.,0.,0.));
#884=DIRECTION('',(0.,0.,-1.));
#885=DIRECTION('',(1.,-1.51569512066035E-16,0.));
#886=DIRECTION('',(1.51569512066035E-16,1.,0.));
#887=DIRECTION('',(0.,0.,1.));
#888=DIRECTION('',(-1.51569512066035E-16,-1.,0.));
#889=DIRECTION('',(0.,1.,0.));
#890=DIRECTION('',(0.,0.,1.));
#891=DIRECTION('',(0.,0.,-1.));
#892=DIRECTION('',(1.,0.,0.));
#893=DIRECTION('',(0.,0.,1.));
#894=DIRECTION('',(1.,-1.51569512066035E-16,0.));
#895=DIRECTION('',(1.51569512066035E-16,1.,0.));
#896=DIRECTION('',(0.,0.,-1.));
#897=DIRECTION('',(-1.51569512066035E-16,-1.,0.));
#898=DIRECTION('',(0.,0.,-1.));
#899=DIRECTION('',(0.,0.,-1.));
#900=DIRECTION('',(-1.,0.,0.));
#901=DIRECTION('',(0.,0.,-1.));
#902=DIRECTION('',(0.,0.,1.));
#903=DIRECTION('',(1.,0.,0.));
#904=DIRECTION('',(0.,1.,0.));
#905=DIRECTION('',(0.,0.,1.));
#906=DIRECTION('',(0.,0.,1.));
#907=DIRECTION('',(1.,0.,0.));
#908=DIRECTION('',(1.,0.,0.));
#909=DIRECTION('',(0.,0.,-1.));
#910=DIRECTION('',(0.,-1.,0.));
#911=DIRECTION('',(0.,0.,1.));
#912=DIRECTION('',(0.,0.,-1.));
#913=DIRECTION('',(0.,1.,0.));
#914=DIRECTION('',(0.,0.,1.));
#915=DIRECTION('',(0.,0.,-1.));
#916=DIRECTION('',(1.,0.,0.));
#917=DIRECTION('',(0.,0.,-1.));
#918=DIRECTION('',(0.,0.,-1.));
#919=DIRECTION('',(-1.,0.,0.));
#920=DIRECTION('',(0.,0.,1.));
#921=DIRECTION('',(1.,0.,0.));
#922=DIRECTION('',(0.,0.,-1.));
#923=DIRECTION('',(1.,-1.51569512066035E-16,0.));
#924=DIRECTION('',(1.51569512066035E-16,1.,0.));
#925=DIRECTION('',(0.,0.,1.));
#926=DIRECTION('',(-1.51569512066035E-16,-1.,0.));
#927=DIRECTION('',(0.,1.,0.));
#928=DIRECTION('',(0.,0.,1.));
#929=DIRECTION('',(1.,0.,0.));
#930=DIRECTION('',(0.,0.,1.));
#931=DIRECTION('',(0.,0.,-1.));
#932=DIRECTION('',(1.,-1.51569512066035E-16,0.));
#933=DIRECTION('',(1.51569512066035E-16,1.,0.));
#934=DIRECTION('',(0.,0.,-1.));
#935=DIRECTION('',(-1.51569512066035E-16,-1.,0.));
#936=DIRECTION('',(0.,0.,-1.));
#937=DIRECTION('',(0.,0.,-1.));
#938=DIRECTION('',(-1.,0.,0.));
#939=DIRECTION('',(0.,0.,-1.));
#940=DIRECTION('',(0.,0.,1.));
#941=DIRECTION('',(1.,0.,0.));
#942=DIRECTION('',(0.,0.,1.));
#943=DIRECTION('',(1.,0.,0.));
#944=DIRECTION('',(0.,1.,0.));
#945=DIRECTION('',(0.,0.,1.));
#946=DIRECTION('',(0.,0.,1.));
#947=DIRECTION('',(1.,0.,0.));
#948=DIRECTION('',(1.,0.,0.));
#949=DIRECTION('',(0.,0.,-1.));
#950=DIRECTION('',(0.,0.,-1.));
#951=DIRECTION('',(0.,-1.,0.));
#952=DIRECTION('',(0.,0.,1.));
#953=DIRECTION('',(0.,0.,1.));
#954=DIRECTION('',(1.,0.,0.));
#955=DIRECTION('',(0.,0.,1.));
#956=DIRECTION('',(1.,0.,0.));
#957=DIRECTION('',(0.,0.,1.));
#958=DIRECTION('',(1.,0.,0.));
#959=DIRECTION('',(0.,0.,1.));
#960=DIRECTION('',(1.,0.,0.));
#961=DIRECTION('',(-0.707106781186548,-0.707106781186548,0.));
#962=DIRECTION('',(-0.707106781186547,-0.707106781186548,0.));
#963=DIRECTION('',(0.707106781186548,-0.707106781186548,0.));
#964=DIRECTION('',(0.707106781186548,-0.707106781186548,0.));
#965=DIRECTION('',(0.707106781186548,0.707106781186548,0.));
#966=DIRECTION('',(0.707106781186548,0.707106781186548,0.));
#967=DIRECTION('',(-0.707106781186548,0.707106781186548,0.));
#968=DIRECTION('',(-0.707106781186548,0.707106781186548,0.));
#969=DIRECTION('',(0.,0.,1.));
#970=DIRECTION('',(1.,0.,0.));
#971=DIRECTION('',(0.,0.,1.));
#972=DIRECTION('',(1.,0.,0.));
#973=DIRECTION('',(0.,0.,1.));
#974=DIRECTION('',(1.,0.,0.));
#975=DIRECTION('',(0.,0.,1.));
#976=DIRECTION('',(1.,0.,0.));
#977=DIRECTION('',(0.,0.,1.));
#978=DIRECTION('',(1.,0.,0.));
#979=DIRECTION('',(0.707106781186548,-0.707106781186548,0.));
#980=DIRECTION('',(0.,0.,1.));
#981=DIRECTION('',(-0.707106781186548,-0.707106781186548,0.));
#982=DIRECTION('',(0.,0.,-1.));
#983=DIRECTION('',(0.707106781186548,0.707106781186548,0.));
#984=DIRECTION('',(0.,0.,-1.));
#985=DIRECTION('',(-0.707106781186548,0.707106781186548,0.));
#986=DIRECTION('',(0.,0.,1.));
#987=DIRECTION('',(0.707106781186548,-0.707106781186547,0.));
#988=DIRECTION('',(0.,0.,1.));
#989=DIRECTION('',(0.707106781186548,0.707106781186548,0.));
#990=DIRECTION('',(0.,0.,-1.));
#991=DIRECTION('',(-0.707106781186548,-0.707106781186548,0.));
#992=DIRECTION('',(0.,0.,-1.));
#993=DIRECTION('',(-0.707106781186548,0.707106781186548,0.));
#994=DIRECTION('',(0.,0.,1.));
#995=CARTESIAN_POINT('',(0.,0.,0.));
#996=CARTESIAN_POINT('',(0.,0.,0.02));
#997=CARTESIAN_POINT('',(0.,1.83697019872103E-19,0.02));
#998=CARTESIAN_POINT('',(0.003,-9.26066833299457E-19,0.02));
#999=CARTESIAN_POINT('',(4.87890977618477E-19,0.003,0.02));
#1000=CARTESIAN_POINT('',(0.003,-1.0842021724855E-18,0.02));
#1001=CARTESIAN_POINT('',(0.003,0.000881917103688196,0.02));
#1002=CARTESIAN_POINT('',(0.003,0.00176383420737639,0.02));
#1003=CARTESIAN_POINT('',(0.003,0.00264575131106459,0.02));
#1004=CARTESIAN_POINT('',(0.003,0.00264575131106459,0.02));
#1005=CARTESIAN_POINT('',(2.38524477946811E-18,3.46944695195361E-18,0.02));
#1006=CARTESIAN_POINT('',(0.00264575131106459,0.003,0.02));
#1007=CARTESIAN_POINT('',(0.00264575131106459,0.003,0.02));
#1008=CARTESIAN_POINT('',(0.00176383420737639,0.003,0.02));
#1009=CARTESIAN_POINT('',(0.000881917103688197,0.003,0.02));
#1010=CARTESIAN_POINT('',(0.,0.003,0.02));
#1011=CARTESIAN_POINT('',(0.,0.,0.02));
#1012=CARTESIAN_POINT('',(0.,1.83697019872103E-19,0.02));
#1013=CARTESIAN_POINT('',(-0.003,1.0842021724855E-19,0.02));
#1014=CARTESIAN_POINT('',(0.,0.003,0.02));
#1015=CARTESIAN_POINT('',(-0.000881917103688197,0.003,0.02));
#1016=CARTESIAN_POINT('',(-0.00176383420737639,0.003,0.02));
#1017=CARTESIAN_POINT('',(-0.00264575131106459,0.003,0.02));
#1018=CARTESIAN_POINT('',(-0.00264575131106459,0.003,0.02));
#1019=CARTESIAN_POINT('',(-2.92734586571086E-18,3.68628738645072E-18,0.02));
#1020=CARTESIAN_POINT('',(-0.003,0.00264575131106459,0.02));
#1021=CARTESIAN_POINT('',(-0.003,0.00264575131106459,0.02));
#1022=CARTESIAN_POINT('',(-0.003,0.00176383420737639,0.02));
#1023=CARTESIAN_POINT('',(-0.003,0.000881917103688197,0.02));
#1024=CARTESIAN_POINT('',(-0.003,0.,0.02));
#1025=CARTESIAN_POINT('',(0.,0.,0.02));
#1026=CARTESIAN_POINT('',(0.,1.83697019872103E-19,0.02));
#1027=CARTESIAN_POINT('',(-1.15711476858515E-16,-0.003,0.02));
#1028=CARTESIAN_POINT('',(-0.003,0.,0.02));
#1029=CARTESIAN_POINT('',(-0.003,-0.000881917103688197,0.02));
#1030=CARTESIAN_POINT('',(-0.003,-0.00176383420737639,0.02));
#1031=CARTESIAN_POINT('',(-0.003,-0.00264575131106459,0.02));
#1032=CARTESIAN_POINT('',(-0.003,-0.00264575131106459,0.02));
#1033=CARTESIAN_POINT('',(-1.7347234759768E-18,-2.92734586571086E-18,0.02));
#1034=CARTESIAN_POINT('',(-0.00264575131106459,-0.003,0.02));
#1035=CARTESIAN_POINT('',(-0.00264575131106459,-0.003,0.02));
#1036=CARTESIAN_POINT('',(-0.00176383420737643,-0.003,0.02));
#1037=CARTESIAN_POINT('',(-0.000881917103688273,-0.003,0.02));
#1038=CARTESIAN_POINT('',(-1.15359111152458E-16,-0.003,0.02));
#1039=CARTESIAN_POINT('',(0.00585404962177392,0.0015,0.02));
#1040=CARTESIAN_POINT('',(0.00370809924354788,0.0015,0.018969027688469));
#1041=CARTESIAN_POINT('',(0.00430461631541117,0.0015,0.01891454738794));
#1042=CARTESIAN_POINT('',(0.00532785415749589,0.0015,0.0186672429566629));
#1043=CARTESIAN_POINT('',(0.00635920630175184,0.0015,0.0178311899556411));
#1044=CARTESIAN_POINT('',(0.00686940096897315,0.0015,0.0166802351908589));
#1045=CARTESIAN_POINT('',(0.00699914528130517,0.0015,0.0156058604841501));
#1046=CARTESIAN_POINT('',(0.007,0.0015,0.015));
#1047=CARTESIAN_POINT('',(0.00370808318032453,0.0015,0.0189690291554958));
#1048=CARTESIAN_POINT('',(0.007,0.0015,0.015));
#1049=CARTESIAN_POINT('',(0.007,0.0015,0.02));
#1050=CARTESIAN_POINT('',(0.007,0.0015,0.));
#1051=CARTESIAN_POINT('',(0.00585404962177392,0.0015,0.));
#1052=CARTESIAN_POINT('',(0.00370809924354783,0.0015,0.));
#1053=CARTESIAN_POINT('',(0.00370809924354783,0.0015,0.02));
#1054=CARTESIAN_POINT('',(2.38524477946811E-18,3.46944695195361E-18,0.02));
#1055=CARTESIAN_POINT('',(0.00300000000000001,0.00264575131106459,0.02));
#1056=CARTESIAN_POINT('',(0.0031963342627637,0.00242312918258719,0.02));
#1057=CARTESIAN_POINT('',(0.00348107283446876,0.00206122430384767,0.0199909933278964));
#1058=CARTESIAN_POINT('',(0.00370809924354783,0.0015,0.0199729799836892));
#1059=CARTESIAN_POINT('',(0.00370809924354783,0.0015,0.0199729799836892));
#1060=CARTESIAN_POINT('',(0.00370809924354783,0.0015,0.0199729799836892));
#1061=CARTESIAN_POINT('',(0.00383763370978617,0.00117978222915217,0.0199646221509696));
#1062=CARTESIAN_POINT('',(0.00392544880203988,0.000842716026472794,0.01995626431825));
#1063=CARTESIAN_POINT('',(0.00396862696117144,0.00050000004306319,0.0199479064855304));
#1064=CARTESIAN_POINT('',(0.00396862693022359,0.000500000288703891,0.019947535023372));
#1065=CARTESIAN_POINT('',(0.00396862689927576,0.000500000534344595,0.0199471635612137));
#1066=CARTESIAN_POINT('',(0.00392628075421179,0.000836112275908649,0.0196138150629418));
#1067=CARTESIAN_POINT('',(0.00384082281656702,0.00117189916225632,0.0192862735814307));
#1068=CARTESIAN_POINT('',(0.00370809826443688,0.00150000242042479,0.0189690253481219));
#1069=CARTESIAN_POINT('',(2.38524477946811E-18,3.46944695195361E-18,0.));
#1070=CARTESIAN_POINT('',(0.0015,0.00370809924354783,0.));
#1071=CARTESIAN_POINT('',(0.0015,0.00370809924354783,0.02));
#1072=CARTESIAN_POINT('',(0.0015,0.00370809924354783,0.018969027688469));
#1073=CARTESIAN_POINT('',(0.0015,0.00370809924354783,0.018969027688469));
#1074=CARTESIAN_POINT('',(0.00117189775975546,0.00384082313469588,0.0192862749486245));
#1075=CARTESIAN_POINT('',(0.000836111228095943,0.00392628088622449,0.0196138161021402));
#1076=CARTESIAN_POINT('',(0.00050000053434471,0.00396862689927632,0.0199471635612136));
#1077=CARTESIAN_POINT('',(0.0005,0.00396858496842233,0.0199475400822502));
#1078=CARTESIAN_POINT('',(0.000500000043063189,0.00396862696117144,0.0199479064855304));
#1079=CARTESIAN_POINT('',(0.000842716026472794,0.00392544880203988,0.01995626431825));
#1080=CARTESIAN_POINT('',(0.00117978222915217,0.00383763370978617,0.0199646221509696));
#1081=CARTESIAN_POINT('',(0.0015,0.00370809924354784,0.0199729799836892));
#1082=CARTESIAN_POINT('',(0.0015,0.00370809924354783,0.0199729799836892));
#1083=CARTESIAN_POINT('',(0.0015,0.00370809924354784,0.0199729799836892));
#1084=CARTESIAN_POINT('',(0.00206122430384753,0.00348107283446882,0.0199909933278964));
#1085=CARTESIAN_POINT('',(0.00242312918258708,0.00319633426276379,0.02));
#1086=CARTESIAN_POINT('',(0.0026457513110646,0.003,0.02));
#1087=CARTESIAN_POINT('',(0.0015,0.00585404962177392,0.02));
#1088=CARTESIAN_POINT('',(0.0015,0.007,0.02));
#1089=CARTESIAN_POINT('',(0.0015,0.007,0.));
#1090=CARTESIAN_POINT('',(0.0015,0.007,0.015));
#1091=CARTESIAN_POINT('',(0.0015,0.007,0.015));
#1092=CARTESIAN_POINT('',(0.0015,0.00699914579525786,0.0156054961729147));
#1093=CARTESIAN_POINT('',(0.0015,0.0068694583053374,0.0166793843407469));
#1094=CARTESIAN_POINT('',(0.0015,0.0063590094791221,0.0178314355967675));
#1095=CARTESIAN_POINT('',(0.0015,0.00532858411165057,0.0186671112422693));
#1096=CARTESIAN_POINT('',(0.0015,0.00430493071766606,0.0189145186733732));
#1097=CARTESIAN_POINT('',(0.0015,0.00370809924354788,0.018969027688469));
#1098=CARTESIAN_POINT('',(0.0015,0.00585404962177392,0.));
#1099=CARTESIAN_POINT('',(1.51788304147971E-18,0.008,0.02));
#1100=CARTESIAN_POINT('',(-0.0005,0.008,0.015));
#1101=CARTESIAN_POINT('',(-0.000166666666666667,0.008,0.015));
#1102=CARTESIAN_POINT('',(0.000166666666666666,0.008,0.015));
#1103=CARTESIAN_POINT('',(0.0005,0.008,0.015));
#1104=CARTESIAN_POINT('',(-0.0005,0.008,0.015));
#1105=CARTESIAN_POINT('',(0.0005,0.008,0.015));
#1106=CARTESIAN_POINT('',(0.0005,0.008,0.02));
#1107=CARTESIAN_POINT('',(0.0005,0.008,0.));
#1108=CARTESIAN_POINT('',(1.51788304147971E-18,0.008,0.));
#1109=CARTESIAN_POINT('',(-0.0005,0.008,0.));
#1110=CARTESIAN_POINT('',(-0.0005,0.008,0.015));
#1111=CARTESIAN_POINT('',(-0.0015,0.00585404962177392,0.02));
#1112=CARTESIAN_POINT('',(-0.0015,0.00370809924354788,0.018969027688469));
#1113=CARTESIAN_POINT('',(-0.0015,0.00430461631541117,0.01891454738794));
#1114=CARTESIAN_POINT('',(-0.0015,0.00532785415749589,0.0186672429566629));
#1115=CARTESIAN_POINT('',(-0.0015,0.00635920630175184,0.0178311899556411));
#1116=CARTESIAN_POINT('',(-0.0015,0.00686940096897315,0.0166802351908589));
#1117=CARTESIAN_POINT('',(-0.0015,0.00699914528130517,0.0156058604841501));
#1118=CARTESIAN_POINT('',(-0.0015,0.007,0.015));
#1119=CARTESIAN_POINT('',(-0.0015,0.00370808318032453,0.0189690291554958));
#1120=CARTESIAN_POINT('',(-0.0015,0.007,0.015));
#1121=CARTESIAN_POINT('',(-0.0015,0.007,0.));
#1122=CARTESIAN_POINT('',(-0.0015,0.007,0.));
#1123=CARTESIAN_POINT('',(-0.0015,0.00585404962177392,0.));
#1124=CARTESIAN_POINT('',(-0.0015,0.00370809924354783,0.));
#1125=CARTESIAN_POINT('',(-0.0015,0.00370809924354783,0.02));
#1126=CARTESIAN_POINT('',(-2.92734586571086E-18,3.68628738645072E-18,0.02));
#1127=CARTESIAN_POINT('',(-0.00370809924354783,0.0015,0.02));
#1128=CARTESIAN_POINT('',(-0.00370809924354783,0.0015,0.018969027688469));
#1129=CARTESIAN_POINT('',(-0.00370809924354783,0.0015,0.));
#1130=CARTESIAN_POINT('',(-0.00370809924354783,0.0015,0.018969027688469));
#1131=CARTESIAN_POINT('',(-0.00384082313469589,0.00117189775975546,0.0192862749486245));
#1132=CARTESIAN_POINT('',(-0.00392628088622449,0.000836111228095944,0.0196138161021402));
#1133=CARTESIAN_POINT('',(-0.00396862689927632,0.000500000534344707,0.0199471635612136));
#1134=CARTESIAN_POINT('',(-0.00396858496842232,0.0005,0.0199475400822502));
#1135=CARTESIAN_POINT('',(-0.00396862696117144,0.000500000043063191,0.0199479064855304));
#1136=CARTESIAN_POINT('',(-0.00392544880203988,0.000842716026472795,0.01995626431825));
#1137=CARTESIAN_POINT('',(-0.00383763370978617,0.00117978222915217,0.0199646221509696));
#1138=CARTESIAN_POINT('',(-0.00370809924354784,0.0015,0.0199729799836892));
#1139=CARTESIAN_POINT('',(-0.00370809924354783,0.0015,0.0199729799836892));
#1140=CARTESIAN_POINT('',(-0.00370809924354784,0.0015,0.0199729799836892));
#1141=CARTESIAN_POINT('',(-0.00348107283446882,0.00206122430384753,0.0199909933278964));
#1142=CARTESIAN_POINT('',(-0.00319633426276379,0.00242312918258708,0.02));
#1143=CARTESIAN_POINT('',(-0.003,0.0026457513110646,0.02));
#1144=CARTESIAN_POINT('',(-0.00264575131106459,0.003,0.02));
#1145=CARTESIAN_POINT('',(-0.00242312918258713,0.00319633426276375,0.02));
#1146=CARTESIAN_POINT('',(-0.0020612243038476,0.00348107283446879,0.0199909933278964));
#1147=CARTESIAN_POINT('',(-0.0015,0.00370809924354784,0.0199729799836892));
#1148=CARTESIAN_POINT('',(-0.0015,0.00370809924354783,0.0199729799836892));
#1149=CARTESIAN_POINT('',(-0.0015,0.00370809924354784,0.0199729799836893));
#1150=CARTESIAN_POINT('',(-0.00117978222915217,0.00383763370978617,0.0199646221509696));
#1151=CARTESIAN_POINT('',(-0.00084271602647279,0.00392544880203988,0.01995626431825));
#1152=CARTESIAN_POINT('',(-0.000500000043063182,0.00396862696117144,0.0199479064855304));
#1153=CARTESIAN_POINT('',(-0.000500000288703892,0.00396862693022359,0.019947535023372));
#1154=CARTESIAN_POINT('',(-0.000500000534344599,0.00396862689927576,0.0199471635612137));
#1155=CARTESIAN_POINT('',(-0.000836112275908652,0.00392628075421179,0.0196138150629418));
#1156=CARTESIAN_POINT('',(-0.00117189916225633,0.00384082281656703,0.0192862735814307));
#1157=CARTESIAN_POINT('',(-0.00150000242042479,0.00370809826443688,0.0189690253481219));
#1158=CARTESIAN_POINT('',(-2.92734586571086E-18,3.68628738645072E-18,0.));
#1159=CARTESIAN_POINT('',(-0.00585404962177392,0.0015,0.02));
#1160=CARTESIAN_POINT('',(-0.007,0.0015,0.015));
#1161=CARTESIAN_POINT('',(-0.007,0.0015,0.));
#1162=CARTESIAN_POINT('',(-0.007,0.0015,0.015));
#1163=CARTESIAN_POINT('',(-0.007,0.0015,0.015));
#1164=CARTESIAN_POINT('',(-0.00699914579525785,0.0015,0.0156054961729156));
#1165=CARTESIAN_POINT('',(-0.00686945830533725,0.0015,0.0166793843407492));
#1166=CARTESIAN_POINT('',(-0.00635900947912262,0.0015,0.0178314355967669));
#1167=CARTESIAN_POINT('',(-0.00532858411164868,0.0015,0.0186671112422696));
#1168=CARTESIAN_POINT('',(-0.00430493071766524,0.0015,0.0189145186733733));
#1169=CARTESIAN_POINT('',(-0.00370809924354788,0.0015,0.018969027688469));
#1170=CARTESIAN_POINT('',(-0.00585404962177392,0.0015,0.));
#1171=CARTESIAN_POINT('',(-0.008,0.,0.02));
#1172=CARTESIAN_POINT('',(-0.008,0.,0.));
#1173=CARTESIAN_POINT('',(-0.008,0.0005,0.));
#1174=CARTESIAN_POINT('',(-0.008,-0.0005,0.));
#1175=CARTESIAN_POINT('',(-0.008,-0.0005,0.02));
#1176=CARTESIAN_POINT('',(-0.008,-0.0005,0.015));
#1177=CARTESIAN_POINT('',(-0.008,-0.0005,0.015));
#1178=CARTESIAN_POINT('',(-0.008,-0.000166666666666667,0.015));
#1179=CARTESIAN_POINT('',(-0.008,0.000166666666666666,0.015));
#1180=CARTESIAN_POINT('',(-0.008,0.0005,0.015));
#1181=CARTESIAN_POINT('',(-0.008,0.0005,0.015));
#1182=CARTESIAN_POINT('',(-0.008,0.0005,0.));
#1183=CARTESIAN_POINT('',(-0.00585404962177392,-0.0015,0.02));
#1184=CARTESIAN_POINT('',(-0.00370809924354788,-0.0015,0.018969027688469));
#1185=CARTESIAN_POINT('',(-0.00430461631541228,-0.0015,0.0189145473879399));
#1186=CARTESIAN_POINT('',(-0.00532785415749845,-0.0015,0.0186672429566624));
#1187=CARTESIAN_POINT('',(-0.00635920630175115,-0.0015,0.017831189955642));
#1188=CARTESIAN_POINT('',(-0.00686940096897334,-0.0015,0.0166802351908559));
#1189=CARTESIAN_POINT('',(-0.00699914528130517,-0.0015,0.0156058604841488));
#1190=CARTESIAN_POINT('',(-0.007,-0.0015,0.015));
#1191=CARTESIAN_POINT('',(-0.00370808318032453,-0.0015,0.0189690291554958));
#1192=CARTESIAN_POINT('',(-0.007,-0.0015,0.015));
#1193=CARTESIAN_POINT('',(-0.007,-0.0015,0.02));
#1194=CARTESIAN_POINT('',(-0.007,-0.0015,0.));
#1195=CARTESIAN_POINT('',(-0.00585404962177392,-0.0015,0.));
#1196=CARTESIAN_POINT('',(-0.00370809924354783,-0.0015,0.));
#1197=CARTESIAN_POINT('',(-0.00370809924354783,-0.0015,0.02));
#1198=CARTESIAN_POINT('',(-1.7347234759768E-18,-2.92734586571086E-18,0.02));
#1199=CARTESIAN_POINT('',(-0.003,-0.0026457513110646,0.02));
#1200=CARTESIAN_POINT('',(-0.00319633426276385,-0.00242312918258702,0.02));
#1201=CARTESIAN_POINT('',(-0.00348107283446885,-0.00206122430384745,0.0199909933278964));
#1202=CARTESIAN_POINT('',(-0.00370809924354784,-0.00149999999999999,0.0199729799836893));
#1203=CARTESIAN_POINT('',(-0.00370809924354783,-0.0015,0.0199729799836892));
#1204=CARTESIAN_POINT('',(-0.00370809924354784,-0.00149999999999999,0.0199729799836892));
#1205=CARTESIAN_POINT('',(-0.00383763370978617,-0.00117978222915216,0.0199646221509696));
#1206=CARTESIAN_POINT('',(-0.00392544880203988,-0.000842716026472786,0.01995626431825));
#1207=CARTESIAN_POINT('',(-0.00396862696117144,-0.000500000043063181,0.0199479064855304));
#1208=CARTESIAN_POINT('',(-0.00396862693022359,-0.000500000288703891,0.019947535023372));
#1209=CARTESIAN_POINT('',(-0.00396862689927576,-0.000500000534344596,0.0199471635612137));
#1210=CARTESIAN_POINT('',(-0.00392628075421179,-0.00083611227590865,0.0196138150629418));
#1211=CARTESIAN_POINT('',(-0.00384082281656702,-0.00117189916225633,0.0192862735814307));
#1212=CARTESIAN_POINT('',(-0.00370809826443688,-0.00150000242042479,0.0189690253481219));
#1213=CARTESIAN_POINT('',(-1.7347234759768E-18,-2.92734586571086E-18,0.));
#1214=CARTESIAN_POINT('',(-0.0015,-0.00370809924354783,0.));
#1215=CARTESIAN_POINT('',(-0.0015,-0.00370809924354783,0.02));
#1216=CARTESIAN_POINT('',(-0.0015,-0.00370809924354783,0.018969027688469));
#1217=CARTESIAN_POINT('',(-0.0015,-0.00370809924354784,0.018969027688469));
#1218=CARTESIAN_POINT('',(-0.00117189775975547,-0.00384082313469588,0.0192862749486245));
#1219=CARTESIAN_POINT('',(-0.000836111228095936,-0.00392628088622449,0.0196138161021402));
#1220=CARTESIAN_POINT('',(-0.000500000534344706,-0.00396862689927632,0.0199471635612136));
#1221=CARTESIAN_POINT('',(-0.0005,-0.00396858496842233,0.0199475400822502));
#1222=CARTESIAN_POINT('',(-0.000500000043063196,-0.00396862696117144,0.0199479064855303));
#1223=CARTESIAN_POINT('',(-0.000842716026472799,-0.00392544880203988,0.01995626431825));
#1224=CARTESIAN_POINT('',(-0.00117978222915218,-0.00383763370978617,0.0199646221509696));
#1225=CARTESIAN_POINT('',(-0.0015,-0.00370809924354783,0.0199729799836892));
#1226=CARTESIAN_POINT('',(-0.0015,-0.00370809924354783,0.0199729799836892));
#1227=CARTESIAN_POINT('',(-0.0015,-0.00370809924354783,0.0199729799836892));
#1228=CARTESIAN_POINT('',(-0.00206122430384754,-0.00348107283446881,0.0199909933278964));
#1229=CARTESIAN_POINT('',(-0.00242312918258709,-0.00319633426276379,0.02));
#1230=CARTESIAN_POINT('',(-0.00264575131106461,-0.00299999999999999,0.02));
#1231=CARTESIAN_POINT('',(-0.0015,-0.00585404962177392,0.02));
#1232=CARTESIAN_POINT('',(-0.0015,-0.007,0.02));
#1233=CARTESIAN_POINT('',(-0.0015,-0.007,0.));
#1234=CARTESIAN_POINT('',(-0.0015,-0.007,0.015));
#1235=CARTESIAN_POINT('',(-0.0015,-0.007,0.015));
#1236=CARTESIAN_POINT('',(-0.0015,-0.00699914579525786,0.015605496172915));
#1237=CARTESIAN_POINT('',(-0.0015,-0.00686945830533737,0.0166793843407476));
#1238=CARTESIAN_POINT('',(-0.0015,-0.00635900947912226,0.0178314355967673));
#1239=CARTESIAN_POINT('',(-0.0015,-0.00532858411164996,0.0186671112422694));
#1240=CARTESIAN_POINT('',(-0.0015,-0.0043049307176658,0.0189145186733732));
#1241=CARTESIAN_POINT('',(-0.0015,-0.00370809924354788,0.018969027688469));
#1242=CARTESIAN_POINT('',(-0.0015,-0.00585404962177392,0.));
#1243=CARTESIAN_POINT('',(-1.3010426069826E-18,-0.008,0.02));
#1244=CARTESIAN_POINT('',(-1.3010426069826E-18,-0.008,0.));
#1245=CARTESIAN_POINT('',(-0.0005,-0.008,0.));
#1246=CARTESIAN_POINT('',(0.0005,-0.008,0.));
#1247=CARTESIAN_POINT('',(0.0005,-0.008,0.015));
#1248=CARTESIAN_POINT('',(0.0005,-0.008,0.015));
#1249=CARTESIAN_POINT('',(0.0005,-0.008,0.015));
#1250=CARTESIAN_POINT('',(0.000166666666666667,-0.008,0.015));
#1251=CARTESIAN_POINT('',(-0.000166666666666666,-0.008,0.015));
#1252=CARTESIAN_POINT('',(-0.000499999999999999,-0.008,0.015));
#1253=CARTESIAN_POINT('',(-0.0005,-0.008,0.015));
#1254=CARTESIAN_POINT('',(-0.0005,-0.008,0.02));
#1255=CARTESIAN_POINT('',(0.0015,-0.00585404962177392,0.02));
#1256=CARTESIAN_POINT('',(0.0015,-0.00370809924354788,0.018969027688469));
#1257=CARTESIAN_POINT('',(0.0015,-0.00430461631541283,0.0189145473879399));
#1258=CARTESIAN_POINT('',(0.0015,-0.00532785415749973,0.0186672429566622));
#1259=CARTESIAN_POINT('',(0.0015,-0.0063592063017508,0.0178311899556424));
#1260=CARTESIAN_POINT('',(0.0015,-0.00686940096897344,0.0166802351908544));
#1261=CARTESIAN_POINT('',(0.0015,-0.00699914528130517,0.0156058604841482));
#1262=CARTESIAN_POINT('',(0.0015,-0.007,0.015));
#1263=CARTESIAN_POINT('',(0.0015,-0.00370808318032453,0.0189690291554958));
#1264=CARTESIAN_POINT('',(0.0015,-0.007,0.015));
#1265=CARTESIAN_POINT('',(0.0015,-0.007,0.));
#1266=CARTESIAN_POINT('',(0.0015,-0.007,0.));
#1267=CARTESIAN_POINT('',(0.0015,-0.00585404962177392,0.));
#1268=CARTESIAN_POINT('',(0.0015,-0.00370809924354783,0.));
#1269=CARTESIAN_POINT('',(0.0015,-0.00370809924354783,0.02));
#1270=CARTESIAN_POINT('',(2.60208521396521E-18,-1.95156391047391E-18,0.02));
#1271=CARTESIAN_POINT('',(0.00370809924354783,-0.0015,0.02));
#1272=CARTESIAN_POINT('',(0.00370809924354783,-0.0015,0.018969027688469));
#1273=CARTESIAN_POINT('',(0.00370809924354783,-0.0015,0.));
#1274=CARTESIAN_POINT('',(0.00370809924354783,-0.0015,0.018969027688469));
#1275=CARTESIAN_POINT('',(0.00384082313469589,-0.00117189775975546,0.0192862749486245));
#1276=CARTESIAN_POINT('',(0.00392628088622449,-0.000836111228095943,0.0196138161021402));
#1277=CARTESIAN_POINT('',(0.00396862689927632,-0.000500000534344704,0.0199471635612136));
#1278=CARTESIAN_POINT('',(0.00396858496842232,-0.0005,0.0199475400822502));
#1279=CARTESIAN_POINT('',(0.00396862696117144,-0.000500000043063182,0.0199479064855304));
#1280=CARTESIAN_POINT('',(0.00392544880203988,-0.000842716026472787,0.01995626431825));
#1281=CARTESIAN_POINT('',(0.00383763370978617,-0.00117978222915217,0.0199646221509696));
#1282=CARTESIAN_POINT('',(0.00370809924354784,-0.00149999999999999,0.0199729799836892));
#1283=CARTESIAN_POINT('',(0.00370809924354783,-0.0015,0.0199729799836892));
#1284=CARTESIAN_POINT('',(0.00370809924354784,-0.00149999999999999,0.0199729799836892));
#1285=CARTESIAN_POINT('',(0.00348107283446882,-0.00206122430384752,0.0199909933278964));
#1286=CARTESIAN_POINT('',(0.0031963342627638,-0.00242312918258708,0.02));
#1287=CARTESIAN_POINT('',(0.003,-0.0026457513110646,0.02));
#1288=CARTESIAN_POINT('',(0.003,-0.00264575131106459,0.02));
#1289=CARTESIAN_POINT('',(2.60208521396521E-18,-1.95156391047391E-18,0.02));
#1290=CARTESIAN_POINT('',(0.00264575131106459,-0.003,0.02));
#1291=CARTESIAN_POINT('',(0.00264575131106459,-0.003,0.02));
#1292=CARTESIAN_POINT('',(0.00242312918258707,-0.0031963342627638,0.02));
#1293=CARTESIAN_POINT('',(0.00206122430384752,-0.00348107283446882,0.0199909933278964));
#1294=CARTESIAN_POINT('',(0.00150000000000001,-0.00370809924354783,0.0199729799836893));
#1295=CARTESIAN_POINT('',(0.0015,-0.00370809924354783,0.0199729799836892));
#1296=CARTESIAN_POINT('',(0.00150000000000001,-0.00370809924354783,0.0199729799836893));
#1297=CARTESIAN_POINT('',(0.00117978222915218,-0.00383763370978617,0.0199646221509696));
#1298=CARTESIAN_POINT('',(0.000842716026472799,-0.00392544880203988,0.01995626431825));
#1299=CARTESIAN_POINT('',(0.000500000043063194,-0.00396862696117144,0.0199479064855304));
#1300=CARTESIAN_POINT('',(0.000500000288703895,-0.00396862693022359,0.019947535023372));
#1301=CARTESIAN_POINT('',(0.000500000534344603,-0.00396862689927576,0.0199471635612137));
#1302=CARTESIAN_POINT('',(0.000836112275908658,-0.00392628075421178,0.0196138150629418));
#1303=CARTESIAN_POINT('',(0.00117189916225633,-0.00384082281656703,0.0192862735814307));
#1304=CARTESIAN_POINT('',(0.0015000024204248,-0.00370809826443688,0.018969025348122));
#1305=CARTESIAN_POINT('',(2.60208521396521E-18,-1.95156391047391E-18,0.));
#1306=CARTESIAN_POINT('',(0.00585404962177392,-0.0015,0.02));
#1307=CARTESIAN_POINT('',(0.007,-0.0015,0.015));
#1308=CARTESIAN_POINT('',(0.007,-0.0015,0.));
#1309=CARTESIAN_POINT('',(0.007,-0.0015,0.015));
#1310=CARTESIAN_POINT('',(0.007,-0.0015,0.015));
#1311=CARTESIAN_POINT('',(0.00699914579525785,-0.0015,0.0156054961729144));
#1312=CARTESIAN_POINT('',(0.00686945830533744,-0.0015,0.0166793843407462));
#1313=CARTESIAN_POINT('',(0.00635900947912192,-0.0015,0.0178314355967678));
#1314=CARTESIAN_POINT('',(0.00532858411165125,-0.0015,0.0186671112422691));
#1315=CARTESIAN_POINT('',(0.00430493071766635,-0.0015,0.0189145186733732));
#1316=CARTESIAN_POINT('',(0.00370809924354788,-0.0015,0.018969027688469));
#1317=CARTESIAN_POINT('',(0.00585404962177392,-0.0015,0.));
#1318=CARTESIAN_POINT('',(0.008,0.,0.02));
#1319=CARTESIAN_POINT('',(0.008,0.0005,0.015));
#1320=CARTESIAN_POINT('',(0.008,0.000166666666666667,0.015));
#1321=CARTESIAN_POINT('',(0.008,-0.000166666666666666,0.015));
#1322=CARTESIAN_POINT('',(0.008,-0.0005,0.015));
#1323=CARTESIAN_POINT('',(0.008,0.0005,0.015));
#1324=CARTESIAN_POINT('',(0.008,-0.0005,0.015));
#1325=CARTESIAN_POINT('',(0.008,-0.0005,0.));
#1326=CARTESIAN_POINT('',(0.008,-0.0005,0.));
#1327=CARTESIAN_POINT('',(0.008,0.,0.));
#1328=CARTESIAN_POINT('',(0.008,0.0005,0.));
#1329=CARTESIAN_POINT('',(0.008,0.0005,0.02));
#1330=CARTESIAN_POINT('',(0.,0.,0.02));
#1331=CARTESIAN_POINT('',(0.,1.83697019872103E-19,0.02));
#1332=CARTESIAN_POINT('',(-1.15792792021452E-16,-0.003,0.02));
#1333=CARTESIAN_POINT('',(0.000881917103688119,-0.003,0.02));
#1334=CARTESIAN_POINT('',(0.00176383420737635,-0.003,0.02));
#1335=CARTESIAN_POINT('',(0.00264575131106459,-0.003,0.02));
#1336=CARTESIAN_POINT('',(0.003,-0.00264575131106459,0.02));
#1337=CARTESIAN_POINT('',(0.003,-0.00176383420737639,0.02));
#1338=CARTESIAN_POINT('',(0.003,-0.000881917103688197,0.02));
#1339=CARTESIAN_POINT('',(0.003,-4.33680868994202E-19,0.02));
#1340=CARTESIAN_POINT('',(0.,0.,0.));
#1341=CARTESIAN_POINT('',(0.,2.84730380801759E-19,0.));
#1342=CARTESIAN_POINT('',(0.00165,2.84730380801759E-19,0.));
#1343=CARTESIAN_POINT('',(0.008,-0.0005,0.));
#1344=CARTESIAN_POINT('',(0.0015,-0.007,0.));
#1345=CARTESIAN_POINT('',(-0.0005,-0.008,0.));
#1346=CARTESIAN_POINT('',(-0.007,-0.0015,0.));
#1347=CARTESIAN_POINT('',(-0.008,0.0005,0.));
#1348=CARTESIAN_POINT('',(-0.0015,0.007,0.));
#1349=CARTESIAN_POINT('',(0.0005,0.008,0.));
#1350=CARTESIAN_POINT('',(0.007,0.0015,0.));
#1351=CARTESIAN_POINT('',(0.008,0.00267750032679736,0.015));
#1352=CARTESIAN_POINT('',(0.008,-0.00267750032679737,0.015));
#1353=CARTESIAN_POINT('',(0.00799999999999999,0.00267750032679736,0.0183333333333333));
#1354=CARTESIAN_POINT('',(0.00799999999999999,-0.00267750032679737,0.0183333333333333));
#1355=CARTESIAN_POINT('',(0.00633333333333334,0.00267750032679736,0.0199999999999999));
#1356=CARTESIAN_POINT('',(0.00633333333333334,-0.00267750032679737,0.0199999999999999));
#1357=CARTESIAN_POINT('',(0.003,0.00267750032679736,0.02));
#1358=CARTESIAN_POINT('',(0.003,-0.00267750032679737,0.02));
#1359=CARTESIAN_POINT('',(0.00396862662369473,-0.0005,0.019947906523893));
#1360=CARTESIAN_POINT('',(0.00665620887456491,-0.0005,0.0196423954746971));
#1361=CARTESIAN_POINT('',(0.00799999999999999,-0.0005,0.0179930933000661));
#1362=CARTESIAN_POINT('',(0.008,-0.0005,0.015));
#1363=CARTESIAN_POINT('',(0.008,0.0005,0.015));
#1364=CARTESIAN_POINT('',(0.00799999999999999,0.0005,0.0179930777099461));
#1365=CARTESIAN_POINT('',(0.00665622287333357,0.0005,0.0196423782932257));
#1366=CARTESIAN_POINT('',(0.00396866862000071,0.0005,0.019947901749839));
#1367=CARTESIAN_POINT('',(-0.008,-0.00267750032679737,0.015));
#1368=CARTESIAN_POINT('',(-0.008,0.00267750032679737,0.015));
#1369=CARTESIAN_POINT('',(-0.00799999999999999,-0.00267750032679737,0.0183333333333333));
#1370=CARTESIAN_POINT('',(-0.00799999999999999,0.00267750032679737,0.0183333333333333));
#1371=CARTESIAN_POINT('',(-0.00633333333333334,-0.00267750032679737,0.0199999999999999));
#1372=CARTESIAN_POINT('',(-0.00633333333333334,0.00267750032679737,0.0199999999999999));
#1373=CARTESIAN_POINT('',(-0.003,-0.00267750032679737,0.02));
#1374=CARTESIAN_POINT('',(-0.003,0.00267750032679737,0.02));
#1375=CARTESIAN_POINT('',(-0.008,-0.0005,0.015));
#1376=CARTESIAN_POINT('',(-0.00799999999999999,-0.0005,0.0179930777099461));
#1377=CARTESIAN_POINT('',(-0.00665622287333357,-0.0005,0.0196423782932257));
#1378=CARTESIAN_POINT('',(-0.00396866862000071,-0.0005,0.019947901749839));
#1379=CARTESIAN_POINT('',(-0.00396862662369473,0.0005,0.019947906523893));
#1380=CARTESIAN_POINT('',(-0.00665620887456491,0.0005,0.0196423954746971));
#1381=CARTESIAN_POINT('',(-0.00799999999999999,0.0005,0.0179930933000661));
#1382=CARTESIAN_POINT('',(-0.008,0.0005,0.015));
#1383=CARTESIAN_POINT('',(0.00267750032679737,-0.008,0.015));
#1384=CARTESIAN_POINT('',(-0.00267750032679738,-0.008,0.015));
#1385=CARTESIAN_POINT('',(0.00267750032679737,-0.00799999999999999,0.0183333333333334));
#1386=CARTESIAN_POINT('',(-0.00267750032679738,-0.00799999999999999,0.0183333333333334));
#1387=CARTESIAN_POINT('',(0.00267750032679737,-0.00633333333333333,0.0199999999999999));
#1388=CARTESIAN_POINT('',(-0.00267750032679738,-0.00633333333333333,0.0199999999999999));
#1389=CARTESIAN_POINT('',(0.00267750032679737,-0.00299999999999999,0.02));
#1390=CARTESIAN_POINT('',(-0.00267750032679738,-0.00299999999999999,0.02));
#1391=CARTESIAN_POINT('',(0.0005,-0.008,0.015));
#1392=CARTESIAN_POINT('',(0.0005,-0.00799999999999999,0.0179930777099461));
#1393=CARTESIAN_POINT('',(0.0005,-0.00665622287333357,0.0196423782932257));
#1394=CARTESIAN_POINT('',(0.0005,-0.00396866862000071,0.019947901749839));
#1395=CARTESIAN_POINT('',(-0.0005,-0.00396862662369473,0.019947906523893));
#1396=CARTESIAN_POINT('',(-0.0005,-0.00665620887456491,0.0196423954746971));
#1397=CARTESIAN_POINT('',(-0.0005,-0.00799999999999999,0.0179930933000661));
#1398=CARTESIAN_POINT('',(-0.0005,-0.008,0.015));
#1399=CARTESIAN_POINT('',(-0.00267750032679737,0.008,0.015));
#1400=CARTESIAN_POINT('',(0.00267750032679738,0.008,0.015));
#1401=CARTESIAN_POINT('',(-0.00267750032679737,0.00799999999999999,0.0183333333333333));
#1402=CARTESIAN_POINT('',(0.00267750032679738,0.00799999999999999,0.0183333333333333));
#1403=CARTESIAN_POINT('',(-0.00267750032679737,0.00633333333333334,0.0199999999999999));
#1404=CARTESIAN_POINT('',(0.00267750032679738,0.00633333333333334,0.0199999999999999));
#1405=CARTESIAN_POINT('',(-0.00267750032679737,0.003,0.02));
#1406=CARTESIAN_POINT('',(0.00267750032679738,0.003,0.02));
#1407=CARTESIAN_POINT('',(0.0005,0.00396862662369473,0.019947906523893));
#1408=CARTESIAN_POINT('',(0.0005,0.00665620887456491,0.0196423954746971));
#1409=CARTESIAN_POINT('',(0.0005,0.00799999999999999,0.0179930933000661));
#1410=CARTESIAN_POINT('',(0.0005,0.008,0.015));
#1411=CARTESIAN_POINT('',(-0.0005,0.008,0.015));
#1412=CARTESIAN_POINT('',(-0.0005,0.00799999999999999,0.0179930777099461));
#1413=CARTESIAN_POINT('',(-0.0005,0.00665622287333357,0.0196423782932257));
#1414=CARTESIAN_POINT('',(-0.0005,0.00396866862000071,0.019947901749839));
#1415=CARTESIAN_POINT('',(0.,1.83697019872103E-19,0.001));
#1416=CARTESIAN_POINT('',(0.,1.83697019872103E-19,0.001));
#1417=CARTESIAN_POINT('',(0.003,1.83697019872103E-19,0.001));
#1418=CARTESIAN_POINT('',(0.,0.,0.001));
#1419=CARTESIAN_POINT('',(0.,2.84730380801759E-19,0.001));
#1420=CARTESIAN_POINT('',(0.00165,2.84730380801759E-19,0.001));
#1421=CARTESIAN_POINT('',(0.,2.84730380801759E-19,-0.024));
#1422=CARTESIAN_POINT('',(0.008,-0.0005,0.02));
#1423=CARTESIAN_POINT('',(0.008,-0.0005,0.015));
#1424=CARTESIAN_POINT('',(0.00766666666666667,-0.000833333333333333,0.015));
#1425=CARTESIAN_POINT('',(0.00733333333333333,-0.00116666666666667,0.015));
#1426=CARTESIAN_POINT('',(0.007,-0.0015,0.015));
#1427=CARTESIAN_POINT('',(0.007,-0.0015,0.015));
#1428=CARTESIAN_POINT('',(0.00699926660642311,-0.0015,0.0155198601484299));
#1429=CARTESIAN_POINT('',(0.00695754278218127,-0.0015,0.0160343102710646));
#1430=CARTESIAN_POINT('',(0.0067114209535465,-0.0015,0.0170432937296609));
#1431=CARTESIAN_POINT('',(0.00649564049482066,-0.0015,0.0175340632749815));
#1432=CARTESIAN_POINT('',(0.00581179796850121,-0.0015,0.0183154575672195));
#1433=CARTESIAN_POINT('',(0.00534913592902819,-0.0015,0.0185841464080952));
#1434=CARTESIAN_POINT('',(0.00447011148027731,-0.0015,0.0188688667116278));
#1435=CARTESIAN_POINT('',(0.00407191165100408,-0.0015,0.0189377253290667));
#1436=CARTESIAN_POINT('',(0.00367357864209554,-0.0015,0.0189720930061298));
#1437=CARTESIAN_POINT('',(0.008,-0.0005,0.015));
#1438=CARTESIAN_POINT('',(0.00799865907022184,-0.0005,0.0155779696196927));
#1439=CARTESIAN_POINT('',(0.00795441519695951,-0.0005,0.0161662539317288));
#1440=CARTESIAN_POINT('',(0.007656831776455,-0.0005,0.017388357222613));
#1441=CARTESIAN_POINT('',(0.00738286558676593,-0.0005,0.0180375328196118));
#1442=CARTESIAN_POINT('',(0.00642596165118967,-0.0005,0.0191332872874811));
#1443=CARTESIAN_POINT('',(0.00578322085897671,-0.0005,0.0194961249940024));
#1444=CARTESIAN_POINT('',(0.00468722786400615,-0.0005,0.0198485558546687));
#1445=CARTESIAN_POINT('',(0.00421597839784473,-0.0005,0.0199286036003338));
#1446=CARTESIAN_POINT('',(0.00375940044711792,-0.0005,0.0199681123507472));
#1447=CARTESIAN_POINT('',(0.00367354784865896,0.0015,0.0189720956628805));
#1448=CARTESIAN_POINT('',(0.00407189112890171,0.0015,0.0189377288778081));
#1449=CARTESIAN_POINT('',(0.00447010155040613,0.0015,0.0188688699279614));
#1450=CARTESIAN_POINT('',(0.0053491359290282,0.0015,0.0185841464080952));
#1451=CARTESIAN_POINT('',(0.00581179796850121,0.0015,0.0183154575672195));
#1452=CARTESIAN_POINT('',(0.00649564049482066,0.0015,0.0175340632749815));
#1453=CARTESIAN_POINT('',(0.0067114209535465,0.0015,0.0170432937296609));
#1454=CARTESIAN_POINT('',(0.00695754278218127,0.0015,0.0160343102710646));
#1455=CARTESIAN_POINT('',(0.00699926660642312,0.0015,0.0155198601484299));
#1456=CARTESIAN_POINT('',(0.007,0.0015,0.015));
#1457=CARTESIAN_POINT('',(0.00375936515104128,0.0005,0.0199681154049204));
#1458=CARTESIAN_POINT('',(0.00421595411098516,0.0005,0.019928607725719));
#1459=CARTESIAN_POINT('',(0.00468721548315683,0.0005,0.0198485598358925));
#1460=CARTESIAN_POINT('',(0.00578322085897672,0.0005,0.0194961249940024));
#1461=CARTESIAN_POINT('',(0.00642596165118967,0.0005,0.0191332872874811));
#1462=CARTESIAN_POINT('',(0.00738286558676594,0.0005,0.0180375328196118));
#1463=CARTESIAN_POINT('',(0.007656831776455,0.0005,0.017388357222613));
#1464=CARTESIAN_POINT('',(0.00795441519695951,0.0005,0.0161662539317288));
#1465=CARTESIAN_POINT('',(0.00799865907022185,0.0005,0.0155779696196927));
#1466=CARTESIAN_POINT('',(0.008,0.0005,0.015));
#1467=CARTESIAN_POINT('',(0.007,0.0015,0.015));
#1468=CARTESIAN_POINT('',(0.00733333333333333,0.00116666666666667,0.015));
#1469=CARTESIAN_POINT('',(0.00766666666666667,0.000833333333333333,0.015));
#1470=CARTESIAN_POINT('',(0.008,0.0005,0.015));
#1471=CARTESIAN_POINT('',(0.007,0.0015,0.02));
#1472=CARTESIAN_POINT('',(-0.00367354784865896,-0.0015,0.0189720956628805));
#1473=CARTESIAN_POINT('',(-0.00407189112890171,-0.0015,0.0189377288778081));
#1474=CARTESIAN_POINT('',(-0.00447010155040613,-0.0015,0.0188688699279614));
#1475=CARTESIAN_POINT('',(-0.00534913592902819,-0.0015,0.0185841464080952));
#1476=CARTESIAN_POINT('',(-0.00581179796850121,-0.0015,0.0183154575672195));
#1477=CARTESIAN_POINT('',(-0.00649564049482066,-0.0015,0.0175340632749815));
#1478=CARTESIAN_POINT('',(-0.0067114209535465,-0.0015,0.0170432937296609));
#1479=CARTESIAN_POINT('',(-0.00695754278218127,-0.0015,0.0160343102710646));
#1480=CARTESIAN_POINT('',(-0.00699926660642312,-0.0015,0.0155198601484299));
#1481=CARTESIAN_POINT('',(-0.007,-0.0015,0.015));
#1482=CARTESIAN_POINT('',(-0.00375936515104129,-0.0005,0.0199681154049204));
#1483=CARTESIAN_POINT('',(-0.00421595411098517,-0.0005,0.019928607725719));
#1484=CARTESIAN_POINT('',(-0.00468721548315683,-0.0005,0.0198485598358925));
#1485=CARTESIAN_POINT('',(-0.00578322085897672,-0.0005,0.0194961249940024));
#1486=CARTESIAN_POINT('',(-0.00642596165118966,-0.0005,0.0191332872874811));
#1487=CARTESIAN_POINT('',(-0.00738286558676594,-0.0005,0.0180375328196117));
#1488=CARTESIAN_POINT('',(-0.007656831776455,-0.0005,0.017388357222613));
#1489=CARTESIAN_POINT('',(-0.00795441519695951,-0.0005,0.0161662539317288));
#1490=CARTESIAN_POINT('',(-0.00799865907022184,-0.0005,0.0155779696196927));
#1491=CARTESIAN_POINT('',(-0.008,-0.0005,0.015));
#1492=CARTESIAN_POINT('',(-0.007,-0.0015,0.015));
#1493=CARTESIAN_POINT('',(-0.00733333333333333,-0.00116666666666667,0.015));
#1494=CARTESIAN_POINT('',(-0.00766666666666667,-0.000833333333333333,0.015));
#1495=CARTESIAN_POINT('',(-0.008,-0.0005,0.015));
#1496=CARTESIAN_POINT('',(-0.007,-0.0015,0.02));
#1497=CARTESIAN_POINT('',(-0.008,0.0005,0.02));
#1498=CARTESIAN_POINT('',(-0.008,0.0005,0.015));
#1499=CARTESIAN_POINT('',(-0.00766666666666667,0.000833333333333334,0.015));
#1500=CARTESIAN_POINT('',(-0.00733333333333333,0.00116666666666667,0.015));
#1501=CARTESIAN_POINT('',(-0.007,0.0015,0.015));
#1502=CARTESIAN_POINT('',(-0.007,0.0015,0.015));
#1503=CARTESIAN_POINT('',(-0.00699926660642312,0.0015,0.0155198601484299));
#1504=CARTESIAN_POINT('',(-0.00695754278218127,0.0015,0.0160343102710646));
#1505=CARTESIAN_POINT('',(-0.0067114209535465,0.0015,0.0170432937296609));
#1506=CARTESIAN_POINT('',(-0.00649564049482067,0.0015,0.0175340632749815));
#1507=CARTESIAN_POINT('',(-0.00581179796850121,0.0015,0.0183154575672195));
#1508=CARTESIAN_POINT('',(-0.0053491359290282,0.0015,0.0185841464080952));
#1509=CARTESIAN_POINT('',(-0.0044701114802773,0.0015,0.0188688667116278));
#1510=CARTESIAN_POINT('',(-0.00407191165100408,0.0015,0.0189377253290667));
#1511=CARTESIAN_POINT('',(-0.00367357864209553,0.0015,0.0189720930061298));
#1512=CARTESIAN_POINT('',(-0.008,0.0005,0.015));
#1513=CARTESIAN_POINT('',(-0.00799865907022184,0.0005,0.0155779696196927));
#1514=CARTESIAN_POINT('',(-0.00795441519695951,0.0005,0.0161662539317288));
#1515=CARTESIAN_POINT('',(-0.00765683177645499,0.0005,0.017388357222613));
#1516=CARTESIAN_POINT('',(-0.00738286558676595,0.0005,0.0180375328196118));
#1517=CARTESIAN_POINT('',(-0.00642596165118966,0.0005,0.0191332872874811));
#1518=CARTESIAN_POINT('',(-0.00578322085897672,0.0005,0.0194961249940024));
#1519=CARTESIAN_POINT('',(-0.00468722786400614,0.0005,0.0198485558546687));
#1520=CARTESIAN_POINT('',(-0.00421597839784472,0.0005,0.0199286036003338));
#1521=CARTESIAN_POINT('',(-0.00375940044711791,0.0005,0.0199681123507472));
#1522=CARTESIAN_POINT('',(0.0015,-0.00367354784865896,0.0189720956628805));
#1523=CARTESIAN_POINT('',(0.0015,-0.00407189112890171,0.0189377288778081));
#1524=CARTESIAN_POINT('',(0.0015,-0.00447010155040614,0.0188688699279614));
#1525=CARTESIAN_POINT('',(0.0015,-0.00534913592902819,0.0185841464080952));
#1526=CARTESIAN_POINT('',(0.0015,-0.00581179796850122,0.0183154575672195));
#1527=CARTESIAN_POINT('',(0.0015,-0.00649564049482066,0.0175340632749815));
#1528=CARTESIAN_POINT('',(0.0015,-0.0067114209535465,0.0170432937296609));
#1529=CARTESIAN_POINT('',(0.0015,-0.00695754278218127,0.0160343102710646));
#1530=CARTESIAN_POINT('',(0.0015,-0.00699926660642311,0.0155198601484299));
#1531=CARTESIAN_POINT('',(0.0015,-0.007,0.015));
#1532=CARTESIAN_POINT('',(0.0005,-0.00375936515104128,0.0199681154049204));
#1533=CARTESIAN_POINT('',(0.0005,-0.00421595411098517,0.019928607725719));
#1534=CARTESIAN_POINT('',(0.0005,-0.00468721548315684,0.0198485598358925));
#1535=CARTESIAN_POINT('',(0.0005,-0.00578322085897672,0.0194961249940024));
#1536=CARTESIAN_POINT('',(0.0005,-0.00642596165118967,0.0191332872874811));
#1537=CARTESIAN_POINT('',(0.0005,-0.00738286558676594,0.0180375328196117));
#1538=CARTESIAN_POINT('',(0.0005,-0.00765683177645499,0.017388357222613));
#1539=CARTESIAN_POINT('',(0.0005,-0.00795441519695951,0.0161662539317288));
#1540=CARTESIAN_POINT('',(0.0005,-0.00799865907022184,0.0155779696196927));
#1541=CARTESIAN_POINT('',(0.0005,-0.008,0.015));
#1542=CARTESIAN_POINT('',(0.0015,-0.007,0.015));
#1543=CARTESIAN_POINT('',(0.00116666666666667,-0.00733333333333333,0.015));
#1544=CARTESIAN_POINT('',(0.000833333333333334,-0.00766666666666667,0.015));
#1545=CARTESIAN_POINT('',(0.000500000000000002,-0.008,0.015));
#1546=CARTESIAN_POINT('',(0.0015,-0.007,0.02));
#1547=CARTESIAN_POINT('',(-0.0005,-0.008,0.02));
#1548=CARTESIAN_POINT('',(-0.000500000000000001,-0.008,0.015));
#1549=CARTESIAN_POINT('',(-0.000833333333333334,-0.00766666666666667,0.015));
#1550=CARTESIAN_POINT('',(-0.00116666666666667,-0.00733333333333333,0.015));
#1551=CARTESIAN_POINT('',(-0.0015,-0.007,0.015));
#1552=CARTESIAN_POINT('',(-0.0015,-0.007,0.015));
#1553=CARTESIAN_POINT('',(-0.0015,-0.00699926660642312,0.0155198601484299));
#1554=CARTESIAN_POINT('',(-0.0015,-0.00695754278218127,0.0160343102710646));
#1555=CARTESIAN_POINT('',(-0.0015,-0.0067114209535465,0.0170432937296609));
#1556=CARTESIAN_POINT('',(-0.0015,-0.00649564049482066,0.0175340632749815));
#1557=CARTESIAN_POINT('',(-0.0015,-0.00581179796850121,0.0183154575672195));
#1558=CARTESIAN_POINT('',(-0.0015,-0.0053491359290282,0.0185841464080952));
#1559=CARTESIAN_POINT('',(-0.0015,-0.00447011148027731,0.0188688667116278));
#1560=CARTESIAN_POINT('',(-0.0015,-0.00407191165100408,0.0189377253290667));
#1561=CARTESIAN_POINT('',(-0.0015,-0.00367357864209554,0.0189720930061298));
#1562=CARTESIAN_POINT('',(-0.0005,-0.008,0.015));
#1563=CARTESIAN_POINT('',(-0.0005,-0.00799865907022185,0.0155779696196927));
#1564=CARTESIAN_POINT('',(-0.0005,-0.00795441519695951,0.0161662539317288));
#1565=CARTESIAN_POINT('',(-0.0005,-0.007656831776455,0.017388357222613));
#1566=CARTESIAN_POINT('',(-0.0005,-0.00738286558676594,0.0180375328196118));
#1567=CARTESIAN_POINT('',(-0.0005,-0.00642596165118966,0.0191332872874811));
#1568=CARTESIAN_POINT('',(-0.0005,-0.00578322085897672,0.0194961249940024));
#1569=CARTESIAN_POINT('',(-0.0005,-0.00468722786400615,0.0198485558546687));
#1570=CARTESIAN_POINT('',(-0.0005,-0.00421597839784473,0.0199286036003338));
#1571=CARTESIAN_POINT('',(-0.0005,-0.00375940044711792,0.0199681123507472));
#1572=CARTESIAN_POINT('',(0.0005,0.008,0.02));
#1573=CARTESIAN_POINT('',(0.0005,0.008,0.015));
#1574=CARTESIAN_POINT('',(0.000833333333333333,0.00766666666666667,0.015));
#1575=CARTESIAN_POINT('',(0.00116666666666667,0.00733333333333333,0.015));
#1576=CARTESIAN_POINT('',(0.0015,0.007,0.015));
#1577=CARTESIAN_POINT('',(0.0015,0.007,0.015));
#1578=CARTESIAN_POINT('',(0.0015,0.00699926660642312,0.0155198601484299));
#1579=CARTESIAN_POINT('',(0.0015,0.00695754278218127,0.0160343102710646));
#1580=CARTESIAN_POINT('',(0.0015,0.0067114209535465,0.0170432937296609));
#1581=CARTESIAN_POINT('',(0.0015,0.00649564049482067,0.0175340632749815));
#1582=CARTESIAN_POINT('',(0.0015,0.00581179796850121,0.0183154575672195));
#1583=CARTESIAN_POINT('',(0.0015,0.00534913592902819,0.0185841464080952));
#1584=CARTESIAN_POINT('',(0.0015,0.0044701114802773,0.0188688667116278));
#1585=CARTESIAN_POINT('',(0.0015,0.00407191165100408,0.0189377253290667));
#1586=CARTESIAN_POINT('',(0.0015,0.00367357864209553,0.0189720930061298));
#1587=CARTESIAN_POINT('',(0.0005,0.008,0.015));
#1588=CARTESIAN_POINT('',(0.0005,0.00799865907022184,0.0155779696196927));
#1589=CARTESIAN_POINT('',(0.0005,0.00795441519695952,0.0161662539317288));
#1590=CARTESIAN_POINT('',(0.0005,0.00765683177645499,0.017388357222613));
#1591=CARTESIAN_POINT('',(0.0005,0.00738286558676594,0.0180375328196118));
#1592=CARTESIAN_POINT('',(0.0005,0.00642596165118966,0.0191332872874811));
#1593=CARTESIAN_POINT('',(0.0005,0.00578322085897671,0.0194961249940024));
#1594=CARTESIAN_POINT('',(0.0005,0.00468722786400614,0.0198485558546687));
#1595=CARTESIAN_POINT('',(0.0005,0.00421597839784472,0.0199286036003339));
#1596=CARTESIAN_POINT('',(0.0005,0.00375940044711791,0.0199681123507472));
#1597=CARTESIAN_POINT('',(-0.0015,0.00367354784865896,0.0189720956628805));
#1598=CARTESIAN_POINT('',(-0.0015,0.00407189112890171,0.0189377288778081));
#1599=CARTESIAN_POINT('',(-0.0015,0.00447010155040613,0.0188688699279614));
#1600=CARTESIAN_POINT('',(-0.0015,0.00534913592902819,0.0185841464080952));
#1601=CARTESIAN_POINT('',(-0.0015,0.00581179796850122,0.0183154575672195));
#1602=CARTESIAN_POINT('',(-0.0015,0.00649564049482066,0.0175340632749815));
#1603=CARTESIAN_POINT('',(-0.0015,0.0067114209535465,0.0170432937296609));
#1604=CARTESIAN_POINT('',(-0.0015,0.00695754278218127,0.0160343102710646));
#1605=CARTESIAN_POINT('',(-0.0015,0.00699926660642312,0.0155198601484299));
#1606=CARTESIAN_POINT('',(-0.0015,0.007,0.015));
#1607=CARTESIAN_POINT('',(-0.0005,0.00375936515104128,0.0199681154049204));
#1608=CARTESIAN_POINT('',(-0.0005,0.00421595411098516,0.019928607725719));
#1609=CARTESIAN_POINT('',(-0.0005,0.00468721548315683,0.0198485598358925));
#1610=CARTESIAN_POINT('',(-0.0005,0.00578322085897672,0.0194961249940024));
#1611=CARTESIAN_POINT('',(-0.0005,0.00642596165118967,0.0191332872874811));
#1612=CARTESIAN_POINT('',(-0.0005,0.00738286558676594,0.0180375328196118));
#1613=CARTESIAN_POINT('',(-0.0005,0.007656831776455,0.0173883572226129));
#1614=CARTESIAN_POINT('',(-0.0005,0.00795441519695951,0.0161662539317288));
#1615=CARTESIAN_POINT('',(-0.0005,0.00799865907022185,0.0155779696196927));
#1616=CARTESIAN_POINT('',(-0.0005,0.008,0.015));
#1617=CARTESIAN_POINT('',(-0.0015,0.007,0.015));
#1618=CARTESIAN_POINT('',(-0.00116666666666667,0.00733333333333333,0.015));
#1619=CARTESIAN_POINT('',(-0.000833333333333333,0.00766666666666667,0.015));
#1620=CARTESIAN_POINT('',(-0.0005,0.008,0.015));
#1621=CARTESIAN_POINT('',(-0.0015,0.007,0.02));
#1622=MECHANICAL_DESIGN_GEOMETRIC_PRESENTATION_REPRESENTATION('',(#796),
#1623);
#1623=(
GEOMETRIC_REPRESENTATION_CONTEXT(3)
GLOBAL_UNCERTAINTY_ASSIGNED_CONTEXT((#1624))
GLOBAL_UNIT_ASSIGNED_CONTEXT((#1627,#1626,#1625))
REPRESENTATION_CONTEXT('Part 1','TOP_LEVEL_ASSEMBLY_PART')
);
#1624=UNCERTAINTY_MEASURE_WITH_UNIT(LENGTH_MEASURE(2.00000000000069E-5),
#1627,'DISTANCE_ACCURACY_VALUE','Maximum Tolerance applied to model');
#1625=(
NAMED_UNIT(*)
SI_UNIT($,.STERADIAN.)
SOLID_ANGLE_UNIT()
);
#1626=(
NAMED_UNIT(*)
PLANE_ANGLE_UNIT()
SI_UNIT($,.RADIAN.)
);
#1627=(
LENGTH_UNIT()
NAMED_UNIT(*)
SI_UNIT($,.METRE.)
);
#1628=PRODUCT_DEFINITION_SHAPE('','',#1629);
#1629=PRODUCT_DEFINITION('','',#1631,#1630);
#1630=PRODUCT_DEFINITION_CONTEXT('',#1637,'design');
#1631=PRODUCT_DEFINITION_FORMATION_WITH_SPECIFIED_SOURCE('','',#1633,
 .NOT_KNOWN.);
#1632=PRODUCT_RELATED_PRODUCT_CATEGORY('','',(#1633));
#1633=PRODUCT('Part 1','Part 1','Part 1',(#1635));
#1634=PRODUCT_CATEGORY('','');
#1635=PRODUCT_CONTEXT('',#1637,'mechanical');
#1636=APPLICATION_PROTOCOL_DEFINITION('international standard',
'ap242_managed_model_based_3d_engineering',2020,#1637);
#1637=APPLICATION_CONTEXT('managed model based 3d engineering');
ENDSEC;
END-ISO-10303-21;
