ISO-10303-21;
HEADER;
/* Generated by software containing ST-Developer
 * from STEP Tools, Inc. (www.steptools.com) 
 */
/* OPTION: using custom renumber hook */

FILE_DESCRIPTION(
/* description */ ('STEP AP242 Edition 2',
'CAx-IF Rec.Pracs.---Representation and Presentation of Product Manufa
cturing Information (PMI)---4.0---2014-10-13',
'CAx-IF Rec.Pracs.---3D Tessellated Geometry---0.4---2014-09-14','2;1',
'CAx-IF Rec.Pracs.---User Defined Attributes---1.5---2016-08-15'),
/* implementation_level */ '2;1');

FILE_NAME(
/* name */ 'Top',
/* time_stamp */ '2026-09-01T05:44:20Z',
/* author */ (''),
/* organization */ (''),
/* preprocessor_version */ 'ST-DEVELOPER v20',
/* originating_system */ 'ONSHAPE BY PTC INC, 1.220',
/* authorisation */ '  ');

FILE_SCHEMA (('AP242_MANAGED_MODEL_BASED_3D_ENGINEERING_MIM_LF { 1 0 10303 442 3 1 4 }'));
ENDSEC;

DATA;
#10=SHAPE_REPRESENTATION_RELATIONSHIP('','',#639,#11);
#11=ADVANCED_BREP_SHAPE_REPRESENTATION('',(#637),#1041);
#12=CYLINDRICAL_SURFACE('',#668,0.00165);
#13=CYLINDRICAL_SURFACE('',#669,0.00165);
#14=CYLINDRICAL_SURFACE('',#670,0.00165);
#15=CYLINDRICAL_SURFACE('',#671,0.00165);
#16=CYLINDRICAL_SURFACE('',#672,0.00165);
#17=CYLINDRICAL_SURFACE('',#673,0.00165);
#18=CYLINDRICAL_SURFACE('',#674,0.00165);
#19=CYLINDRICAL_SURFACE('',#676,0.00165);
#20=CYLINDRICAL_SURFACE('',#678,0.00165);
#21=CYLINDRICAL_SURFACE('',#680,0.00165);
#22=CYLINDRICAL_SURFACE('',#695,0.001);
#23=CYLINDRICAL_SURFACE('',#696,0.001);
#24=CYLINDRICAL_SURFACE('',#697,0.001);
#25=CYLINDRICAL_SURFACE('',#698,0.001);
#26=LINE('',#877,#78);
#27=LINE('',#880,#79);
#28=LINE('',#882,#80);
#29=LINE('',#884,#81);
#30=LINE('',#886,#82);
#31=LINE('',#888,#83);
#32=LINE('',#890,#84);
#33=LINE('',#892,#85);
#34=LINE('',#894,#86);
#35=LINE('',#897,#87);
#36=LINE('',#900,#88);
#37=LINE('',#902,#89);
#38=LINE('',#904,#90);
#39=LINE('',#908,#91);
#40=LINE('',#910,#92);
#41=LINE('',#912,#93);
#42=LINE('',#914,#94);
#43=LINE('',#916,#95);
#44=LINE('',#918,#96);
#45=LINE('',#920,#97);
#46=LINE('',#924,#98);
#47=LINE('',#926,#99);
#48=LINE('',#928,#100);
#49=LINE('',#932,#101);
#50=LINE('',#933,#102);
#51=LINE('',#935,#103);
#52=LINE('',#937,#104);
#53=LINE('',#939,#105);
#54=LINE('',#941,#106);
#55=LINE('',#943,#107);
#56=LINE('',#951,#108);
#57=LINE('',#954,#109);
#58=LINE('',#956,#110);
#59=LINE('',#958,#111);
#60=LINE('',#959,#112);
#61=LINE('',#962,#113);
#62=LINE('',#964,#114);
#63=LINE('',#966,#115);
#64=LINE('',#1006,#116);
#65=LINE('',#1008,#117);
#66=LINE('',#1009,#118);
#67=LINE('',#1010,#119);
#68=LINE('',#1012,#120);
#69=LINE('',#1014,#121);
#70=LINE('',#1017,#122);
#71=LINE('',#1021,#123);
#72=LINE('',#1024,#124);
#73=LINE('',#1026,#125);
#74=LINE('',#1028,#126);
#75=LINE('',#1029,#127);
#76=LINE('',#1030,#128);
#77=LINE('',#1032,#129);
#78=VECTOR('',#709,1.);
#79=VECTOR('',#710,1.);
#80=VECTOR('',#711,1.);
#81=VECTOR('',#712,1.);
#82=VECTOR('',#713,1.);
#83=VECTOR('',#714,1.);
#84=VECTOR('',#715,1.);
#85=VECTOR('',#716,1.);
#86=VECTOR('',#719,1.);
#87=VECTOR('',#720,1.);
#88=VECTOR('',#723,1.);
#89=VECTOR('',#724,1.);
#90=VECTOR('',#725,1.);
#91=VECTOR('',#728,1.);
#92=VECTOR('',#729,1.);
#93=VECTOR('',#732,1.);
#94=VECTOR('',#733,1.);
#95=VECTOR('',#736,1.);
#96=VECTOR('',#737,1.);
#97=VECTOR('',#738,1.);
#98=VECTOR('',#741,1.);
#99=VECTOR('',#742,1.);
#100=VECTOR('',#743,1.);
#101=VECTOR('',#748,1.);
#102=VECTOR('',#749,1.);
#103=VECTOR('',#752,1.);
#104=VECTOR('',#753,1.);
#105=VECTOR('',#754,1.);
#106=VECTOR('',#755,1.);
#107=VECTOR('',#756,1.);
#108=VECTOR('',#765,1.);
#109=VECTOR('',#766,1.);
#110=VECTOR('',#767,1.);
#111=VECTOR('',#768,1.);
#112=VECTOR('',#769,1.);
#113=VECTOR('',#770,1.);
#114=VECTOR('',#771,1.);
#115=VECTOR('',#772,1.);
#116=VECTOR('',#823,1.);
#117=VECTOR('',#824,1.);
#118=VECTOR('',#825,1.);
#119=VECTOR('',#826,1.);
#120=VECTOR('',#827,1.);
#121=VECTOR('',#830,1.);
#122=VECTOR('',#835,1.);
#123=VECTOR('',#842,1.);
#124=VECTOR('',#845,1.);
#125=VECTOR('',#848,1.);
#126=VECTOR('',#849,1.);
#127=VECTOR('',#850,1.);
#128=VECTOR('',#851,1.);
#129=VECTOR('',#854,1.);
#130=ORIENTED_EDGE('',*,*,#290,.F.);
#131=ORIENTED_EDGE('',*,*,#291,.F.);
#132=ORIENTED_EDGE('',*,*,#292,.F.);
#133=ORIENTED_EDGE('',*,*,#293,.T.);
#134=ORIENTED_EDGE('',*,*,#294,.T.);
#135=ORIENTED_EDGE('',*,*,#295,.T.);
#136=ORIENTED_EDGE('',*,*,#296,.T.);
#137=ORIENTED_EDGE('',*,*,#297,.F.);
#138=ORIENTED_EDGE('',*,*,#298,.T.);
#139=ORIENTED_EDGE('',*,*,#299,.F.);
#140=ORIENTED_EDGE('',*,*,#300,.T.);
#141=ORIENTED_EDGE('',*,*,#301,.F.);
#142=ORIENTED_EDGE('',*,*,#302,.F.);
#143=ORIENTED_EDGE('',*,*,#299,.T.);
#144=ORIENTED_EDGE('',*,*,#303,.T.);
#145=ORIENTED_EDGE('',*,*,#304,.F.);
#146=ORIENTED_EDGE('',*,*,#305,.T.);
#147=ORIENTED_EDGE('',*,*,#306,.T.);
#148=ORIENTED_EDGE('',*,*,#307,.T.);
#149=ORIENTED_EDGE('',*,*,#308,.T.);
#150=ORIENTED_EDGE('',*,*,#309,.T.);
#151=ORIENTED_EDGE('',*,*,#310,.T.);
#152=ORIENTED_EDGE('',*,*,#311,.F.);
#153=ORIENTED_EDGE('',*,*,#300,.F.);
#154=ORIENTED_EDGE('',*,*,#302,.T.);
#155=ORIENTED_EDGE('',*,*,#312,.T.);
#156=ORIENTED_EDGE('',*,*,#313,.F.);
#157=ORIENTED_EDGE('',*,*,#314,.F.);
#158=ORIENTED_EDGE('',*,*,#315,.T.);
#159=ORIENTED_EDGE('',*,*,#316,.F.);
#160=ORIENTED_EDGE('',*,*,#317,.F.);
#161=ORIENTED_EDGE('',*,*,#318,.T.);
#162=ORIENTED_EDGE('',*,*,#319,.T.);
#163=ORIENTED_EDGE('',*,*,#293,.F.);
#164=ORIENTED_EDGE('',*,*,#311,.T.);
#165=ORIENTED_EDGE('',*,*,#320,.F.);
#166=ORIENTED_EDGE('',*,*,#309,.F.);
#167=ORIENTED_EDGE('',*,*,#321,.T.);
#168=ORIENTED_EDGE('',*,*,#313,.T.);
#169=ORIENTED_EDGE('',*,*,#308,.F.);
#170=ORIENTED_EDGE('',*,*,#322,.T.);
#171=ORIENTED_EDGE('',*,*,#323,.T.);
#172=ORIENTED_EDGE('',*,*,#324,.F.);
#173=ORIENTED_EDGE('',*,*,#325,.F.);
#174=ORIENTED_EDGE('',*,*,#326,.T.);
#175=ORIENTED_EDGE('',*,*,#314,.T.);
#176=ORIENTED_EDGE('',*,*,#321,.F.);
#177=ORIENTED_EDGE('',*,*,#327,.F.);
#178=ORIENTED_EDGE('',*,*,#328,.F.);
#179=ORIENTED_EDGE('',*,*,#329,.F.);
#180=ORIENTED_EDGE('',*,*,#330,.T.);
#181=ORIENTED_EDGE('',*,*,#331,.F.);
#182=ORIENTED_EDGE('',*,*,#332,.F.);
#183=ORIENTED_EDGE('',*,*,#333,.T.);
#184=ORIENTED_EDGE('',*,*,#334,.T.);
#185=ORIENTED_EDGE('',*,*,#335,.F.);
#186=ORIENTED_EDGE('',*,*,#336,.F.);
#187=ORIENTED_EDGE('',*,*,#337,.T.);
#188=ORIENTED_EDGE('',*,*,#338,.T.);
#189=ORIENTED_EDGE('',*,*,#339,.T.);
#190=ORIENTED_EDGE('',*,*,#340,.T.);
#191=ORIENTED_EDGE('',*,*,#341,.T.);
#192=ORIENTED_EDGE('',*,*,#342,.T.);
#193=ORIENTED_EDGE('',*,*,#343,.T.);
#194=ORIENTED_EDGE('',*,*,#344,.T.);
#195=ORIENTED_EDGE('',*,*,#345,.T.);
#196=ORIENTED_EDGE('',*,*,#346,.T.);
#197=ORIENTED_EDGE('',*,*,#347,.T.);
#198=ORIENTED_EDGE('',*,*,#301,.T.);
#199=ORIENTED_EDGE('',*,*,#320,.T.);
#200=ORIENTED_EDGE('',*,*,#312,.F.);
#201=ORIENTED_EDGE('',*,*,#310,.F.);
#202=ORIENTED_EDGE('',*,*,#329,.T.);
#203=ORIENTED_EDGE('',*,*,#347,.F.);
#204=ORIENTED_EDGE('',*,*,#290,.T.);
#205=ORIENTED_EDGE('',*,*,#346,.F.);
#206=ORIENTED_EDGE('',*,*,#291,.T.);
#207=ORIENTED_EDGE('',*,*,#345,.F.);
#208=ORIENTED_EDGE('',*,*,#292,.T.);
#209=ORIENTED_EDGE('',*,*,#344,.F.);
#210=ORIENTED_EDGE('',*,*,#328,.T.);
#211=ORIENTED_EDGE('',*,*,#343,.F.);
#212=ORIENTED_EDGE('',*,*,#327,.T.);
#213=ORIENTED_EDGE('',*,*,#342,.F.);
#214=ORIENTED_EDGE('',*,*,#341,.F.);
#215=ORIENTED_EDGE('',*,*,#348,.T.);
#216=ORIENTED_EDGE('',*,*,#340,.F.);
#217=ORIENTED_EDGE('',*,*,#349,.T.);
#218=ORIENTED_EDGE('',*,*,#339,.F.);
#219=ORIENTED_EDGE('',*,*,#350,.T.);
#220=ORIENTED_EDGE('',*,*,#338,.F.);
#221=ORIENTED_EDGE('',*,*,#351,.T.);
#222=ORIENTED_EDGE('',*,*,#352,.F.);
#223=ORIENTED_EDGE('',*,*,#353,.T.);
#224=ORIENTED_EDGE('',*,*,#318,.F.);
#225=ORIENTED_EDGE('',*,*,#354,.T.);
#226=ORIENTED_EDGE('',*,*,#304,.T.);
#227=ORIENTED_EDGE('',*,*,#355,.T.);
#228=ORIENTED_EDGE('',*,*,#356,.T.);
#229=ORIENTED_EDGE('',*,*,#335,.T.);
#230=ORIENTED_EDGE('',*,*,#352,.T.);
#231=ORIENTED_EDGE('',*,*,#334,.F.);
#232=ORIENTED_EDGE('',*,*,#357,.F.);
#233=ORIENTED_EDGE('',*,*,#295,.F.);
#234=ORIENTED_EDGE('',*,*,#358,.T.);
#235=ORIENTED_EDGE('',*,*,#357,.T.);
#236=ORIENTED_EDGE('',*,*,#337,.F.);
#237=ORIENTED_EDGE('',*,*,#359,.F.);
#238=ORIENTED_EDGE('',*,*,#296,.F.);
#239=ORIENTED_EDGE('',*,*,#356,.F.);
#240=ORIENTED_EDGE('',*,*,#360,.T.);
#241=ORIENTED_EDGE('',*,*,#297,.T.);
#242=ORIENTED_EDGE('',*,*,#359,.T.);
#243=ORIENTED_EDGE('',*,*,#336,.T.);
#244=ORIENTED_EDGE('',*,*,#361,.F.);
#245=ORIENTED_EDGE('',*,*,#362,.T.);
#246=ORIENTED_EDGE('',*,*,#325,.T.);
#247=ORIENTED_EDGE('',*,*,#363,.T.);
#248=ORIENTED_EDGE('',*,*,#331,.T.);
#249=ORIENTED_EDGE('',*,*,#364,.F.);
#250=ORIENTED_EDGE('',*,*,#365,.T.);
#251=ORIENTED_EDGE('',*,*,#306,.F.);
#252=ORIENTED_EDGE('',*,*,#366,.F.);
#253=ORIENTED_EDGE('',*,*,#316,.T.);
#254=ORIENTED_EDGE('',*,*,#367,.T.);
#255=ORIENTED_EDGE('',*,*,#361,.T.);
#256=ORIENTED_EDGE('',*,*,#330,.F.);
#257=ORIENTED_EDGE('',*,*,#364,.T.);
#258=ORIENTED_EDGE('',*,*,#333,.F.);
#259=ORIENTED_EDGE('',*,*,#368,.F.);
#260=ORIENTED_EDGE('',*,*,#323,.F.);
#261=ORIENTED_EDGE('',*,*,#369,.T.);
#262=ORIENTED_EDGE('',*,*,#324,.T.);
#263=ORIENTED_EDGE('',*,*,#368,.T.);
#264=ORIENTED_EDGE('',*,*,#332,.T.);
#265=ORIENTED_EDGE('',*,*,#363,.F.);
#266=ORIENTED_EDGE('',*,*,#348,.F.);
#267=ORIENTED_EDGE('',*,*,#349,.F.);
#268=ORIENTED_EDGE('',*,*,#350,.F.);
#269=ORIENTED_EDGE('',*,*,#351,.F.);
#270=ORIENTED_EDGE('',*,*,#366,.T.);
#271=ORIENTED_EDGE('',*,*,#305,.F.);
#272=ORIENTED_EDGE('',*,*,#354,.F.);
#273=ORIENTED_EDGE('',*,*,#317,.T.);
#274=ORIENTED_EDGE('',*,*,#319,.F.);
#275=ORIENTED_EDGE('',*,*,#353,.F.);
#276=ORIENTED_EDGE('',*,*,#358,.F.);
#277=ORIENTED_EDGE('',*,*,#294,.F.);
#278=ORIENTED_EDGE('',*,*,#360,.F.);
#279=ORIENTED_EDGE('',*,*,#355,.F.);
#280=ORIENTED_EDGE('',*,*,#303,.F.);
#281=ORIENTED_EDGE('',*,*,#298,.F.);
#282=ORIENTED_EDGE('',*,*,#369,.F.);
#283=ORIENTED_EDGE('',*,*,#322,.F.);
#284=ORIENTED_EDGE('',*,*,#307,.F.);
#285=ORIENTED_EDGE('',*,*,#365,.F.);
#286=ORIENTED_EDGE('',*,*,#315,.F.);
#287=ORIENTED_EDGE('',*,*,#326,.F.);
#288=ORIENTED_EDGE('',*,*,#362,.F.);
#289=ORIENTED_EDGE('',*,*,#367,.F.);
#290=EDGE_CURVE('',#370,#370,#430,.T.);
#291=EDGE_CURVE('',#371,#371,#431,.T.);
#292=EDGE_CURVE('',#372,#372,#432,.T.);
#293=EDGE_CURVE('',#373,#374,#26,.T.);
#294=EDGE_CURVE('',#374,#375,#27,.T.);
#295=EDGE_CURVE('',#375,#376,#28,.T.);
#296=EDGE_CURVE('',#376,#377,#29,.T.);
#297=EDGE_CURVE('',#378,#377,#30,.T.);
#298=EDGE_CURVE('',#378,#379,#31,.T.);
#299=EDGE_CURVE('',#380,#379,#32,.T.);
#300=EDGE_CURVE('',#380,#373,#33,.T.);
#301=EDGE_CURVE('',#381,#382,#34,.T.);
#302=EDGE_CURVE('',#380,#381,#35,.T.);
#303=EDGE_CURVE('',#379,#383,#433,.F.);
#304=EDGE_CURVE('',#384,#383,#36,.T.);
#305=EDGE_CURVE('',#384,#385,#37,.T.);
#306=EDGE_CURVE('',#385,#386,#38,.T.);
#307=EDGE_CURVE('',#386,#387,#434,.F.);
#308=EDGE_CURVE('',#387,#388,#39,.T.);
#309=EDGE_CURVE('',#388,#382,#40,.T.);
#310=EDGE_CURVE('',#381,#389,#41,.T.);
#311=EDGE_CURVE('',#373,#389,#42,.T.);
#312=EDGE_CURVE('',#389,#390,#43,.T.);
#313=EDGE_CURVE('',#391,#390,#44,.T.);
#314=EDGE_CURVE('',#392,#391,#45,.T.);
#315=EDGE_CURVE('',#392,#393,#435,.T.);
#316=EDGE_CURVE('',#394,#393,#46,.T.);
#317=EDGE_CURVE('',#395,#394,#47,.T.);
#318=EDGE_CURVE('',#395,#396,#48,.T.);
#319=EDGE_CURVE('',#396,#374,#436,.T.);
#320=EDGE_CURVE('',#382,#390,#49,.T.);
#321=EDGE_CURVE('',#388,#391,#50,.T.);
#322=EDGE_CURVE('',#387,#397,#51,.F.);
#323=EDGE_CURVE('',#397,#398,#52,.T.);
#324=EDGE_CURVE('',#399,#398,#53,.T.);
#325=EDGE_CURVE('',#400,#399,#54,.T.);
#326=EDGE_CURVE('',#400,#392,#55,.F.);
#327=EDGE_CURVE('',#401,#401,#437,.T.);
#328=EDGE_CURVE('',#402,#402,#438,.T.);
#329=EDGE_CURVE('',#403,#403,#439,.T.);
#330=EDGE_CURVE('',#404,#405,#56,.T.);
#331=EDGE_CURVE('',#406,#405,#57,.T.);
#332=EDGE_CURVE('',#407,#406,#58,.T.);
#333=EDGE_CURVE('',#407,#404,#59,.T.);
#334=EDGE_CURVE('',#408,#409,#60,.T.);
#335=EDGE_CURVE('',#410,#409,#61,.T.);
#336=EDGE_CURVE('',#411,#410,#62,.T.);
#337=EDGE_CURVE('',#411,#408,#63,.T.);
#338=EDGE_CURVE('',#412,#412,#440,.T.);
#339=EDGE_CURVE('',#413,#413,#441,.T.);
#340=EDGE_CURVE('',#414,#414,#442,.T.);
#341=EDGE_CURVE('',#415,#415,#443,.T.);
#342=EDGE_CURVE('',#416,#416,#444,.T.);
#343=EDGE_CURVE('',#417,#417,#445,.T.);
#344=EDGE_CURVE('',#418,#418,#446,.T.);
#345=EDGE_CURVE('',#419,#419,#447,.T.);
#346=EDGE_CURVE('',#420,#420,#448,.T.);
#347=EDGE_CURVE('',#421,#421,#449,.T.);
#348=EDGE_CURVE('',#422,#422,#450,.T.);
#349=EDGE_CURVE('',#423,#423,#451,.T.);
#350=EDGE_CURVE('',#424,#424,#452,.T.);
#351=EDGE_CURVE('',#425,#425,#453,.T.);
#352=EDGE_CURVE('',#426,#409,#64,.T.);
#353=EDGE_CURVE('',#426,#396,#65,.F.);
#354=EDGE_CURVE('',#395,#384,#66,.T.);
#355=EDGE_CURVE('',#383,#427,#67,.F.);
#356=EDGE_CURVE('',#427,#410,#68,.T.);
#357=EDGE_CURVE('',#376,#408,#69,.T.);
#358=EDGE_CURVE('',#375,#426,#454,.F.);
#359=EDGE_CURVE('',#377,#411,#70,.T.);
#360=EDGE_CURVE('',#427,#378,#455,.T.);
#361=EDGE_CURVE('',#428,#405,#71,.T.);
#362=EDGE_CURVE('',#428,#400,#456,.T.);
#363=EDGE_CURVE('',#399,#406,#72,.T.);
#364=EDGE_CURVE('',#429,#404,#73,.T.);
#365=EDGE_CURVE('',#429,#386,#74,.T.);
#366=EDGE_CURVE('',#394,#385,#75,.T.);
#367=EDGE_CURVE('',#393,#428,#76,.T.);
#368=EDGE_CURVE('',#398,#407,#77,.T.);
#369=EDGE_CURVE('',#397,#429,#457,.F.);
#370=VERTEX_POINT('',#872);
#371=VERTEX_POINT('',#874);
#372=VERTEX_POINT('',#876);
#373=VERTEX_POINT('',#878);
#374=VERTEX_POINT('',#879);
#375=VERTEX_POINT('',#881);
#376=VERTEX_POINT('',#883);
#377=VERTEX_POINT('',#885);
#378=VERTEX_POINT('',#887);
#379=VERTEX_POINT('',#889);
#380=VERTEX_POINT('',#891);
#381=VERTEX_POINT('',#895);
#382=VERTEX_POINT('',#896);
#383=VERTEX_POINT('',#899);
#384=VERTEX_POINT('',#901);
#385=VERTEX_POINT('',#903);
#386=VERTEX_POINT('',#905);
#387=VERTEX_POINT('',#907);
#388=VERTEX_POINT('',#909);
#389=VERTEX_POINT('',#913);
#390=VERTEX_POINT('',#917);
#391=VERTEX_POINT('',#919);
#392=VERTEX_POINT('',#921);
#393=VERTEX_POINT('',#923);
#394=VERTEX_POINT('',#925);
#395=VERTEX_POINT('',#927);
#396=VERTEX_POINT('',#929);
#397=VERTEX_POINT('',#936);
#398=VERTEX_POINT('',#938);
#399=VERTEX_POINT('',#940);
#400=VERTEX_POINT('',#942);
#401=VERTEX_POINT('',#945);
#402=VERTEX_POINT('',#947);
#403=VERTEX_POINT('',#949);
#404=VERTEX_POINT('',#952);
#405=VERTEX_POINT('',#953);
#406=VERTEX_POINT('',#955);
#407=VERTEX_POINT('',#957);
#408=VERTEX_POINT('',#960);
#409=VERTEX_POINT('',#961);
#410=VERTEX_POINT('',#963);
#411=VERTEX_POINT('',#965);
#412=VERTEX_POINT('',#968);
#413=VERTEX_POINT('',#970);
#414=VERTEX_POINT('',#972);
#415=VERTEX_POINT('',#974);
#416=VERTEX_POINT('',#976);
#417=VERTEX_POINT('',#978);
#418=VERTEX_POINT('',#980);
#419=VERTEX_POINT('',#982);
#420=VERTEX_POINT('',#984);
#421=VERTEX_POINT('',#986);
#422=VERTEX_POINT('',#995);
#423=VERTEX_POINT('',#998);
#424=VERTEX_POINT('',#1001);
#425=VERTEX_POINT('',#1004);
#426=VERTEX_POINT('',#1007);
#427=VERTEX_POINT('',#1011);
#428=VERTEX_POINT('',#1022);
#429=VERTEX_POINT('',#1027);
#430=CIRCLE('',#642,0.00165);
#431=CIRCLE('',#643,0.00165);
#432=CIRCLE('',#644,0.00165);
#433=CIRCLE('',#646,0.001);
#434=CIRCLE('',#647,0.001);
#435=CIRCLE('',#650,0.001);
#436=CIRCLE('',#651,0.001);
#437=CIRCLE('',#654,0.00165);
#438=CIRCLE('',#655,0.00165);
#439=CIRCLE('',#656,0.00165);
#440=CIRCLE('',#658,0.00165);
#441=CIRCLE('',#659,0.00165);
#442=CIRCLE('',#660,0.00165);
#443=CIRCLE('',#661,0.00165);
#444=CIRCLE('',#662,0.00165);
#445=CIRCLE('',#663,0.00165);
#446=CIRCLE('',#664,0.00165);
#447=CIRCLE('',#665,0.00165);
#448=CIRCLE('',#666,0.00165);
#449=CIRCLE('',#667,0.00165);
#450=CIRCLE('',#675,0.00165);
#451=CIRCLE('',#677,0.00165);
#452=CIRCLE('',#679,0.00165);
#453=CIRCLE('',#681,0.00165);
#454=CIRCLE('',#684,0.001);
#455=CIRCLE('',#687,0.001);
#456=CIRCLE('',#689,0.001);
#457=CIRCLE('',#692,0.001);
#458=EDGE_LOOP('',(#130));
#459=EDGE_LOOP('',(#131));
#460=EDGE_LOOP('',(#132));
#461=EDGE_LOOP('',(#133,#134,#135,#136,#137,#138,#139,#140));
#462=EDGE_LOOP('',(#141,#142,#143,#144,#145,#146,#147,#148,#149,#150));
#463=EDGE_LOOP('',(#151,#152,#153,#154));
#464=EDGE_LOOP('',(#155,#156,#157,#158,#159,#160,#161,#162,#163,#164));
#465=EDGE_LOOP('',(#165,#166,#167,#168));
#466=EDGE_LOOP('',(#169,#170,#171,#172,#173,#174,#175,#176));
#467=EDGE_LOOP('',(#177));
#468=EDGE_LOOP('',(#178));
#469=EDGE_LOOP('',(#179));
#470=EDGE_LOOP('',(#180,#181,#182,#183));
#471=EDGE_LOOP('',(#184,#185,#186,#187));
#472=EDGE_LOOP('',(#188));
#473=EDGE_LOOP('',(#189));
#474=EDGE_LOOP('',(#190));
#475=EDGE_LOOP('',(#191));
#476=EDGE_LOOP('',(#192));
#477=EDGE_LOOP('',(#193));
#478=EDGE_LOOP('',(#194));
#479=EDGE_LOOP('',(#195));
#480=EDGE_LOOP('',(#196));
#481=EDGE_LOOP('',(#197));
#482=EDGE_LOOP('',(#198,#199,#200,#201));
#483=EDGE_LOOP('',(#202));
#484=EDGE_LOOP('',(#203));
#485=EDGE_LOOP('',(#204));
#486=EDGE_LOOP('',(#205));
#487=EDGE_LOOP('',(#206));
#488=EDGE_LOOP('',(#207));
#489=EDGE_LOOP('',(#208));
#490=EDGE_LOOP('',(#209));
#491=EDGE_LOOP('',(#210));
#492=EDGE_LOOP('',(#211));
#493=EDGE_LOOP('',(#212));
#494=EDGE_LOOP('',(#213));
#495=EDGE_LOOP('',(#214));
#496=EDGE_LOOP('',(#215));
#497=EDGE_LOOP('',(#216));
#498=EDGE_LOOP('',(#217));
#499=EDGE_LOOP('',(#218));
#500=EDGE_LOOP('',(#219));
#501=EDGE_LOOP('',(#220));
#502=EDGE_LOOP('',(#221));
#503=EDGE_LOOP('',(#222,#223,#224,#225,#226,#227,#228,#229));
#504=EDGE_LOOP('',(#230,#231,#232,#233,#234));
#505=EDGE_LOOP('',(#235,#236,#237,#238));
#506=EDGE_LOOP('',(#239,#240,#241,#242,#243));
#507=EDGE_LOOP('',(#244,#245,#246,#247,#248));
#508=EDGE_LOOP('',(#249,#250,#251,#252,#253,#254,#255,#256));
#509=EDGE_LOOP('',(#257,#258,#259,#260,#261));
#510=EDGE_LOOP('',(#262,#263,#264,#265));
#511=EDGE_LOOP('',(#266));
#512=EDGE_LOOP('',(#267));
#513=EDGE_LOOP('',(#268));
#514=EDGE_LOOP('',(#269));
#515=EDGE_LOOP('',(#270,#271,#272,#273));
#516=EDGE_LOOP('',(#274,#275,#276,#277));
#517=EDGE_LOOP('',(#278,#279,#280,#281));
#518=EDGE_LOOP('',(#282,#283,#284,#285));
#519=EDGE_LOOP('',(#286,#287,#288,#289));
#520=FACE_BOUND('',#458,.T.);
#521=FACE_BOUND('',#459,.T.);
#522=FACE_BOUND('',#460,.T.);
#523=FACE_BOUND('',#461,.T.);
#524=FACE_BOUND('',#462,.T.);
#525=FACE_BOUND('',#463,.T.);
#526=FACE_BOUND('',#464,.T.);
#527=FACE_BOUND('',#465,.T.);
#528=FACE_BOUND('',#466,.T.);
#529=FACE_BOUND('',#467,.T.);
#530=FACE_BOUND('',#468,.T.);
#531=FACE_BOUND('',#469,.T.);
#532=FACE_BOUND('',#470,.T.);
#533=FACE_BOUND('',#471,.T.);
#534=FACE_BOUND('',#472,.T.);
#535=FACE_BOUND('',#473,.T.);
#536=FACE_BOUND('',#474,.T.);
#537=FACE_BOUND('',#475,.T.);
#538=FACE_BOUND('',#476,.T.);
#539=FACE_BOUND('',#477,.T.);
#540=FACE_BOUND('',#478,.T.);
#541=FACE_BOUND('',#479,.T.);
#542=FACE_BOUND('',#480,.T.);
#543=FACE_BOUND('',#481,.T.);
#544=FACE_BOUND('',#482,.T.);
#545=FACE_BOUND('',#483,.T.);
#546=FACE_BOUND('',#484,.T.);
#547=FACE_BOUND('',#485,.T.);
#548=FACE_BOUND('',#486,.T.);
#549=FACE_BOUND('',#487,.T.);
#550=FACE_BOUND('',#488,.T.);
#551=FACE_BOUND('',#489,.T.);
#552=FACE_BOUND('',#490,.T.);
#553=FACE_BOUND('',#491,.T.);
#554=FACE_BOUND('',#492,.T.);
#555=FACE_BOUND('',#493,.T.);
#556=FACE_BOUND('',#494,.T.);
#557=FACE_BOUND('',#495,.T.);
#558=FACE_BOUND('',#496,.T.);
#559=FACE_BOUND('',#497,.T.);
#560=FACE_BOUND('',#498,.T.);
#561=FACE_BOUND('',#499,.T.);
#562=FACE_BOUND('',#500,.T.);
#563=FACE_BOUND('',#501,.T.);
#564=FACE_BOUND('',#502,.T.);
#565=FACE_BOUND('',#503,.T.);
#566=FACE_BOUND('',#504,.T.);
#567=FACE_BOUND('',#505,.T.);
#568=FACE_BOUND('',#506,.T.);
#569=FACE_BOUND('',#507,.T.);
#570=FACE_BOUND('',#508,.T.);
#571=FACE_BOUND('',#509,.T.);
#572=FACE_BOUND('',#510,.T.);
#573=FACE_BOUND('',#511,.T.);
#574=FACE_BOUND('',#512,.T.);
#575=FACE_BOUND('',#513,.T.);
#576=FACE_BOUND('',#514,.T.);
#577=FACE_BOUND('',#515,.T.);
#578=FACE_BOUND('',#516,.T.);
#579=FACE_BOUND('',#517,.T.);
#580=FACE_BOUND('',#518,.T.);
#581=FACE_BOUND('',#519,.T.);
#582=PLANE('',#641);
#583=PLANE('',#645);
#584=PLANE('',#648);
#585=PLANE('',#649);
#586=PLANE('',#652);
#587=PLANE('',#653);
#588=PLANE('',#657);
#589=PLANE('',#682);
#590=PLANE('',#683);
#591=PLANE('',#685);
#592=PLANE('',#686);
#593=PLANE('',#688);
#594=PLANE('',#690);
#595=PLANE('',#691);
#596=PLANE('',#693);
#597=PLANE('',#694);
#598=ADVANCED_FACE('',(#520,#521,#522,#523),#582,.T.);
#599=ADVANCED_FACE('',(#524),#583,.T.);
#600=ADVANCED_FACE('',(#525),#584,.F.);
#601=ADVANCED_FACE('',(#526),#585,.F.);
#602=ADVANCED_FACE('',(#527),#586,.T.);
#603=ADVANCED_FACE('',(#528,#529,#530,#531),#587,.T.);
#604=ADVANCED_FACE('',(#532,#533,#534,#535,#536,#537,#538,#539,#540,#541,
#542,#543,#544),#588,.F.);
#605=ADVANCED_FACE('',(#545,#546),#12,.F.);
#606=ADVANCED_FACE('',(#547,#548),#13,.F.);
#607=ADVANCED_FACE('',(#549,#550),#14,.F.);
#608=ADVANCED_FACE('',(#551,#552),#15,.F.);
#609=ADVANCED_FACE('',(#553,#554),#16,.F.);
#610=ADVANCED_FACE('',(#555,#556),#17,.F.);
#611=ADVANCED_FACE('',(#557,#558),#18,.F.);
#612=ADVANCED_FACE('',(#559,#560),#19,.F.);
#613=ADVANCED_FACE('',(#561,#562),#20,.F.);
#614=ADVANCED_FACE('',(#563,#564),#21,.F.);
#615=ADVANCED_FACE('',(#565),#589,.F.);
#616=ADVANCED_FACE('',(#566),#590,.T.);
#617=ADVANCED_FACE('',(#567),#591,.T.);
#618=ADVANCED_FACE('',(#568),#592,.F.);
#619=ADVANCED_FACE('',(#569),#593,.F.);
#620=ADVANCED_FACE('',(#570),#594,.T.);
#621=ADVANCED_FACE('',(#571),#595,.T.);
#622=ADVANCED_FACE('',(#572),#596,.F.);
#623=ADVANCED_FACE('',(#573,#574,#575,#576,#577),#597,.T.);
#624=ADVANCED_FACE('',(#578),#22,.F.);
#625=ADVANCED_FACE('',(#579),#23,.F.);
#626=ADVANCED_FACE('',(#580),#24,.F.);
#627=ADVANCED_FACE('',(#581),#25,.F.);
#628=CLOSED_SHELL('',(#598,#599,#600,#601,#602,#603,#604,#605,#606,#607,
#608,#609,#610,#611,#612,#613,#614,#615,#616,#617,#618,#619,#620,#621,#622,
#623,#624,#625,#626,#627));
#629=STYLED_ITEM('',(#630),#637);
#630=PRESENTATION_STYLE_ASSIGNMENT((#631));
#631=SURFACE_STYLE_USAGE(.BOTH.,#632);
#632=SURFACE_SIDE_STYLE('',(#633));
#633=SURFACE_STYLE_FILL_AREA(#634);
#634=FILL_AREA_STYLE('',(#635));
#635=FILL_AREA_STYLE_COLOUR('',#636);
#636=COLOUR_RGB('',0.615686274509804,0.811764705882353,0.929411764705882);
#637=MANIFOLD_SOLID_BREP('Part 1',#628);
#638=SHAPE_DEFINITION_REPRESENTATION(#1046,#639);
#639=SHAPE_REPRESENTATION('Part 1',(#640),#1041);
#640=AXIS2_PLACEMENT_3D('',#869,#699,#700);
#641=AXIS2_PLACEMENT_3D('',#870,#701,#702);
#642=AXIS2_PLACEMENT_3D('',#871,#703,#704);
#643=AXIS2_PLACEMENT_3D('',#873,#705,#706);
#644=AXIS2_PLACEMENT_3D('',#875,#707,#708);
#645=AXIS2_PLACEMENT_3D('',#893,#717,#718);
#646=AXIS2_PLACEMENT_3D('',#898,#721,#722);
#647=AXIS2_PLACEMENT_3D('',#906,#726,#727);
#648=AXIS2_PLACEMENT_3D('',#911,#730,#731);
#649=AXIS2_PLACEMENT_3D('',#915,#734,#735);
#650=AXIS2_PLACEMENT_3D('',#922,#739,#740);
#651=AXIS2_PLACEMENT_3D('',#930,#744,#745);
#652=AXIS2_PLACEMENT_3D('',#931,#746,#747);
#653=AXIS2_PLACEMENT_3D('',#934,#750,#751);
#654=AXIS2_PLACEMENT_3D('',#944,#757,#758);
#655=AXIS2_PLACEMENT_3D('',#946,#759,#760);
#656=AXIS2_PLACEMENT_3D('',#948,#761,#762);
#657=AXIS2_PLACEMENT_3D('',#950,#763,#764);
#658=AXIS2_PLACEMENT_3D('',#967,#773,#774);
#659=AXIS2_PLACEMENT_3D('',#969,#775,#776);
#660=AXIS2_PLACEMENT_3D('',#971,#777,#778);
#661=AXIS2_PLACEMENT_3D('',#973,#779,#780);
#662=AXIS2_PLACEMENT_3D('',#975,#781,#782);
#663=AXIS2_PLACEMENT_3D('',#977,#783,#784);
#664=AXIS2_PLACEMENT_3D('',#979,#785,#786);
#665=AXIS2_PLACEMENT_3D('',#981,#787,#788);
#666=AXIS2_PLACEMENT_3D('',#983,#789,#790);
#667=AXIS2_PLACEMENT_3D('',#985,#791,#792);
#668=AXIS2_PLACEMENT_3D('',#987,#793,#794);
#669=AXIS2_PLACEMENT_3D('',#988,#795,#796);
#670=AXIS2_PLACEMENT_3D('',#989,#797,#798);
#671=AXIS2_PLACEMENT_3D('',#990,#799,#800);
#672=AXIS2_PLACEMENT_3D('',#991,#801,#802);
#673=AXIS2_PLACEMENT_3D('',#992,#803,#804);
#674=AXIS2_PLACEMENT_3D('',#993,#805,#806);
#675=AXIS2_PLACEMENT_3D('',#994,#807,#808);
#676=AXIS2_PLACEMENT_3D('',#996,#809,#810);
#677=AXIS2_PLACEMENT_3D('',#997,#811,#812);
#678=AXIS2_PLACEMENT_3D('',#999,#813,#814);
#679=AXIS2_PLACEMENT_3D('',#1000,#815,#816);
#680=AXIS2_PLACEMENT_3D('',#1002,#817,#818);
#681=AXIS2_PLACEMENT_3D('',#1003,#819,#820);
#682=AXIS2_PLACEMENT_3D('',#1005,#821,#822);
#683=AXIS2_PLACEMENT_3D('',#1013,#828,#829);
#684=AXIS2_PLACEMENT_3D('',#1015,#831,#832);
#685=AXIS2_PLACEMENT_3D('',#1016,#833,#834);
#686=AXIS2_PLACEMENT_3D('',#1018,#836,#837);
#687=AXIS2_PLACEMENT_3D('',#1019,#838,#839);
#688=AXIS2_PLACEMENT_3D('',#1020,#840,#841);
#689=AXIS2_PLACEMENT_3D('',#1023,#843,#844);
#690=AXIS2_PLACEMENT_3D('',#1025,#846,#847);
#691=AXIS2_PLACEMENT_3D('',#1031,#852,#853);
#692=AXIS2_PLACEMENT_3D('',#1033,#855,#856);
#693=AXIS2_PLACEMENT_3D('',#1034,#857,#858);
#694=AXIS2_PLACEMENT_3D('',#1035,#859,#860);
#695=AXIS2_PLACEMENT_3D('',#1036,#861,#862);
#696=AXIS2_PLACEMENT_3D('',#1037,#863,#864);
#697=AXIS2_PLACEMENT_3D('',#1038,#865,#866);
#698=AXIS2_PLACEMENT_3D('',#1039,#867,#868);
#699=DIRECTION('',(0.,0.,1.));
#700=DIRECTION('',(1.,0.,0.));
#701=DIRECTION('',(0.,0.,1.));
#702=DIRECTION('',(1.,0.,0.));
#703=DIRECTION('',(0.,0.,1.));
#704=DIRECTION('',(1.,0.,0.));
#705=DIRECTION('',(0.,0.,1.));
#706=DIRECTION('',(1.,0.,0.));
#707=DIRECTION('',(0.,0.,1.));
#708=DIRECTION('',(1.,0.,0.));
#709=DIRECTION('',(-1.,-2.1350442781253E-16,0.));
#710=DIRECTION('',(-1.61907524424502E-15,-1.,0.));
#711=DIRECTION('',(1.,-1.73472347597681E-15,0.));
#712=DIRECTION('',(-1.61907524424502E-15,-1.,0.));
#713=DIRECTION('',(1.,-8.67361737988404E-16,0.));
#714=DIRECTION('',(-1.61907524424502E-15,-1.,0.));
#715=DIRECTION('',(-1.,-2.1350442781253E-16,0.));
#716=DIRECTION('',(0.,1.,0.));
#717=DIRECTION('',(2.1350442781253E-16,-1.,0.));
#718=DIRECTION('',(1.,2.1350442781253E-16,0.));
#719=DIRECTION('',(-1.,-2.1350442781253E-16,0.));
#720=DIRECTION('',(0.,0.,-1.));
#721=DIRECTION('',(2.1350442781253E-16,-1.,0.));
#722=DIRECTION('',(1.,2.1350442781253E-16,0.));
#723=DIRECTION('',(0.,0.,-1.));
#724=DIRECTION('',(-1.,-2.1350442781253E-16,0.));
#725=DIRECTION('',(0.,0.,-1.));
#726=DIRECTION('',(2.1350442781253E-16,-1.,0.));
#727=DIRECTION('',(1.,2.1350442781253E-16,0.));
#728=DIRECTION('',(-1.,-2.1350442781253E-16,0.));
#729=DIRECTION('',(0.,0.,-1.));
#730=DIRECTION('',(-1.,0.,0.));
#731=DIRECTION('',(0.,0.,1.));
#732=DIRECTION('',(0.,1.,0.));
#733=DIRECTION('',(0.,0.,-1.));
#734=DIRECTION('',(2.1350442781253E-16,-1.,0.));
#735=DIRECTION('',(1.,2.1350442781253E-16,0.));
#736=DIRECTION('',(-1.,-2.1350442781253E-16,0.));
#737=DIRECTION('',(0.,0.,-1.));
#738=DIRECTION('',(-1.,-2.1350442781253E-16,0.));
#739=DIRECTION('',(2.1350442781253E-16,-1.,0.));
#740=DIRECTION('',(1.,2.1350442781253E-16,0.));
#741=DIRECTION('',(0.,0.,-1.));
#742=DIRECTION('',(-1.,-2.1350442781253E-16,0.));
#743=DIRECTION('',(0.,0.,-1.));
#744=DIRECTION('',(2.1350442781253E-16,-1.,0.));
#745=DIRECTION('',(1.,2.1350442781253E-16,0.));
#746=DIRECTION('',(-1.,0.,0.));
#747=DIRECTION('',(0.,0.,1.));
#748=DIRECTION('',(0.,1.,0.));
#749=DIRECTION('',(0.,1.,0.));
#750=DIRECTION('',(0.,0.,1.));
#751=DIRECTION('',(1.,0.,0.));
#752=DIRECTION('',(0.,-1.,0.));
#753=DIRECTION('',(-1.,0.,0.));
#754=DIRECTION('',(0.,-1.,0.));
#755=DIRECTION('',(-1.,0.,0.));
#756=DIRECTION('',(0.,-1.,0.));
#757=DIRECTION('',(0.,0.,1.));
#758=DIRECTION('',(1.,0.,0.));
#759=DIRECTION('',(0.,0.,1.));
#760=DIRECTION('',(1.,0.,0.));
#761=DIRECTION('',(0.,0.,1.));
#762=DIRECTION('',(1.,0.,0.));
#763=DIRECTION('',(0.,0.,1.));
#764=DIRECTION('',(1.,0.,0.));
#765=DIRECTION('',(0.,1.,0.));
#766=DIRECTION('',(1.,0.,0.));
#767=DIRECTION('',(0.,1.,0.));
#768=DIRECTION('',(1.,0.,0.));
#769=DIRECTION('',(-1.,1.73472347597681E-15,0.));
#770=DIRECTION('',(1.61907524424502E-15,1.,0.));
#771=DIRECTION('',(-1.,8.67361737988404E-16,0.));
#772=DIRECTION('',(1.61907524424502E-15,1.,0.));
#773=DIRECTION('',(0.,0.,1.));
#774=DIRECTION('',(1.,0.,0.));
#775=DIRECTION('',(0.,0.,1.));
#776=DIRECTION('',(1.,0.,0.));
#777=DIRECTION('',(0.,0.,1.));
#778=DIRECTION('',(1.,0.,0.));
#779=DIRECTION('',(0.,0.,1.));
#780=DIRECTION('',(1.,0.,0.));
#781=DIRECTION('',(0.,0.,1.));
#782=DIRECTION('',(1.,0.,0.));
#783=DIRECTION('',(0.,0.,1.));
#784=DIRECTION('',(1.,0.,0.));
#785=DIRECTION('',(0.,0.,1.));
#786=DIRECTION('',(1.,0.,0.));
#787=DIRECTION('',(0.,0.,1.));
#788=DIRECTION('',(1.,0.,0.));
#789=DIRECTION('',(0.,0.,1.));
#790=DIRECTION('',(1.,0.,0.));
#791=DIRECTION('',(0.,0.,1.));
#792=DIRECTION('',(1.,0.,0.));
#793=DIRECTION('',(0.,0.,1.));
#794=DIRECTION('',(1.,0.,0.));
#795=DIRECTION('',(0.,0.,1.));
#796=DIRECTION('',(1.,0.,0.));
#797=DIRECTION('',(0.,0.,1.));
#798=DIRECTION('',(1.,0.,0.));
#799=DIRECTION('',(0.,0.,1.));
#800=DIRECTION('',(1.,0.,0.));
#801=DIRECTION('',(0.,0.,1.));
#802=DIRECTION('',(1.,0.,0.));
#803=DIRECTION('',(0.,0.,1.));
#804=DIRECTION('',(1.,0.,0.));
#805=DIRECTION('',(0.,0.,1.));
#806=DIRECTION('',(1.,0.,0.));
#807=DIRECTION('',(0.,0.,1.));
#808=DIRECTION('',(1.,0.,0.));
#809=DIRECTION('',(0.,0.,1.));
#810=DIRECTION('',(1.,0.,0.));
#811=DIRECTION('',(0.,0.,1.));
#812=DIRECTION('',(1.,0.,0.));
#813=DIRECTION('',(0.,0.,1.));
#814=DIRECTION('',(1.,0.,0.));
#815=DIRECTION('',(0.,0.,1.));
#816=DIRECTION('',(1.,0.,0.));
#817=DIRECTION('',(0.,0.,1.));
#818=DIRECTION('',(1.,0.,0.));
#819=DIRECTION('',(0.,0.,1.));
#820=DIRECTION('',(1.,0.,0.));
#821=DIRECTION('',(-1.,1.61907524424502E-15,0.));
#822=DIRECTION('',(-1.61907524424502E-15,-1.,0.));
#823=DIRECTION('',(0.,0.,-1.));
#824=DIRECTION('',(-1.61907524424502E-15,-1.,0.));
#825=DIRECTION('',(0.,-1.,0.));
#826=DIRECTION('',(-1.61907524424502E-15,-1.,0.));
#827=DIRECTION('',(0.,0.,-1.));
#828=DIRECTION('',(-1.73472347597681E-15,-1.,0.));
#829=DIRECTION('',(1.,-1.73472347597681E-15,0.));
#830=DIRECTION('',(0.,0.,-1.));
#831=DIRECTION('',(-1.73472347597681E-15,-1.,0.));
#832=DIRECTION('',(1.,-1.73472347597681E-15,0.));
#833=DIRECTION('',(-1.,1.61907524424502E-15,0.));
#834=DIRECTION('',(-1.61907524424502E-15,-1.,0.));
#835=DIRECTION('',(0.,0.,-1.));
#836=DIRECTION('',(-8.67361737988404E-16,-1.,0.));
#837=DIRECTION('',(1.,-8.67361737988404E-16,0.));
#838=DIRECTION('',(-8.67361737988404E-16,-1.,0.));
#839=DIRECTION('',(1.,-8.67361737988404E-16,0.));
#840=DIRECTION('',(0.,1.,0.));
#841=DIRECTION('',(0.,0.,1.));
#842=DIRECTION('',(0.,0.,-1.));
#843=DIRECTION('',(0.,1.,0.));
#844=DIRECTION('',(0.,0.,1.));
#845=DIRECTION('',(0.,0.,-1.));
#846=DIRECTION('',(-1.,0.,0.));
#847=DIRECTION('',(0.,0.,1.));
#848=DIRECTION('',(0.,0.,-1.));
#849=DIRECTION('',(0.,-1.,0.));
#850=DIRECTION('',(0.,-1.,0.));
#851=DIRECTION('',(0.,-1.,0.));
#852=DIRECTION('',(0.,1.,0.));
#853=DIRECTION('',(0.,0.,1.));
#854=DIRECTION('',(0.,0.,-1.));
#855=DIRECTION('',(0.,1.,0.));
#856=DIRECTION('',(0.,0.,1.));
#857=DIRECTION('',(-1.,0.,0.));
#858=DIRECTION('',(0.,0.,1.));
#859=DIRECTION('',(0.,0.,1.));
#860=DIRECTION('',(1.,0.,0.));
#861=DIRECTION('',(-1.61907524424502E-15,-1.,0.));
#862=DIRECTION('',(1.,-1.61907524424502E-15,0.));
#863=DIRECTION('',(-1.61907524424502E-15,-1.,0.));
#864=DIRECTION('',(1.,-1.61907524424502E-15,0.));
#865=DIRECTION('',(0.,1.,0.));
#866=DIRECTION('',(0.,0.,1.));
#867=DIRECTION('',(0.,1.,0.));
#868=DIRECTION('',(0.,0.,1.));
#869=CARTESIAN_POINT('',(0.,0.,0.));
#870=CARTESIAN_POINT('',(0.,0.,0.003));
#871=CARTESIAN_POINT('',(0.02975,0.031875,0.003));
#872=CARTESIAN_POINT('',(0.0314,0.031875,0.003));
#873=CARTESIAN_POINT('',(0.02975,0.,0.003));
#874=CARTESIAN_POINT('',(0.0314,0.,0.003));
#875=CARTESIAN_POINT('',(0.02975,-0.031875,0.003));
#876=CARTESIAN_POINT('',(0.0314,-0.031875,0.003));
#877=CARTESIAN_POINT('',(-6.93889390390723E-18,0.0425,0.003));
#878=CARTESIAN_POINT('',(0.0325,0.0425,0.003));
#879=CARTESIAN_POINT('',(0.0258,0.0425,0.003));
#880=CARTESIAN_POINT('',(0.0258,-4.17721413015215E-17,0.003));
#881=CARTESIAN_POINT('',(0.0258,0.015,0.003));
#882=CARTESIAN_POINT('',(2.60208521396522E-17,0.015,0.003));
#883=CARTESIAN_POINT('',(0.0268,0.015,0.003));
#884=CARTESIAN_POINT('',(0.0268,-4.33912165457665E-17,0.003));
#885=CARTESIAN_POINT('',(0.0268,-0.015,0.003));
#886=CARTESIAN_POINT('',(-1.3010426069826E-17,-0.015,0.003));
#887=CARTESIAN_POINT('',(0.0258,-0.015,0.003));
#888=CARTESIAN_POINT('',(0.0258,-4.17721413015215E-17,0.003));
#889=CARTESIAN_POINT('',(0.0258,-0.0425,0.003));
#890=CARTESIAN_POINT('',(-6.93889390390723E-18,-0.0425,0.003));
#891=CARTESIAN_POINT('',(0.0325,-0.0425,0.003));
#892=CARTESIAN_POINT('',(0.0325,0.,0.003));
#893=CARTESIAN_POINT('',(-6.93889390390723E-18,-0.0425,0.003));
#894=CARTESIAN_POINT('',(-6.93889390390723E-18,-0.0425,0.));
#895=CARTESIAN_POINT('',(0.0325,-0.0425,0.));
#896=CARTESIAN_POINT('',(-0.0325,-0.0425,0.));
#897=CARTESIAN_POINT('',(0.0325,-0.0425,0.003));
#898=CARTESIAN_POINT('',(0.0258,-0.0425,0.004));
#899=CARTESIAN_POINT('',(0.0248,-0.0425,0.004));
#900=CARTESIAN_POINT('',(0.0248,-0.0425,0.005));
#901=CARTESIAN_POINT('',(0.0248,-0.0425,0.005));
#902=CARTESIAN_POINT('',(-6.93889390390723E-18,-0.0425,0.005));
#903=CARTESIAN_POINT('',(-0.0248,-0.0425,0.005));
#904=CARTESIAN_POINT('',(-0.0248,-0.0425,0.005));
#905=CARTESIAN_POINT('',(-0.0248,-0.0425,0.004));
#906=CARTESIAN_POINT('',(-0.0258,-0.0425,0.004));
#907=CARTESIAN_POINT('',(-0.0258,-0.0425,0.003));
#908=CARTESIAN_POINT('',(-6.93889390390723E-18,-0.0425,0.003));
#909=CARTESIAN_POINT('',(-0.0325,-0.0425,0.003));
#910=CARTESIAN_POINT('',(-0.0325,-0.0425,0.003));
#911=CARTESIAN_POINT('',(0.0325,0.,0.003));
#912=CARTESIAN_POINT('',(0.0325,0.,0.));
#913=CARTESIAN_POINT('',(0.0325,0.0425,0.));
#914=CARTESIAN_POINT('',(0.0325,0.0425,0.003));
#915=CARTESIAN_POINT('',(-6.93889390390723E-18,0.0425,0.003));
#916=CARTESIAN_POINT('',(-6.93889390390723E-18,0.0425,0.));
#917=CARTESIAN_POINT('',(-0.0325,0.0425,0.));
#918=CARTESIAN_POINT('',(-0.0325,0.0425,0.003));
#919=CARTESIAN_POINT('',(-0.0325,0.0425,0.003));
#920=CARTESIAN_POINT('',(-6.93889390390723E-18,0.0425,0.003));
#921=CARTESIAN_POINT('',(-0.0258,0.0425,0.003));
#922=CARTESIAN_POINT('',(-0.0258,0.0425,0.004));
#923=CARTESIAN_POINT('',(-0.0248,0.0425,0.004));
#924=CARTESIAN_POINT('',(-0.0248,0.0425,0.005));
#925=CARTESIAN_POINT('',(-0.0248,0.0425,0.005));
#926=CARTESIAN_POINT('',(-6.93889390390723E-18,0.0425,0.005));
#927=CARTESIAN_POINT('',(0.0248,0.0425,0.005));
#928=CARTESIAN_POINT('',(0.0248,0.0425,0.005));
#929=CARTESIAN_POINT('',(0.0248,0.0425,0.004));
#930=CARTESIAN_POINT('',(0.0258,0.0425,0.004));
#931=CARTESIAN_POINT('',(-0.0325,-6.93889390390723E-18,0.003));
#932=CARTESIAN_POINT('',(-0.0325,-6.93889390390723E-18,0.));
#933=CARTESIAN_POINT('',(-0.0325,-6.93889390390723E-18,0.003));
#934=CARTESIAN_POINT('',(0.,0.,0.003));
#935=CARTESIAN_POINT('',(-0.0258,-0.015,0.003));
#936=CARTESIAN_POINT('',(-0.0258,-0.015,0.003));
#937=CARTESIAN_POINT('',(0.,-0.015,0.003));
#938=CARTESIAN_POINT('',(-0.0268,-0.015,0.003));
#939=CARTESIAN_POINT('',(-0.0268,0.,0.003));
#940=CARTESIAN_POINT('',(-0.0268,0.015,0.003));
#941=CARTESIAN_POINT('',(0.,0.015,0.003));
#942=CARTESIAN_POINT('',(-0.0258,0.015,0.003));
#943=CARTESIAN_POINT('',(-0.0258,0.0425,0.003));
#944=CARTESIAN_POINT('',(-0.02975,0.031875,0.003));
#945=CARTESIAN_POINT('',(-0.0281,0.031875,0.003));
#946=CARTESIAN_POINT('',(-0.02975,-0.031875,0.003));
#947=CARTESIAN_POINT('',(-0.0281,-0.031875,0.003));
#948=CARTESIAN_POINT('',(-0.02975,-1.05018982887286E-18,0.003));
#949=CARTESIAN_POINT('',(-0.0281,-1.05018982887286E-18,0.003));
#950=CARTESIAN_POINT('',(0.,0.,0.));
#951=CARTESIAN_POINT('',(-0.0248,-0.0075,0.));
#952=CARTESIAN_POINT('',(-0.0248,-0.015,0.));
#953=CARTESIAN_POINT('',(-0.0248,0.015,0.));
#954=CARTESIAN_POINT('',(-0.0258,0.015,0.));
#955=CARTESIAN_POINT('',(-0.0268,0.015,0.));
#956=CARTESIAN_POINT('',(-0.0268,-0.0075,0.));
#957=CARTESIAN_POINT('',(-0.0268,-0.015,0.));
#958=CARTESIAN_POINT('',(-0.0258,-0.015,0.));
#959=CARTESIAN_POINT('',(0.0258,0.015,0.));
#960=CARTESIAN_POINT('',(0.0268,0.015,0.));
#961=CARTESIAN_POINT('',(0.0248,0.015,0.));
#962=CARTESIAN_POINT('',(0.0248,-0.0075,0.));
#963=CARTESIAN_POINT('',(0.0248,-0.015,0.));
#964=CARTESIAN_POINT('',(0.0258,-0.015,0.));
#965=CARTESIAN_POINT('',(0.0268,-0.015,0.));
#966=CARTESIAN_POINT('',(0.0268,-0.0075,0.));
#967=CARTESIAN_POINT('',(0.01525,0.01525,0.));
#968=CARTESIAN_POINT('',(0.0169,0.01525,0.));
#969=CARTESIAN_POINT('',(0.01525,-0.01525,0.));
#970=CARTESIAN_POINT('',(0.0169,-0.01525,0.));
#971=CARTESIAN_POINT('',(-0.01525,-0.01525,0.));
#972=CARTESIAN_POINT('',(-0.0136,-0.01525,0.));
#973=CARTESIAN_POINT('',(-0.01525,0.01525,0.));
#974=CARTESIAN_POINT('',(-0.0136,0.01525,0.));
#975=CARTESIAN_POINT('',(-0.02975,0.031875,0.));
#976=CARTESIAN_POINT('',(-0.0281,0.031875,0.));
#977=CARTESIAN_POINT('',(-0.02975,-0.031875,0.));
#978=CARTESIAN_POINT('',(-0.0281,-0.031875,0.));
#979=CARTESIAN_POINT('',(0.02975,-0.031875,0.));
#980=CARTESIAN_POINT('',(0.0314,-0.031875,0.));
#981=CARTESIAN_POINT('',(0.02975,0.,0.));
#982=CARTESIAN_POINT('',(0.0314,0.,0.));
#983=CARTESIAN_POINT('',(0.02975,0.031875,0.));
#984=CARTESIAN_POINT('',(0.0314,0.031875,0.));
#985=CARTESIAN_POINT('',(-0.02975,-1.05018982887286E-18,0.));
#986=CARTESIAN_POINT('',(-0.0281,-1.05018982887286E-18,0.));
#987=CARTESIAN_POINT('',(-0.02975,-1.05018982887286E-18,-0.022));
#988=CARTESIAN_POINT('',(0.02975,0.031875,-0.022));
#989=CARTESIAN_POINT('',(0.02975,0.,-0.022));
#990=CARTESIAN_POINT('',(0.02975,-0.031875,-0.022));
#991=CARTESIAN_POINT('',(-0.02975,-0.031875,-0.022));
#992=CARTESIAN_POINT('',(-0.02975,0.031875,-0.022));
#993=CARTESIAN_POINT('',(-0.01525,0.01525,-0.022));
#994=CARTESIAN_POINT('',(-0.01525,0.01525,0.005));
#995=CARTESIAN_POINT('',(-0.0136,0.01525,0.005));
#996=CARTESIAN_POINT('',(-0.01525,-0.01525,-0.022));
#997=CARTESIAN_POINT('',(-0.01525,-0.01525,0.005));
#998=CARTESIAN_POINT('',(-0.0136,-0.01525,0.005));
#999=CARTESIAN_POINT('',(0.01525,-0.01525,-0.022));
#1000=CARTESIAN_POINT('',(0.01525,-0.01525,0.005));
#1001=CARTESIAN_POINT('',(0.0169,-0.01525,0.005));
#1002=CARTESIAN_POINT('',(0.01525,0.01525,-0.022));
#1003=CARTESIAN_POINT('',(0.01525,0.01525,0.005));
#1004=CARTESIAN_POINT('',(0.0169,0.01525,0.005));
#1005=CARTESIAN_POINT('',(0.0248,-0.0075,0.025));
#1006=CARTESIAN_POINT('',(0.0248,0.015,0.025));
#1007=CARTESIAN_POINT('',(0.0248,0.015,0.004));
#1008=CARTESIAN_POINT('',(0.0248,-0.0075,0.004));
#1009=CARTESIAN_POINT('',(0.0248,0.,0.005));
#1010=CARTESIAN_POINT('',(0.0248,-0.0075,0.004));
#1011=CARTESIAN_POINT('',(0.0248,-0.015,0.004));
#1012=CARTESIAN_POINT('',(0.0248,-0.015,0.025));
#1013=CARTESIAN_POINT('',(0.0258,0.015,0.025));
#1014=CARTESIAN_POINT('',(0.0268,0.015,0.025));
#1015=CARTESIAN_POINT('',(0.0258,0.015,0.004));
#1016=CARTESIAN_POINT('',(0.0268,-0.0075,0.025));
#1017=CARTESIAN_POINT('',(0.0268,-0.015,0.025));
#1018=CARTESIAN_POINT('',(0.0258,-0.015,0.025));
#1019=CARTESIAN_POINT('',(0.0258,-0.015,0.004));
#1020=CARTESIAN_POINT('',(-0.0258,0.015,0.025));
#1021=CARTESIAN_POINT('',(-0.0248,0.015,0.025));
#1022=CARTESIAN_POINT('',(-0.0248,0.015,0.004));
#1023=CARTESIAN_POINT('',(-0.0258,0.015,0.004));
#1024=CARTESIAN_POINT('',(-0.0268,0.015,0.025));
#1025=CARTESIAN_POINT('',(-0.0248,-0.0075,0.025));
#1026=CARTESIAN_POINT('',(-0.0248,-0.015,0.025));
#1027=CARTESIAN_POINT('',(-0.0248,-0.015,0.004));
#1028=CARTESIAN_POINT('',(-0.0248,-0.0425,0.004));
#1029=CARTESIAN_POINT('',(-0.0248,0.,0.005));
#1030=CARTESIAN_POINT('',(-0.0248,0.015,0.004));
#1031=CARTESIAN_POINT('',(-0.0258,-0.015,0.025));
#1032=CARTESIAN_POINT('',(-0.0268,-0.015,0.025));
#1033=CARTESIAN_POINT('',(-0.0258,-0.015,0.004));
#1034=CARTESIAN_POINT('',(-0.0268,-0.0075,0.025));
#1035=CARTESIAN_POINT('',(0.,0.,0.005));
#1036=CARTESIAN_POINT('',(0.0258,-4.17721413015215E-17,0.004));
#1037=CARTESIAN_POINT('',(0.0258,-4.17721413015215E-17,0.004));
#1038=CARTESIAN_POINT('',(-0.0258,-0.0075,0.004));
#1039=CARTESIAN_POINT('',(-0.0258,-0.0075,0.004));
#1040=MECHANICAL_DESIGN_GEOMETRIC_PRESENTATION_REPRESENTATION('',(#629),
#1041);
#1041=(
GEOMETRIC_REPRESENTATION_CONTEXT(3)
GLOBAL_UNCERTAINTY_ASSIGNED_CONTEXT((#1042))
GLOBAL_UNIT_ASSIGNED_CONTEXT((#1045,#1044,#1043))
REPRESENTATION_CONTEXT('Part 1','TOP_LEVEL_ASSEMBLY_PART')
);
#1042=UNCERTAINTY_MEASURE_WITH_UNIT(LENGTH_MEASURE(1.E-8),#1045,
'DISTANCE_ACCURACY_VALUE','Maximum Tolerance applied to model');
#1043=(
NAMED_UNIT(*)
SI_UNIT($,.STERADIAN.)
SOLID_ANGLE_UNIT()
);
#1044=(
NAMED_UNIT(*)
PLANE_ANGLE_UNIT()
SI_UNIT($,.RADIAN.)
);
#1045=(
LENGTH_UNIT()
NAMED_UNIT(*)
SI_UNIT($,.METRE.)
);
#1046=PRODUCT_DEFINITION_SHAPE('','',#1047);
#1047=PRODUCT_DEFINITION('','',#1049,#1048);
#1048=PRODUCT_DEFINITION_CONTEXT('',#1055,'design');
#1049=PRODUCT_DEFINITION_FORMATION_WITH_SPECIFIED_SOURCE('','',#1051,
 .NOT_KNOWN.);
#1050=PRODUCT_RELATED_PRODUCT_CATEGORY('','',(#1051));
#1051=PRODUCT('Part 1','Part 1','Part 1',(#1053));
#1052=PRODUCT_CATEGORY('','');
#1053=PRODUCT_CONTEXT('',#1055,'mechanical');
#1054=APPLICATION_PROTOCOL_DEFINITION('international standard',
'ap242_managed_model_based_3d_engineering',2020,#1055);
#1055=APPLICATION_CONTEXT('managed model based 3d engineering');
ENDSEC;
END-ISO-10303-21;
